<?xml version="1.0" encoding="UTF-8" standalone="no"?>
<svg
   xmlns:dc="http://purl.org/dc/elements/1.1/"
   xmlns:cc="http://creativecommons.org/ns#"
   xmlns:rdf="http://www.w3.org/1999/02/22-rdf-syntax-ns#"
   xmlns:svg="http://www.w3.org/2000/svg"
   xmlns="http://www.w3.org/2000/svg"
   version="1.1"
   id="svg14124"
   viewBox="0 0 320.00076 311.39108"
   height="87.881477mm"
   width="90.311317mm">
  <defs
     id="defs14126" />
  <metadata
     id="metadata14129">
    <rdf:RDF>
      <cc:Work
         rdf:about="">
        <dc:format>image/svg+xml</dc:format>
        <dc:type
           rdf:resource="http://purl.org/dc/dcmitype/StillImage" />
        <dc:title></dc:title>
      </cc:Work>
    </rdf:RDF>
  </metadata>
  <g
     transform="translate(318.74256,-602.48492)"
     id="layer1">
    <path
       id="path14749"
       d="m -62.217261,912.94878 c -0.115156,-0.0798 -32.062622,-0.47675 -70.994369,-0.88212 -38.93176,-0.40537 -88.48126,-1.28591 -110.11001,-1.95676 -21.62875,-0.67085 -46.24045,-1.36289 -54.69269,-1.53788 -8.45221,-0.17498 -15.87911,-0.86265 -16.50422,-1.52815 -1.33478,-1.42103 -4.43122,-67.51419 -4.10986,-87.72501 0.24593,-15.4683 0.20852,-32.24246 -0.0944,-42.35 -0.21743,-7.25379 1.41544,-44.35859 2.20982,-50.21502 0.60709,-4.47577 1.69859,-31.69098 2.40214,-59.895 1.07055,-42.91589 2.02321,-62.34331 3.1119,-63.45897 1.12462,-1.15254 155.474,-1.24833 167.50235,-0.10395 8.3793,0.7972 86.650703,2.4397 116.737736,2.44969 l 24.7777383,0.009 1.52149029,3.15159 c 3.21506681,6.6597 1.66527461,141.45353 -2.55836349,222.51343 -0.9189103,17.63575 -1.7700727,35.60425 -1.8914599,39.93 -0.1213993,4.32575 -0.7250441,10.5257 -1.3414302,13.77766 -0.6163861,3.25197 -1.120702,11.05077 -1.120702,17.33069 l 0,11.41802 -27.318139,-0.39067 c -15.024984,-0.21489 -27.412359,-0.45598 -27.527502,-0.53578 z m 44.584164,-11.38797 c 1.231393,-1.99243 2.81711,-21.85378 3.523084,-44.12694 1.656164,-52.25118 3.369959,-239.88056 2.197675,-240.60506 -4.194465,-2.59233 -260.345232,-4.74276 -264.847022,-2.22344 -2.97979,1.66758 20.84224,2.54325 50.98272,1.87406 37.46361,-0.83178 75.38365,-0.73258 76.89447,0.20117 0.70308,0.43452 24.84736,1.01693 53.653955,1.29426 53.017979,0.5104 74.926778,2.02348 76.961138,5.31514 2.254085,3.64719 2.867471,30.03184 2.589255,111.37701 -0.162842,47.60976 -0.531299,89.26401 -0.818807,92.56501 -0.287508,3.30102 -0.826454,13.35259 -1.197646,22.33685 -0.371203,8.98425 -1.144865,19.602 -1.719252,23.595 -0.574387,3.993 -1.11268,10.51777 -1.196206,14.49949 -0.08349,3.98173 -0.641663,7.72928 -1.240299,8.32793 -1.846363,1.84636 -163.365748,1.08367 -213.606608,-1.00865 -24.16684,-1.00645 -59.03987,-3.0153 -59.44913,-3.42455 -0.18021,-0.18023 -0.42067,-23.17789 -0.53434,-51.10596 -0.11361,-27.92805 -0.72271,-55.40652 -1.35341,-61.06327 -1.49944,-13.44842 -1.38827,-65.9045 0.18996,-89.62363 0.68329,-10.26926 1.48871,-23.84414 1.78983,-30.16639 2.24313,-47.09741 2.22805,-44.77 0.29,-44.77 -3.78795,0 -5.61937,1.55482 -6.19497,5.25934 -1.14612,7.37652 -3.21657,120.89126 -3.13727,172.00568 0.12193,78.59963 -0.11701,98.05329 -1.2086,98.42055 -2.51362,0.84563 -4.95094,4.16459 -3.8597,5.25583 0.60662,0.60662 25.5525,1.60355 55.43528,2.21541 29.8828,0.61186 60.5941,1.45795 68.24735,1.88021 7.65325,0.42227 47.57172,0.92803 88.707703,1.1239 41.135982,0.19589 75.121865,0.68533 75.524178,1.08764 1.098922,1.09891 2.511814,0.88276 3.376662,-0.51659 z m -93.910673,-9.19601 c 3.78658,-0.75732 3.93075,-0.94548 1.87572,-2.44815 -1.22435,-0.89528 -1.57754,-1.62778 -0.78485,-1.62778 0.7927,0 1.44127,-0.5445 1.44127,-1.21 0,-0.6655 -1.14725,-1.21 -2.54946,-1.21 -1.64669,0 -2.32686,0.58005 -1.92087,1.63808 0.63695,1.65986 -0.60504,1.75767 -11.25967,0.88683 -3.97172,-0.32462 -4.04695,-0.40636 -1.21,-1.31491 2.59291,-0.83039 2.67069,-0.986 0.5445,-1.08939 -1.36428,-0.0663 -3.09845,0.49733 -3.85372,1.2526 -1.6851,1.68512 -12.67801,2.27828 -19.14657,1.03312 -2.62307,-0.50491 -3.54409,-0.98065 -2.04671,-1.05718 1.49737,-0.0765 2.7225,-0.60295 2.7225,-1.1698 0,-1.23472 -16.38908,-2.62952 -29.04001,-2.47149 -14.03832,0.17536 -5.52289,2.02775 9.9825,2.17153 7.15412,0.0663 13.00751,0.60056 13.00751,1.18716 0,0.5866 -11.02614,1.03393 -24.50251,0.99407 -36.3329,-0.10747 -48.0975,0.23932 -48.0975,1.4178 0,2.36188 104.39975,5.10513 114.83787,3.01751 z m 57.133877,-2.53367 c 1.16062,-1.16062 1.829048,-12.06482 0.802496,-13.09136 -1.346875,-1.34687 -25.955326,2.155 -29.957885,4.26313 -2.349239,1.23733 -6.040975,2.97127 -8.20385,3.8532 -2.162875,0.88193 -3.931467,1.87897 -3.930213,2.21564 0.0011,0.33668 3.838943,0.75738 8.528178,0.9349 4.689234,0.17752 10.269331,1.11998 12.400216,2.09436 4.218229,1.92882 18.349663,1.74153 20.361058,-0.26987 z m 29.190774,-0.93726 c -0.166375,-0.6655 -0.847,-1.15555 -1.5125,-1.089 -0.6655,0.0665 -5.566006,0.20267 -10.890007,0.3025 -10.475018,0.19641 -13.30216,2.23648 -3.9325,2.8377 7.929373,0.5088 16.699688,-0.59249 16.335007,-2.0512 z m -240.132971,-0.80411 c 0.48675,-2.52631 -1.44648,-3.09262 -14.1446,-4.14351 -7.48808,-0.61971 -9.93547,-0.47746 -9.30609,0.54088 0.46966,0.75996 2.72757,1.38174 5.01754,1.38174 2.28998,0 4.1636,0.5445 4.1636,1.21 0,0.6655 -0.78462,1.21 -1.7436,1.21 -0.95897,0 -1.99509,0.40837 -2.30249,0.9075 -0.30739,0.49912 3.60055,0.9075 8.68435,0.9075 7.66025,0 9.30968,-0.34493 9.63129,-2.01411 z m 32.92045,0.33827 c 0,-2.60009 -6.41206,-5.23056 -10.97248,-4.50132 -2.61545,0.41823 -4.93586,0.21254 -5.36091,-0.47521 -1.18437,-1.91636 -6.3215,-1.41119 -7.13215,0.70133 -1.92395,5.01372 -1.21742,5.34604 11.36554,5.34604 6.655,0 12.1,-0.48188 12.1,-1.07084 z m 9.68,-3.76916 c 0,-1.52994 -2.47261,-1.52994 -4.84,0 -1.41434,0.91401 -1.08046,1.17703 1.5125,1.19147 1.83012,0.01 3.3275,-0.52597 3.3275,-1.19147 z m 14.84552,-0.79369 c -0.8192,-0.33144 -2.4527,-0.35161 -3.63,-0.0449 -1.17729,0.30678 -0.50702,0.57798 1.48948,0.60263 1.9965,0.0246 2.95973,-0.22634 2.14052,-0.5578 z m 183.594501,-1.76743 c 0,-2.10107 -0.489046,-2.40851 -2.7225,-1.71146 -1.497375,0.46731 -7.214631,1.14359 -12.705007,1.50285 -5.490375,0.35926 -9.982501,1.12942 -9.982501,1.71146 0,0.58205 5.717251,1.05827 12.705001,1.05827 12.131696,0 12.705007,-0.11556 12.705007,-2.56112 z m -78.053371,0.12758 c -0.4207,-0.68068 -6.31598,-1.14447 -13.67555,-1.07585 -15.33768,0.14301 -12.24681,1.88008 3.76445,2.11563 6.74981,0.0993 10.37972,-0.28152 9.9111,-1.03978 z m -32.05664,-1.19646 c 0,-0.6655 -1.76963,-1.23094 -3.9325,-1.25651 -2.16288,-0.0255 -7.06338,-0.28877 -10.89,-0.58486 -6.96042,-0.53858 -9.90569,1.23401 -3.63,2.18471 6.92211,1.04861 18.4525,0.83406 18.4525,-0.34334 z m -139.75501,-1.86303 c -13.74852,-1.96812 -15.125,-2.02485 -15.125,-0.62327 0,1.22215 6.97331,2.00896 18.755,2.11615 6.84927,0.0623 6.64389,-0.0221 -3.63,-1.49288 z m 112.5535,0.61499 c 0.6705,-1.08488 -5.91156,-3.59196 -9.43026,-3.59196 -2.54963,0 -13.69438,-4.43589 -22.65824,-9.01854 -4.46009,-2.28016 -7.04205,-2.72743 -14.2741,-2.47265 -10.47359,0.36898 -13.14079,1.74978 -3.77508,1.95434 3.6048,0.0788 8.18768,0.50094 10.18418,0.93823 l 3.63,0.79506 -3.9325,2.34767 c -2.16288,1.29122 -3.9325,2.7782 -3.9325,3.30442 0,0.52621 5.23019,0.90186 11.62264,0.83474 6.96802,-0.0731 12.15301,0.40838 12.947,1.20237 1.44944,1.44944 1.90308,1.40234 -17.30964,1.79724 -27.71821,0.56972 -31.46,0.79884 -31.46,1.92638 0,1.42433 67.50809,1.40724 68.3885,-0.0173 z m 124.521499,-1.0344 c 0.838688,-1.35703 -3.412865,-2.51962 -9.292485,-2.54104 -4.937854,-0.0179 -6.208148,1.91338 -1.815,2.75955 5.031325,0.96907 10.439263,0.86269 11.107485,-0.21851 z m -51.684599,-1.16782 c 3.821363,-0.13467 6.172986,-1.12149 9.377502,-3.93509 3.313524,-2.9093 4.27711,-3.29859 4.27711,-1.72793 0,1.75322 0.940956,1.92041 6.9575,1.23623 10.846683,-1.23345 10.784561,-1.18782 12.811408,-9.40978 1.019341,-4.135 2.697078,-10.78517 3.728313,-14.77817 1.926392,-7.45908 2.587078,-30.84791 1.121888,-39.71537 -0.681339,-4.12351 -1.073754,-4.54769 -3.61669,-3.90945 -2.239081,0.56197 -2.852418,0.22668 -2.852418,-1.55936 0,-1.72455 0.676499,-2.14593 2.795064,-1.74094 2.224076,0.42516 4.008899,-0.90682 8.737048,-6.52029 3.268089,-3.88004 7.923975,-9.02228 10.346408,-11.42721 3.558937,-3.53323 4.785199,-6.05869 6.387959,-13.15593 1.090948,-4.83082 1.983529,-11.43902 1.983529,-14.68489 0,-5.79008 0.800039,-6.7305 5.1425,-6.04486 0.499125,0.0788 0.9075,-0.40121 0.9075,-1.06671 0,-0.6655 -1.6335,-1.21 -3.63,-1.21 -3.351204,0 -3.6459,-0.3485 -3.836971,-4.5375 -0.332314,-7.28556 -0.42321,-7.88365 -2.108225,-13.87182 -1.915877,-6.80866 -0.117733,-19.51126 3.710568,-26.21209 1.284027,-2.2475 2.175979,-5.08022 1.982113,-6.29493 -0.193867,-1.2147 0.665004,-2.95502 1.908593,-3.86737 2.409183,-1.76747 2.438102,-1.46995 -1.790921,-18.42131 -0.66412,-2.662 -1.615725,-7.018 -2.114693,-9.68 -1.610679,-8.59293 -4.036347,-12.705 -7.494576,-12.705 -1.70685,0 -4.160308,0.79944 -5.452128,1.77653 -3.325854,2.51554 -4.163767,2.27979 -4.163767,-1.17153 0,-1.66375 -0.680625,-3.11653 -1.5125,-3.22841 -0.831875,-0.11192 1.7545,-0.52025 5.7475,-0.9075 5.333742,-0.51727 7.260001,-1.18565 7.260001,-2.51909 0,-1.2239 -1.477737,-1.9373 -4.537501,-2.19055 -2.495625,-0.20654 -4.5375,-0.78309 -4.5375,-1.28122 0,-0.49814 -0.723725,-1.89546 -1.608296,-3.10516 -1.257879,-1.72027 -2.118419,-1.92645 -3.949694,-0.94638 -1.721806,0.92149 -2.958403,0.80192 -4.672973,-0.45181 -3.495109,-2.55567 -6.797671,-2.07273 -10.575327,1.5465 -4.645711,4.45088 -4.271507,5.96001 1.748789,7.05264 2.828375,0.51334 4.245503,1.1566 3.149182,1.42946 -1.096332,0.27288 -2.27048,1.55598 -2.609232,2.85134 -0.813047,3.1091 -2.8106,3.00377 -3.646384,-0.19229 -0.373467,-1.42813 -1.365897,-2.3007 -2.258623,-1.98585 -2.083983,0.73501 -1.490042,8.02241 0.866034,10.62583 2.17327,2.40145 2.358025,5.26591 0.264022,4.09346 -0.831875,-0.46578 -0.538837,0.18272 0.651198,1.44108 3.340653,3.53251 15.360359,3.06145 23.548804,-0.92285 3.493875,-1.70004 6.352501,-2.81348 6.352501,-2.4743 0,0.33917 -1.291251,2.30959 -2.869443,4.3787 -2.749205,3.60441 -16.522564,10.21276 -25.263059,12.12103 -1.830126,0.39957 -3.327501,1.43045 -3.327501,2.29087 0,1.61567 -6.314639,6.8595 -8.26021,6.8595 -0.604008,0 -2.539539,2.178 -4.301165,4.84 -1.761627,2.662 -3.890973,4.84 -4.731887,4.84 -0.840902,0 -2.466984,1.09559 -3.61352,2.43463 -1.905146,2.22505 -3.238929,2.39522 -15.49394,1.97674 -14.32568,-0.48919 -15.95202,0.14378 -13.26572,5.16316 1.03298,1.93017 0.90863,3.33758 -0.54291,6.14455 -2.65439,5.13301 -3.44609,4.53442 -2.7045,-2.04485 1.02881,-9.12762 -0.22045,-10.87391 -9.40115,-13.14153 -0.6655,-0.16438 -2.16288,-0.68199 -3.3275,-1.15025 -1.16463,-0.46823 -2.1175,-0.37771 -2.1175,0.20117 0,1.03605 3.40977,3.17312 7.5625,4.73979 3.75105,1.41512 2.27865,2.72904 -4.84,4.31902 -5.40925,1.20818 -6.21703,1.64905 -3.63,1.98115 3.87357,0.49727 4.4188,2.62761 0.9075,3.54583 -4.31366,1.12804 -2.56264,2.77059 2.95359,2.77059 6.96529,0 8.15103,1.96661 1.82966,3.03459 -2.88923,0.48814 -4.71822,1.40296 -4.44787,2.22473 0.70656,2.14763 5.34304,2.3633 9.22063,0.42891 1.9205,-0.95808 5.45256,-1.58638 7.849,-1.39623 2.39646,0.19014 4.66559,-0.15328 5.0425,-0.76314 1.1579,-1.87352 4.17249,-1.22784 4.17249,0.89368 0,1.82407 0.20844,1.8139 2.33874,-0.11398 1.67072,-1.51199 3.36678,-1.89072 5.938097,-1.32596 3.056768,0.67137 4.266808,0.1231 8.026931,-3.63702 4.979188,-4.97919 7.004897,-4.68009 3.900122,0.57586 -2.524703,4.27398 -2.568855,5.04024 -0.23889,4.14616 0.99825,-0.38308 1.824401,-1.31886 1.835908,-2.07954 0.0121,-0.76066 1.372745,-2.66531 3.025,-4.23254 2.380663,-2.25816 3.004092,-2.44649 3.004092,-0.9075 0,1.0681 0.446586,1.942 0.992405,1.942 0.970759,0 7.073723,-7.07102 9.109233,-10.55415 0.814584,-1.39389 1.379594,-1.07647 2.735338,1.53674 1.285904,2.47857 1.369454,3.70228 0.337699,4.94546 -0.754047,0.90858 -0.854732,1.65195 -0.223753,1.65195 1.727832,0 5.677926,-4.67748 10.139801,-12.00698 2.197046,-3.60908 4.19749,-5.9534 4.445431,-5.20958 0.247941,0.74382 -0.173139,2.51821 -0.935717,3.94311 -0.762578,1.42488 -1.032892,2.94432 -0.600716,3.3765 0.974957,0.97497 4.710773,-3.66141 8.112446,-10.06805 3.543194,-6.67318 4.147807,-3.43329 0.83035,4.44948 -5.098916,12.11579 -13.42189,21.41336 -22.435544,25.06272 -2.779321,1.12525 -4.490987,3.09605 -6.247956,7.19383 -3.986662,9.29807 -4.339752,13.67339 -1.638473,20.30295 1.324684,3.25106 2.796116,7.00003 3.269856,8.33103 0.89546,2.51583 1.005631,2.3533 2.460692,-3.63 l 0.882768,-3.63 1.459586,5.445 1.459587,5.445 1.068224,-7.26 1.068214,-7.26 0.627772,5.7772 c 0.852868,7.84886 2.854269,7.30115 3.934315,-1.07671 0.956638,-7.42045 2.138445,-10.12964 2.138445,-4.90217 0,1.77467 0.5445,3.22667 1.21,3.22667 0.673679,0 1.226311,-3.35202 1.246796,-7.5625 0.05142,-10.56241 1.891823,-6.48175 2.94347,6.52634 0.834573,10.32313 0.800621,10.5091 -2.616044,14.33303 -2.699365,3.02111 -4.519374,3.91535 -8.265413,4.06116 -4.155117,0.16172 -4.855163,0.59545 -5.184113,3.21197 -0.209161,1.66375 -1.434286,5.90405 -2.7225,9.42288 -2.960725,8.08744 -2.945648,10.65412 0.0778,13.24288 2.492358,2.13401 3.361888,7.58424 1.21,7.58424 -0.6655,0 -1.21,-1.089 -1.21,-2.42 0,-1.331 -0.5445,-2.42 -1.21,-2.42 -2.115709,0 -1.350772,7.05776 0.9075,8.37307 1.175164,0.68448 1.444401,1.24971 0.605,1.27013 -0.831875,0.0202 -1.5125,1.19875 -1.5125,2.61891 0,3.24768 -2.496775,12.16447 -3.833982,13.69239 -0.553309,0.63222 -1.011306,3.35472 -1.017767,6.05 -0.0085,3.76594 -0.989504,6.1305 -4.235003,10.21329 -2.322788,2.92203 -4.22325,5.83272 -4.22325,6.46821 0,0.63548 -1.072907,2.66218 -2.384245,4.5038 -2.950078,4.143 -2.264335,4.89021 4.487975,4.89021 l 5.330401,0 -0.831488,-6.65501 c -0.68175,-5.45654 -0.507377,-6.655 0.968292,-6.655 1.969989,0 2.698167,3.31266 4.019826,18.28721 0.624554,7.07628 0.437754,9.44416 -0.80569,10.21265 -0.890331,0.55026 -8.309448,0.86935 -16.486931,0.70913 -9.350422,-0.18322 -14.868137,0.16006 -14.868137,0.92501 0,1.79859 7.841982,2.94747 14.630698,2.14345 5.688974,-0.67377 7.63734,0.38862 4.426799,2.41382 -0.831875,0.52475 -9.952253,0.97657 -20.267497,1.00404 -17.39695,0.0463 -22.59427,0.73069 -21.3093,2.80581 0.44158,0.71311 22.42086,0.94425 37.904687,0.39863 z m 20.689782,-34.03659 c -0.80413,-5.25399 -0.499888,-7.20123 0.905552,-5.79577 0.374398,0.3744 0.510523,3.05152 0.3025,5.94917 l -0.378222,5.26845 z m 6.498657,-5.0667 c -0.123106,-3.10669 -0.576214,-6.64594 -1.006914,-7.865 -0.594898,-1.68381 -0.432866,-1.89451 0.674224,-0.87674 0.911759,0.8382 1.288711,3.78249 1.006914,7.865 l -0.450399,6.52528 z m -1.433827,-39.72646 c 0,-3.01376 0.478157,-4.68731 1.210001,-4.235 0.6655,0.4113 1.21,2.31705 1.21,4.235 0,1.91794 -0.5445,3.82369 -1.21,4.235 -0.731844,0.4523 -1.210001,-1.22125 -1.210001,-4.235 z m 6.050001,-4.235 c 0,-0.99825 0.214,-1.815 0.475542,-1.815 0.261554,0 0.788956,0.81675 1.17203,1.815 0.383062,0.99825 0.169061,1.815 -0.475542,1.815 -0.644615,0 -1.17203,-0.81675 -1.17203,-1.815 z m 1.730227,-16.19783 c 0.36467,-0.59007 2.665884,-1.44857 5.113811,-1.9078 2.447916,-0.45923 6.210399,-2.17712 8.361065,-3.81751 4.627851,-3.52983 5.870352,-10.0815 3.471877,-18.30719 -1.7303,-5.93416 -0.504304,-5.85569 2.345647,0.15013 3.113051,6.56026 1.496733,14.22153 -4.249509,20.14264 -4.098972,4.22371 -5.345562,4.81256 -10.188189,4.81256 -3.034765,0 -5.219384,-0.48278 -4.854702,-1.07283 z m -13.734699,-32.303 c 0.05808,-1.4096 0.344778,-1.6963 0.731034,-0.73105 0.349533,0.87347 0.306553,1.91709 -0.09547,2.31917 -0.402083,0.40208 -0.688055,-0.31258 -0.635516,-1.58812 z m 12.609472,-86.41419 c 0.411303,-0.6655 2.349191,-1.21 4.306414,-1.21 1.957223,0 3.558587,0.5445 3.558587,1.21 0,0.6655 -1.937889,1.21 -4.306415,1.21 -2.562817,0 -4.003624,-0.4899 -3.558586,-1.21 z M -263.36501,876.31565 c 1.01832,-1.64767 -1.58856,-2.25886 -13.6636,-3.20347 -12.80747,-1.00192 -15.14024,0.77874 -3.50053,2.67204 10.15605,1.65197 16.35303,1.84385 17.16413,0.53143 z m 238.90963,-0.55856 c 1.487683,-1.79253 0.518413,-9.24822 -1.202316,-9.24822 -0.970614,0 -7.123929,8.86294 -7.123929,10.26096 0,1.3804 7.051982,0.52266 8.326245,-1.01274 z m -224.26624,-5.92072 c -0.47946,-3.49388 -1.08237,-7.71375 -1.3398,-9.3775 -0.25741,-1.66375 -0.73341,-7.65325 -1.05776,-13.31 -0.51296,-8.94635 -0.43874,-9.49757 0.57033,-4.23501 1.21935,6.35928 2.02545,11.88171 2.25195,15.42751 0.0745,1.16462 0.89375,2.1175 1.8208,2.1175 1.62365,0 3.15446,2.4687 3.15446,5.08712 0,0.76243 -0.71605,0.66494 -1.815,-0.24712 -1.54744,-1.28424 -1.815,-0.94933 -1.815,2.27185 0,2.07798 0.57664,3.77815 1.28141,3.77815 0.70477,0 0.94489,-0.5445 0.53359,-1.21 -0.4113,-0.6655 -0.14732,-1.21 0.58663,-1.21 0.73395,0 1.2247,0.68062 1.09057,1.5125 -0.33581,2.08262 1.41546,5.8485 2.42858,5.22236 0.45496,-0.28117 0.72799,-7.49269 0.60672,-16.02555 -0.1871,-13.16432 -0.51489,-15.57357 -2.164,-15.90554 -1.58718,-0.31949 -1.9435,0.77123 -1.9435,5.94917 0,3.48722 -0.34578,5.99463 -0.76838,5.57203 -0.96983,-0.96986 -1.30302,-4.18711 -1.49721,-14.45748 -0.12075,-6.3847 -0.55059,-8.1675 -1.96941,-8.1675 -0.99825,0 -1.815,0.81675 -1.815,1.815 0,3.74609 -2.33828,1.6354 -3.01606,-2.7225 -0.82754,-5.32087 -3.13215,-10.29549 -4.84894,-10.46678 -3.19655,-0.31892 -5.34562,24.43728 -2.91842,33.6189 3.41463,12.91701 5.12952,18.38306 6.09897,19.43989 1.49017,1.6245 1.29492,-2.79497 -0.7457,-16.8795 -1.84756,-12.75192 -2.30842,-20.84691 -1.11913,-19.65762 0.39089,0.3909 0.91864,3.06802 1.17275,5.94916 0.97026,11.00056 3.24301,25.94371 4.43138,29.13596 2.1172,5.68723 3.75793,3.91791 2.80517,-3.025 z m 39.27998,4.61475 c 0.99825,-0.22084 -3.25377,-0.4647 -9.44892,-0.54189 -6.19515,-0.0772 -10.99913,0.28805 -10.67553,0.81166 0.53952,0.87296 15.88912,0.66719 20.12445,-0.26977 z m 175.761384,-1.28725 c -0.386413,-1.5923 -18.461371,-2.30598 -18.461371,-0.72894 0,0.65331 2.041875,1.41366 4.537501,1.68967 7.364483,0.81444 14.239535,0.34007 13.92387,-0.96073 z m -100.658494,-1.3307 c 12.56449,-3.70064 19.35207,-7.63621 28.04644,-16.2619 4.6692,-4.63232 8.962237,-8.4224 9.540067,-8.4224 0.577841,0 1.05061,-0.60695 1.05061,-1.34878 0,-0.74181 2.269586,-6.32293 5.043523,-12.4025 4.876531,-10.68774 5.03803,-11.44095 4.877814,-22.74864 -0.175777,-12.40455 -3.190275,-28.59864 -5.703675,-30.6405 -0.82908,-0.67352 -1.830887,-2.58584 -2.226267,-4.24959 -0.395367,-1.66375 -2.094168,-4.60707 -3.775122,-6.5407 -1.680954,-1.93365 -3.05627,-3.91378 -3.05627,-4.40032 0,-2.06985 -16.51703,-17.09298 -21.05583,-19.15142 -2.72755,-1.23699 -9.31517,-4.19812 -14.63917,-6.58027 -22.07867,-9.87882 -31.34327,-14.69049 -36.55894,-18.98731 -2.01954,-1.66375 -5.11238,-4.06225 -6.87299,-5.33002 -1.76062,-1.26775 -3.53569,-3.718 -3.9446,-5.445 -0.40894,-1.72698 -1.58014,-4.10239 -2.6027,-5.27866 -2.98308,-3.43153 -5.98241,-13.36183 -5.40332,-17.88952 0.29346,-2.29449 1.57621,-6.47999 2.85055,-9.30111 1.27434,-2.82112 2.31699,-5.63137 2.31699,-6.24502 0,-1.47811 16.21104,-15.42406 20.34964,-17.50629 2.41743,-1.21624 6.18565,-1.43008 14.77088,-0.8382 10.39714,0.71681 12.6708,1.34445 23.22341,6.41069 14.18494,6.8101 15.46608,8.66658 15.46608,22.41178 0,9.69914 1.84059,14.85009 4.67944,13.09559 2.16221,-1.33632 7.58713,-12.6731 9.311699,-19.45924 0.845636,-3.3275 2.350282,-8.90862 3.34367,-12.4025 2.063014,-7.25591 1.783371,-7.46476 -6.622569,-4.94628 -4.17886,1.25202 -4.99037,1.13486 -7.40038,-1.06847 -3.24771,-2.96912 -9.7755,-6.38775 -12.19731,-6.38775 -0.9601,0 -2.04961,-0.79215 -2.42114,-1.76033 -1.08902,-2.83793 -9.72865,-6.59705 -18.58754,-8.08748 -13.22768,-2.22542 -25.55959,-1.18954 -34.23588,2.87581 -2.99475,1.40322 -6.66093,3.08856 -8.14708,3.74519 -2.50023,1.10471 -4.93126,3.17415 -8.342,7.10122 -0.75026,0.86383 -2.73285,2.55523 -4.40578,3.75865 -2.04287,1.46957 -2.83993,2.95956 -2.42729,4.5375 0.42687,1.63231 -10e-4,2.34944 -1.40348,2.34944 -2.64928,0 -5.12705,6.12077 -7.48606,18.49247 -1.9505,10.22939 -1.6939,16.09031 1.30936,29.90753 1.13508,5.22216 7.1504,13.33057 12.4824,16.82579 2.19504,1.43888 4.48716,3.92124 5.09362,5.51635 0.91882,2.41666 13.09676,12.74788 15.02659,12.74788 0.32648,0 5.55657,2.69662 11.62241,5.9925 6.06584,3.29588 12.21985,6.34781 13.67556,6.78208 1.45572,0.43427 8.33939,4.08925 15.29704,8.12218 16.98571,9.84558 23.68312,16.86187 28.71383,30.0809 3.74946,9.85232 3.82679,10.44382 2.84736,21.78134 -1.22326,14.16036 -3.19164,18.59967 -11.27623,25.43155 -22.69344,19.17708 -41.99436,20.91642 -72.52566,6.53585 -12.43732,-5.85813 -14.54744,-7.69545 -20.81408,-18.12313 -4.19486,-6.98024 -4.29075,-7.41639 -3.59145,-16.335 0.69662,-8.88448 3.96533,-21.41799 7.22369,-27.69848 1.6871,-3.25188 1.30115,-5.06356 -1.07667,-5.05401 -1.77806,0.008 -7.9742,5.84094 -15.96108,15.02773 -3.3275,3.8274 -9.52324,10.57652 -13.76832,14.99807 -8.64306,9.00236 -11.74432,13.2241 -10.57402,14.3944 0.43475,0.43475 3.50151,0.0956 6.81501,-0.75359 5.83457,-1.49534 6.14872,-1.44041 9.96095,1.74151 2.16501,1.80706 4.48088,4.22207 5.14638,5.36669 0.6655,1.14461 4.20475,4.67719 7.865,7.85015 3.66025,3.17299 7.1995,6.3915 7.865,7.15226 1.07596,1.23001 5.94771,4.56028 19.965,13.64789 10.84047,7.02803 40.12108,10.85177 53.32289,6.96342 z m -129.55289,-1.62288 c 0,-1.90244 -1.35465,-2.20428 -13.915,-3.10035 -9.27091,-0.6614 -11.78314,-0.52986 -10.74474,0.56262 2.14081,2.25231 24.65974,4.56973 24.65974,2.53773 z m 43.56,-0.004 c -2.97908,-1.71841 -14.5217,-2.0115 -14.51791,-0.36864 0.001,0.49912 3.67653,1.02182 8.1675,1.16153 5.0695,0.15772 7.47726,-0.14291 6.35041,-0.79289 z m 9.27899,-0.33469 c -3.30049,-0.87456 -5.0259,-0.83855 -5.9895,0.12505 -0.998,0.998 0.21967,1.32064 4.63601,1.22844 l 5.9895,-0.12505 z m 104.13332,-0.4625 c -0.40209,-0.40207 -1.44571,-0.44505 -2.31918,-0.0955 -0.96525,0.38625 -0.67854,0.67298 0.73105,0.73104 1.27553,0.0525 1.9902,-0.23345 1.58813,-0.63552 z m 74.742705,-2.89939 c 0.411303,-0.6655 0.307316,-1.25601 -0.231086,-1.31222 -14.007868,-1.46271 -20.567691,-1.01577 -19.134204,1.30368 0.978793,1.58369 18.387041,1.59138 19.36529,0.009 z m -190.575015,-1.21 c 0,-0.6655 -2.58638,-1.14558 -5.7475,-1.06685 -5.13034,0.12781 -5.35772,0.24235 -2.1175,1.06685 5.35211,1.36188 7.865,1.36188 7.865,0 z m -42.07052,-1.815 c -0.46695,-1.73572 -4.44123,-2.58561 -16.70807,-3.57296 -9.8705,-0.79447 -10.63597,-0.70337 -8.92549,1.0622 3.16938,3.27146 26.45169,5.55193 25.63356,2.51076 z m 189.589702,-0.15032 c 1.110067,-1.00112 -1.151777,-1.87312 -6.141163,-2.36761 -2.889153,-0.28633 -6.966129,-0.80389 -9.059937,-1.15011 -3.797551,-0.62796 -10.108072,1.37503 -10.108072,3.20832 0,1.74341 23.401896,2.02949 25.309172,0.3094 z M -207.1303,861.76207 c 1.70433,-1.07891 -0.67408,-1.47041 -18.64634,-3.06937 -7.6817,-0.68342 -13.39146,0.99069 -7.8019,2.28752 1.62905,0.37796 7.59015,0.84905 13.2469,1.04685 5.65675,0.19781 10.55725,0.46214 10.89,0.58742 0.33275,0.12527 1.37285,-0.25832 2.31134,-0.85242 z m 176.768675,-0.0397 3.025006,-0.91567 -3.025006,-0.70205 c -1.66375,-0.38611 -6.972626,-1.01258 -11.797501,-1.39216 -6.869872,-0.54045 -8.772501,-0.33839 -8.772501,0.93166 0,0.89197 0.363,1.98479 0.806671,2.42844 1.072871,1.07288 15.931854,0.80956 19.763331,-0.35022 z m -235.950015,-3.57713 c 0,-1.16039 -3.95019,-1.91063 -16.94,-3.21732 -4.39787,-0.4424 -7.42462,-0.33113 -6.86602,0.2524 0.80585,0.84181 9.13012,2.29264 22.29352,3.88554 0.83187,0.10065 1.5125,-0.31362 1.5125,-0.92062 z m 111.32001,-0.57397 c 0,-2.1355 -10.61958,-3.91683 -12.44831,-2.08809 -0.88182,0.88183 -0.74564,1.43301 0.44846,1.81517 0.94316,0.30184 2.53159,0.8212 3.52984,1.15414 3.81124,1.27112 8.47001,0.78643 8.47001,-0.88122 z m -55.92891,-1.40311 c 0.36396,-1.24998 -14.98998,-3.22741 -20.9061,-2.69249 -7.20388,0.65135 -2.83443,2.76141 6.94374,3.35321 12.73544,0.77078 13.55687,0.73191 13.96236,-0.66072 z m 75.84322,-0.41504 c 7.02627,-2.193 9.75918,-4.48433 6.50382,-5.45294 -0.88723,-0.26399 -5.56086,-1.16839 -10.38584,-2.00976 -11.15165,-1.94463 -15.31461,-0.58657 -14.07654,4.59211 0.43935,1.83775 1.02794,3.74972 1.30796,4.24885 0.90813,1.61873 9.26453,0.92703 16.6506,-1.37826 z m 58.76548,0.47076 c 0.0024,-1.37371 -11.437139,-2.3397 -14.371655,-1.21363 -1.67291,0.64196 -1.691822,0.89038 -0.14422,1.89497 2.290251,1.48668 14.513297,0.91295 14.515875,-0.68134 z m 43.021809,0.76128 c -0.97405,-1.57603 -7.201001,-2.55357 -10.50418,-1.64898 -2.82708,0.7742 -2.808192,0.81588 0.727585,1.6056 5.433941,1.2137 10.513812,1.23624 9.776595,0.0435 z m 10.188412,-12.38575 c 0,-7.6827 -0.354966,-9.55054 -1.815,-9.55054 -0.99825,0 -1.815,-0.81675 -1.815,-1.815 0,-2.73618 -1.593631,-2.20497 -5.445006,1.815 -4.359849,4.5507 -6.978482,4.82496 -2.888367,0.3025 5.549375,-6.13597 6.414421,-7.56705 4.549019,-7.52564 -2.536607,0.0563 -16.444748,13.46082 -14.656513,14.1258 0.838264,0.31172 3.016264,2.03415 4.84,3.82763 4.470709,4.39658 13.750689,9.70626 15.674068,8.96821 1.087113,-0.41717 1.556799,-3.47881 1.556799,-10.14796 z m -9.075006,-3.50054 c 0.411303,-0.6655 0.987941,-1.21 1.281414,-1.21 0.293474,0 0.533586,0.5445 0.533586,1.21 0,0.6655 -0.576638,1.21 -1.281414,1.21 -0.704777,0 -0.944889,-0.5445 -0.533586,-1.21 z m -235.345015,12.22947 c 0,-1.7178 -3.00191,-2.44275 -13.64468,-3.29509 -12.25757,-0.98167 -11.40682,0.77155 1.31296,2.70574 12.13782,1.84568 12.33172,1.85495 12.33172,0.58935 z m 104.3625,-1.32895 c 1.83012,-0.005 3.3275,-0.55501 3.3275,-1.22051 0,-1.31051 -12.19323,-1.63838 -16.6375,-0.44735 -5.43972,1.45778 -2.82452,3.21668 3.63,2.4414 3.49387,-0.41966 7.84987,-0.76775 9.68,-0.77354 z m 121.907514,0.38727 c 0,-1.5195 -3.998518,-5.23778 -5.632538,-5.23778 -1.670381,0 -2.265096,3.79903 -0.820791,5.24333 1.052881,1.05289 6.453329,1.04824 6.453329,-0.005 z M -214.28164,850.8676 c 0,-1.60908 -2.89385,-1.9709 -11.3369,-1.4175 -5.66363,0.37123 -6.70265,0.70041 -4.3931,1.39188 4.40495,1.31882 15.73,1.33727 15.73,0.0256 z m -52.67279,-2.44757 c 0.39051,-0.63188 -1.07472,-1.41735 -3.25609,-1.7455 -14.99499,-2.25569 -19.2669,-2.64016 -19.79742,-1.78175 -0.63211,1.02274 1.05276,1.53137 10.9913,3.3179 8.34884,1.50078 11.23312,1.55083 12.06221,0.20935 z m 47.83279,-1.11704 c 0,-2.02091 -10.85239,-11.04412 -13.28298,-11.04412 -2.08782,0 -2.44702,0.78692 -2.44702,5.36085 0,4.59737 0.38772,5.43554 2.7225,5.88523 5.0918,0.98071 13.0075,0.85781 13.0075,-0.20196 z m 56.87,-1.47705 c 1.06866,-0.60261 -4.25074,-1.03862 -12.93609,-1.06028 -8.1131,-0.0202 -15.06214,0.4665 -15.44232,1.08163 -0.38017,0.61514 0.26831,1.32646 1.4411,1.58069 3.54952,0.76947 24.99336,-0.50585 26.93731,-1.60204 z m 46.42045,-3.27961 c 4.02654,-5.81031 3.99312,-6.28746 -0.44044,-6.28746 -2.36931,0 -3.63,0.61114 -3.63,1.75971 0,1.33048 -1.99221,1.847 -8.1675,2.1175 -6.0547,0.26523 -8.1675,0.79938 -8.1675,2.06483 0,2.10228 6.95499,4.73197 12.84294,4.85592 3.74504,0.0789 4.83092,-0.56882 7.5625,-4.5105 z m -35.0038,0.84575 c -0.88026,-1.4243 -5.36664,-1.4026 -5.36664,0.0261 0,0.61004 0.68062,1.34658 1.5125,1.63676 2.11586,0.73805 4.65965,-0.35937 3.85414,-1.66271 z m -116.68665,-0.98691 c 0,-0.61252 -3.67538,-1.44868 -8.1675,-1.85813 -4.49213,-0.40944 -9.66488,-0.98368 -11.495,-1.27606 -1.83013,-0.29239 -3.3275,-0.0399 -3.3275,0.56107 0,0.60097 3.13087,1.43762 6.9575,1.85921 3.82662,0.42159 7.77425,0.94211 8.7725,1.15672 3.8599,0.82976 7.26,0.62239 7.26,-0.44281 z m 92.2625,0.33706 c 8.0615,-1.33247 4.82717,-2.72044 -6.38091,-2.73825 -11.87081,-0.0189 -15.81509,0.72133 -13.08055,2.45475 1.89056,1.19842 12.9514,1.35956 19.46146,0.2835 z m -64.65084,-4.27108 c -0.47939,-3.25794 -2.85155,-4.20719 -3.87151,-1.54923 -0.94768,2.46964 0.0458,4.17695 2.43042,4.17695 1.18792,0 1.69238,-0.91985 1.44109,-2.62772 z m 97.92958,1.11522 c -0.32938,-0.99549 -3.7388,-1.63449 -9.97413,-1.86938 -8.42895,-0.31751 -9.3026,-0.15073 -7.92225,1.5125 2.01116,2.42329 18.69014,2.7559 17.89638,0.35688 z m -124.99528,-2.02198 c 0.78162,-1.26468 -3.55245,-2.14757 -15.78872,-3.2163 -11.44105,-0.99929 -11.12284,0.77433 0.45138,2.51578 11.35587,1.70859 14.62211,1.85777 15.33734,0.70052 z m 97.15539,-0.59355 c 0.3916,-0.39158 -5.91278,-0.71197 -14.00968,-0.71197 -8.09692,0 -14.72167,0.42625 -14.72167,0.94721 0,1.08015 27.64228,0.85385 28.73135,-0.23524 z m 37.24266,-0.78448 c -2.22685,-0.66445 -4.05072,-0.62476 -4.7795,0.10395 -0.76467,0.76468 0.49983,1.14199 3.601,1.07451 4.72344,-0.10274 4.73727,-0.11665 1.1785,-1.1785 z m -10.314,-1.00804 c 0,-1.45829 -3.01878,-2.51924 -7.66147,-2.69261 l -3.83353,-0.14316 3.63,-0.79 c 1.9965,-0.4345 3.0855,-1.13439 2.42,-1.55532 -1.79207,-1.1335 -15.43697,-3.50973 -16.13655,-2.81015 -0.33099,0.33098 -0.0706,0.60179 0.5786,0.60179 0.64923,0 2.23735,0.85582 3.52917,1.90182 2.22865,1.80455 2.14766,1.86799 -1.58373,1.24025 -2.91142,-0.4898 -3.9325,-0.2124 -3.9325,1.06835 0,1.05743 1.7639,2.02494 4.5375,2.48884 2.49562,0.41741 5.08201,0.94359 5.74751,1.16931 2.67739,0.90805 12.705,0.5299 12.705,-0.47912 z M -266.95443,832.69 c 0.77773,-1.25843 -2.80807,-1.97967 -15.69221,-3.15631 -16.08443,-1.4689 -4.82763,1.96872 13.54108,4.1352 0.7926,0.0935 1.76061,-0.34701 2.15113,-0.97889 z m 95.02279,-0.0611 c 0,-0.73616 -5.4212,-1.21 -13.84359,-1.21 -7.92385,0 -14.16337,0.51742 -14.59141,1.21 -0.48276,0.78111 4.4241,1.21 13.84358,1.21 8.92095,0 14.59142,-0.47023 14.59142,-1.21 z m 59.89501,-0.90735 c 1.95824,-1.16447 -0.52372,-1.44607 -13.0075,-1.47585 -13.39283,-0.0319 -15.4275,0.22023 -15.4275,1.91205 0,1.70028 1.65909,1.88853 13.0075,1.47586 7.15412,-0.26015 14.0965,-1.12058 15.4275,-1.91206 z m 71.995004,0.36247 c 0,-0.96517 0.952875,-2.35803 2.1175,-3.09522 1.164625,-0.73719 1.573,-1.13053 0.9075,-0.87408 -9.305251,3.58584 -11.565301,5.72418 -6.05,5.72418 1.836163,0 3.025,-0.68967 3.025,-1.75488 z m -135.620844,-3.81151 c 1.52417,-1.46203 -2.30173,-1.97136 -13.37516,-1.78056 -12.38201,0.21333 -17.37223,1.22043 -12.16603,2.45527 2.96984,0.70441 24.70193,0.13031 25.54119,-0.67471 z m 62.58096,-0.47736 c 4.97532,-0.005 5.00978,-0.0375 5.79219,-5.25492 0.4329,-2.88676 0.23158,-6.70973 -0.44736,-8.49551 -1.22659,-3.22615 -1.29818,-3.24346 -11.23721,-2.71579 -5.50151,0.29209 -13.78702,0.57582 -18.41224,0.63051 -10.24614,0.12118 -9.40739,2.18557 1.1495,2.82924 l 7.26,0.44264 -8.26833,0.2288 c -6.00856,0.16625 -8.1273,0.64215 -7.7523,1.74128 0.39061,1.14486 4.72092,1.40032 17.81552,1.05099 19.60471,-0.52301 22.87589,1.40693 4.78364,2.82226 -6.06051,0.4741 -10.77071,1.1104 -10.46712,1.414 0.3036,0.30359 5.90402,0.58474 12.44537,0.62477 8.45264,0.0518 11.2789,0.41665 9.76942,1.2614 -1.18961,0.66575 -8.74907,1.01276 -17.18426,0.78885 -14.45834,-0.38378 -17.00396,0.18662 -14.14944,3.17053 0.49912,0.52175 6.08025,0.61531 12.4025,0.20793 6.32225,-0.40739 13.7473,-0.74352 16.50012,-0.74698 z m -12.27556,-13.33317 c -0.42642,-0.68996 0.90861,-1.19312 3.1657,-1.19312 2.14669,0 3.52605,0.37704 3.06523,0.83786 -1.39587,1.39586 -5.44512,1.62672 -6.23093,0.35526 z m 10.95212,0.10054 c -1.23625,-2.0003 1.33727,-2.47873 3.70256,-0.68834 2.22028,1.68062 2.2086,1.73902 -0.35533,1.77625 -1.45809,0.0211 -2.96435,-0.46841 -3.34723,-1.08791 z m -159.16669,11.95458 c -7.40625,-1.31784 -19.8848,-1.26884 -15.73,0.0617 1.66375,0.53281 7.10875,0.95489 12.1,0.93792 8.31757,-0.0283 8.62054,-0.11168 3.63,-0.99969 z m 127.05001,-1.14825 c 0,-0.6655 -0.40838,-1.24572 -0.9075,-1.28938 -11.63359,-1.01756 -14.82251,-1.15202 -14.82251,-0.6249 0,0.9922 7.44242,2.8943 11.79751,3.01515 2.16287,0.0601 3.9325,-0.43537 3.9325,-1.10087 z m 108.198567,-2.64949 c 2.271533,-3.24308 1.742339,-3.92411 -2.267213,-2.91776 -2.004535,0.5031 -3.08135,1.611 -3.08135,3.17031 0,3.19302 3.035575,3.04969 5.348563,-0.25255 z m -225.568577,0.36002 c 0,-0.82183 -14.26541,-2.54775 -25.7125,-3.11088 -0.49913,-0.0245 -0.91673,0.49985 -0.92801,1.16535 -0.011,0.6655 3.39184,1.5244 7.5625,1.90865 12.61048,1.16187 19.07801,1.17436 19.07801,0.0368 z m 84.66495,-0.0835 c 0.97898,-0.61903 1.43135,-1.4741 1.00526,-1.90019 -1.10515,-1.10517 -25.24249,0.75724 -24.54027,1.8935 0.83294,1.34771 21.40493,1.35355 23.53501,0.008 z m 158.284896,-12.44954 -0.344825,-12.4025 -3.3275,-0.38287 -3.3275,-0.38286 0,10.57259 c 0,10.82606 1.57859,14.99814 5.674863,14.99814 1.333553,0 1.600358,-2.49747 1.324962,-12.4025 z M -150.15163,820.5519 c 0,-1.24019 -0.62624,-1.41455 -13.13005,-3.65563 -4.22678,-0.75759 -8.44665,-1.66968 -9.3775,-2.02689 -0.93086,-0.35719 -1.69246,-0.18271 -1.69246,0.38774 0,0.92815 10.04605,4.441 16.335,5.71193 4.62519,0.93471 7.86501,0.76287 7.86501,-0.41715 z m -113.13501,-2.44306 c 0.85058,-1.37628 0.91762,-1.36542 -11.97127,-1.93908 -10.83001,-0.48202 -11.51928,0.17404 -1.86518,1.77536 9.19209,1.52467 12.96771,1.56934 13.83645,0.16372 z m 79.40625,0 c 1.91331,0 3.47875,-0.5445 3.47875,-1.21 0,-0.71704 -4.43668,-1.21 -10.89,-1.21 -5.9895,0 -10.89,0.51 -10.89,1.13334 0,1.36555 6.52294,2.36542 11.34375,1.73881 1.91331,-0.24867 5.04419,-0.45215 6.9575,-0.45215 z m -66.65868,-2.34045 c -0.68892,-1.28725 -1.25257,-3.40493 -1.25257,-4.70594 0,-1.30104 -1.07089,-3.65096 -2.37974,-5.22206 l -2.37975,-2.85655 -0.0403,2.74845 c -0.0221,1.51164 1.39335,4.91477 3.14553,7.5625 3.32734,5.02796 5.06538,6.50697 2.90679,2.4736 z m 216.547445,-0.0795 c 0,-0.6655 -0.5445,-1.21 -1.21,-1.21 -0.6655,0 -1.210001,0.5445 -1.210001,1.21 0,0.6655 0.544501,1.21 1.210001,1.21 0.6655,0 1.21,-0.5445 1.21,-1.21 z M -152.05343,814.5131 c -1.17535,-1.17534 -15.9134,-3.70524 -20.48321,-3.51609 -1.331,0.055 0.57475,1.10004 4.235,2.32212 7.17214,2.3946 18.26389,3.20966 16.24821,1.19397 z m 113.687642,-1.80663 c 2.315952,-3.53459 2.41677,-4.27756 0.580413,-4.27756 -1.277954,0 -7.096251,5.50761 -7.096251,6.71734 0,1.86514 4.896446,0.0317 6.515838,-2.43978 z m -223.710852,0.56244 c -0.4113,-0.6655 -4.39107,-1.14558 -8.84392,-1.06685 -6.27674,0.11096 -7.28035,0.35073 -4.46608,1.06685 5.53118,1.40744 14.17984,1.40744 13.31,0 z m 25.31103,0.47554 c 1.05269,-0.40395 1.91397,-1.43655 1.91397,-2.29465 0,-0.85811 1.90575,-3.23346 4.235,-5.27858 3.88371,-3.40995 4.235,-4.27487 4.235,-10.4274 0,-6.02865 -0.39881,-7.07183 -3.9325,-10.2865 -3.66417,-3.33337 -9.2278,-5.13291 -7.56842,-2.448 0.40803,0.66023 0.18448,2.1576 -0.49681,3.3275 -0.95229,1.63528 -1.24719,0.5527 -1.27548,-4.68226 -0.047,-8.70028 2.03332,-10.92829 6.74406,-7.22283 3.55703,2.79796 6.67905,3.18967 10.23869,1.28461 3.09217,-1.65488 2.96748,-0.63587 -0.29399,2.40264 -3.34754,3.11873 -2.39282,4.06171 3.07395,3.03613 3.11391,-0.58416 5.54627,-2.31023 8.72901,-6.19433 4.49054,-5.48012 4.72071,-8.16138 0.47288,-5.50858 -3.74927,2.34146 -3.66986,1.8265 0.72542,-4.70488 2.28425,-3.39438 4.15319,-7.17374 4.15319,-8.39859 0,-1.22485 0.5445,-2.56352 1.21,-2.97482 2.0188,-1.2477 1.40778,-10.4809 -0.85939,-12.98609 -1.78509,-1.97251 -1.82666,-2.43992 -0.3025,-3.40228 1.47417,-0.93082 0.96504,-2.62733 -3.07311,-10.24032 -4.16773,-7.85723 -4.9493,-8.74245 -5.62689,-6.37298 -0.43279,1.5134 -0.84117,2.08812 -0.9075,1.27712 -0.0663,-0.81097 -0.93278,-1.16285 -1.92542,-0.78195 -2.41003,0.92482 -3.92592,-3.09203 -1.69901,-4.50211 1.26955,-0.80387 1.01293,-1.07395 -1.03368,-1.08788 -3.24961,-0.0221 -3.54847,-2.1665 -0.605,-4.34118 1.6824,-1.24298 1.81061,-1.87563 0.62388,-3.079 -0.82148,-0.83302 -2.64007,-1.59902 -4.04132,-1.70225 -2.14958,-0.15837 -2.4677,0.35757 -2.03564,3.30138 0.28165,1.91899 0.0583,3.76949 -0.49616,4.11221 -0.55455,0.34272 -1.07268,-0.36187 -1.15142,-1.56577 -0.0788,-1.2039 -0.49062,-0.55541 -0.91529,1.44109 -0.55377,2.60349 -1.57683,3.74419 -3.61782,4.03382 -2.97338,0.42194 -3.01798,1.17152 -0.58804,9.88118 0.75846,2.71848 0.63881,2.85673 -1.18087,1.36434 -1.11365,-0.91336 -2.02482,-2.41074 -2.02482,-3.3275 0,-0.91676 -0.77223,-1.66684 -1.71604,-1.66684 -0.94382,0 -2.64016,-0.35462 -3.76963,-0.78804 -1.59797,-0.61321 -1.90114,-0.27763 -1.36643,1.5125 1.87969,6.29287 2.18715,8.95554 1.0341,8.95554 -0.68218,0 -2.00877,-2.30529 -2.94797,-5.12288 -1.55324,-4.65973 -2.17691,-5.21569 -6.89843,-6.14941 -7.07799,-1.39974 -8.08248,-0.15614 -6.38548,7.90548 1.34413,6.3853 3.64658,20.74426 4.20781,26.24154 0.2254,2.2078 1.46464,3.30481 5.13707,4.54744 5.87091,1.98656 9.70591,6.05467 7.834,8.31019 -0.89391,1.07708 -3.44247,1.34292 -8.48823,0.88539 l -7.21077,-0.65386 0,4.72444 c 0,2.59843 1.07415,6.62168 2.387,8.94056 1.31285,2.31886 3.24576,5.91221 4.29533,7.98522 1.04958,2.07299 2.88738,4.81998 4.08398,6.10439 1.56087,1.67539 1.89677,3.08924 1.18867,5.00339 -1.38547,3.74526 -2.9468,3.32187 -4.66269,-1.26438 -3.23147,-8.63707 -5.38561,-13.68467 -6.44917,-15.11168 -2.00047,-2.68412 -3.26312,-0.30291 -3.26312,6.15385 0,6.32064 0.007,6.33128 6.6694,10.81859 3.66818,2.47046 7.20743,4.49174 7.86501,4.49174 0.65758,0 1.23386,1.22513 1.28063,2.7225 0.0812,2.59775 0.1327,2.61161 1.12496,0.3025 0.92149,-2.14443 1.04958,-2.04108 1.12494,0.9075 0.087,3.40519 0.8628,3.88174 4.22109,2.59304 z m -3.64185,-15.45299 c -0.35191,-0.91709 -0.11168,-3.50346 0.53385,-5.7475 l 1.1737,-4.08005 0.10912,5.7475 c 0.10846,5.70774 -0.5901,7.27646 -1.81669,4.08005 z m 27.33582,-48.01397 c 0,-0.70477 0.5445,-0.94489 1.21,-0.53358 0.6655,0.4113 1.21,0.98793 1.21,1.28141 0,0.29347 -0.5445,0.53359 -1.21,0.53359 -0.6655,0 -1.21,-0.57664 -1.21,-1.28142 z m -3.76739,-23.1872 c -1.38471,-2.59856 -1.33623,-2.65475 0.84679,-0.98129 1.27358,0.97632 2.48794,1.87467 2.69859,1.99635 0.21065,0.12166 -0.1704,0.56323 -0.84679,0.98126 -0.67638,0.41804 -1.89075,-0.48031 -2.69859,-1.99632 z m -12.98157,-5.78145 c 0,-1.66375 0.27465,-2.34437 0.61032,-1.5125 0.33566,0.83188 0.33566,2.19313 0,3.025 -0.33567,0.83188 -0.61032,0.15125 -0.61032,-1.5125 z m 41.17324,90.91423 c -1.473,-0.93406 -7.48428,-0.46674 -7.48428,0.58185 0,0.25517 2.04187,0.4556 4.5375,0.44541 2.89235,-0.0121 3.96076,-0.38426 2.94678,-1.02726 z m -98.23428,-0.63976 c 0,-1.14783 -3.622,-1.72632 -4.26767,-0.68161 -0.39334,0.63644 0.40597,1.15716 1.77625,1.15716 1.37027,0 2.49142,-0.214 2.49142,-0.47555 z m 18.64997,-2.98452 c 0.35354,-0.57203 -4.78709,-1.53231 -11.4236,-2.13395 -6.63651,-0.60166 -12.06637,-0.71148 -12.06637,-0.24409 0,0.9469 5.11676,1.74008 20.80108,3.22446 1.12535,0.10648 2.33535,-0.27438 2.68889,-0.84642 z m 72.40253,0.2387 c -0.83188,-0.33566 -2.19313,-0.33566 -3.025,0 -0.83188,0.33568 -0.15125,0.61032 1.5125,0.61032 1.66375,0 2.34437,-0.27464 1.5125,-0.61032 z m 42.04751,-0.16663 c 0,-2.68692 -3.32034,-3.36809 -14.7316,-3.02225 -6.76742,0.20509 -12.5738,0.6423 -12.90308,0.97158 -0.32927,0.32926 1.26172,0.61924 3.53549,0.64437 4.86237,0.0537 13.59599,1.21008 14.31835,1.89574 0.96307,0.91416 9.78084,0.47291 9.78084,-0.48944 z m 40.2325,-0.0372 c 9.337,-2.14775 -17.6527,-3.8304 -29.645,-1.84819 -2.49563,0.4125 -4.5375,1.27821 -4.5375,1.9238 0,1.11242 29.29949,1.04761 34.1825,-0.0757 z m 71.087504,-0.93932 c 0,-0.26153 -0.81675,-0.47554 -1.815,-0.47554 -0.99825,0 -1.815,0.52742 -1.815,1.17203 0,0.64461 0.81675,0.85861 1.815,0.47555 0.99825,-0.38307 1.815,-0.91048 1.815,-1.17204 z m -144.471144,-2.69512 c -0.89699,-1.45135 -10.40887,-1.62653 -10.40887,-0.19171 0,0.66072 2.48239,1.20129 5.51641,1.20129 3.03403,0 5.23562,-0.45431 4.89246,-1.00958 z m 153.873849,-1.18354 c 0.725952,-2.17783 -1.77507,-1.72019 -2.619069,0.47923 -0.452214,1.17843 -0.18179,1.73161 0.702417,1.43688 0.790735,-0.26357 1.653235,-1.12584 1.916652,-1.91611 z M -275.38664,803.5888 c -0.4113,-0.6655 -1.94082,-1.15571 -3.39892,-1.08938 -2.4679,0.11229 -2.44207,0.18755 0.37392,1.08938 1.66375,0.53283 3.19325,1.02306 3.3989,1.08939 0.20565,0.0663 0.0374,-0.42389 -0.3739,-1.08939 z m 157.13112,0.44054 c 10.82029,-1.48308 5.58782,-2.98939 -9.5315,-2.74389 -8.32997,0.13525 -15.49922,-0.10791 -15.93167,-0.54037 -0.43245,-0.43245 3.25211,-0.79101 8.18788,-0.79679 11.79438,-0.0137 21.67918,-1.2467 21.67918,-2.70391 0,-0.70951 -3.67791,-0.89319 -9.3775,-0.46834 -5.15763,0.38447 -13.59738,0.71337 -18.755,0.7309 -5.42375,0.0184 -9.3775,0.54202 -9.3775,1.24186 0,0.6655 0.85343,1.21 1.89654,1.21 1.34589,0 1.67353,0.70263 1.12846,2.42 -0.73456,2.31439 -0.21744,2.42 11.84958,2.42 6.93972,0 15.1439,-0.34626 18.23153,-0.76946 z m 85.386533,-6.66358 c 0.04804,-0.42792 -0.729388,-1.09145 -1.727638,-1.47453 -1.129136,-0.43329 -1.815001,0.008 -1.815001,1.16697 0,1.83029 -2.749398,5.3206 -4.19115,5.3206 -0.403692,0 -0.151177,-1.089 0.56115,-2.42 1.627341,-3.04072 -0.03473,-3.11819 -3.444858,-0.16056 -3.2636,2.83049 -3.342468,4.18766 -0.185142,3.18556 1.475401,-0.46828 2.42,-0.21743 2.42,0.64263 0,1.38856 8.212465,-4.74503 8.382639,-6.26067 z m -127.567653,3.46601 c 1.331,-0.3783 3.10062,-0.72947 3.93251,-0.78039 2.36005,-0.14444 1.79224,-2.87326 -1.5368,-7.38549 -4.24206,-5.7498 -5.33573,-6.15946 -17.89908,-6.70466 -6.11414,-0.26535 -11.93338,-0.57722 -12.93163,-0.69305 -0.99825,-0.1158 -3.72075,-0.0791 -6.05,0.0814 -3.77663,0.26043 -3.44923,0.4691 3.025,1.92793 3.993,0.89975 8.75737,1.67086 10.5875,1.7136 1.83012,0.0427 3.3275,0.50613 3.3275,1.02979 0,0.52366 -4.47874,0.93204 -9.95275,0.9075 -8.533,-0.0383 -10.01281,0.25746 -10.37372,2.07289 -0.35695,1.79551 0.55849,2.13165 6.02025,2.2105 3.54266,0.0512 8.61922,0.82837 11.28122,1.72717 4.66229,1.5742 4.40824,1.62632 -6.91962,1.41952 -11.92243,-0.21766 -16.26602,1.51666 -7.33796,2.92991 5.4549,0.86348 31.37878,0.52358 34.82758,-0.45663 z m -103.92514,-0.65475 c -0.36405,-0.58904 -4.08258,-1.40283 -8.26339,-1.80842 -4.18081,-0.40559 -10.26125,-1.11453 -13.51208,-1.57543 -4.7874,-0.67877 -5.80427,-0.51509 -5.35106,0.86131 0.35138,1.06711 3.00052,1.93149 7.12061,2.32336 12.45791,1.18489 20.66563,1.26661 20.00592,0.19918 z m 190.440152,-7.23622 c 0,-6.41943 -1.496528,-8.712 -5.687002,-8.712 -3.438663,0 -3.441337,0.32183 -0.06776,8.14686 3.489071,8.09309 5.754762,8.31558 5.754762,0.56514 z m -203.280012,2.178 c 0,-0.6655 -0.74077,-1.21 -1.64612,-1.21 -0.90538,0 -4.3085,-0.34282 -7.5625,-0.76185 -4.15523,-0.53506 -5.5562,-0.37905 -4.70638,0.52415 0.6655,0.70729 3.388,1.50309 6.05,1.76844 2.662,0.26535 5.52062,0.57399 6.3525,0.68586 0.83187,0.11181 1.5125,-0.3411 1.5125,-1.0066 z m 7.58552,0.41632 c -0.8192,-0.33144 -2.4527,-0.35162 -3.63,-0.0449 -1.17729,0.30678 -0.50702,0.57796 1.48948,0.60262 1.9965,0.0246 2.95973,-0.22633 2.14052,-0.5578 z m 51.77276,-3.13882 c 3.26409,-3.91269 2.90106,-5.7475 -1.13722,-5.7475 -2.8435,0 -3.60638,0.61431 -4.12371,3.32061 -1.1026,5.7678 1.47998,6.95916 5.26093,2.42689 z m 101.34197,0.93559 c 0.34821,-0.34819 0.30999,-0.95618 -0.0849,-1.35108 -0.77986,-0.77986 -36.17685,-0.70381 -36.96008,0.0794 -0.26268,0.26267 -0.0685,1.13952 0.43152,1.94855 0.68163,1.10289 5.29704,1.28146 18.44475,0.7136 9.6446,-0.41655 17.82051,-1.04227 18.16872,-1.39047 z m 81.299765,-0.63309 c 0,-0.6655 -0.240112,-1.21 -0.533586,-1.21 -0.293474,0 -0.870112,0.5445 -1.281415,1.21 -0.411303,0.6655 -0.171191,1.21 0.533586,1.21 0.704777,0 1.281415,-0.5445 1.281415,-1.21 z m 14.860124,-0.605 c 0.145684,-0.6655 -1.504743,-1.38062 -3.667618,-1.58916 -3.718246,-0.3585 -4.986198,0.73714 -3.070279,2.65305 1.215288,1.21528 6.41882,0.39367 6.737897,-1.06389 z m -247.601879,-0.6362 c -3.72322,-1.11611 -23.96142,-2.77302 -21.96326,-1.79813 1.52948,0.74624 16.95785,2.71715 21.78,2.78233 l 3.63,0.049 -3.44674,-1.03324 z m 147.62002,-2.77368 c 2.05533,-2.05533 -2.13483,-2.56573 -18.10787,-2.2057 -9.44098,0.2128 -17.35604,0.57427 -17.58907,0.80327 -0.23301,0.229 -0.0231,1.06452 0.46653,1.85674 0.96125,1.55529 33.64223,1.13387 35.23041,-0.45431 z m -144.77828,-0.71433 c -0.99825,-0.56411 -5.082,-1.38021 -9.075,-1.81358 -3.993,-0.43334 -9.438,-1.10027 -12.1,-1.48206 -3.45342,-0.4953 -4.48282,-0.31863 -3.59321,0.61667 1.23046,1.29367 14.11393,3.36233 22.34821,3.58838 2.89445,0.0795 3.66048,-0.2084 2.42,-0.90941 z m 3.05775,-3.79373 c 1.43876,-2.32797 -2.10148,-5.03875 -5.65288,-4.32847 -3.72508,0.74501 -9.77033,-1.0148 -14.34487,-4.17591 -1.66375,-1.14967 -4.56643,-2.43852 -6.4504,-2.8641 -2.85231,-0.64431 -3.35653,-0.41153 -3.01382,1.39136 0.25646,1.34905 2.68773,2.96647 6.45039,4.29117 l 6.03883,2.12606 -6.3525,-0.55654 c -7.275,-0.63737 -8.62364,1.21365 -1.815,2.49111 14.04378,2.63494 24.11391,3.28598 25.14025,1.62532 z m 128.05837,0.49353 c 10.37271,-1.42173 5.73982,-2.66904 -10.335,-2.78245 -8.7719,-0.0618 -16.21341,-0.37703 -16.53669,-0.70031 -0.32326,-0.32328 3.99512,-0.61915 9.5964,-0.6575 5.6013,-0.0384 12.36218,-0.50295 15.02418,-1.0324 3.77732,-0.75131 1.61933,-1.06809 -9.82851,-1.44277 -8.06769,-0.26405 -16.2352,-0.18695 -18.15001,0.17133 -3.37015,0.6306 -3.39052,0.67638 -0.63725,1.43106 1.60842,0.44088 2.49471,1.3452 2.03977,2.0813 -0.44247,0.71592 0.45562,1.80706 1.99576,2.42474 3.28436,1.31724 18.78335,1.61011 26.83135,0.507 z m 113.303901,-0.91436 c 0,-2.06809 -5.955657,-3.73451 -7.571588,-2.11859 -1.876558,1.87656 0.155969,3.80242 4.013002,3.80242 2.233309,0 3.558586,-0.62708 3.558586,-1.68383 z m -152.460021,-0.76612 c 0,-0.68196 -1.3967,-1.77096 -3.10377,-2.42 -3.82109,-1.45278 -22.30026,-1.53013 -24.55292,-0.10274 -2.73118,1.73057 0.52222,2.77292 6.18274,1.98088 2.82642,-0.39548 7.5892,-0.21601 10.58395,0.39882 7.5613,1.55236 10.89,1.5961 10.89,0.14308 z m 96.19501,-3.60005 c 0.436301,-0.70594 -0.794099,-1.21 -2.953586,-1.21 -2.035777,0 -3.701414,0.5445 -3.701414,1.21 0,0.6655 1.329112,1.21 2.953585,1.21 1.624474,0 3.290111,-0.5445 3.701415,-1.21 z m 56.917951,-2.57107 c 0.737991,-2.32519 -0.84717,-4.61278 -3.236278,-4.67041 -0.79635,-0.0192 -4.676662,5.45189 -4.676662,6.59391 0,0.35616 1.596812,0.64757 3.548458,0.64757 2.555266,0 3.776869,-0.71962 4.364482,-2.57107 z m -165.212961,0.27014 c 2.6222,-0.73656 2.75579,-1.00245 1.00333,-1.99688 -2.42409,-1.37554 -17.94333,-0.77495 -17.94333,0.69439 0,1.80525 11.89432,2.7198 16.94,1.30249 z m 110.639895,-2.66061 c -0.369994,-0.59866 -2.410201,-1.0968 -4.5338,-1.10699 -2.625095,-0.0125 -3.335558,-0.35151 -2.219406,-1.05875 2.428857,-1.539 -0.133572,-2.58495 -3.878848,-1.58332 -2.967514,0.79364 -3.096839,1.07059 -1.538745,3.29509 1.378746,1.96842 2.756718,2.34465 7.272281,1.98552 3.064168,-0.24371 5.2685,-0.93291 4.898518,-1.53155 z m -196.146575,-5.12179 c -0.4879,-3.00665 -1.1528,-4.17121 -1.93495,-3.38906 -0.67591,0.67592 -0.82764,3.13177 -0.35061,5.67462 1.11165,5.92555 3.26809,3.76911 2.28556,-2.28556 z m 11.20368,3.73083 c -0.42639,-1.49738 -1.12075,-4.31127 -1.54299,-6.25309 -0.6794,-3.12427 -0.50199,-3.4222 1.54161,-2.58881 1.27015,0.51795 4.75963,1.18905 7.75438,1.49129 l 5.445,0.54956 -2.85656,-2.49822 c -1.5711,-1.37403 -4.36323,-2.49823 -6.20473,-2.49823 -4.18545,0 -12.11371,3.23117 -12.11371,4.93697 0,1.82643 6.10678,9.58303 7.54473,9.58303 0.67527,0 0.8658,-1.20001 0.43227,-2.7225 z m 107.78939,1.20631 c -5.06284,-0.86594 -7.43202,-0.82218 -8.40951,0.1553 -1.00784,1.00785 0.8207,1.32059 7.04863,1.20558 l 8.4095,-0.15531 z m -123.83089,-3.53379 c 0.82031,-3.13688 0.0812,-4.63002 -2.29192,-4.63002 -1.83562,0 -2.23952,2.1397 -1.00912,5.34603 1.03378,2.69401 2.49201,2.3777 3.30104,-0.71601 z m 117.5695,0.20998 c 0.472,-0.7637 -2.06787,-1.15125 -6.88609,-1.05071 -6.51516,0.13593 -7.01327,0.28992 -3.39891,1.05071 6.37528,1.34194 9.45564,1.34194 10.285,0 z m 7.17969,-1.33369 c -3.29794,-1.29148 -5.36468,-1.27626 -5.36468,0.0396 0,1.26579 4.83596,2.33231 6.57468,1.44998 0.62133,-0.3153 0.0769,-0.98558 -1.21,-1.48951 z m -41.91882,0.55839 c 2.62631,-0.70352 2.66386,-0.86049 0.71997,-3.00848 -1.128,-1.24643 -2.87653,-2.26622 -3.8856,-2.26622 -2.01765,0 -6.26024,3.40718 -6.26024,5.02753 0,1.18555 5.39475,1.32701 9.42587,0.24717 z m -91.19918,-1.62201 c -1.79854,-1.79853 -8.97669,-2.97614 -8.97669,-1.47266 0,1.3926 2.59771,2.30173 7.1995,2.51961 1.93856,0.0919 2.55359,-0.27054 1.77719,-1.04695 z m 210.083488,-1.26369 c 0.932112,-0.57608 1.438267,-1.29964 1.124792,-1.60793 -0.96247,-0.94648 -16.904962,0.69583 -16.904962,1.74148 0,1.31178 13.628185,1.19645 15.78017,-0.13355 z m -85.960178,-1.09746 c 0,-1.81142 -3.44205,-2.43493 -16.71747,-3.02837 -9.36057,-0.41842 -12.36318,-0.19535 -12.00549,0.89194 0.73759,2.24215 28.72296,4.32371 28.72296,2.13643 z m -123.93572,-2.35707 c -0.65972,-1.06746 -6.74428,-2.6487 -6.74428,-1.75269 0,0.53151 4.89842,2.62201 6.4239,2.74151 0.5384,0.0422 0.68257,-0.40277 0.32038,-0.98882 z m 208.635732,-1.35447 c 1.258315,-0.81319 -1.061172,-1.17862 -7.562502,-1.19148 -5.457356,-0.011 -9.377502,0.48731 -9.377502,1.19148 0,1.55646 14.531557,1.55646 16.940004,0 z m -101.640012,-3.63 c 0,-0.6655 -0.68063,-1.2639 -1.5125,-1.32979 -9.45691,-0.74895 -18.79857,-0.93706 -20.23359,-0.40741 -1.56812,0.57879 -1.56812,0.79206 0,1.78376 2.42832,1.5357 21.74609,1.49434 21.74609,-0.0465 z m -107.1455,-1.12438 c -1.82496,-1.78507 -7.8045,-2.93981 -7.8045,-1.50717 0,0.69344 1.49737,1.48763 3.3275,1.76489 1.83012,0.27723 3.84477,0.58565 4.477,0.68536 0.726,0.11447 0.726,-0.23294 0,-0.94308 z m 19.51295,-0.36596 5.57218,-1.49032 -0.77597,-4.86218 c -0.42679,-2.67419 -1.5652,-6.06813 -2.52981,-7.54209 -3.02102,-4.6162 -2.12671,-12.1772 2.76006,-23.33509 2.922,-6.67173 3.96125,-7.61322 6.24708,-5.65944 3.86743,3.30563 6.06737,3.30499 7.80023,-0.002 1.05818,-2.01962 1.95975,-2.65652 2.50701,-1.77104 2.01661,3.26294 3.13067,0.83661 3.11526,-6.78475 -0.0182,-8.94379 -0.89084,-13.6125 -2.54461,-13.6125 -0.5879,0 -1.09295,2.04188 -1.12237,4.5375 l -0.0535,4.5375 -2.34426,-4.43777 c -4.2857,-8.11282 -14.65332,-9.82879 -16.4374,-2.72042 -0.40355,1.60784 -1.44607,2.92334 -2.31672,2.92334 -0.87064,0 -1.82106,0.68063 -2.11204,1.5125 -0.3776,1.07954 -1.33114,0.81977 -3.33101,-0.9075 -2.62578,-2.26784 -2.74988,-2.2777 -1.9738,-0.15667 0.66362,1.81366 0.36178,2.14137 -1.51929,1.64945 -1.77786,-0.46491 -2.17704,-0.13331 -1.64515,1.36667 0.38627,1.0893 1.2984,2.76313 2.02696,3.7196 1.06638,1.39996 0.89636,1.5784 -0.87194,0.91511 -1.85136,-0.69443 -2.05133,-0.3972 -1.27222,1.89096 0.50842,1.49318 0.86435,4.07613 0.79095,5.73988 -0.0735,1.66375 0.49909,3.79595 1.27222,4.73821 1.17726,1.43485 0.83068,1.56994 -2.13314,0.83141 -3.18302,-0.79313 -3.37332,-0.68239 -1.8928,1.10151 1.33676,1.61071 1.35219,2.1649 0.0822,2.94985 -1.10134,0.68067 -1.16779,1.21132 -0.2247,1.79419 2.00947,1.24192 1.61226,3.46854 -0.47582,2.66727 -2.57476,-0.98804 -2.2483,0.88037 0.605,3.46256 2.93722,2.65814 3.15089,5.44502 0.41746,5.44502 -1.7868,0 -1.76153,0.26631 0.23467,2.47207 2.18179,2.41086 2.17895,2.45125 -0.11495,1.63108 -1.29369,-0.46254 -3.30837,-1.66239 -4.47708,-2.66632 -1.16871,-1.00393 -2.41987,-1.53038 -2.78036,-1.1699 -0.36048,0.36051 1.56122,2.55282 4.27045,4.87183 4.58182,3.92186 4.70008,4.17321 1.69302,3.59837 -4.60085,-0.87952 -2.67005,1.6329 2.58867,3.36843 2.31997,0.76567 4.21813,2.16664 4.21813,3.11328 0,2.08659 -0.57335,2.13927 -3.48613,0.3202 -1.2338,-0.77053 -3.16188,-1.04847 -4.28461,-0.61764 -1.89653,0.72777 -1.88644,0.99441 0.14223,3.75976 3.27224,4.46054 6.13678,5.02215 14.37598,2.8185 z m -7.77595,-55.31918 c 0.2662,-0.7986 0.87876,-1.41115 1.36125,-1.36125 1.44679,0.14967 1.16659,1.80931 -0.39325,2.32925 -0.7986,0.2662 -1.2342,-0.1694 -0.968,-0.968 z m 197.956012,55.29702 c -0.352594,-1.0578 -3.717389,-1.5125 -11.192502,-1.5125 -7.475115,0 -10.839909,0.4547 -11.192503,1.5125 -0.38016,1.14046 2.372942,1.5125 11.192503,1.5125 8.819556,0 11.57266,-0.37204 11.192502,-1.5125 z m 54.752509,-1.44109 c 0,-0.29347 -0.5445,-0.87011 -1.21,-1.28141 -0.6655,-0.41131 -1.21,-0.1712 -1.21,0.53358 0,0.70478 0.5445,1.28142 1.21,1.28142 0.6655,0 1.21,-0.24011 1.21,-0.53359 z m -175.592651,-1.77266 c 1.30686,-0.82769 1.08857,-1.24449 -0.99868,-1.90695 -3.00016,-0.95222 -4.33947,-0.2225 -3.14345,1.7127 0.96023,1.55366 1.92433,1.59888 4.14213,0.19425 z m 117.51264,-1.92875 c -0.648028,-1.29606 -10.289842,-1.70511 -19.639458,-0.8332 -3.148452,0.29362 -5.418962,1.02815 -5.045602,1.63228 0.9506,1.53807 25.456979,0.74477 24.68506,-0.79908 z m -111.64771,-0.12604 c -0.40209,-0.40207 -1.44571,-0.44506 -2.31918,-0.0955 -0.96525,0.38625 -0.67854,0.67297 0.73105,0.73102 1.27553,0.0525 1.9902,-0.23344 1.58813,-0.63551 z m -97.16233,-2.7614 c 0.78479,-1.26982 -4.06489,-2.75298 -5.69915,-1.74294 -1.24721,0.77082 1.31958,2.76759 3.59526,2.79685 0.7926,0.01 1.73936,-0.46407 2.10389,-1.05391 z m 207.127946,-1.68214 c 1.830863,-1.83085 -1.024834,-2.45523 -10.102884,-2.20892 -9.017081,0.24464 -17.191102,0.8523 -18.465022,1.37269 -0.33275,0.13591 1.0285,0.66023 3.025,1.16512 4.46946,1.13028 24.339573,0.87444 25.542906,-0.32889 z m -1.039003,-6.62292 c 0.388713,-1.1694 -4.048926,-1.5125 -19.56308,-1.5125 -11.354443,0 -20.065823,0.48153 -20.065823,1.10917 0,2.06018 2.97319,2.36188 21.075568,2.13853 13.202328,-0.16289 18.185616,-0.62895 18.553335,-1.7352 z m 61.411395,0.89896 c 0.414195,-0.67021 -0.121653,-1.55422 -1.190785,-1.96449 -2.316714,-0.88901 -3.607869,0.0906 -2.494258,1.89253 1.00476,1.62573 2.704241,1.65892 3.685043,0.0719 z m -269.487958,-2.10896 c -0.41818,-2.03525 -2.61413,-2.28259 -6.96845,-0.78493 -1.56812,0.53936 -1.56812,0.74729 0,1.73899 3.16082,1.99893 7.45442,1.41109 6.96845,-0.95406 z m 208.37766,-6.35252 c 0,-1.9965 -0.136125,-3.64854 -0.3025,-3.67123 -0.166375,-0.0227 -15.276253,-0.34842 -33.5775,-0.72387 -22.81229,-0.46801 -32.89455,-0.2909 -32.065,0.56328 0.73095,0.75264 11.03061,1.37415 26.015,1.56981 29.273577,0.38222 36.547432,0.88275 35.579856,2.44832 -0.416446,0.67383 -10.349214,1.09717 -23.893796,1.01843 -27.58314,-0.16041 -25.31123,-0.27361 -24.39106,1.21528 0.46092,0.7458 10.7009,1.21 26.69141,1.21 l 25.94359,0 z m 59.895011,2.42002 c 0.411303,-0.66552 -0.133197,-1.21002 -1.21,-1.21002 -1.076804,0 -1.621304,0.5445 -1.21,1.21002 0.411303,0.6655 0.955803,1.21 1.21,1.21 0.254196,0 0.798696,-0.5445 1.21,-1.21 z m 1.815,-7.26002 c 0,-0.6655 -1.121138,-1.21 -2.491415,-1.21 -1.370276,0 -2.154889,0.5445 -1.743585,1.21 0.411303,0.6655 1.53244,1.21 2.491414,1.21 0.958973,0 1.743586,-0.5445 1.743586,-1.21 z m -89.305001,-2.66898 c -0.57805,-0.57805 -5.90403,-1.37033 -11.83551,-1.76058 -5.93147,-0.39026 -12.62638,-1.55534 -14.87756,-2.58906 -2.62727,-1.20642 -7.8271,-1.91116 -14.52,-1.96794 -13.1489,-0.11156 -15.08006,2.10203 -2.56194,2.93656 8.61769,0.57451 8.81587,0.65146 3.9325,1.5268 -10.55777,1.8925 -4.46612,2.87713 17.88551,2.89098 13.02982,0.009 22.5717,-0.44207 21.977,-1.03676 z m 22.250819,-0.0535 c 0.499125,-0.49913 -3.267001,-0.9075 -8.36916,-0.9075 -5.102172,-3e-5 -9.276669,0.40834 -9.276669,0.90747 0,0.49912 3.766122,0.9075 8.369171,0.9075 4.603032,0 8.777533,-0.40838 9.276658,-0.9075 z m 67.749448,-3.47356 c 0.361656,-0.5852 -1.008076,-1.06397 -3.043852,-1.06397 -3.432661,0 -4.642238,1.07583 -3.026355,2.69173 0.890814,0.89081 5.233322,-0.27367 6.070207,-1.62779 z m -128.061387,-5.45305 c 3.61944,-0.9701 2.25419,-2.87092 -2.06203,-2.87092 -2.68485,0 -3.32347,-0.46737 -2.89333,-2.1175 0.49837,-1.9118 -0.74685,-2.14127 -12.81829,-2.36225 -7.35364,-0.13462 -13.37025,0.2155 -13.37025,0.77805 0,1.76434 3.51851,2.48524 13.10646,2.68535 5.10319,0.10648 7.3728,0.38412 5.04354,0.61694 -8.2819,0.82778 -12.1,1.73474 -12.1,2.87423 0,1.25975 20.65515,1.58578 25.0939,0.3961 z m 126.156121,-0.45092 c 0,-0.6655 -0.784613,-1.21 -1.743586,-1.21 -0.958974,0 -2.080111,0.5445 -2.491414,1.21 -0.411304,0.6655 0.373309,1.21 1.743585,1.21 1.370277,0 2.491415,-0.5445 2.491415,-1.21 z M -284.04134,702.37849 c 0.62476,-4.02945 0.38226,-5.16708 -1.23368,-5.78717 -2.93509,-1.12629 -3.96131,0.51739 -4.19595,6.72061 -0.39781,10.51735 3.76515,9.80167 5.42963,-0.93344 z m 141.62525,7.33639 c 0.40396,-1.05268 0.73446,-3.43945 0.73446,-5.30394 0,-3.69098 -2.9237,-5.01404 -8.25275,-3.73465 l -2.80775,0.67409 3.72284,5.13923 c 4.00434,5.52783 5.44887,6.2334 6.6032,3.22527 z m 124.695595,-1.81938 c -0.389584,-0.63038 -1.224097,-0.82738 -1.854471,-0.43778 -0.630373,0.38959 -0.827373,1.2241 -0.437778,1.85447 0.389584,0.63038 1.224097,0.82738 1.854471,0.43778 0.630373,-0.38958 0.827373,-1.22409 0.437778,-1.85447 z m -145.207385,-2.88318 c -2.2712,-1.71785 -2.24887,-1.7825 0.67624,-1.95815 2.82485,-0.16963 2.78482,-0.24276 -0.605,-1.10533 -4.60053,-1.17064 -18.755,-1.47552 -18.755,-0.404 0,0.4433 0.95287,1.77218 2.1175,2.95309 1.60674,1.6292 4.14332,2.16444 10.51626,2.21901 7.63689,0.0653 8.18571,-0.0892 6.05,-1.70462 z m -54.98376,-1.24848 c 0,-1.00832 -1.07556,-1.815 -2.42,-1.815 -2.41061,0 -3.14736,1.28931 -1.61333,2.82333 1.47369,1.4737 4.03333,0.83379 4.03333,-1.00833 z m -7.26,-1.74358 c 0,-0.62622 -0.5445,-1.47511 -1.21,-1.88642 -0.6655,-0.4113 -1.21,0.10109 -1.21,1.13859 0,1.03753 0.5445,1.88641 1.21,1.88641 0.6655,0 1.21,-0.51235 1.21,-1.13858 z m 67.0945,-3.63087 c -1.03933,-1.03024 -18.32405,-3.70055 -23.95342,-3.70055 -4.19976,0 0.19662,3.452 5.04851,3.96405 9.54819,1.00767 20.03977,0.86143 18.90491,-0.2635 z m 18.81551,0.27451 c 0,-0.8715 -1.17216,-2.23957 -8.62885,-10.0711 -2.24189,-2.35458 -5.13463,-5.50888 -6.4283,-7.00958 -2.32956,-2.70229 -2.32956,-2.72015 0,-1.85911 2.46974,0.91288 6.3445,4.61669 9.41331,8.99804 1.00124,1.42947 2.36835,2.26043 3.03799,1.84655 1.9139,-1.18285 -0.51442,-7.83495 -4.05944,-11.12036 -1.72559,-1.59922 -3.93388,-4.81384 -4.90731,-7.14358 -0.97343,-2.32975 -1.91757,-4.23592 -2.09808,-4.23592 -0.1805,0 -3.34924,-1.0618 -7.04163,-2.35958 -6.34969,-2.23174 -12.475,-2.1933 -11.70468,0.0735 0.19359,0.56965 2.77501,2.26995 5.73651,3.77844 8.17613,4.16467 7.58167,5.97184 -1.07786,3.27669 -4.02543,-1.25284 -8.00243,-1.98678 -8.8378,-1.63098 -0.83538,0.35582 -2.73929,3.09437 -4.23092,6.08569 l -2.71204,5.43873 6.67905,2.9538 c 3.67347,1.62458 7.94307,2.95379 9.48799,2.95379 1.54493,0 5.00462,1.59053 7.68823,3.53452 2.78179,2.01511 7.28751,3.89567 10.48143,4.37462 3.08119,0.46206 5.89985,1.32177 6.26368,1.91048 0.79151,1.28066 2.93872,1.43076 2.93872,0.20544 z m 52.299225,-3.53644 c 0.717517,-0.44346 0.690063,-1.17333 -0.07284,-1.93622 -1.736666,-1.73666 -11.752612,-0.0131 -13.709955,2.35932 -1.46276,1.77291 -0.95438,1.87633 5.509859,1.12088 3.916707,-0.45773 7.639527,-1.15252 8.272938,-1.54398 z m -87.611245,-3.43089 c -0.21065,-0.18148 -2.15262,-1.22993 -4.31549,-2.32991 -3.30796,-1.68233 -3.9325,-1.72279 -3.9325,-0.25472 0,1.79943 5.88693,4.47792 7.64299,3.47746 0.5434,-0.30959 0.81565,-0.71136 0.605,-0.89283 z m 53.17363,-0.25909 c -1.15687,-0.30286 -3.33487,-0.31383 -4.84,-0.0244 -1.50513,0.28942 -0.55861,0.53721 2.10339,0.55064 2.662,0.0134 3.89348,-0.22337 2.73661,-0.52622 z m -162.75912,-1.18 c -0.83188,-0.33566 -2.19313,-0.33566 -3.025,0 -0.83188,0.33567 -0.15125,0.61032 1.5125,0.61032 1.66375,0 2.34437,-0.27465 1.5125,-0.61032 z m 203.678463,-1.46337 c -0.869325,-1.40659 -16.430956,-1.68506 -16.430956,-0.29402 0,0.5734 3.849967,1.12167 8.555476,1.2184 4.872477,0.10021 8.262752,-0.29778 7.87548,-0.92438 z m -177.360963,-0.68885 c 0,-0.29347 -0.5445,-0.87011 -1.21,-1.28142 -0.6655,-0.4113 -1.21,-0.17119 -1.21,0.53359 0,0.70478 0.5445,1.28141 1.21,1.28141 0.6655,0 1.21,-0.2401 1.21,-0.53358 z m 134.91501,-0.67642 c 3.11777,-0.79333 2.74368,-0.94388 -2.65109,-1.06684 -3.45459,-0.0788 -6.61761,0.40134 -7.02891,1.06684 -0.85844,1.389 4.22131,1.389 9.68,0 z m -156.09001,-2.42 c -3.42177,-1.47038 -9.37876,-1.47038 -8.47,0 0.41129,0.6655 3.0298,1.17174 5.8189,1.12495 3.94238,-0.0661 4.53245,-0.31649 2.6511,-1.12495 z m 56.3061,-4.32523 c 3.41939,-7.50601 2.84695,-9.49959 -2.863,-9.97064 -4.19839,-0.34635 -4.58126,-0.13166 -4.22493,2.36905 0.43243,3.0348 -3.56211,5.82742 -8.38067,5.85899 -3.83296,0.0252 -3.39491,-2.20872 0.605,-3.08518 6.34244,-1.38974 6.66665,-1.64105 5.77165,-4.47418 -0.47046,-1.4893 -1.13854,-4.20518 -1.48461,-6.03531 -0.60372,-3.19269 -0.42756,-3.3275 4.34812,-3.3275 4.06353,0 4.97734,-0.41734 4.97734,-2.2732 0,-2.75365 -6.02161,-5.54292 -9.54925,-4.4233 -1.3572,0.43076 -4.39814,0.25017 -6.75762,-0.40132 -2.52319,-0.69668 -4.00588,-0.72484 -3.60015,-0.0683 1.57564,2.54943 -3.6783,0.84802 -8.03386,-2.60165 l -4.69413,-3.71782 -3.00426,3.41532 c -4.38537,4.9854 -4.35751,14.01796 0.0521,16.90728 2.57064,1.68434 3.0467,2.79096 2.65268,6.1661 -0.39312,3.36732 0.15279,4.64603 3.00995,7.05017 3.80307,3.20007 6.87623,3.72105 9.0612,1.53606 0.98685,-0.98684 1.86278,-1.02532 2.9645,-0.13021 2.0859,1.69472 5.34728,2.43119 11.51605,2.60057 4.94109,0.13566 5.19668,-0.045 7.63384,-5.39486 z m -8.5111,0.69523 c 0,-0.6655 0.7846,-1.21 1.74358,-1.21 0.95897,0 2.08012,0.5445 2.49142,1.21 0.4113,0.6655 -0.37331,1.21 -1.74359,1.21 -1.37027,0 -2.49141,-0.5445 -2.49141,-1.21 z M -252.28909,669.186 c -1.7229,-2.04755 -3.13255,-4.4978 -3.13255,-5.445 0,-2.50061 3.33644,-2.11158 4.7638,0.55549 1.64553,3.07468 4.32566,3.93698 7.9517,2.55836 2.51102,-0.95469 3.0145,-0.78735 3.0145,1.00195 0,6.04845 -7.92302,6.88445 -12.59745,1.3292 z m 176.552462,14.61284 c 0,-1.42681 -2.005674,-1.89059 -9.377502,-2.16838 -7.66488,-0.28887 -9.377503,-0.0236 -9.377503,1.4521 0,1.33841 1.800022,1.92369 6.957503,2.26225 10.210609,0.67026 11.797502,0.4623 11.797502,-1.54597 z m -46.585002,0 c 0,-0.6655 -2.99475,-1.21 -6.655,-1.21 -3.66025,0 -6.655,0.5445 -6.655,1.21 0,0.6655 2.99475,1.21 6.655,1.21 3.66025,0 6.655,-0.5445 6.655,-1.21 z m -151.80526,-2.50049 c 0.43867,-0.70978 0.55711,-1.53097 0.26323,-1.82486 -1.22082,-1.22081 -14.07672,-1.73832 -14.78327,-0.59509 -0.71947,1.16413 1.12983,1.8514 7.81529,2.90442 5.43006,0.85528 5.89761,0.8215 6.70475,-0.48447 z m 149.08276,-0.70356 c 5.11393,-0.61425 6.3525,-1.20201 6.3525,-3.01449 0,-2.0274 -1.07663,-2.25146 -10.81859,-2.25146 -5.95022,0 -11.08404,-0.42951 -11.40849,-0.95445 -0.32443,-0.52496 2.7743,-0.7835 6.88609,-0.57455 8.85666,0.4501 15.69128,-0.55529 14.6982,-2.16213 -0.39052,-0.63188 -3.53653,-1.2404 -6.99112,-1.35227 -5.23206,-0.16943 -5.52327,-0.28267 -1.74359,-0.67805 8.60655,-0.90027 4.51067,-2.74849 -6.05,-2.73002 -7.28266,0.0128 -10.02096,0.38466 -8.7725,1.19147 0.99825,0.64513 3.72075,1.27526 6.05,1.40033 2.57651,0.13832 1.15492,0.54143 -3.63,1.02931 -5.94206,0.60587 -7.19937,1.03305 -5.1425,1.74727 1.49737,0.51994 2.7225,1.69859 2.7225,2.61921 0,1.70174 1.69446,2.09413 7.4425,1.72349 1.76413,-0.11374 3.57424,0.38656 4.02245,1.11176 0.44821,0.72523 0.36608,1.24062 -0.18252,1.14533 -0.54858,-0.0954 -2.90318,-0.0705 -5.23243,0.055 -3.5216,0.18986 -3.82734,0.40352 -1.815,1.26824 3.03627,1.30473 5.62246,1.38566 13.6125,0.42595 z m 54.752502,-1.63595 c 0,-0.69142 -3.63,-1.21 -8.470002,-1.21 -4.84,0 -8.47,0.51858 -8.47,1.21 0,0.69143 3.63,1.21 8.47,1.21 4.840002,0 8.470002,-0.51857 8.470002,-1.21 z m -199.650012,-3.55586 c 0,-1.4954 -10.28288,-3.01217 -12.23628,-1.80491 -1.1103,0.68619 -0.88959,1.18435 0.82159,1.85446 3.37628,1.32215 11.41469,1.28727 11.41469,-0.0495 z m 200.009394,-0.52142 c 1.08341,1.0834 8.110619,-0.82812 8.110619,-2.20625 0,-0.7783 -1.943733,-0.97915 -5.142501,-0.53137 -2.828375,0.39592 -9.090125,0.81252 -13.915002,0.92579 -4.824875,0.11326 -8.772502,0.64192 -8.772502,1.17479 0,1.25519 14.521298,1.95595 17.083413,0.82439 1.077118,-0.47569 2.263305,-0.56001 2.635973,-0.18735 z m -215.134394,-0.76272 c -0.4113,-0.6655 -1.56458,-1.21 -2.56283,-1.21 -0.99825,0 -1.47847,0.5445 -1.06717,1.21 0.41129,0.6655 1.56456,1.21 2.56281,1.21 0.99825,0 1.47848,-0.5445 1.06719,-1.21 z m 18.15528,-3.63853 c 1.0634,-1.72064 -1.10703,-2.21045 -11.81076,-2.66539 -6.00708,-0.25531 -9.2391,0.0452 -8.97881,0.835 0.80921,2.45542 19.3921,4.09152 20.78957,1.83039 z m 56.72461,-5.05434 c 4.46038,-6.81266 5.46094,-11.8176 2.40886,-12.0495 -7.71008,-0.5858 -8.3289,-0.36205 -7.98471,2.88713 0.18373,1.73439 -0.22465,3.49873 -0.9075,3.92075 -2.70744,1.67329 -0.68415,10.30449 2.41553,10.30449 0.41418,0 2.2447,-2.27829 4.06782,-5.06287 z m 143.351801,3.9856 c 2.403702,-1.52306 -0.02057,-2.64818 -6.811259,-3.1611 -8.024577,-0.60611 -14.795424,0.57366 -14.795424,2.57802 0,1.27446 2.320068,1.65605 9.982502,1.64183 5.490377,-0.01 10.721255,-0.48664 11.624181,-1.05875 z m -156.939921,-4.05996 c -1.38567,-1.38568 -4.17058,-0.0441 -3.19277,1.53799 0.36493,0.59046 1.49941,0.75279 2.52107,0.36073 1.21324,-0.46556 1.44623,-1.12418 0.6717,-1.89872 z m -44.41227,-0.77368 c -1.44734,-1.34839 -19.9045,-2.52437 -19.9045,-1.26819 0,1.62485 2.79449,2.14561 12.0395,2.24358 5.28369,0.056 8.53875,-0.34769 7.865,-0.97539 z m 124.08551,-1.23231 c 0,-0.60126 -2.72284,-1.28188 -6.05075,-1.5125 -6.7432,-0.46725 -7.30115,-0.23949 -3.32675,1.35803 3.58688,1.44173 9.3775,1.53713 9.3775,0.15447 z m 16.94,-0.11676 c -2.45172,-1.58442 -16.10423,-1.58442 -15.125,0 0.4113,0.6655 4.39107,1.20166 8.84391,1.19147 5.67382,-0.013 7.55306,-0.36946 6.28109,-1.19147 z m 55.660002,-0.605 c 0,-1.9201 -7.504084,-2.52721 -13.007502,-1.05235 -5.25819,1.40914 -2.642943,2.86735 5.1425,2.86735 6.184445,0 7.865002,-0.38782 7.865002,-1.815 z m 53.845009,-1.815 c -0.411304,-0.6655 -1.804691,-1.21 -3.096415,-1.21 -1.291723,0 -2.348585,0.5445 -2.348585,1.21 0,0.6655 1.393387,1.21 3.096414,1.21 1.756145,0 2.772715,-0.52374 2.348586,-1.21 z m -250.163131,-2.1175 c 0.37517,-1.13541 -2.1649,-1.5029 -10.18857,-1.47403 -9.79187,0.0352 -10.48577,0.19156 -8.27324,1.86351 3.00348,2.26963 17.68552,1.95991 18.46181,-0.38948 z m 130.97812,-0.79375 c -4.03828,-2.14176 -14.67882,-3.38545 -16.90609,-1.97602 -1.56812,0.99232 -1.56812,1.19574 0,1.70131 0.97959,0.31582 2.59784,0.84663 3.59609,1.17956 0.99825,0.33294 5.082,0.62652 9.075,0.65242 6.7316,0.0437 7.03983,-0.0697 4.235,-1.55727 z m 64.130002,-0.71875 c 0,-1.54751 -8.495412,-1.54751 -10.890002,0 -1.299347,0.8397 -0.0097,1.17819 4.5375,1.19147 3.493877,0.01 6.352502,-0.52597 6.352502,-1.19147 z m -195.365262,-2.5005 c 1.17447,-1.90034 0.7994,-2.01832 -9.42725,-2.96538 -8.07792,-0.74809 -9.3775,-0.60557 -9.3775,1.02833 0,1.45184 1.63207,1.9992 6.9575,2.33337 3.82662,0.24013 7.87823,0.53955 9.00358,0.66538 1.12535,0.12584 2.405,-0.35193 2.84367,-1.0617 z m 251.025271,0.15191 c 0,-1.79048 -1.769141,-2.43506 -4.630017,-1.68692 -3.851672,1.00723 -3.208146,2.82551 1.000017,2.82551 1.9965,0 3.63,-0.51236 3.63,-1.13859 z m -56.870009,-3.84248 c 0,-0.5879 -2.450252,-1.06893 -5.445002,-1.06893 -5.601054,0 -7.576415,1.93098 -2.7225,2.66134 3.742977,0.56318 8.167502,-0.29945 8.167502,-1.59241 z m -19.667319,-2.21158 c 3.829275,-1.29395 9.957067,-2.53229 13.617317,-2.75186 3.66025,-0.21955 6.655002,-0.82515 6.655002,-1.34577 0,-0.52061 -9.937127,-1.1231 -22.082505,-1.33886 -23.765117,-0.42218 -25.876837,0.17195 -17.541737,4.93542 5.79473,3.31163 10.66156,3.43764 19.351923,0.50107 z m 73.209828,1.55128 c -0.831875,-0.33566 -2.193125,-0.33566 -3.025,0 -0.831875,0.33568 -0.15125,0.61031 1.5125,0.61031 1.66375,0 2.344375,-0.27463 1.5125,-0.61031 z m -247.697771,-1.69913 c 1.14696,-1.85585 0.91281,-1.92389 -9.52573,-2.76853 -7.28412,-0.58941 -9.36134,-0.41856 -8.98041,0.73863 0.83457,2.5353 17.0917,4.3185 18.50614,2.0299 z m 19.30354,-1.13692 c -2.55984,-2.82858 -2.74153,-2.54628 4.16219,-6.46723 5.34042,-3.03307 5.3503,-3.05112 2.1175,-3.86252 -4.76836,-1.19677 -8.49097,0.12742 -12.85421,4.57246 l -3.87702,3.94971 3.02307,0.37433 c 1.66271,0.20587 3.6741,1.15875 4.46979,2.1175 0.79569,0.95873 2.28116,1.74317 3.30107,1.74317 1.55206,0 1.49623,-0.39575 -0.34239,-2.42742 z m 47.19671,1.21742 c -0.4113,-0.6655 -4.25495,-1.21 -8.54142,-1.21 -4.38905,0 -7.79358,0.52858 -7.79358,1.21 0,0.69238 3.6538,1.21 8.54141,1.21 5.38615,0 8.26516,-0.44699 7.79359,-1.21 z m -22.21913,-2.61178 c -1.07794,-2.91389 -10.61784,-10.32958 -11.78588,-9.16155 -0.78545,0.78546 10.26363,11.77333 11.83892,11.77333 0.50221,0 0.47833,-1.1753 -0.053,-2.61178 z m 24.68888,-2.14772 c -0.43867,-0.70977 -4.16857,-1.27395 -8.28867,-1.25371 -5.9341,0.0291 -7.02605,0.30709 -5.25363,1.33726 1.23062,0.71525 3.68087,1.03121 5.445,0.70213 1.76415,-0.32908 4.29655,-0.18245 5.62755,0.32586 2.80331,1.07058 3.59747,0.71316 2.46975,-1.11154 z m 177.215271,1.25895 c 0,-1.48443 -3.408909,-2.67609 -4.163356,-1.45538 -0.335969,0.54362 -0.262655,1.33657 0.162914,1.76215 1.153154,1.15315 4.000442,0.9348 4.000442,-0.30677 z m -246.235021,-2.54945 c 0.47478,-0.76823 -2.26026,-1.138 -7.4911,-1.01279 l -8.2389,0.19723 6.655,0.81556 c 3.66025,0.44854 7.03123,0.90429 7.49108,1.01277 0.45985,0.10857 1.17262,-0.34727 1.58392,-1.01277 z m 235.820557,-1.91397 c 1.507866,-3.92941 0.689107,-9.7784 -1.732684,-12.37787 -4.277641,-4.59152 -5.712265,-3.46179 -4.704093,3.70434 0.491538,3.49387 1.2754,7.30537 1.741928,8.47 1.056887,2.6384 3.716262,2.7537 4.694849,0.20353 z m -73.919137,-1.11103 c 0.14597,-0.74026 -5.60931,-1.34265 -14.82475,-1.55169 -17.86384,-0.40518 -18.50599,1.24894 -0.87402,2.25143 14.89877,0.84709 15.39816,0.82482 15.69877,-0.69974 z m 14.931824,-0.2301 c -1.449507,-1.44952 -11.668234,-1.8471 -11.668234,-0.45398 0,0.74576 2.63487,1.28908 6.251671,1.28908 3.438407,0 5.875867,-0.37581 5.416563,-0.8351 z m 8.017292,0.0414 c -0.819206,-0.33145 -2.452706,-0.35163 -3.63,-0.0449 -1.177295,0.30678 -0.507026,0.57796 1.489474,0.60262 1.9965,0.0246 2.959732,-0.22635 2.140526,-0.5578 z m 63.509499,-0.71882 c -0.571266,-1.73976 -6.965014,-2.83174 -6.965014,-1.18954 0,1.82613 1.470888,2.70204 4.5375,2.70204 1.797539,0 2.732821,-0.58274 2.427514,-1.5125 z m -242.031025,-1.73569 c 0.34124,-1.03011 -3.20436,-1.54055 -12.60712,-1.815 -7.19505,-0.20999 -13.3533,-0.20117 -13.68499,0.0196 -0.33172,0.22079 0.47859,1.19239 1.80064,2.1591 3.02161,2.20945 23.741,1.90176 24.49147,-0.3637 z m 50.23849,1.23683 c -0.83188,-0.33568 -2.19313,-0.33568 -3.025,0 -0.83188,0.33566 -0.15125,0.6103 1.5125,0.6103 1.66375,0 2.34437,-0.27464 1.5125,-0.6103 z m 140.965012,-2.68601 c 1.497375,-0.0784 2.7225,-0.65963 2.7225,-1.2915 0,-0.68153 -8.859828,-1.16081 -21.780004,-1.17822 -25.084248,-0.0338 -30.235388,2.06917 -6.352501,2.59343 14.149404,0.3106 17.424003,0.29465 25.410005,-0.12371 z m -86.821292,-1.65513 c 0.002,-0.49912 -6.3941,-0.90971 -14.21372,-0.91243 -7.81963,-0.002 -21.76613,-0.57619 -30.99225,-1.27441 -9.22611,-0.69823 -17.07598,-0.96826 -17.44416,-0.60008 -1.34239,1.34238 1.2316,2.44749 7.37066,3.16452 8.86447,1.03534 55.27492,0.71832 55.27947,-0.3776 z m 20.57379,-0.3025 c 0,-2.05927 -0.52018,-2.14149 -6.20125,-0.9803 -3.94236,0.80582 -3.97902,0.86449 -1.05875,1.6944 5.00489,1.42233 7.26,1.20052 7.26,-0.7141 z m 22.28237,0.77106 c 0.79282,-1.28281 -10.82309,-2.59061 -15.34025,-1.72709 -1.80616,0.34526 -2.98588,1.10999 -2.62161,1.69939 0.85338,1.3808 17.11011,1.40586 17.96186,0.0277 z m 70.506327,-2.58012 c 1.307223,-2.62205 1.192576,-3.15919 -0.915063,-4.28716 -1.32524,-0.70926 -2.064562,-1.63451 -1.642938,-2.05614 0.421625,-0.42162 -1.168654,-1.12965 -3.533951,-1.57338 -4.704299,-0.88254 -10.462991,2.17192 -12.987234,6.88852 -1.886595,3.52512 -0.459304,4.15737 4.281538,1.89662 3.930637,-1.87438 4.298634,-1.85499 6.942302,0.36571 3.527623,2.96322 5.952669,2.58221 7.855346,-1.23417 z m 24.581314,-3.03094 c 0,-4.95223 -0.264809,-5.445 -2.926035,-5.445 -6.391425,0 -8.928401,2.74808 -4.031465,4.36693 l 2.7225,0.90004 -2.793915,0.69401 c -3.587716,0.89121 -3.587716,2.89045 0,3.90091 6.363064,1.7921 7.028915,1.3737 7.028915,-4.41689 z m -227.480021,2.98076 c 2.77818,-0.11556 2.82754,-0.21012 0.605,-1.15862 -3.24825,-1.38622 -39.60745,-0.12737 -41.14,1.4244 -1.05885,1.0721 10.14582,0.99865 40.535,-0.26578 z m 23.595,0.0442 c 0.4113,-0.6655 -0.40545,-1.21 -1.815,-1.21 -1.40955,0 -2.2263,0.5445 -1.815,1.21 0.4113,0.66551 1.22805,1.21001 1.815,1.21001 0.58695,0 1.4037,-0.5445 1.815,-1.21001 z m -15.125,-1.21 c 0,-0.6655 -0.57665,-1.21 -1.28142,-1.21 -0.70478,0 -0.94488,0.5445 -0.53358,1.21 0.4113,0.6655 0.98794,1.21 1.28141,1.21 0.29348,0 0.53359,-0.5445 0.53359,-1.21 z m 9.075,0 c -0.4113,-0.6655 -2.10907,-1.21 -3.77282,-1.21 -1.70856,0 -2.69956,0.52659 -2.27718,1.21 0.4113,0.6655 2.10906,1.21 3.77281,1.21 1.70856,0 2.69956,-0.52658 2.27719,-1.21 z m 132.037539,-1.13996 c -2.562362,-0.91943 -9.222529,-0.20918 -9.222529,0.98352 0,0.42839 2.58637,0.56581 5.7475,0.30539 3.830483,-0.31557 4.989542,-0.74547 3.475029,-1.28891 z m -60.042539,-0.0385 c 0,-0.60429 -0.40838,-1.34719 -0.9075,-1.65087 -0.49913,-0.3037 -12.61425,-0.94429 -26.9225,-1.42354 -14.30825,-0.47924 -26.40682,-1.10156 -26.88571,-1.3829 -0.47889,-0.28136 -8.37414,-0.5784 -17.545,-0.66008 -9.17086,-0.0817 -15.04079,-0.37394 -13.04429,-0.64944 1.9965,-0.2755 4.14727,-1.00351 4.7795,-1.6178 1.56758,-1.52313 -45.37525,-1.43157 -47.7345,0.0932 -2.34306,1.51419 -1.43698,1.58535 18.755,1.47296 12.17833,-0.0678 14.36397,0.13955 9.68,0.91819 -3.3275,0.55315 -11.35888,1.11345 -17.8475,1.2451 -6.94347,0.14089 -11.7975,0.74003 -11.7975,1.45616 0,0.79116 9.84083,1.09077 28.1325,0.85654 22.24779,-0.28488 87.88856,1.01167 88.83871,1.75476 1.02679,0.80303 12.49879,0.42469 12.49879,-0.41219 z m 41.14001,0.0604 c -3.60708,-2.07591 -38.72,-2.15922 -38.72,-0.0919 0,0.75996 7.53797,1.19631 20.2675,1.1732 11.98554,-0.0218 19.52583,-0.46364 18.4525,-1.08137 z m 48.848295,-0.12756 c -0.833001,-0.83301 -5.022081,-0.88751 -12.644503,-0.16451 l -11.398794,1.08122 12.644502,0.16448 c 8.671261,0.11277 12.253067,-0.22693 11.398795,-1.08119 z m 4.159145,-5.10679 c 0.377774,-1.95103 -1.333057,-2.12712 -21.761223,-2.23974 -12.194165,-0.0673 -39.186847,-0.3293 -59.983717,-0.58238 -24.23422,-0.29493 -37.81251,-0.0338 -37.81251,0.72722 0,0.65307 2.04187,1.25454 4.5375,1.33661 2.49562,0.0821 8.349,0.36458 13.0075,0.62781 12.55262,0.70926 73.000143,2.24798 88.31123,2.24798 11.695439,0 13.340434,-0.25424 13.70122,-2.1175 z m -140.73245,-1.96683 3.63,-1.03545 -4.46318,-0.88834 c -3.59204,-0.71493 -9.57406,-0.54867 -19.13182,0.53178 -0.33275,0.0376 0.13074,0.53462 1.02997,1.10446 2.19574,1.39143 14.41468,1.577 18.93503,0.28755 z m 18.755,-0.15067 c 0,-0.6655 -2.4824,-1.21 -5.51642,-1.21 -3.36948,0 -5.22536,0.47091 -4.76858,1.21 0.4113,0.6655 2.89369,1.21 5.51641,1.21 2.62273,0 4.76859,-0.5445 4.76859,-1.21 z m -42.35,-1.21 c 0,-1.43649 -2.10214,-1.43649 -5.445,0 -2.02799,0.87144 -1.78297,1.05367 1.5125,1.12494 2.16287,0.0469 3.9325,-0.45944 3.9325,-1.12494 z"
       style="fill:#000000" />
  </g>
</svg>
