<?xml version="1.0" encoding="UTF-8" standalone="no"?>
<svg
   xmlns:dc="http://purl.org/dc/elements/1.1/"
   xmlns:cc="http://creativecommons.org/ns#"
   xmlns:rdf="http://www.w3.org/1999/02/22-rdf-syntax-ns#"
   xmlns:svg="http://www.w3.org/2000/svg"
   xmlns="http://www.w3.org/2000/svg"
   version="1.1"
   id="svg14124"
   viewBox="0 0 357.1096 396.40075"
   height="111.8731mm"
   width="100.78426mm">
  <defs
     id="defs14126" />
  <metadata
     id="metadata14129">
    <rdf:RDF>
      <cc:Work
         rdf:about="">
        <dc:format>image/svg+xml</dc:format>
        <dc:type
           rdf:resource="http://purl.org/dc/dcmitype/StillImage" />
        <dc:title></dc:title>
      </cc:Work>
    </rdf:RDF>
  </metadata>
  <g
     transform="translate(-221.03423,-74.085314)"
     id="layer1">
    <path
       id="path14683"
       d="m 221.26713,272.28569 0.2328,-198.200376 101.7212,0.56164 c 55.9467,0.3089 102.0717,0.77112 102.5,1.02716 0.4283,0.25604 19.2288,0.73971 41.7788,1.07483 91.3434,1.35748 110.4978,1.87812 110.6127,3.00663 0.1737,1.70713 -0.4247,93.383566 -0.6502,99.606616 -0.1096,3.025 -0.2598,69.26171 -0.3337,147.1927 -0.074,77.93098 -0.516,141.92858 -0.9825,142.21688 -1.1327,0.70007 -56.5337,1.06467 -158.6463,1.04407 -46.2,-0.009 -105.15,-0.003 -131,0.0147 -25.85,0.0174 -50.15,-0.19335 -54,-0.46835 -3.85,-0.275 -8.0048,-0.13463 -9.2328,0.31194 l -2.2329,0.81193 0.2329,-198.20037 z m 156.2328,194.0765 c 0.3399,-0.55 0.254,-1.01675 -0.191,-1.03723 -6.785,-0.31227 -34.1544,-5.44933 -46.809,-8.78577 -19.9026,-5.24741 -30.4953,-5.11502 -36.061,0.45069 -3.2147,3.21471 -3.714,3.37231 -10.6832,3.37231 -4.6528,0 -8.0385,-0.50971 -9.3124,-1.40197 -1.1009,-0.77108 -4.0135,-1.91486 -6.4725,-2.54173 -2.459,-0.62687 -5.4373,-1.62235 -6.6184,-2.21217 -1.8734,-0.93549 -14.8779,-0.75099 -26.7549,0.37959 -4.8202,0.45884 -4.1877,-2.05239 2.0389,-8.09567 6.7993,-6.59914 13.8569,-9.62549 24.8635,-10.66169 11.4004,-1.07327 20.8005,0.7767 33.025,6.49947 11.9432,5.59105 15.7085,5.74413 6.7876,0.27595 -7.2081,-4.41827 -18.6724,-13.57625 -27.5546,-22.01145 l -6.7421,-6.4027 -2.3711,2.83619 c -1.3041,1.5599 -2.6818,3.82892 -3.0614,5.04226 -1.125,3.59522 -6.3023,7.29392 -10.2098,7.29392 -4.7754,0 -8.5677,-2.17993 -12.8202,-7.36949 -3.2421,-3.95664 -3.5857,-4.94171 -3.4063,-9.76552 0.1097,-2.95074 -0.1584,-8.08974 -0.5959,-11.41999 -0.7653,-5.82602 -0.6962,-6.11998 1.8267,-7.77306 3.2518,-2.13067 3.4838,-6.30669 0.5571,-10.02743 -2.4009,-3.05231 -1.8334,-4.64451 1.6554,-4.64451 3.8425,0 3.9418,-2.54021 0.2801,-7.16347 -2.7619,-3.48727 -3.3033,-4.97981 -3.1807,-8.76953 0.081,-2.51185 0.2054,-6.32341 0.2759,-8.47012 0.07,-2.14672 -0.343,-4.37422 -0.9188,-4.95 -0.5758,-0.57579 -1.0469,-1.76138 -1.0469,-2.63465 0,-0.87328 -1.3317,-3.14578 -2.9594,-5.05 -3.1063,-3.63423 -3.6878,-5.44423 -2.07,-6.44408 2.4333,-1.50386 16.767,8.72252 19.6005,13.98396 2.8321,5.259 3.7933,4.30323 3.1033,-3.08585 -0.6228,-6.66977 -3.1143,-12.20022 -6.6075,-14.66701 -4.9408,-3.48902 -6.5953,-11.85971 -5.0749,-25.67626 0.8458,-7.68675 0.8352,-11.06642 -0.043,-13.72724 -0.8961,-2.71523 -0.8884,-3.79711 0.034,-4.68781 0.9177,-0.88664 2.3021,0.0647 5.9088,4.06024 7.9721,8.83166 12.9124,21.95084 14.0391,37.28182 0.3841,5.225 0.9534,8.825 1.2652,8 1.972,-5.21801 8.261,-24.74283 10.0568,-31.22255 2.1385,-7.71624 2.1387,-7.72639 0.1858,-12.43851 -2.461,-5.93807 -6.7127,-7.58324 -12.1,-4.682 -3.2149,1.73137 -3.4626,1.73099 -6.696,-0.0103 -3.6102,-1.94424 -7.6424,-8.36843 -7.6424,-12.17604 0,-1.28722 0.5208,-3.6072 1.1574,-5.1555 1.5158,-3.68653 3.0855,-15.45426 2.9344,-21.99746 -0.066,-2.8503 0.3366,-5.46436 0.8943,-5.80902 2.0062,-1.23992 0.92,-3.04262 -2.9505,-4.8966 -8.815,-4.22245 -18.0356,0.77184 -18.0356,9.7689 0,7.55081 7.1063,13.02605 9.9675,7.67977 1.2855,-2.40188 0.024,-3.34763 -3.3393,-2.5035 -1.8465,0.46343 -2.735,0.1117 -3.546,-1.40366 -4.2137,-7.87326 3.7724,-15.4197 12.5943,-11.90105 2.1029,0.83876 3.8235,2.02508 3.8235,2.63627 0,1.35921 -0.9629,1.35246 -5.6084,-0.0394 -2.9875,-0.89508 -4.0629,-0.78328 -6.25,0.64977 -1.4529,0.95201 -2.6416,2.57915 -2.6416,3.61589 0,1.48145 0.7366,1.88499 3.441,1.88499 4.0167,0 4.759,0.87856 4.759,5.63295 0,4.29255 -2.325,6.29152 -7.3684,6.33525 -3.1729,0.0275 -3.9835,-0.47482 -6,-3.7182 -4.3223,-6.95175 -1.862,-20.36052 4.0375,-22.00507 1.447,-0.40337 5.2184,-0.72021 8.3809,-0.70409 5.7646,0.0294 7.0008,-0.89008 4.525,-3.3658 -0.9666,-0.96661 -0.9581,-1.6522 0.04,-3.25074 1.0641,-1.70391 0.8615,-3.22748 -1.275,-9.58881 -2.0757,-6.17992 -2.5321,-9.41671 -2.4961,-17.69926 0.045,-10.34152 1.774,-19.74226 3.7522,-20.40166 0.7483,-0.24943 1.0823,2.4561 1.0433,8.44926 -0.066,10.10903 1.9251,16.61449 8.3147,27.16837 2.1151,3.49372 3.8457,6.52253 3.8457,6.73071 0,0.20818 2.3232,3.83671 5.1626,8.06342 6.6303,9.86971 13.0155,22.35868 15.0076,29.35367 6.6491,23.34765 6.34,37.26093 -1.2518,56.35546 -2.1551,5.4205 -3.9184,10.02401 -3.9184,10.23002 0,0.20601 3.2625,-2.90052 7.25,-6.90339 5.3375,-5.35806 9.0019,-8.05671 13.8909,-10.23003 4.7145,-2.09569 7.1192,-3.83139 8.2897,-5.9833 0.9068,-1.66718 3.6908,-4.26469 6.1867,-5.77225 4.074,-2.46083 5.3733,-2.71998 12.7103,-2.53515 6.0047,0.15127 9.011,-0.2354 11.3341,-1.45776 4.0224,-2.11651 7.3383,-6.30958 7.3383,-9.27944 0,-2.94203 1.4147,-3.80778 3.9793,-2.43522 1.5102,0.8082 2.0207,2.09126 2.0207,5.07836 0,5.58715 -2.1339,10.09331 -6.9059,14.58348 -2.2499,2.11707 -4.0916,4.11527 -4.0925,4.44043 -9e-4,0.32517 2.5859,0.56532 5.7484,0.53368 4.6259,-0.0463 6.7155,0.51373 10.6892,2.86467 4.1861,2.47667 6.0004,2.9222 11.8998,2.9222 6.1802,0 7.1401,-0.26289 8.5608,-2.3448 0.8801,-1.28964 2.9395,-3.68292 4.5764,-5.31839 2.6881,-2.68571 3.4317,-2.91962 7.6816,-2.41629 4.7666,0.56454 10.3323,2.97837 16.9212,7.33868 2.3862,1.5791 4.0652,3.73605 4.9167,6.31605 0.9576,2.9016 2.0726,4.18975 4.2979,4.9655 6.7299,2.34603 12.9288,0.71684 14.5079,-3.81292 1.099,-3.15272 0.5863,-7.13959 -0.9181,-7.13959 -0.4859,0 -0.8834,-0.675 -0.8834,-1.5 0,-2.50051 3.2109,-1.68794 6.7024,1.69617 3.66,3.54743 4.1967,7.07096 2.1284,13.97434 -2.1326,7.11775 -12.7077,13.82949 -21.79,13.82949 -6.0268,0 -23.6553,-7.04884 -36.7908,-14.71096 -3.4171,-1.99325 -4.25,-2.17762 -4.25,-0.94077 0,0.84608 0.8602,2.14084 1.9116,2.87725 2.1217,1.48614 11.5038,13.36878 15.7926,20.00175 4.1733,6.45431 12.8685,17.08006 15.362,18.77273 1.2153,0.825 3.2063,2.46666 4.4244,3.64814 3.85,3.73418 8.5187,5.5068 15.9927,6.07205 6.2987,0.47637 7.957,0.22355 12.6335,-1.92608 10.3647,-4.76426 14.8832,-10.44985 14.8832,-18.72751 0,-7.94839 -9.7156,-13.35333 -14.5,-8.0666 -4.7195,5.21495 -6.2409,-0.48967 -1.6103,-6.03777 2.7091,-3.24585 3.2559,-3.45843 8.75,-3.40139 8.1344,0.0845 13.1963,2.3311 17.086,7.58342 3.6682,4.95313 4.067,8.74216 2.0778,19.74044 -1.4344,7.93078 -2.7747,10.32369 -10.1544,18.12912 -3.107,3.28619 -5.6491,6.62692 -5.6491,7.42383 0,2.7806 -4.1336,4.61287 -8.9784,3.97986 -4.0601,-0.53049 -4.6237,-0.35327 -5.5216,1.73641 -0.8526,1.98416 -1.7601,2.34175 -6.157,2.42594 -3.9255,0.0752 -5.0342,-0.22105 -4.643,-1.24056 0.2827,-0.73661 0.3533,-1.33252 0.157,-1.32424 -1.504,0.0634 -8.1922,2.89828 -8.7091,3.69142 -1.6534,2.53687 -5.1703,3.41488 -8.6453,2.15831 -2.7985,-1.01197 -3.9041,-0.98788 -5.9941,0.13064 -2.3632,1.26477 -2.726,1.16838 -4.6629,-1.23879 -1.7743,-2.20498 -2.4897,-2.46225 -4.608,-1.65689 -2.6122,0.99318 -6.4451,-0.71027 -8.8354,-3.92675 -0.8266,-1.11229 -2.1603,-1.3074 -5.3978,-0.78969 -3.6259,0.57981 -4.6688,0.34118 -6.6522,-1.52217 -1.3376,-1.25663 -2.3522,-3.36864 -2.3522,-4.89652 0,-2.65183 -0.053,-2.67269 -4.0543,-1.60459 -5.0167,1.33902 -6.2114,0.0147 -5.3562,-5.93757 0.5181,-3.60601 0.2866,-4.27361 -2.0018,-5.77305 -4.1153,-2.69644 -3.5581,-7.4071 1.5779,-13.33859 6.0234,-6.95647 8.2044,-12.437 7.534,-18.93205 -0.2997,-2.90395 -1.016,-6.08965 -1.5918,-7.07934 -0.841,-1.44543 -1.053,-0.90067 -1.0774,2.76907 -0.1044,15.68421 -8.5166,23.428 -25.0007,23.01422 -7.3519,-0.18455 -15.0297,-3.31986 -15.0297,-6.13753 0,-0.93517 -0.675,-2.2605 -1.5,-2.94519 -1.9913,-1.65261 -1.9903,-11.15126 0,-15.0031 1.7144,-3.31532 8.1503,-5.80232 9.9683,-3.85201 0.7153,0.76737 0.6099,1.25792 -0.3449,1.60511 -2.5956,0.94387 -5.125,4.25201 -5.125,6.70295 0,6.21928 4.6717,10.54705 11.3852,10.54705 6.8304,0 12.5204,-4.15383 14.6884,-10.72288 1.731,-5.24513 0,-5.77648 -3.0723,-0.94022 -2.2542,3.55451 -3.8017,4.76821 -7.7527,6.08054 -4.6385,1.54066 -8.2486,1.35858 -8.2486,-0.41602 0,-0.43153 1.095,-1.05943 2.4333,-1.39534 3.1682,-0.79515 3.6755,-2.72113 2.7937,-10.60608 l -0.727,-6.5 -4.89,-2.42356 c -3.3806,-1.6755 -7.454,-2.62721 -13.1967,-3.08333 -4.5687,-0.36286 -8.9873,-1.22456 -9.819,-1.91488 -1.9622,-1.62846 -6.7853,-0.59775 -12.3443,2.638 -2.3375,1.3606 -4.25,2.64933 -4.25,2.86385 0,0.21452 1.5614,5.00926 3.4698,10.65498 3.6927,10.92453 8.8072,21.62408 14.8347,31.03436 2.0325,3.17318 3.6955,6.12068 3.6955,6.55 0,0.42932 0.5475,1.32812 1.2168,1.99733 0.6692,0.66922 2.6335,3.77649 4.3651,6.90505 1.7316,3.12855 3.5465,5.816 4.0332,5.97211 0.4867,0.1561 1.6311,-1.49265 2.5431,-3.6639 3.5264,-8.39558 14.3738,-10.6729 19.6087,-4.11667 4.0681,5.09494 3.4518,7.58337 -1.5246,6.15615 -1.7355,-0.49773 -4.075,-0.6645 -5.1989,-0.3706 -2.9132,0.76183 -2.6818,5.77539 0.4566,9.89 2.9155,3.82238 3.238,8.13043 0.75,10.01906 -1.1636,0.88333 -1.3111,1.3391 -0.4401,1.36025 0.7204,0.0175 3.6454,2.2019 6.5,4.85424 17.6485,16.39823 40.4029,23.05544 69.1901,20.2428 23.2118,-2.2679 39.7069,-8.64726 49.0233,-18.95933 10.5023,-11.62481 15.433,-21.3057 17.5225,-34.40377 5.6548,-35.44602 -15.2524,-64.38985 -57.5458,-79.66613 -4.95,-1.78793 -11.25,-4.07625 -14,-5.08517 -2.75,-1.00892 -11.075,-3.91187 -18.5,-6.45099 -7.425,-2.53913 -17.775,-6.7749 -23,-9.41283 -12.8575,-6.49129 -19,-9.13354 -19,-8.17293 0,1.00216 10.6605,7.58199 13.8957,8.57663 3.2338,0.99422 6.8461,5.24786 8.0722,9.50556 1.4858,5.15911 -2.0565,11.95934 -7.2329,13.88554 -3.4039,1.26662 -3.9554,1.22869 -5.75,-0.3954 -3.0068,-2.72108 -2.5533,-7.15313 1.079,-10.54624 l 3.0641,-2.86223 -1.9666,-4.44582 c -1.4061,-3.17876 -2.9914,-4.93209 -5.5622,-6.15204 -3.5322,-1.67613 -3.6289,-1.66511 -5.4832,0.62481 -1.546,1.90927 -2.8617,2.33683 -7.2714,2.36307 -4.6174,0.0275 -6.449,-0.60233 -12.8643,-4.42329 -8.9783,-5.34747 -14.9322,-6.05743 -18.0904,-2.15717 -1.3135,1.6221 -1.6021,2.8046 -0.963,3.94645 0.6956,1.24303 -0.1377,2.75294 -3.5073,6.35536 -2.4308,2.59875 -4.4197,5.41928 -4.4197,6.26784 0,2.55647 -4.6595,1.94284 -5.3697,-0.70716 -2.9245,-10.91261 4.0171,-26.1175 12.9468,-28.3587 1.3326,-0.33446 2.4229,-1.27183 2.4229,-2.08304 0,-0.81121 -0.5625,-1.27417 -1.25,-1.0288 -1.9675,0.70219 -6.5283,-2.00531 -16.2989,-9.67566 -9.9205,-7.78809 -13.7528,-11.80526 -20.6094,-21.6038 -5.9766,-8.54094 -15.2213,-27.57948 -17.9664,-37 -1.2021,-4.125 -3.2407,-10.81994 -4.5304,-14.87764 -1.2897,-4.05771 -2.3449,-8.92479 -2.3449,-10.81575 0,-1.89095 -0.4799,-4.33488 -1.0665,-5.43095 -0.5866,-1.09607 -1.8826,-6.12899 -2.88,-11.18426 -0.9973,-5.05527 -2.5693,-12.5664 -3.4933,-16.6914 -2.1133,-9.43441 -11.0234,-37.205936 -13.6126,-42.428556 -2.1083,-4.25273 -2.4156,-6.16417 -1.1197,-6.96509 0.4554,-0.28142 4.9466,3.40452 9.9804,8.19098 6.7217,6.39133 9.8111,10.16341 11.6323,14.202666 1.4849,3.29321 3.5678,6.11708 5.1913,7.03795 5.1876,2.94249 6.8447,8.05693 7.0744,21.83506 0.1135,6.80516 0.4141,12.58075 0.668,12.83464 0.2539,0.25389 1.071,-1.69603 1.8159,-4.33317 0.9822,-3.47777 1.9532,-4.94308 3.535,-5.33464 1.1994,-0.29691 3.9061,-3.01484 6.0149,-6.03984 5.4272,-7.78514 7.2738,-7.47555 8.9474,1.5 0.7178,3.85 1.0959,7.5625 0.8402,8.25 -0.2557,0.6875 -0.082,1.25 0.385,1.25 0.4674,0 1.3719,-2.0732 2.01,-4.60711 0.638,-2.53391 2.7164,-7.69768 4.6187,-11.47504 1.9022,-3.77736 3.4586,-7.10416 3.4586,-7.39289 0,-0.28873 -1.7487,-0.52496 -3.886,-0.52496 -5.3772,0 -11.114,-5.71488 -11.114,-11.07162 0,-7.673696 -2.6482,-11.309346 -9.0605,-12.439036 -4.0781,-0.71845 -9.9395,3.41103 -9.9395,7.00253 0,3.111386 -1.4364,3.928826 -3.4194,1.945886 -1.8451,-1.845066 -1.831,-1.638906 -0.5037,-7.398776 1.428,-6.19695 6.9721,-12.70582 11.9685,-14.0512 5.681,-1.52974 5.0913,-3.28731 -0.7954,-2.37076 -2.6125,0.40677 -13.0267,0.77184 -23.1428,0.81128 l -18.3927,0.0717 0.094,29.999996 c 0.1346,42.84592 0,196.29745 -0.2515,282.30704 -0.2102,72.49201 -0.1902,73.31899 1.7956,74.38175 1.3542,0.72477 25.6373,1.23124 74.5776,1.55546 39.9133,0.26441 72.7571,0.65513 72.9863,0.86825 0.8041,0.74786 2.9715,0.37738 3.5833,-0.6125 z m 68.9733,-3.00531 c 31.851,-5.20282 59.5075,-17.66435 74.6772,-33.64826 4.6081,-4.85546 11.8495,-15.25184 11.8495,-17.01221 0,-1.9593 -2.9562,-1.62708 -3.6997,0.41578 -1.1356,3.11967 -5.9718,9.64579 -10.4385,14.08569 -4.6548,4.62689 -24.161,18.16431 -26.1732,18.16431 -0.6625,0 -3.318,1.12509 -5.9011,2.50021 -6.2911,3.349 -21.1346,8.13794 -32.7875,10.57823 -15.5692,3.26039 -37.8716,4.24912 -55,2.4383 -42.7311,-4.51752 -68.3269,-11.75623 -86.2286,-24.38613 -3.409,-2.40509 -4.9723,-5.13061 -2.9428,-5.13061 0.7514,0 6.7074,3.59519 13.1714,7.95059 4.2531,2.86573 5.8415,3.15946 5.2702,0.97459 -0.7249,-2.77203 1.1501,-2.37307 5.0852,1.08204 2.8052,2.46294 3.5328,2.72662 4.02,1.45688 0.4909,-1.27933 0.9908,-1.34182 2.8598,-0.35752 1.2456,0.65606 2.528,1.59436 2.8498,2.08513 2.5044,3.82018 33.3326,11.48964 55.8145,13.88558 25.0799,2.67281 60.3916,-1.63011 78.6005,-9.5779 13.2052,-5.76377 21.807,-10.27884 27.883,-14.63575 8.1437,-5.83953 20.617,-17.68957 20.617,-19.58682 0,-1.85983 -1.4298,-1.56441 -3.5,0.72318 -0.9955,1.1 -2.6548,2 -3.6874,2 -1.5772,0 -1.2506,-0.83953 2.0424,-5.25 4.593,-6.15161 7.1969,-11.19069 9.6401,-18.65595 1.5253,-4.6607 1.6793,-7.62465 1.1171,-21.5 -0.7453,-18.39146 0.5317,-19.34093 2.3771,-1.76745 1.2707,12.10136 0.4469,20.88227 -2.6361,28.09859 -2.8686,6.71446 -3.3034,8.07481 -2.5785,8.06711 2.8228,-0.03 8.9975,-18.69811 9.0934,-27.4923 0.071,-6.4869 -2.815,-20.61026 -5.3125,-26 -4.5404,-9.79871 -4.2713,-13.13008 0.4444,-5.5 1.3597,2.2 2.8159,4 3.2361,4 0.4201,0 0.7639,-1.81114 0.7639,-4.02475 0,-3.37274 -0.4049,-4.17871 -2.4995,-4.97508 -3.2911,-1.25126 -6.1424,-6.09309 -6.9804,-11.85351 -0.3718,-2.55566 -1.3059,-5.62814 -2.0759,-6.82772 -0.77,-1.19958 -2.2357,-4.38065 -3.2573,-7.06905 -3.387,-8.91402 -12.8996,-23.56048 -20.1467,-31.01958 -7.1003,-7.30816 -17.632,-14.9718 -18.8715,-13.73231 -0.3661,0.36604 0.2337,1.28838 1.3329,2.04966 1.0991,0.76127 2.6593,1.96198 3.4671,2.66823 0.8077,0.70626 3.622,3.12502 6.2538,5.37501 10.4587,8.94125 19.5696,22.37064 28.0932,41.4091 4.0817,9.1167 6.6813,25.47201 6.6829,42.04517 0.001,11.33316 -0.4201,15.16704 -2.5798,23.47657 -1.4197,5.46226 -3.2275,11.4779 -4.0172,13.36808 -3.9105,9.35914 -16.5602,24.96239 -24.2158,29.86988 -1.4772,0.94694 -5.2457,3.64962 -8.3746,6.00595 -9.7543,7.34607 -27.9914,13.31622 -51.3112,16.79742 -27.3396,4.08128 -63.3374,-0.48471 -86.9734,-11.03179 -1.6646,-0.74282 -10.4516,-4.17379 -19.5266,-7.62438 -13.8667,-5.27252 -17.5374,-6.28442 -23,-6.34035 -3.575,-0.0366 -7.839,0.30499 -9.4755,0.75909 l -2.9754,0.82564 2.4754,1.90212 c 1.3615,1.04617 2.7753,1.91213 3.1417,1.92436 0.3664,0.0122 4.1558,2.35621 8.4209,5.20884 18.4292,12.32622 45.2838,20.01597 82.9129,23.7419 19.8561,1.96611 37.079,1.6625 52.9733,-0.93381 z m 127.1929,-142.49469 c 0.091,-79.75 0.4475,-165.98733 0.7912,-191.63852 l 0.625,-46.638516 -20.2912,-0.59335 c -11.1602,-0.32634 -33.7912,-0.83329 -50.2912,-1.12654 -16.5,-0.29325 -36.0262,-0.81144 -43.3915,-1.15152 -9.4438,-0.43607 -13.1955,-0.30127 -12.7267,0.45728 0.3657,0.59159 2.7918,1.36432 5.3915,1.71718 8.5435,1.15963 17.8936,4.19456 28.1025,9.1218 9.3359,4.50588 11.5274,6.36693 9.1951,7.80839 -0.5111,0.31584 -5.7986,-1.90196 -11.75,-4.92844 -5.9823,-3.04215 -15.0688,-6.66001 -20.3209,-8.09091 -5.225,-1.42353 -11.75,-3.22243 -14.5,-3.99754 -6.9264,-1.95228 -38.5126,-3.73175 -53,-2.98587 -13.8608,0.71363 -28.2868,2.82477 -35.1933,5.15026 -23.0923,7.77553 -48.4812,24.940966 -58.0586,39.253496 -5.7034,8.52303 -11.2394,24.26316 -11.2917,32.10425 -0.043,6.44846 -1.0036,12.85934 -2.4425,16.29989 -0.567,1.35577 -0.3643,1.61848 0.8802,1.14092 2.367,-0.9083 4.6059,5.22024 4.6059,12.60778 0,11.39826 4.5819,28.34189 9.8055,36.26029 3.4792,5.27406 3.8214,3.97206 0.7315,-2.78308 -5.7011,-12.46403 -7.8031,-21.97441 -8.2855,-37.48725 -0.8579,-27.59092 3.817,-41.82689 18.8917,-57.52902 8.5465,-8.9023 20.855,-17.89257 29.4455,-21.50736 2.7012,-1.13666 6.0363,-2.659286 7.4113,-3.383626 8.8521,-4.66329 30.8264,-9.14936 46.2722,-9.44656 9.9693,-0.19182 40.2647,6.94258 54.2278,12.770336 1.1,0.4591 4.25,1.78999 7,2.95752 6.5683,2.78861 12.7443,4.08735 19.5,4.10061 11.3985,0.0224 12.7815,-2.04209 4.75,-7.0901 -14.6428,-9.203336 -34.2242,-15.782406 -51.75,-17.387286 -28.6605,-2.62451 -51.5549,-0.32693 -74.2134,7.44774 -11.024,3.78258 -14.9906,5.79955 -26.957,13.707446 -20.7712,13.72643 -34.4354,34.27548 -36.3433,54.65527 -0.4013,4.28723 -0.8697,7.65497 -1.0408,7.48387 -0.1711,-0.1711 -0.5384,-2.77884 -0.8163,-5.79497 -1.34,-14.54599 7.6893,-33.42819 22.8861,-47.85955 26.1634,-24.845566 56.0006,-34.298416 103.4847,-32.785356 29.8126,0.94997 42.6891,4.5086 67.9772,18.786696 l 5.4773,3.09254 2.6226,-3.14145 c 2.3161,-2.774306 2.9323,-3.023676 5.2727,-2.133836 1.4576,0.55417 2.6914,0.90623 2.7418,0.78234 0.05,-0.12389 0.3115,-1.78473 0.5802,-3.69077 0.7397,-5.24739 1.893,-6.70285 6.7942,-8.57465 4.2036,-1.60535 4.9069,-1.60929 11.0665,-0.0621 3.6177,0.90873 7.0711,1.34724 7.6742,0.97446 1.5596,-0.96383 3.6823,2.33604 3.0524,4.74491 -0.4796,1.83402 -0.196,1.96165 3.0188,1.35855 5.3359,-1.00101 7.8903,0.13911 7.5248,3.35843 -0.3476,3.061646 -0.1777,3.165886 5.1625,3.165886 5.1319,0 10.4679,-4.443036 11.7263,-9.763876 1.743,-7.37048 7.0993,-3.87627 5.8046,3.78674 -1.1034,6.531286 -5.8957,12.540626 -13.3443,16.733106 -6.6409,3.7379 -6.6706,3.74393 -18.1518,3.68372 -8.5307,-0.0447 -12.5079,-0.49999 -15.4035,-1.76313 -2.147,-0.93655 -4.0995,-1.50687 -4.339,-1.26738 -1.0147,1.01468 11.5884,12.38487 14.9619,13.49821 5.8282,1.9235 10.0559,7.49921 13.0018,17.14781 1.4181,4.64464 2.8902,10.6948 3.2712,13.4448 0.9402,6.78616 6.5284,18.62838 9.8029,20.77391 3.0908,2.02521 7.0301,2.24604 8.4928,0.47609 0.5681,-0.6875 1.3483,-2.9375 1.7337,-5 0.5758,-3.08118 1.1234,-3.75 3.0704,-3.75 3.0648,0 4.0966,3.75746 2.4976,9.09471 -0.9765,3.25907 -2.0355,4.35083 -6.3329,6.52849 -4.5221,2.2915 -5.8467,2.52289 -10.7087,1.87066 -3.0515,-0.40936 -7.72,-0.81183 -10.3744,-0.89438 -3.7406,-0.11633 -5.2114,-0.66067 -6.5383,-2.41984 -0.9416,-1.24836 -2.0323,-1.94947 -2.4238,-1.55802 -1.0909,1.0909 -0.8345,13.39581 0.3694,17.73173 l 1.07,3.85335 2.1744,-2.03674 c 3.2987,-3.08978 6.9269,-4.12795 11.1207,-3.18209 4.5549,1.02729 4.485,0.95955 7.5538,7.32581 2.0239,4.19858 3.0353,5.24769 5.3105,5.50858 3.4322,0.39355 5.5477,-1.24193 7.4294,-5.74368 1.0992,-2.62954 1.6384,-3.09243 2.3298,-2 2.8235,4.46096 -0.3617,11.94721 -7.1867,16.89118 -3.5815,2.59448 -5.0706,3.03024 -10.3549,3.03024 -11.2124,0 -19.0265,-4.39416 -21.7604,-12.23655 -1.331,-3.81808 -2.7677,-3.4613 -2.7677,0.68733 0,4.03647 1.8426,13.29137 3.1401,15.77199 0.8432,1.61197 1.1088,1.59613 4.1305,-0.24626 4.0769,-2.48579 7.7826,-2.5002 12.5874,-0.0489 4.0937,2.08843 10.5593,8.69947 12.3484,12.62611 0.613,1.34547 1.6314,2.44631 2.263,2.44631 0.6316,0 1.9531,0.58846 2.9367,1.3077 1.688,1.23425 1.6406,1.48333 -0.843,4.43492 -1.4472,1.71997 -3.6285,3.30117 -4.8472,3.51378 -2.125,0.3707 -2.1056,0.43293 0.4733,1.51721 3.2306,1.35829 4.3156,3.23014 6.3147,10.89458 1.3915,5.33462 1.3814,5.9344 -0.1186,7.03511 -1.5052,1.10453 -1.5105,1.52656 -0.064,5.14143 0.8666,2.16597 1.8835,7.33507 2.2597,11.48689 0.7308,8.0638 -0.4859,12.91742 -4.7331,18.88211 -2.131,2.99268 -8.3771,6.19525 -10.0574,5.15675 -0.6098,-0.37686 -0.7371,-3.04451 -0.3277,-6.8673 0.85,-7.93665 -0.5729,-11.40699 -7.315,-17.84122 -4.4979,-4.29244 -5.4185,-4.7614 -8.1637,-4.15846 -2.5957,0.57012 -3.4789,0.23171 -5.4835,-2.10119 -1.3141,-1.52942 -3.1917,-4.27061 -4.1724,-6.09154 -0.9806,-1.82095 -2.2771,-3.3108 -2.8812,-3.3108 -1.2831,0 -5.0063,-3.88848 -5.6038,-5.85264 -0.2583,-0.84885 -2.1641,-1.42235 -5.1171,-1.53982 -6.2868,-0.25007 -7.6137,-1.66351 -4.8547,-5.17108 1.6077,-2.04382 2.1287,-4.1052 2.1287,-8.4221 0,-9.21412 2.8845,-15.57127 7.3544,-16.20849 1.8862,-0.2689 2.0852,-0.78938 1.6456,-4.30587 -0.275,-2.2 -0.4819,-8.19552 -0.4598,-13.32339 0.033,-7.63651 -0.1793,-8.99348 -1.1736,-7.5 -4.2287,6.35207 -8.4725,10.56547 -19.0672,18.93072 l -2.669,2.10734 2.1848,2.77752 c 2.8229,3.58879 2.7582,6.19965 -0.2639,10.64709 -3.2096,4.72341 -4.113,8.47904 -2.5054,10.41609 0.8997,1.084 0.9585,1.84025 0.2019,2.59682 -1.6353,1.63531 -6.925,-1.95222 -8.8454,-5.999 -2.0377,-4.2943 -1.4477,-12.34061 1.1123,-15.16945 2.3344,-2.57944 1.5095,-3.32726 -2.126,-1.92732 -3.434,1.32237 -17.3698,1.72131 -22.5528,0.64563 -3.4703,-0.72022 -3.6979,-0.60682 -4.3019,2.14316 -1.1146,5.07472 -4.7748,7.51166 -11.9703,7.96984 -5.6877,0.36216 -7.2677,0.002 -14.7177,-3.35329 -10.4594,-4.71086 -16.9367,-5.51018 -20.901,-2.57923 -5.487,4.05671 -13.945,-0.36254 -13.945,-7.28617 0,-8.55097 9.6001,-14.60724 23,-14.50969 10.0591,0.0732 9.8605,0.14209 6.8459,-2.37263 -2.942,-2.45422 -8.4729,-11.37968 -9.4404,-15.2344 -0.7833,-3.12109 -1.7479,-3.13228 -3.7715,-0.0438 -1.139,1.73831 -2.8907,2.63003 -6.1169,3.11382 -5.972,0.89557 -8.1125,-0.5944 -13.0753,-9.10148 -2.168,-3.71637 -4.7814,-6.97867 -5.8076,-7.24954 -1.5902,-0.41976 -1.776,-1.14719 -1.2582,-4.92523 0.4402,-3.21154 0.2027,-4.83758 -0.8619,-5.90224 -0.8083,-0.80823 -2.1293,-2.41137 -2.9356,-3.56252 -1.4332,-2.0462 -1.5813,-1.96681 -6.6226,3.54915 -2.8361,3.10323 -6.0114,5.6422 -7.0562,5.6422 -2.1994,0 -2.2383,0.24049 -0.8493,5.24221 1.332,4.79629 4.9474,6.0479 8.3194,2.88009 2.6791,-2.51692 3.9456,-2.65216 5.6462,-0.60297 0.8964,1.08004 2.2329,1.337 4.6225,0.88871 3.0474,-0.5717 3.3615,-0.4091 3.3615,1.74012 0,1.31197 0.9215,2.9462 2.0633,3.65928 3.2933,2.05674 2.1056,5.26445 -2.5633,6.92269 -5.9744,2.12191 -19.1355,1.27249 -23.9074,-1.54301 -4.3596,-2.57222 -4.5926,-2.61356 -4.5926,-0.81493 0,1.48246 -6.8301,3.01399 -9.2684,2.0783 -2.9378,-1.12735 -5.7642,-6.48483 -6.5842,-12.48061 -0.6901,-5.04647 -0.4729,-7.14985 1.2743,-12.34188 1.1585,-3.44227 2.8806,-7.4404 3.8269,-8.88474 2.5617,-3.90956 9.5648,-8.29094 15.5014,-9.69823 2.8875,-0.68448 5.25,-1.7651 5.25,-2.40137 0,-3.06232 -2.269,-8.39488 -5.0382,-11.84079 -1.6882,-2.10078 -2.8119,-4.23632 -2.4972,-4.74565 0.3148,-0.50933 3.0632,-1.65017 6.1077,-2.53521 8.0625,-2.34383 15.8679,-1.25001 22.5681,3.1626 l 5.2154,3.43476 2.3946,-3.05968 c 1.317,-1.68283 3.0586,-3.05969 3.8701,-3.05969 1.9813,0 12.3795,6.70918 12.3795,7.98758 0,2.35813 1.8111,0.72101 3.2474,-2.93544 1.1478,-2.92211 2.9935,-4.87079 7.1036,-7.5 6.8245,-4.36556 10.3815,-4.53853 14.486,-0.70443 3.5521,3.31814 4.8369,7.35907 3.5111,11.04272 -0.9058,2.51661 -1.1893,2.59948 -7.9585,2.32621 -5.935,-0.23959 -7.2947,0.021 -8.8024,1.68698 -2.2422,2.47759 -1.2738,4.53419 1.4489,3.07706 2.0709,-1.10832 2.1146,-1.01507 3.4819,7.43104 0.3483,2.15145 1.7243,6.17317 3.0576,8.93716 4.3507,9.01855 2.8829,21.59625 -3.1884,27.32228 -4.0925,3.85969 -4.2763,6.56782 -0.8062,11.87867 2.5261,3.86609 12.9487,11.25384 14.1633,10.03923 0.3378,-0.33779 -0.1685,-2.25548 -1.1252,-4.26153 -4.3748,-9.17412 -3.8415,-19.54953 1.5366,-29.8939 3.3173,-6.38052 6.992,-9.51601 14.0862,-12.01898 6.34,-2.23689 10.5929,-1.87124 11.9122,1.02415 1.5266,3.35059 -0.6526,5.35896 -7.8558,7.23997 -9.4436,2.46607 -13.4828,8.19372 -11.8639,16.8231 0.7487,3.99108 4.2547,7.70937 10.0656,10.67509 6.0509,3.0882 8.803,6.65366 7.9637,10.31722 -1.4796,6.45888 -1.2664,6.98113 2.9912,7.3284 5.3961,0.44013 11.9733,-1.47593 18.5451,-5.40251 5.5299,-3.30404 13.8048,-10.94859 12.8668,-11.88659 -0.2768,-0.27678 -2.2552,0.38996 -4.3965,1.48164 -4.0983,2.08947 -11.9205,2.68343 -12.9703,0.98488 -0.3399,-0.55 -1.4165,-1 -2.3924,-1 -0.9758,0 -3.3973,-1.62301 -5.381,-3.60669 -7.5486,-7.54865 -10.0286,-18.60553 -5.3842,-24.00501 1.54,-1.79031 2.9103,-2.50531 4,-2.08714 2.4241,0.93021 2.0245,4.01914 -0.8424,6.51189 -1.375,1.19555 -2.5,3.13608 -2.5,4.3123 0,3.27421 3.7337,8.58618 6.7821,9.64884 3.9464,1.37574 6.8393,-0.11174 9.1941,-4.72754 1.8428,-3.61215 1.9113,-4.29499 0.6317,-6.29899 -0.7893,-1.23621 -2.0186,-4.27266 -2.7317,-6.74766 -0.7131,-2.475 -2.552,-6.5006 -4.0864,-8.94578 -1.5344,-2.44518 -2.7898,-4.95938 -2.7898,-5.58711 0,-1.31269 -11.4041,-16.09649 -16.8388,-21.82906 -4.5193,-4.76703 -20.9365,-17.6358 -22.5094,-17.64421 -0.6335,-0.003 -2.4303,-0.67297 -3.9929,-1.48796 -3.814,-1.98924 -14.4516,-5.22728 -23.1002,-7.0316 -10.2841,-2.14555 -28.4804,-1.924 -37.8029,0.46029 -26.0221,6.65534 -42.3292,27.11441 -42.0033,52.69782 0.1129,8.8654 3.8787,24.60022 6.8813,28.75313 1.2385,1.71296 3.0031,4.57545 3.9213,6.36108 1.8885,3.67239 12.678,13.53726 19.4449,17.77854 7.0194,4.39953 15.2343,8.26086 24.6305,11.5773 4.7445,1.6746 9.8061,3.54053 11.2479,4.1465 1.4419,0.60597 4.8716,1.6336 7.6216,2.28362 2.75,0.65002 7.6036,1.90067 10.7857,2.77922 3.3736,0.93143 6.6464,1.27896 7.8503,0.83362 3.7665,-1.39334 38.1346,4.83525 48.0538,8.70892 3.9817,1.5549 16.008,7.04005 18.3102,8.35117 1.1,0.62645 4.6605,2.5871 7.9123,4.35699 16.0334,8.72676 33.0016,25.33296 43.3626,42.43752 4.7722,7.87826 13.5867,28.61367 15.0909,35.5 3.4553,15.81844 4.1986,21.10144 4.7674,33.88389 0.7562,16.99499 -0.9312,27.10667 -6.2809,37.63694 -2.7152,5.34459 -4.5136,7.51267 -8.1671,9.84571 -2.5769,1.64553 -5.8862,3.28835 -7.3541,3.65072 -2.2588,0.55761 -2.7312,0.29959 -3.0741,-1.6792 -0.2798,-1.6149 -0.5673,-1.87411 -0.9295,-0.83806 -3.4003,9.72761 -2.9517,13.73405 2.1368,19.0831 3.2653,3.4326 4.2869,3.9169 8.2622,3.9169 3.966,0 4.8557,-0.41906 7.0791,-3.33398 1.3986,-1.83368 2.6895,-4.87118 2.8687,-6.75 0.4326,-4.53742 2.9198,-4.4866 4.1099,0.084 1.336,5.13137 0.3076,11.74119 -2.2506,14.46426 -2.8828,3.06857 -9.3829,4.62947 -16.1175,3.87039 -6.4536,-0.72742 -7.857,-1.38304 -13.0997,-6.11953 -2.4131,-2.18007 -5.0627,-3.63876 -6.6616,-3.66746 -2.4071,-0.0432 -2.6838,-0.45119 -2.966,-4.37306 -0.2449,-3.40445 0.2342,-5.04033 2.25,-7.68327 1.4087,-1.84684 2.5612,-4.37336 2.5612,-5.6145 0,-1.24113 1.8375,-5.29777 4.0833,-9.01475 2.2459,-3.71698 3.9304,-7.55238 3.7435,-8.52312 -0.2248,-1.16692 -1.8527,0.76379 -4.8044,5.69804 -4.0893,6.83575 -16.8225,20.79721 -23.0299,25.2515 -8.2954,5.95249 -29.6926,14.67094 -43.1751,17.59204 -5.1954,1.12563 -10.5422,2.46135 -11.8818,2.96828 -1.5233,0.57643 20.4137,0.87101 58.5644,0.78643 l 61,-0.13525 0.1662,-145 z M 373.18333,184.2842 c -1.1656,-1.8664 -0.9233,-2.43117 2.3797,-5.54634 2.0227,-1.90759 3.9446,-3.20128 4.271,-2.87487 0.3264,0.3264 -0.8527,1.94506 -2.6203,3.59702 -3.5187,3.28847 -4.0634,4.90218 -1.6548,4.90218 0.8575,0 1.2809,0.45 0.941,1 -0.939,1.51937 -1.887,1.21127 -3.3166,-1.07799 z m 7.455,-4.42201 c 0.3166,-0.825 0.7524,-1.5 0.9686,-1.5 0.2161,0 0.393,0.675 0.393,1.5 0,0.825 -0.4359,1.5 -0.9686,1.5 -0.5328,0 -0.7096,-0.675 -0.393,-1.5 z m 176.995,274.86965 c 3.3737,-1.6009 6.0957,-4.97388 4.9437,-6.12591 -0.3218,-0.32173 -1.7144,0.47605 -3.0947,1.77283 -1.9022,1.78702 -3.9717,2.46354 -8.5487,2.79461 l -6.0389,0.43681 -4.3801,-4.57133 c -3.0198,-3.15156 -4.4787,-5.59707 -4.6974,-7.874 -0.247,-2.57044 -0.8283,-3.37511 -2.6223,-3.62942 -2.9948,-0.42455 -5.195,1.45977 -5.195,4.4492 0,1.70165 0.562,2.37756 1.9769,2.37756 1.0874,0 2.7633,1.2375 3.7243,2.75 5.3225,8.37701 15.5046,11.61883 23.9322,7.61965 z m -279.1406,-9.36369 c 1.903,-1.57933 1.9022,-0.37684 0,5.0243 -0.8309,2.35495 -1.3108,4.48158 -1.0665,4.72586 0.7967,0.79671 2.5772,-0.83705 2.5772,-2.3648 0,-2.80194 3.0843,-7.57296 4.5356,-7.01604 0.7702,0.29555 1.6798,0.0852 2.0214,-0.46751 0.4131,-0.66848 1.0405,-0.65676 1.874,0.035 1.1819,0.98089 2.569,0.48853 2.569,-0.91189 0,-0.34969 -2.3625,-1.51219 -5.25,-2.58334 -4.267,-1.58289 -7.684,-1.93183 -18.25,-1.86363 -12.9256,0.0834 -13.0415,0.10496 -20.25,3.76257 -3.9875,2.02326 -7.2494,4.01051 -7.2488,4.41609 7e-4,0.40559 3.7132,0.77082 8.25,0.81163 4.5369,0.0408 9.3867,0.36188 10.7774,0.71349 1.9958,0.50458 2.7333,0.17289 3.5,-1.57421 1.2915,-2.94291 3.0526,-1.92466 2.6574,1.53652 -0.1727,1.5125 0.1648,2.75 0.75,2.75 0.5852,0 1.064,-0.83285 1.064,-1.85078 0,-2.87409 2.0808,-8.14922 3.2145,-8.14922 0.5797,0 0.7426,0.96973 0.3781,2.25 -1.614,5.66796 -1.8795,8.04534 -0.8256,7.39402 0.5935,-0.36682 1.3677,-1.9807 1.7203,-3.58639 0.7261,-3.30583 3.5127,-6.3436 3.5127,-3.8293 0,0.81027 -0.496,2.896 -1.1022,4.63496 -0.6062,1.73895 -0.7835,3.9436 -0.394,4.89922 0.5306,1.30172 1.056,0.57837 2.095,-2.88411 0.7628,-2.54187 2.0651,-5.18447 2.894,-5.87244 z m 9.1429,6.39931 c 0.9131,-2.9171 0.8852,-3.34124 -0.1479,-2.25 -1.6144,1.70514 -2.8891,5.84473 -1.7999,5.84473 0.4525,0 1.329,-1.61763 1.9478,-3.59473 z m -2.6357,-3.0964 c 0,-2.22995 -0.7565,-1.45236 -1.8884,1.94113 -0.9918,2.97337 -0.9576,3.08478 0.4021,1.30887 0.8175,-1.06762 1.4863,-2.53012 1.4863,-3.25 z m 8.6982,0.0277 c 1.0285,-1.57638 1.3396,-1.62818 2.1957,-0.36558 0.5485,0.80907 1.3586,1.10978 1.8002,0.66824 0.9075,-0.90745 -2.3842,-3.63923 -4.3852,-3.63923 -0.7199,0 -1.3089,0.87344 -1.3089,1.94098 0,1.06754 -0.45,2.2191 -1,2.55902 -0.55,0.33992 -0.9857,1.37898 -0.9682,2.30902 0.034,1.82685 0.4917,1.39368 3.6664,-3.4724 z m 153.8018,-0.21754 c 21.7732,-4.66192 44.7453,-15.80023 56.5035,-27.39646 3.9033,-3.84954 7.9679,-8.7064 9.0324,-10.79302 1.0645,-2.08662 2.3455,-4.04724 2.8466,-4.35694 1.1844,-0.73201 5.4304,-13.1321 7.581,-22.13974 2.2875,-9.5815 2.1159,-27.29481 -0.4112,-42.43287 -1.2615,-7.55713 -7.3434,-25.21759 -9.6425,-28 -0.6817,-0.825 -3.2992,-4.84847 -5.8167,-8.94105 -6.6406,-10.79563 -19.936,-23.89234 -34.1111,-33.60146 -7.9337,-5.43412 -36.293,-17.79866 -43.482,-18.95795 -2.475,-0.39912 -4.95,-1.08115 -5.5,-1.51562 -0.55,-0.43447 -4.375,-1.7685 -8.5,-2.96452 -4.125,-1.19601 -8.4,-2.53923 -9.5,-2.98493 -1.1,-0.44569 -7.3403,-2.54828 -13.8674,-4.67241 -6.527,-2.12413 -13.0523,-4.31206 -14.5007,-4.86206 -3.6789,-1.397 -20.1319,-11.61203 -20.1319,-12.49911 0,-0.40089 -1.8518,-2.0122 -4.1151,-3.58068 -4.4399,-3.07685 -12.1183,-13.85767 -15.6122,-21.92021 -6.1459,-14.18259 -7.5444,-33.51566 -3.3275,-46 3.0461,-9.01804 8.6829,-17.91671 15.2999,-24.15378 5.9066,-5.56741 17.9691,-12.48817 24.7549,-14.20289 14.1172,-3.5673 36.2243,-3.68075 49.2337,-0.25265 24.5113,6.45894 44.9491,20.04536 57.0996,37.9581 4.563,6.72688 12.1821,22.32437 13.1451,26.90995 1.1698,5.5702 2.5498,2.46462 2.0301,-4.56862 -0.7307,-9.89052 -1.3861,-24.21761 -2.1473,-46.94011 -0.3731,-11.1375 -0.8798,-20.25 -1.1259,-20.25 -0.2461,0 -1.3253,1.11604 -2.3983,2.48009 -3.2122,4.0836 -8.5295,6.04284 -15.837,5.83531 -6.0096,-0.17068 -19.1291,-3.5228 -26.5,-6.77093 -1.65,-0.7271 -4.125,-1.65131 -5.5,-2.05378 -1.375,-0.40248 -5.0053,-1.77364 -8.0673,-3.04703 -5.5293,-2.299406 -16.1446,-5.078786 -22.9045,-5.996996 -1.9405,-0.26359 -6.0109,-0.83237 -9.0453,-1.26397 -13.8916,-1.97587 -41.7137,3.14755 -56.6278,10.427966 -19.0296,9.28948 -37.5618,26.19142 -43.1884,39.38934 -6.2536,14.66836 -7.3405,24.97802 -4.6387,44 2.3658,16.65668 7.1824,28.40632 16.3271,39.82855 8.9483,11.1769 20.4072,21.01498 31.6449,27.16898 3.3,1.80714 7.125,4.0582 8.5,5.00234 4.4615,3.0635 25.3125,12.68012 32.5,14.98922 3.85,1.23688 8.125,2.69138 9.5,3.23222 1.375,0.54084 7.225,2.55992 13,4.48684 5.775,1.92692 12.8758,4.58088 15.7796,5.89767 2.9038,1.3168 5.4885,2.39418 5.7438,2.39418 1.4199,0 20.8072,9.70178 25.4766,12.74897 7.774,5.07322 18.9902,16.85879 24.5809,25.82873 8.6598,13.89408 11.6695,35.33989 7.4241,52.90144 -3.5264,14.58761 -7.4679,21.57406 -17.6281,31.2465 -7.361,7.00755 -11.0499,9.3035 -22.8769,14.23806 -10.2188,4.26361 -24.9669,6.45182 -43.5,6.45422 -13.2878,0.002 -17.1055,-0.37691 -26.7491,-2.65296 -6.187,-1.46024 -12.3122,-3.24222 -13.6114,-3.95997 -1.2993,-0.71774 -5.4622,-2.95164 -9.2509,-4.96421 -7.0795,-3.76061 -20.6671,-14.63369 -26.0438,-20.84078 -7.3377,-8.47101 -16.7487,-21.78075 -21.5658,-30.5 -1.2155,-2.2 -2.7458,-4.9 -3.4009,-6 -1.8912,-3.17607 -5.0258,-9.50394 -7.9258,-16 -1.4732,-3.3 -2.8722,-5.49145 -3.1088,-4.8699 -0.2366,0.62156 0.4714,5.57156 1.5733,11 4.0164,19.78569 7.3285,44.00683 7.3703,53.89768 l 0.042,10.02778 7.22,0 c 6.7694,0 7.9293,0.353 18.5854,5.65607 21.4065,10.65317 28.371,13.91815 33.8653,15.87608 7.0367,2.5076 28.8473,7.95916 36,8.9982 9.4742,1.37629 39.4486,0.18526 49.5,-1.96688 z m -149.5201,-12.6432 c -0.6957,-0.83829 -1.4708,-1.31823 -1.7225,-1.06653 -0.6935,0.6935 0.7155,2.5907 1.9241,2.5907 0.6631,0 0.5872,-0.57378 -0.2016,-1.52417 z m -2.5836,-4.06607 c 0.3356,-0.87464 0.3603,-1.99457 0.055,-2.48874 -0.3054,-0.49417 -0.9725,-5.74107 -1.4825,-11.65976 -1.4807,-17.18632 -2.98,-33.475 -3.4296,-37.26126 -3.1353,-26.40474 -4.9553,-44.79524 -4.9929,-50.45204 l -0.046,-6.95204 5,-3.81318 c 2.75,-2.09725 6.6875,-4.32756 8.75,-4.95625 2.5621,-0.78098 3.75,-1.72646 3.75,-2.98478 0,-1.01294 -0.4995,-1.84171 -1.11,-1.84171 -3.1519,0 -14.0303,7.20791 -19.5848,12.97663 -10.7083,11.12137 -14.2812,21.20039 -14.2976,40.33239 0,5.01232 -0.3984,8.56747 -0.9144,8.24859 -0.4987,-0.30823 -1.2198,-4.73592 -1.6024,-9.83932 -1.0167,-13.56024 1.1481,-24.34062 8.5987,-42.82033 6.4152,-15.91157 7.7083,-32.09224 4.0359,-50.50151 -0.5599,-2.80695 -1.673,-6.63195 -2.4735,-8.5 -0.8004,-1.86805 -2.6752,-6.43395 -4.1662,-10.14645 -1.4909,-3.7125 -3.1101,-6.75 -3.5982,-6.75 -0.4881,0 -0.8875,-0.64286 -0.8875,-1.42857 0,-0.78572 -0.5693,-2.02322 -1.265,-2.75 -0.6958,-0.72679 -2.8333,-3.94221 -4.75,-7.14538 -1.9168,-3.20318 -4.2657,-6.66457 -5.2199,-7.69197 -1.7785,-1.91499 -7.7651,-14.25739 -7.7651,-16.00912 0,-1.20032 -1.6891,-1.28706 -2.4081,-0.12367 -0.2894,0.46821 0.5283,4.18071 1.817,8.25 2.027,6.40036 2.6297,7.35649 4.4671,7.08585 2.6906,-0.39631 2.6966,1.1194 0.019,4.74133 -1.914,2.58882 -1.9853,3.17922 -0.7847,6.49936 1.8803,5.19998 4.4456,7.33074 6.9458,5.76931 2.3879,-1.49125 2.5217,-0.49285 0.2677,1.99775 -1.2035,1.32984 -1.3708,2.15794 -0.5931,2.93564 0.7777,0.7777 1.5651,0.34791 2.7914,-1.52363 0.9395,-1.43379 2.1064,-2.6069 2.5931,-2.6069 1.5496,0 0.9537,2.54911 -1.115,4.76963 -1.1,1.18071 -2,2.61556 -2,3.18856 0,1.76272 1.8062,1.15655 3.4203,-1.14786 2.1068,-3.00789 3.2495,-1.48146 1.2152,1.62328 -2.2379,3.41541 -2.1237,5.31822 0.1932,3.22138 1.9737,-1.78618 4.1713,-2.19576 4.1713,-0.77743 0,0.48265 -0.675,1.43775 -1.5,2.12244 -2.2002,1.82601 -1.828,3.23887 0.6464,2.45353 1.8211,-0.57798 2.0626,-0.36085 1.5936,1.43262 -0.304,1.16262 -0.1449,2.11385 0.3536,2.11385 1.2922,0 1.1226,3.38376 -0.2377,4.74405 -0.8587,0.85873 -0.6093,1.00422 1,0.58337 3.7606,-0.98341 2.3331,1.46506 -3.36,5.76346 -5.4972,4.15039 -11.8175,11.57974 -10.9901,12.91852 0.2407,0.38945 4.135,-2.83368 8.654,-7.16252 5.5911,-5.3557 8.5427,-7.54433 9.2376,-6.84948 0.6949,0.69485 0.2353,1.57107 -1.4381,2.74217 -3.9648,2.77462 -9.9593,8.4185 -9.9593,9.37679 0,2.04231 2.447,0.58438 6.4893,-3.86636 2.3727,-2.6125 4.6666,-4.40424 5.0974,-3.98164 0.4308,0.42259 -0.9582,2.55183 -3.0867,4.73164 -4.4467,4.55382 -3.996,6.80741 0.5,2.5 3.5786,-3.4285 5.3352,-2.55018 2,1 -2.4964,2.65729 -2.0968,4.65517 0.5,2.5 2.0804,-1.72662 3.1407,-0.47915 1.3925,1.63846 -1.0814,1.30997 -1.1133,1.78077 -0.1425,2.10749 3.08,1.03666 0.2992,15.86234 -6.0638,32.32848 -6.9242,17.9182 -8.8295,26.92767 -7.7199,36.50425 1.6047,13.84933 3.3745,20.77693 8.4689,33.15145 2.7344,6.64206 3.0715,8.26987 1.7128,8.26987 -0.4685,0 -2.2223,-3.0375 -3.8971,-6.75 -6.7952,-15.06249 -9.2518,-27.79263 -10.7583,-55.75 -0.7848,-14.56524 -2.2347,-20.63877 -7.6767,-32.15866 l -4.1766,-8.84134 -1.3597,5.5 c -0.8978,3.63156 -1.1681,8.38323 -0.7956,13.98717 0.4677,7.03572 1.0303,9.17343 3.2901,12.5 l 2.7259,4.01283 0.3185,-3.319 c 0.1752,-1.82544 -0.6123,-6.07532 -1.75,-9.44417 -2.089,-6.18596 -2.7416,-12.73683 -1.2688,-12.73683 2.4538,0 7.241,24.57426 8.6687,44.5 1.8864,26.32657 8.1666,43.3157 23.5353,63.66725 3.4609,4.58301 8.0734,10.02938 10.25,12.10304 3.0366,2.89294 3.7023,4.07785 2.8606,5.09201 -0.6033,0.72694 -0.8009,1.61781 -0.439,1.97971 1.1766,1.17653 3.0963,0.69555 3.721,-0.93225 z m -8.3862,-18.15976 c -4.6459,-6.53898 -8.3331,-14.28962 -11.2985,-23.75 -4.4086,-14.06497 -4.9837,-17.32678 -4.9848,-28.27183 0,-12.50993 2.0666,-20.30352 7.8209,-29.47817 5.6629,-9.02879 7.3421,-6.67241 1.9597,2.75 -8.7313,15.28506 -8.5383,39.84954 0.4637,59 1.0342,2.2 2.4037,5.42725 3.0435,7.17167 0.6397,1.74442 2.6982,5.55424 4.5743,8.46628 5.6373,8.74995 4.2618,12.33243 -1.5788,4.11205 z m -32.0101,-176.59501 c 0,-1.35043 3.073,-4.65499 4.3287,-4.65499 1.3502,0 0.6216,2.735 -1.1574,4.34501 -2.2168,2.00615 -3.1713,2.09945 -3.1713,0.30998 z m -3,-4.43248 c 0,-1.29718 3.0491,-5.22251 4.0567,-5.22251 1.5812,0 1.0533,2.59051 -0.8854,4.34501 -1.9734,1.78583 -3.1713,2.11731 -3.1713,0.8775 z m 284.393,198.1957 c 0.8959,-2.33477 0.7373,-6.21966 -0.2797,-6.84818 -1.2846,-0.79396 -3.0048,1.63723 -3.7324,5.27528 -0.5411,2.70584 -0.3438,3.15469 1.3871,3.15469 1.1099,0 2.2912,-0.7118 2.625,-1.58179 z m 17.5087,-10.50507 c 4.045,-4.03216 8.529,-14.28 10.1613,-23.22313 1.5956,-8.74113 0.6454,-10.1472 -1.4799,-2.19001 -2.3072,8.63838 -7.7261,20.64488 -8.2859,18.35895 -0.221,-0.90258 0.7902,-4.50258 2.2471,-8 4.5691,-10.96815 5.6091,-15.95762 6.015,-28.85895 0.3153,-10.02293 -0.018,-14.37186 -1.6803,-21.94596 -2.1424,-9.7593 -6.6781,-23.6084 -9.9864,-30.49187 -1.0409,-2.16581 -1.8926,-4.31023 -1.8926,-4.76538 0,-1.19158 -6.5459,-11.08127 -13.1032,-19.79679 -5.4002,-7.17742 -13.2533,-15.06337 -21.4104,-21.5 -16.1581,-12.74993 -44.8625,-24.62457 -67.7364,-28.02165 -3.9956,-0.5934 -4.75,-0.44917 -4.75,0.90811 0,0.88745 0.7875,1.61928 1.75,1.62631 7.3674,0.0537 41.0715,15.20577 51.75,23.26475 13.1897,9.95417 23.6087,24.20718 29.001,39.67283 2.0626,5.91584 3.9522,7.87683 7.0241,7.28959 1.9287,-0.36868 2.4749,-0.055 2.4749,1.42124 0,1.04189 -0.9,2.66494 -2,3.60679 -2.422,2.07374 -2.505,3.8656 -0.3861,8.3309 2.1821,4.59837 5.6092,4.66729 7.5148,0.15113 3.5331,-8.37342 -0.147,-21.31185 -6.9893,-24.57301 -3.4241,-1.63199 -3.6211,-1.98037 -3.3294,-5.88934 0.3905,-5.23298 -1.3079,-8.47318 -7.7315,-14.75006 -5.3273,-5.20549 -6.0571,-6.53759 -3.582,-6.53759 4.1395,0 14.5035,14.65955 14.5035,20.51481 0,1.47339 1.1286,3.15262 3.0276,4.50486 4.6555,3.31498 8.0515,10.98716 8.7085,19.67378 0.4941,6.53305 0.3054,7.75907 -1.5877,10.3197 -1.1816,1.59823 -2.1484,4.01228 -2.1484,5.36457 0,5.72375 2.8046,7.54126 4.818,3.12228 0.6265,-1.375 1.5988,-2.5 2.1606,-2.5 1.3323,0 1.305,2.60148 -0.054,5.14061 -1.2266,2.29176 -1.494,12.99145 -0.4442,17.77108 0.5593,2.54636 1.1461,3.14022 2.8615,2.89579 4.5383,-0.64667 5.9648,-12.82925 2.991,-25.54439 -1.6199,-6.92597 -1.385,-9.71498 0.6471,-7.68294 1.14,1.14005 4.0287,19.68318 3.9978,25.66327 -0.022,4.22876 -2.8319,11.9302 -4.796,13.14407 -0.5644,0.34883 -1.9998,3.56006 -3.1898,7.13606 -3.0156,9.06181 -1.3752,18.3608 2.5305,14.34477 0.7319,-0.75257 1.7296,-2.94263 2.2172,-4.86679 1.1629,-4.58936 4.2601,-5.42649 4.2601,-1.15145 0,1.91301 -1.3316,4.74117 -3.6821,7.82051 -3.3131,4.34044 -3.7463,5.62567 -4.3235,12.8266 -0.3528,4.40154 -1.1709,8.98573 -1.8179,10.18707 -2.4364,4.52351 -0.7961,3.72956 5.7252,-2.77112 z m -298.9017,4.08686 c 2.102,-0.67319 1.8049,-0.81651 -1.8666,-0.90032 -3.8827,-0.0886 -4.3075,-0.32592 -3.8329,-2.14076 0.4324,-1.65358 0.1698,-1.92557 -1.3834,-1.43262 -1.3329,0.42304 -1.9171,0.13081 -1.9171,-0.95891 0,-0.86207 0.4284,-1.56739 0.952,-1.56739 0.5235,0 2.3452,-2.025 4.048,-4.5 3.2097,-4.6652 5.3481,-5.64128 6.393,-2.91821 1.0589,2.75953 0.6741,4.18498 -1.9819,7.34148 -3.1688,3.76597 -2.5649,3.86866 2.6103,0.44384 4.4257,-2.92877 5.0966,-5.73122 2.3686,-9.89457 -0.8854,-1.35141 -1.3479,-3.13999 -1.0276,-3.97463 0.4209,-1.09683 3.6395,1.59178 11.61,9.69812 6.0652,6.16861 11.0276,10.74165 11.0276,10.16231 0,-0.57934 -2.8388,-4.83447 -6.3085,-9.45584 -7.0576,-9.40031 -11.5747,-17.08367 -14.1995,-24.1525 -1.8792,-5.06093 -2.5612,-5.57641 -4.4181,-3.33903 -0.8005,0.96456 -0.8393,1.61601 -0.1225,2.05902 1.888,1.16683 1.104,3.61254 -1.9936,6.219 -3.9449,3.31939 -3.2013,3.97724 1.4162,1.25287 2.7758,-1.63777 3.626,-1.80875 3.626,-0.7292 0,1.87198 -3.7098,5.78734 -5.4836,5.78734 -0.7731,0 -3.9562,2.3625 -7.0735,5.25 -3.1173,2.8875 -6.0673,5.4 -6.5554,5.58333 -2.6471,0.99422 1.5848,9.26952 5.9539,11.6426 2.9547,1.60483 4.4783,1.7027 8.1586,0.52407 z m 290.4741,-4.85014 c -0.9642,-0.98989 -2.464,1.3036 -2.3929,3.65916 l 0.081,2.69098 1.3264,-3 c 0.7295,-1.65 1.1728,-3.15756 0.9853,-3.35014 z m -5.4741,0.85014 c -0.7902,-1.47648 -1.5186,-1.88139 -2.1853,-1.21472 -0.6667,0.66667 -0.6049,1.73824 0.1853,3.21472 0.7902,1.47648 1.5186,1.88139 2.1853,1.21472 0.6666,-0.66667 0.6049,-1.73824 -0.1853,-3.21472 z m 3,-4.41821 c 0,-2.51325 -1.177,-4.58179 -2.607,-4.58179 -1.6574,0 -1.6735,0.13207 -0.4178,3.4349 1.0432,2.74383 3.0248,3.49517 3.0248,1.14689 z m 4.4397,-8.02843 c 0.9264,-6.17769 -1.1857,-10.09552 -5.9214,-10.98395 -1.9538,-0.36653 -3.9947,-0.39303 -4.5353,-0.0589 -1.7458,1.07899 -1.0433,3.48949 1.017,3.48949 1.1315,0 2,0.66667 2,1.53518 0,1.19695 0.4175,1.31174 1.895,0.52102 1.3526,-0.72388 2.1668,-0.66239 2.8448,0.21481 1.5622,2.0215 2.2657,4.72899 1.2288,4.72899 -0.5327,0 -0.9686,-0.45 -0.9686,-1 0,-1.33718 -2.7085,-1.28063 -3.5458,0.074 -0.6412,1.03749 3.1589,5.92597 4.6066,5.92597 0.3916,0 1.0122,-2.00099 1.3789,-4.44664 z m -9.6953,-0.7562 c 1.7307,-1.43634 1.573,-3.46136 -0.3262,-4.19017 -2.7541,-1.05686 -3.5719,-0.6665 -2.9182,1.39301 0.495,1.55976 0.1797,2 -1.4326,2 -1.233,0 -2.0674,0.64919 -2.0674,1.60841 0,1.25449 0.6039,1.45684 2.7444,0.9196 1.5094,-0.37884 3.3094,-1.15772 4,-1.73085 z m -296.6798,-3.91784 c 0.7977,-1.49047 0.8081,-1.91869 0.035,-1.44098 -1.4771,0.91285 -1.4085,-1.72963 0.083,-3.22167 1.3603,-1.36022 0.4805,-2.74494 -1.1168,-1.75779 -1.016,0.62792 -1.5734,8.54112 -0.6017,8.54112 0.2557,0 0.9756,-0.9543 1.5998,-2.12068 z m 96.5279,-2.88717 c -0.2263,-3.26908 -2.5925,-6.71497 -2.5925,-3.77548 0,0.88916 -0.457,1.76901 -1.0156,1.9552 -1.1342,0.37805 1.6058,4.82813 2.9727,4.82813 0.464,0 0.75,-1.35353 0.6354,-3.00785 z m -87.0227,-5.04019 c 2.4366,-1.67642 4.4202,-3.36392 4.408,-3.75 -0.012,-0.38608 -0.8865,-1.82693 -1.9429,-3.20189 l -1.9206,-2.49993 -2.1461,2.30361 c -2.8719,3.08267 -4.4929,2.27944 -4.3541,-2.15755 0.075,-2.39058 -0.3354,-3.6462 -1.191,-3.6462 -2.1597,0 -2.3865,1.41603 -0.9722,6.06986 1.4447,4.75417 2.6218,5.11137 6.1136,1.85526 2.5051,-2.33606 3.4355,-2.43185 3.4355,-0.35369 0,1.82156 -1.6137,3.61626 -4.7706,5.30582 -2.0066,1.07386 -3.0954,3.12275 -1.6596,3.12275 0.3134,0 2.5634,-1.37162 5,-3.04804 z m 80.0039,0.27423 c -1.7278,-1.65022 -1.7546,-1.6234 -0.6095,0.60946 0.6588,1.2846 1.4721,2.06139 1.8073,1.72619 0.3352,-0.3352 -0.2038,-1.38624 -1.1978,-2.33565 z m 69.2496,-1.55906 c 0.1914,-0.98676 -0.3187,-1.66713 -1.25,-1.66713 -0.9276,0 -1.5733,0.855 -1.5733,2.08333 0,2.43705 2.3368,2.09257 2.8233,-0.4162 z m 10.4047,0.41775 c 0.8106,-1.15724 1.2883,-4.32311 1.2072,-8 -0.1295,-5.87603 0.6994,-7.78255 1.9578,-4.50309 0.3339,0.86998 0.607,2.48248 0.607,3.58333 0,1.16215 0.5242,1.8226 1.25,1.57484 1.4072,-0.48036 1.5594,-6.20988 0.2441,-9.18848 -0.8027,-1.81786 -0.6534,-1.80109 2.2271,0.25 1.6982,1.20919 4.0783,2.19852 5.2893,2.19852 1.2109,0 3.9062,1.35 5.9895,3 2.0833,1.65 4.0605,3 4.3939,3 0.3334,0 0.6061,-1.4051 0.6061,-3.12244 0,-2.60495 0.2388,-2.92429 1.4406,-1.92683 0.7924,0.6576 1.5799,2.35481 1.75,3.77159 0.4,3.33001 3.4623,5.4114 4.8225,3.27768 0.526,-0.825 0.9632,-2.48218 0.9716,-3.68261 0.01,-1.38284 0.8398,-2.43749 2.2653,-2.87819 2.3936,-0.73998 10.8301,-8.8518 12.5518,-12.06884 1.8042,-3.37128 3.3748,-14.23242 2.3284,-16.10221 -0.6158,-1.10039 -0.6118,-2.36835 0.011,-3.53254 1.4604,-2.72888 -2.2127,-7.91722 -7.4606,-10.53813 -4.5455,-2.27015 -12.0941,-2.95594 -13.1809,-1.19748 -0.3564,0.57659 0.5789,1 2.2088,1 4.6383,0 10.0481,4.38367 11.3426,9.19097 2.8213,10.47757 -3.295,20.27838 -15.7968,25.31264 -6.0004,2.41626 -7.587,2.65115 -14.2091,2.10364 -4.1,-0.33898 -7.9025,-1.06428 -8.45,-1.61179 -1.865,-1.86493 -3.595,-1.03 -3.6355,1.75454 l -0.04,2.75 -1.4919,-2.75 c -0.8206,-1.5125 -1.9361,-2.75 -2.4791,-2.75 -0.5966,0 -0.6828,1.08787 -0.218,2.75 0.423,1.5125 0.769,6.68763 0.769,11.50029 0,4.81267 0.312,8.75017 0.6933,8.75 0.3813,-1.6e-4 1.297,-0.86209 2.0347,-1.91541 z m -14.9039,-1.48711 c 0.5646,-1.47138 -0.082,-2.59777 -1.4908,-2.59777 -0.4583,0 -0.8333,0.9 -0.8333,2 0,2.29292 1.5233,2.68471 2.3241,0.59777 z m 10.6606,-6.16411 c 0.015,-5.03998 -1.6802,-16.12809 -2.7248,-17.8209 -0.3012,-0.48798 -1.1213,0.41202 -1.8225,2 l -1.275,2.88724 -0.081,-4.19098 c -0.1138,-5.87454 -2.0812,-6.63931 -2.0812,-0.80902 0,5.82366 -1.9599,5.0685 -2.0997,-0.80902 -0.1222,-5.13752 -1.1194,-8.93069 -2.4659,-9.37952 -0.6538,-0.21793 -0.7826,1.87378 -0.365,5.92586 0.355,3.44447 0.2671,6.68268 -0.1953,7.19601 -1.4689,1.63062 -2.2049,-0.27712 -1.9981,-5.17896 0.2633,-6.23929 -0.8476,-14.38993 -1.8748,-13.75512 -0.446,0.27562 -0.5718,2.41355 -0.2797,4.75094 0.4003,3.20294 0.2447,3.98218 -0.6316,3.16336 -0.6395,-0.59755 -1.2666,-3.52255 -1.3935,-6.5 -0.1727,-4.05187 -1.0802,-6.8817 -3.608,-11.25037 -1.8575,-3.21025 -3.9873,-6.07089 -4.7329,-6.35699 -0.7455,-0.28609 -1.3555,-0.98601 -1.3555,-1.55537 0,-1.21852 -7.9884,-10.79774 -13,-15.58875 -3.9628,-3.78836 -10.3775,-7.10743 -13.7997,-7.14011 -1.2648,-0.0121 -3.5702,-0.67901 -5.1232,-1.48208 -3.3268,-1.72035 -3.9549,-1.35121 -3.3232,1.95308 0.7488,3.91722 2.6206,4.83415 5.3524,2.62203 2.3319,-1.88824 2.4194,-1.88746 6.2288,0.056 4.04,2.06104 12.6649,9.48736 12.6649,10.90487 0,0.45161 1.1188,2.02829 2.4861,3.50372 1.7836,1.92449 2.3173,3.35574 1.8884,5.06451 -0.3288,1.31004 -0.1215,2.95581 0.4606,3.65726 0.5822,0.70145 1.1949,4.18311 1.3617,7.73702 l 0.3032,6.46163 1.9112,-3.5 c 1.0512,-1.925 2.0899,-2.97112 2.3084,-2.3247 0.2185,0.64641 -0.6415,3.06797 -1.9112,5.38123 -1.2696,2.31326 -3.0587,5.60937 -3.9757,7.3247 -1.5167,2.83698 -2.1591,10.65598 -0.8702,10.59215 1.3137,-0.0651 7.1322,-10.8365 7.6831,-14.22338 0.6908,-4.24659 2.3544,-5.08418 2.3544,-1.18538 0,3.2394 -3.915,12.54083 -5.9573,14.15358 -2.6256,2.07336 -0.021,1.40253 3.0529,-0.78629 3.4595,-2.46336 4.0479,-0.66584 1.042,3.18323 -2.9808,3.81684 -3.3852,6.35749 -1.402,8.80667 2.1264,2.62602 4.5079,2.03389 6.1289,-1.52387 1.4456,-3.1726 1.4457,-8.28029 4e-4,-14.02005 -0.833,-3.30813 -0.8391,-4.80372 -0.023,-5.61987 0.8162,-0.81616 1.5499,-0.067 2.7572,2.81493 1.2424,2.96567 1.5173,5.80467 1.123,11.59674 -0.4837,7.10672 -0.3494,7.83188 1.8299,9.87919 1.5218,1.4297 3.0941,2.01542 4.4548,1.65958 1.5941,-0.41686 2.3352,0.0611 3.0631,1.97544 0.7528,1.98018 1.4519,2.40193 3.2382,1.9536 1.8743,-0.47042 2.4958,-10e-4 3.5056,2.64536 0.9895,2.59347 1.4144,2.92635 2.1915,1.71714 0.5303,-0.825 0.971,-3.77985 0.9794,-6.56634 z m -4.9144,-7.68366 c 0.052,-3.85572 0.2985,-4.71885 0.9297,-3.25 1.2033,2.80018 1.2033,8.5 0,8.5 -0.55,0 -0.9684,-2.3625 -0.9297,-5.25 z m 142.9297,13.75 c 0,-1 -1,-1.5 -3,-1.5 -2,0 -3,0.5 -3,1.5 0,1 1,1.5 3,1.5 2,0 3,-0.5 3,-1.5 z m -215,-1.39301 c 0,-1.04116 0.675,-2.15203 1.5,-2.46862 0.825,-0.31658 1.5,-1.41998 1.5,-2.452 0,-2.23996 2.3983,-4.57457 6.5018,-6.32906 l 2.9982,-1.28191 -3.9173,-0.35804 c -4.6801,-0.42775 -8.5894,2.04918 -10.077,6.38479 -0.5469,1.59382 -1.6719,3.44604 -2.5,4.11605 -1.3194,1.0675 -1.2892,1.22213 0.2443,1.25 0.9625,0.0175 1.75,0.7068 1.75,1.5318 0,0.825 0.45,1.5 1,1.5 0.55,0 1,-0.85186 1,-1.89301 z m 60,-0.10699 c 0,-0.55 -0.1984,-1 -0.441,-1 -0.2425,0 -0.7191,0.45 -1.059,1 -0.3399,0.55 -0.1415,1 0.441,1 0.5824,0 1.059,-0.45 1.059,-1 z m 28.4138,0.13948 c 0.2925,-0.47329 0.2751,-1.11728 -0.039,-1.4311 -0.7803,-0.78038 -3.375,0.29485 -3.375,1.39861 0,1.14261 2.7117,1.16842 3.4138,0.0325 z m 12.5862,-0.13948 c 0,-0.55 -0.1984,-1 -0.441,-1 -0.2425,0 -0.7191,0.45 -1.059,1 -0.3399,0.55 -0.1415,1 0.441,1 0.5824,0 1.059,-0.45 1.059,-1 z m -43.0352,-1.93426 c 1.3825,-2.58328 1.3094,-3.06574 -0.4648,-3.06574 -0.825,0 -1.5,0.4132 -1.5,0.91821 0,0.50502 -0.2731,1.63002 -0.607,2.5 -0.8681,2.26238 1.3339,1.96058 2.5718,-0.35247 z m 39.8583,-1.38564 c 0.1903,-0.98831 0.051,-2.55814 -0.3108,-3.48851 -0.5628,-1.44928 -0.8564,-1.33348 -2.0492,0.80841 -0.7657,1.375 -1.4082,3.0955 -1.4277,3.82332 -0.053,1.97653 3.3868,0.93833 3.7877,-1.14322 z m 118.1769,-0.7936 c 0,-0.48757 -1.35,-0.8865 -3,-0.8865 -1.826,0 -3,0.51924 -3,1.32681 0,0.90541 0.9528,1.18696 3,0.8865 1.65,-0.24217 3,-0.83923 3,-1.32681 z m -166,-1.19552 c -1e-4,-0.65504 -1.5751,-2.44766 -3.5,-3.98361 l -3.5,-2.79263 0.015,2.29263 c 0.018,2.70947 0.7783,3.89286 3.4847,5.42451 2.1993,1.24469 3.5,0.89504 3.5,-0.9409 z m 4.8769,-0.32021 c 0.6589,-1.44607 0.967,-2.8602 0.6847,-3.1425 -0.9202,-0.92017 -3.5616,1.96792 -3.5616,3.89417 0,2.69854 1.4812,2.31153 2.8769,-0.75167 z m 37.6231,-0.2041 c 0,-3.09065 -1.9356,-2.74858 -2.3269,0.41122 -0.2284,1.84433 0.073,2.50675 1,2.19776 0.7298,-0.24328 1.3269,-1.41732 1.3269,-2.60898 z m 122.2655,-3.54735 c -2.0691,-1.57121 -1.3084,-2.61932 1.9012,-2.61932 1.2833,0 2.3333,-0.45 2.3333,-1 0,-1.15096 -5.0068,-1.33173 -6.5,-0.23469 -0.55,0.40408 -1.1072,1.74719 -1.2382,2.98469 -0.1959,1.84986 0.2487,2.24434 2.5,2.2182 2.478,-0.0288 2.5734,-0.15694 1.0037,-1.34888 z m -286.2776,-1.86932 c -0.5988,-2.08278 -1.4454,-4.24296 -4.2131,-10.75 -0.9637,-2.26584 -1.1337,-2.32663 -1.8148,-0.64908 -0.4133,1.01801 -0.3155,2.14301 0.2172,2.5 0.5328,0.357 1.338,1.54908 1.7894,2.64908 0.788,1.92028 0.9863,2.90256 1.3623,6.75 0.094,0.9625 0.8764,1.75 1.7385,1.75 1.1504,0 1.3953,-0.59852 0.9205,-2.25 z m -8.1704,-5.13514 c 0.5469,-3.53769 0.4713,-3.71655 -0.8459,-2 -1.3985,1.82245 -1.5128,1.80201 -3.4369,-0.61486 -1.0946,-1.375 -2.0002,-2.15356 -2.0125,-1.73013 -0.029,1.00071 5.0332,9.02618 5.4084,8.57461 0.1575,-0.18946 0.5566,-2.09279 0.8869,-4.22962 z m 116.1825,3.38514 c 0.3399,-0.55 0.1415,-1 -0.441,-1 -0.5824,0 -1.059,0.45 -1.059,1 0,0.55 0.1984,1 0.441,1 0.2425,0 0.7191,-0.45 1.059,-1 z m 6.5,-0.41821 c 0,-0.23002 0.2731,-1.13002 0.607,-2 0.4351,-1.13395 0.01,-1.58179 -1.5,-1.58179 -1.1589,0 -2.107,0.1882 -2.107,0.41821 0,0.23002 -0.2731,1.13002 -0.607,2 -0.4351,1.13395 -0.01,1.58179 1.5,1.58179 1.1589,0 2.107,-0.1882 2.107,-0.41821 z m -7.0074,-5.98915 c -0.6864,-0.68648 -1.7393,-0.28286 -3.2537,1.24739 -1.7283,1.74631 -1.8398,2.11216 -0.4889,1.60413 1.1253,-0.42319 1.7613,-0.17371 1.7818,0.69885 0.021,0.88985 0.5385,0.687 1.5037,-0.58926 0.9957,-1.3165 1.1436,-2.27464 0.4571,-2.96111 z m 179.4612,0.15736 c -0.7189,-3.31356 -2.223,-5.01066 -3.6561,-4.125 -1.3433,0.83024 -0.8866,2.375 0.7023,2.375 0.825,0 1.5,0.46412 1.5,1.03138 0,0.56727 -0.675,1.29041 -1.5,1.60699 -2.395,0.91903 -1.7356,2.36163 1.0795,2.36163 2.3881,0 2.5271,-0.24107 1.8743,-3.25 z m -298.9756,-7.70169 c 1.0041,-2.22657 2.4322,-4.04831 3.1737,-4.04831 1.7167,0 1.6932,0.43206 -0.2256,4.14259 -1.4704,2.84346 -1.1528,5.56801 0.3781,3.24299 0.3826,-0.58108 1.471,-1.47918 2.4188,-1.99579 1.5602,-0.85045 1.5838,-1.20783 0.25,-3.77884 -0.8103,-1.56176 -1.4732,-3.20692 -1.4732,-3.65592 0,-1.24038 -4.395,-7.86445 -5.25,-7.9127 -0.4125,-0.0233 -0.75,0.80257 -0.75,1.83523 0,1.03265 -0.675,2.43775 -1.5,3.12244 -1.433,1.18925 -2.1019,4 -0.952,4 0.3013,0 1.6371,-1.2375 2.9684,-2.75 2.2798,-2.59027 2.4222,-2.62643 2.452,-0.62244 0.017,1.17015 -0.6434,2.68775 -1.4684,3.37244 -0.825,0.68469 -1.5,2.05765 -1.5,3.05102 0,0.99337 -0.7037,2.50981 -1.5638,3.36988 -0.86,0.86007 -1.2789,2.02455 -0.9309,2.58774 0.9455,1.52972 1.9478,0.53053 3.9729,-3.96033 z m 114.0629,1.88516 c 1.0763,-1.74144 -0.1495,-2.11024 -1.521,-0.45764 -0.7888,0.95039 -0.8647,1.52417 -0.2016,1.52417 0.5849,0 1.3601,-0.47994 1.7226,-1.06653 z m 7.1574,-5.56832 c -0.3031,-0.30306 -1.2592,0.81846 -2.1248,2.49226 -2.2619,4.37409 -1.9076,5.21671 0.5679,1.35067 1.1593,-1.81056 1.8599,-3.53988 1.5569,-3.84293 z m 175.3543,3.13485 c -0.078,-1.48429 -2.3156,-1.2116 -2.8346,0.3455 -0.2804,0.84112 0.1767,1.21599 1.2194,1 0.9174,-0.19002 1.6443,-0.7955 1.6152,-1.3455 z m -175.6565,-5.85098 c 2.478,-3.06163 3.0852,-4.84793 3.4165,-10.05043 0.2654,-4.16704 -0.061,-7.14152 -0.955,-8.71281 -0.7468,-1.31218 -1.3578,-3.69439 -1.3578,-5.29381 0,-1.60122 -0.6299,-3.12186 -1.4016,-3.38388 -1.0562,-0.35854 -1.232,0.11183 -0.7134,1.90803 1.9693,6.82035 1.7924,12.37563 -0.5483,17.2258 -3.7545,7.77973 -4.2692,8.65808 -5.0738,8.65808 -0.4196,0 -0.7629,0.51974 -0.7629,1.15499 0,2.10673 3.9031,-2.32398 6.1992,-7.03714 1.5925,-3.26907 2.3554,-4.08635 2.6119,-2.79813 0.1993,1.00084 -0.9141,3.69231 -2.4744,5.98104 -4.558,6.68639 -4.7105,6.99052 -3.2637,6.50825 0.7203,-0.24013 2.6659,-2.11212 4.3233,-4.15999 z m 175.6037,0.24399 c 0,-1.51045 -0.4478,-1.93514 -1.5818,-1.5 -0.87,0.33385 -1.77,0.60699 -2,0.60699 -0.23,0 -0.4182,0.675 -0.4182,1.5 0,0.83333 0.8889,1.5 2,1.5 1.3672,0 2,-0.66667 2,-2.10699 z m -199.9648,-5.35063 c -0.7041,-0.84831 -1.675,-1.54238 -2.1576,-1.54238 -1.3616,0 -1.0339,3.77603 0.3724,4.29167 2.0331,0.74545 3.1974,-1.04768 1.7852,-2.74929 z m -10.0352,0.95762 c 0,-0.825 -0.45,-1.5 -1,-1.5 -0.55,0 -1,0.675 -1,1.5 0,0.825 0.45,1.5 1,1.5 0.55,0 1,-0.675 1,-1.5 z m 4.6831,-0.6875 c -0.3192,-0.79773 -0.5562,-0.56078 -0.6042,0.60417 -0.043,1.05416 0.193,1.64479 0.5253,1.3125 0.3323,-0.33229 0.3678,-1.1948 0.079,-1.91667 z m 11.1408,-0.14839 c 0.1782,-0.91859 -0.4038,-1.94939 -1.2931,-2.29067 -2.1396,-0.82105 -2.5726,-0.24931 -1.8638,2.46112 0.6568,2.51155 2.6577,2.40351 3.1569,-0.17045 z m 191.5886,1.73111 c 0.8668,-0.33264 1.3392,-0.98798 1.0497,-1.45633 -0.6393,-1.03441 -3.4622,-0.082 -3.4622,1.1681 0,1.05486 0.3162,1.09264 2.4125,0.28823 z m -211.4125,-2.39522 c 0,-0.55 -0.45,-1 -1,-1 -0.55,0 -1,0.45 -1,1 0,0.55 0.45,1 1,1 0.55,0 1,-0.45 1,-1 z m 24,-0.94098 c 0,-0.51754 -0.4573,-1.22364 -1.0163,-1.5691 -0.559,-0.34546 -0.7439,-1.06887 -0.411,-1.60758 0.3789,-0.61302 1.1491,-0.5282 2.0587,0.22672 1.028,0.85318 1.765,0.8945 2.5183,0.1412 1.3188,-1.31878 -2.5868,-3.68025 -4.7278,-2.85865 -1.4438,0.55403 -1.9737,4.72324 -0.7552,5.94172 0.9739,0.97396 2.3333,0.81415 2.3333,-0.27431 z m -28,-3.43658 c 0,-0.75765 -0.7593,-1.99515 -1.6872,-2.75 -1.4853,-1.20814 -1.605,-1.15316 -1,0.45935 0.3779,1.00748 0.6872,2.24498 0.6872,2.75 0,0.50501 0.45,0.91821 1,0.91821 0.55,0 1,-0.6199 1,-1.37756 z m -83.85,-2.12244 c 0,-0.5225 -0.4838,-1.11125 -1.075,-1.30833 -0.5913,-0.19709 -1.075,0.39166 -1.075,1.30833 0,0.91667 0.4837,1.50542 1.075,1.30833 0.5912,-0.19708 1.075,-0.78583 1.075,-1.30833 z m 116.85,-2.5 c 0,-0.55 -0.45,-1 -1,-1 -0.55,0 -1,0.45 -1,1 0,0.55 0.45,1 1,1 0.55,0 1,-0.45 1,-1 z m -11.6416,-7.42421 c 2.7983,-4.27085 1.8795,-12.19502 -1.8461,-15.92061 -2.1742,-2.17425 -3.2103,-2.08801 -4.5295,0.37703 -1.0012,1.87065 -0.867,1.97684 1.6874,1.33571 l 2.7751,-0.6965 -1.7741,2.70767 c -1.648,2.51508 -3.0953,14.86348 -1.8841,16.07468 0.8319,0.83194 3.8715,-1.28378 5.5713,-3.87798 z m 12.1416,3.42421 c -0.3399,-0.55 -1.2399,-1 -2,-1 -0.7601,0 -1.6601,0.45 -2,1 -0.3519,0.5694 0.5093,1 2,1 1.4907,0 2.3519,-0.4306 2,-1 z m 0.3233,-5.33287 c 0.2156,-1.11142 -0.3481,-1.66713 -1.691,-1.66713 -2.5558,0 -3.8219,1.94942 -2.0104,3.09555 1.8458,1.16789 3.3073,0.60392 3.7014,-1.42842 z m 53.7447,-3.17818 c 0.8526,-4.54473 2.432,-5.51169 2.432,-1.48895 0,1.82405 0.415,2.86155 1,2.5 0.55,-0.33992 1,-1.46492 1,-2.5 0,-1.03508 0.5202,-2.20349 1.1561,-2.59647 0.8264,-0.51078 0.9761,0.18523 0.525,2.44098 -0.7845,3.92237 0.9429,4.20435 2.484,0.40549 l 1.1155,-2.75 0.6328,2.40688 0.6328,2.40688 3.6532,-3.40688 c 4.971,-4.63594 7.6113,-14.90688 3.832,-14.90688 -0.5673,0 -1.0314,1.10455 -1.0314,2.45455 0,1.35 -1.1455,3.6 -2.5455,5 -2.1342,2.1342 -3.4671,2.54455 -8.25,2.53987 -3.1375,-0.003 -7.392,-0.47422 -9.4545,-1.047 -3.2123,-0.8921 -3.75,-1.45 -3.75,-3.89083 0,-3.6068 -5.0572,-8.2226 -12.7235,-11.613 -6.1568,-2.72283 -8.1229,-2.95241 -11.4794,-1.34042 -3.0633,1.47113 -9.0066,9.65216 -8.528,11.73871 0.2843,1.23901 0.867,0.83825 2.3057,-1.58556 1.0588,-1.78402 2.2627,-3.24652 2.6752,-3.25 1.2154,-0.0102 0.8006,2.34267 -0.7818,4.43481 -1.7099,2.26072 -1.8806,3.55887 -0.4679,3.55887 0.5501,0 2.2376,-2.24352 3.75,-4.98559 1.5123,-2.74208 3.0872,-4.99208 3.4997,-5 1.4859,-0.0285 0.7017,3.10191 -1.75,6.98559 -2.863,4.53533 -2.9771,5 -1.2274,5 1.2673,0 3.6057,-3.79192 5.8583,-9.5 0.8842,-2.24074 1.2877,-2.56464 1.5941,-1.27979 0.2256,0.94612 -0.7452,4.02059 -2.1574,6.83216 -2.9014,5.77661 -2.9465,5.94763 -1.5663,5.94763 0.5508,0 2.2344,-2.7 3.7415,-6 1.507,-3.3 3.0814,-6 3.4986,-6 1.3133,0 0.8384,1.90895 -1.7414,7 -1.375,2.71343 -2.5,5.22857 -2.5,5.5892 0,1.6015 3.3612,-2.36497 5.5279,-6.52345 1.3084,-2.51116 2.3999,-4.0704 2.4255,-3.46497 0.084,1.98089 -2.2031,7.86051 -3.7555,9.65535 -0.8355,0.96587 -1.3023,1.97284 -1.0374,2.2377 0.7477,0.7477 4.6746,-4.98858 5.4037,-7.89351 0.3589,-1.43018 1.0538,-2.60032 1.5442,-2.60032 1.3942,0 1.0794,1.51826 -1.5447,7.45185 -1.3888,3.14036 -2.0302,5.75981 -1.4919,6.09253 0.8554,0.52865 4.9282,-7.42766 4.9282,-9.62729 0,-0.5044 0.406,-0.91709 0.9021,-0.91709 0.8005,0 -0.4733,5.40764 -2.4145,10.25 -1.4971,3.73455 1.5353,1.54272 3.4588,-2.5 l 2.0221,-4.25 -0.5935,4.37656 c -0.4172,3.07591 -0.2639,4.17281 0.5157,3.69098 0.6101,-0.37707 1.1093,-1.30746 1.1093,-2.06754 0,-0.76008 0.5123,-1.69858 1.1384,-2.08554 0.8153,-0.50387 0.9443,0.33091 0.4547,2.94098 -0.9281,4.94706 0.6075,4.60339 2.7051,-0.60544 l 1.7116,-4.25 -0.5662,4.75 c -0.6641,5.57211 1.1167,6.61067 2.1244,1.23895 z m -55.9131,-3.03208 c 0.8017,-2.08905 0.2647,-2.38238 -2.4691,-1.34877 -1.2729,0.48124 -2.0338,1.32879 -1.691,1.88344 0.9468,1.53195 3.4926,1.20475 4.1601,-0.53467 z m 7.3451,-2.51589 c 0,-0.51754 -0.45,-0.94098 -1,-0.94098 -0.55,0 -1,0.70156 -1,1.55902 0,0.85746 0.45,1.2809 1,0.94098 0.55,-0.33992 1,-1.04148 1,-1.55902 z m -9.3712,-2.64554 c -0.8243,-0.82426 -3.6288,0.49605 -3.6288,1.70836 0,0.73956 0.6395,0.72434 2.0856,-0.0496 1.1471,-0.61391 1.8416,-1.36033 1.5432,-1.65872 z m -0.8471,-4.14042 c 0.2115,-0.63468 -0.3162,-1.42291 -1.1728,-1.75162 -1.7858,-0.68524 -5.0357,2.09702 -4.1408,3.54493 0.7313,1.18336 4.7764,-0.18183 5.3136,-1.79331 z m -13.8039,-3.57628 c 0.028,-1.18122 -3.0282,-4.57874 -4.1194,-4.57874 -0.7289,0 -3.8584,6.32359 -3.8584,7.79644 0,0.3037 1.1775,-0.53875 2.6166,-1.87213 l 2.6167,-2.42431 -0.6743,3.5 -0.6743,3.5 2.0354,-2.5 c 1.1195,-1.375 2.0454,-2.91457 2.0577,-3.42126 z m 31.5633,1.35473 c 0.9204,-1.48915 -0.1467,-2.29879 -2.0614,-1.56407 -0.8835,0.33906 -1.3264,1.06965 -0.9841,1.62354 0.8106,1.31154 2.2151,1.28411 3.0455,-0.0595 z m -43.9925,-10.12042 c -2.3354,-3.95353 -0.6617,-6.11249 4.053,-5.22801 5.8334,1.09434 13.4045,-5.54117 13.3947,-11.73933 0,-2.14186 -0.1796,-2.05736 -2.0267,0.97232 -3.2748,5.37138 -11.0233,7.92511 -24.6429,8.12172 -5.0397,0.0728 -9.8609,3.66302 -10.8273,8.06288 -0.9988,4.54765 0.5314,5.78034 2.3261,1.87381 l 1.5511,-3.37644 0.3798,2.76695 c 0.4404,3.20885 2.2436,2.69862 2.2436,-0.63484 0,-2.54824 2.4969,-6.46853 3.4884,-5.47702 0.3586,0.35857 0.01,2.56428 -0.7845,4.90157 -0.7901,2.3373 -1.1892,5.19321 -0.8869,6.34648 0.416,1.58709 0.8526,0.91063 1.7957,-2.78254 0.6854,-2.68367 1.7891,-5.38367 2.4527,-6 0.9287,-0.86247 1.0512,-0.54473 0.5317,1.3794 -1.6213,6.00538 -1.9111,9.31207 -0.7532,8.59646 0.6359,-0.39297 1.1561,-1.50193 1.1561,-2.46435 0,-0.96242 0.6872,-2.62336 1.527,-3.69098 1.408,-1.7898 1.4755,-1.55972 0.8651,2.95126 -0.478,3.53346 -0.3467,4.69756 0.473,4.19098 0.6242,-0.38577 1.1349,-1.26384 1.1349,-1.95126 0,-0.68742 0.6439,-2.12336 1.4308,-3.19098 1.3026,-1.76719 1.394,-1.5379 1.0202,2.55887 l -0.4106,4.5 1.1124,-3.89055 c 0.9294,-3.25063 0.83,-4.36852 -0.6042,-6.7964 z m 5.5078,5.93695 c 2.2821,-2.7355 2.4116,-3.75 0.4788,-3.75 -1.4571,0 -3.5352,2.90052 -3.5352,4.93426 0,1.65976 1.0105,1.26823 3.0564,-1.18426 z m 227.0842,-8.40738 c 4.0749,-4.63992 5.1441,-8.49467 4.5377,-16.3587 -0.3225,-4.18201 -1.4911,-9.71421 -2.5968,-12.29379 -1.6396,-3.82507 -2.4781,-4.69013 -4.546,-4.69013 -1.3945,0 -2.5355,-0.45 -2.5355,-1 0,-0.55 -0.4148,-1 -0.9218,-1 -1.0153,0 -5.0822,16.03714 -4.3786,17.26631 0.8103,1.41566 2.3004,-0.3615 2.3004,-2.74354 0,-3.32486 0.9949,-5.52277 2.5,-5.52277 0.7073,0 1.5698,-0.73941 1.9165,-1.64313 0.9022,-2.35086 1.8977,-0.92234 1.1028,1.58229 -0.3648,1.14943 -1.0809,1.83179 -1.5913,1.51634 -0.5104,-0.31544 -0.928,0.12802 -0.928,0.98548 0,0.85746 0.45,1.55902 1,1.55902 1.3237,0 1.2713,3.92324 -0.1051,7.87167 -0.8235,2.36226 -0.8073,3.52901 0.064,4.5785 0.8698,1.04812 0.8967,2.88041 0.1051,7.16277 -0.5851,3.16491 -1.0638,5.91256 -1.0638,6.1059 0,0.74295 3.5989,-1.62072 5.1406,-3.37622 z m -191.9517,-9.79457 c 1.9789,-4.07314 2.0475,-4.80159 0.8067,-8.5613 -0.7459,-2.26015 -2.2409,-4.58284 -3.3222,-5.16154 -1.7637,-0.94389 -1.8878,-0.80894 -1.2062,1.3113 1.8984,5.90504 1.7858,10.02999 -0.3527,12.92246 -2.615,3.53704 -2.6254,3.94103 -0.1015,3.94103 1.392,0 2.6802,-1.3734 4.1759,-4.45195 z m -5.4743,-2.16674 c -0.9589,-0.95892 -3.8104,1.65472 -3.0853,2.82796 0.3613,0.58453 1.2443,0.34569 2.1795,-0.5895 0.8647,-0.86468 1.2723,-1.87199 0.9058,-2.23846 z m 191.2854,-5.49934 c 0,-0.55 -0.45,-0.72189 -1,-0.38197 -0.55,0.33992 -1,1.06803 -1,1.61803 0,0.55 0.45,0.72189 1,0.38197 0.55,-0.33992 1,-1.06803 1,-1.61803 z m -251.5707,-6.63197 c 1.2281,-7.06417 2.3737,-8.63451 8.1192,-11.12978 6.7236,-2.92004 11.5,-2.51424 18.0624,1.53458 9.3995,5.7992 10.8065,6.3644 14.7602,5.92917 2.1291,-0.23438 4.3791,-0.94349 5,-1.57582 0.8479,-0.86352 0.4444,-0.98063 -1.6211,-0.4705 -3.2676,0.80699 -3.324,0.5451 -0.8367,-3.88328 l 1.9133,-3.40646 -3.0502,-2.25508 c -2.7408,-2.02635 -3.1427,-2.08964 -3.963,-0.62397 -0.8244,1.47327 -1.1944,1.48546 -3.8235,0.12592 -4.929,-2.54891 -15.1378,-4.49007 -18.9899,-3.61088 -10.1483,2.31617 -16.034,8.49175 -17.5168,18.37927 -0.8541,5.69558 0.967,6.61901 1.9461,0.98683 z m 247.1354,-4.26824 c 1.9329,-8.94582 3.4437,-10.22029 9.5798,-8.08123 1.7489,0.60967 3.4181,0.87015 3.7095,0.57885 0.562,-0.56207 -1.2166,-6.41445 -3.1347,-10.31469 -0.6317,-1.28443 -2.402,-2.98348 -3.9339,-3.77568 -3.9327,-2.03367 -3.9567,-6.38249 -0.035,-6.40432 3.2485,-0.0181 6.4259,-1.86116 4.5371,-2.63177 -0.6671,-0.27215 -3.2193,-3.30668 -5.6717,-6.74339 -7.6495,-10.71982 -16.9355,-13.60156 -20.4177,-6.33627 -1.6844,3.51443 -2.3678,3.43436 -4.466,-0.52326 -4.745,-8.95016 -5.9324,-20.12547 -3.1644,-29.78207 2.3871,-8.32811 2.7189,-10.673 1.6072,-11.36008 -0.5946,-0.36743 -2.09,2.6832 -3.5962,7.33588 -3.9906,12.3275 -3.391,26.32224 1.6194,37.79946 1.0856,2.48651 1.6904,2.96869 2.5924,2.06666 2.3818,-2.38174 2.0532,-0.0277 -1.0793,7.73429 -2.2003,5.45177 -3.3093,7.26391 -3.5236,5.75744 -0.1721,-1.20912 0.1654,-3.09204 0.75,-4.18425 0.5845,-1.09222 1.0323,-2.80293 0.9951,-3.80159 -0.056,-1.5159 -0.2469,-1.44419 -1.1528,0.43426 -0.5969,1.2375 -1.5152,2.25 -2.0408,2.25 -0.8832,0 -0.6243,-2.05567 0.8386,-6.6571 0.5275,-1.65924 0.4178,-1.64358 -1.1012,0.1571 -0.9279,1.1 -2.297,3.35 -3.0425,5 -1.2219,2.7046 -1.3592,2.77356 -1.3945,0.70034 -0.022,-1.26481 0.6342,-3.60178 1.4572,-5.19325 1.8364,-3.5512 0.3641,-4.86754 -2.3776,-2.12579 -1.2813,1.28131 -2.167,3.96253 -2.5721,7.78647 -0.3398,3.20773 -1.0518,7.45944 -1.5822,9.44825 -1.3632,5.11118 -1.2272,5.88398 1.0356,5.88398 1.1,0 2,-0.45 2,-1 0,-0.55 0.675,-1 1.5,-1 0.825,0 1.5,0.46822 1.5,1.04049 0,1.87455 4.3399,6.95951 5.9398,6.95951 0.86,0 2.5885,1.9125 3.8411,4.25 1.2526,2.3375 3.1543,5.375 4.226,6.75 l 1.9486,2.5 0.022,-2.67104 c 0.012,-1.46908 0.9477,-6.56771 2.0788,-11.3303 2.0814,-8.76351 2.1165,-13.34944 0.063,-8.18356 -0.6155,1.5483 -1.1261,3.5733 -1.1345,4.5 -0.021,2.26425 -1.7009,4.80197 -2.5906,3.91234 -0.6612,-0.6613 1.4698,-9.52014 3.8487,-15.9989 1.4809,-4.03292 3.1174,-4.64506 2.2849,-0.85462 -0.5695,2.59295 -0.4176,3.02109 0.8931,2.51811 1.8246,-0.70015 2.0702,1.18653 0.6431,4.94005 -1.2369,3.25336 -0.017,4.35938 1.5987,1.44928 1.5836,-2.85234 1.8425,-0.23998 0.3622,3.65354 -1.2842,3.37778 0.3091,3.32261 1.8522,-0.0641 1.6703,-3.66595 2.6127,-2.19308 1.1697,1.82818 -0.6514,1.81558 -1.5413,5.32605 -1.9773,7.80105 -0.4361,2.475 -0.9676,4.95 -1.1811,5.5 -0.2136,0.55 0.04,1.13725 0.5625,1.30501 0.523,0.16775 1.7732,-2.75725 2.7782,-6.5 2.3669,-8.81424 2.7029,-9.70645 3.3947,-9.01466 0.3172,0.31713 -0.1189,3.41904 -0.9689,6.89313 -2.493,10.18908 -2.9787,13.81649 -1.8498,13.81649 0.565,0 1.807,-3.60821 2.7598,-8.01824 z m -18.0878,-17.98176 c 1.2571,-6.39794 3.8756,-14 4.8223,-14 0.5138,0 0.6454,1.0125 0.2926,2.25 -0.3528,1.2375 -1.3037,4.7009 -2.1131,7.69644 -1.7296,6.40144 -4.089,9.58751 -3.0018,4.05356 z m -4.4769,-0.75703 c 0,-1.98067 5.0078,-18.65078 5.8583,-19.50129 1.8301,-1.83012 3.2166,0.20769 1.742,2.56047 -1.3978,2.23046 -2.6072,5.77938 -4.5826,13.44785 -0.6021,2.3375 -1.5274,4.25 -2.0562,4.25 -0.5288,0 -0.9615,-0.34066 -0.9615,-0.75703 z m -270.0027,21.40091 c 1.9185,-2.39587 4.9415,-5.43337 6.7179,-6.75 3.0529,-2.26279 4.3413,-4.89388 2.3964,-4.89388 -1.6364,0 -14.1116,12.69154 -14.1116,14.35636 0,2.63144 1.2705,1.94181 4.9973,-2.71248 z m 4.4542,-10.73644 c 1.9442,-1.32409 3.5379,-2.80815 3.5417,-3.29791 0.01,-1.36757 -4.2637,-9.60953 -4.9834,-9.60953 -0.3496,0 -1.929,1.35 -3.5098,3 -1.5808,1.65 -3.465,3 -4.1871,3 -1.5609,0 -1.7426,1.61637 -0.2831,2.51841 0.5664,0.35005 2.6386,-0.77613 4.605,-2.50263 1.9664,-1.7265 3.8655,-2.84644 4.2202,-2.48875 0.3548,0.35768 -1.4925,2.56018 -4.105,4.89445 -2.6125,2.33427 -4.75,4.54437 -4.75,4.91133 0,1.48928 1.7324,0.46154 5.6789,-3.36894 2.8536,-2.76967 4.3907,-3.66019 4.8989,-2.83805 0.4388,0.71007 -0.2409,1.97887 -1.6687,3.1149 -5.4078,4.30272 -10.9091,10.02553 -10.9091,11.3483 0,0.80196 1.705,-0.24588 3.9583,-2.43269 2.1771,-2.1128 5.5491,-4.9248 7.4932,-6.24889 z m 45.2108,6.84256 c -0.2774,-0.6875 -0.5044,-0.125 -0.5044,1.25 0,1.375 0.227,1.9375 0.5044,1.25 0.2774,-0.6875 0.2774,-1.8125 0,-2.5 z m 234.9649,0.59907 c 0.3699,-1.47381 0.1564,-3.46597 -0.4809,-4.48643 -0.6305,-1.00953 -1.1779,-2.62911 -1.2166,-3.59907 -0.1305,-3.27524 -1.7824,1.89504 -1.8594,5.81976 -0.1061,5.4088 2.3719,6.98727 3.5569,2.26574 z m -59.1272,-4.34907 c -0.3399,-0.55 -1.068,-1 -1.618,-1 -0.55,0 -0.7219,0.45 -0.382,1 0.3399,0.55 1.068,1 1.618,1 0.55,0 0.7219,-0.45 0.382,-1 z m -143.9427,-10.58176 c -2.2009,-1.60933 -4.5573,-1.86867 -4.5573,-0.50157 0,1.01601 5.2088,3.0694 5.9984,2.36466 0.2742,-0.24467 -0.3744,-1.08306 -1.4411,-1.86309 z m -7.5573,-3.31125 c 0,-0.49116 -0.675,-1.15203 -1.5,-1.46862 -0.825,-0.31658 -1.5,-1.2344 -1.5,-2.0396 0,-0.8052 -0.8261,-1.72619 -1.8358,-2.04665 -2.3975,-0.76094 -14.1443,-13.00863 -17.0127,-17.73807 -1.2885,-2.12459 -3.1708,-3.81898 -4.4435,-4 -3.2283,-0.45917 -9.2356,-9.92127 -12.2552,-19.30339 -1.5742,-4.89094 -2.9714,-12.45337 -3.6029,-19.5 -0.5673,-6.33086 -1.4303,-11.92783 -1.9177,-12.43771 -1.4628,-1.53009 -3.9322,5.89903 -3.9322,11.82983 0,3.00686 -0.3856,6.50882 -0.8569,7.78212 -0.4713,1.27331 -1.1661,5.42419 -1.5441,9.22418 -0.5796,5.82691 -0.4702,6.7289 0.6989,5.75868 1.8856,-1.56496 2.7021,-0.48373 2.7021,3.57836 0,3.27175 0.124,3.38556 3,2.75388 2.9054,-0.63813 3,-0.54387 3,2.98793 0,3.19177 0.2496,3.56763 2,3.01207 1.3234,-0.42003 2,-0.1797 2,0.71037 0,0.73983 0.8307,2.05644 1.8461,2.9258 1.389,1.18937 1.8934,3.15977 2.0374,7.95972 0.1053,3.50849 0.6826,6.8347 1.2829,7.39159 0.7834,0.72678 0.9262,-0.47791 0.5059,-4.2688 -0.322,-2.90473 -0.3329,-5.93965 -0.024,-6.74426 0.9952,-2.59346 2.349,-0.47591 2.4515,3.8346 0.1053,4.42787 1.5523,10.25059 1.9113,7.69098 0.1157,-0.825 0.134,-2.46952 0.041,-3.65449 -0.093,-1.18497 0.3069,-2.44902 0.8894,-2.80902 0.6886,-0.42559 1.0644,1.02754 1.0743,4.15449 0.01,2.64496 0.4802,5.48402 1.0484,6.30902 0.7693,1.11691 0.9569,0.42214 0.7347,-2.72041 -0.4021,-5.687 1.5592,-5.52696 2.2471,0.18336 0.3,2.49039 1.1461,5.09252 1.8802,5.78251 1.102,1.03572 1.2482,0.64405 0.8383,-2.24546 -0.5485,-3.86742 -0.08,-6 1.3193,-6 0.5042,0 0.9236,1.4625 0.932,3.25 0.018,3.86499 1.3247,6.27595 2.88,5.31473 0.6153,-0.38032 1.3939,0.0254 1.7302,0.90169 0.3743,0.97551 1.2949,1.37623 2.3745,1.03358 1.0558,-0.33509 1.9961,0.0474 2.3437,0.95334 0.3193,0.83212 1.2271,1.26485 2.0173,0.96163 0.7902,-0.30323 1.7338,-0.0706 2.0969,0.51686 0.8006,1.29538 2.5421,1.41538 2.5421,0.17516 z m -75.6184,-1.65893 c 0.3415,-0.88992 0.1738,-1.29132 -0.3931,-0.94098 -0.5437,0.33602 -0.9885,1.0344 -0.9885,1.55194 0,1.43843 0.7168,1.12146 1.3816,-0.61096 z m 4.6184,-2.38904 c 0,-1.17986 -1.9504,-2.442 -2.6667,-1.72569 -0.7163,0.71632 0.5459,2.66667 1.7257,2.66667 0.5176,0 0.941,-0.42344 0.941,-0.94098 z m 181.5,-3.05902 c -0.3399,-0.55 -1.829,-0.99311 -3.309,-0.98469 -2.1048,0.012 -2.3642,0.22649 -1.191,0.98469 1.9759,1.2769 5.2892,1.2769 4.5,0 z m 52.8224,-5.08974 c 1.6058,-2.45272 2.6776,-5.48138 2.6776,-7.56643 0,-3.18067 -0.2276,-3.44973 -2.6729,-3.16025 -3.2107,0.38009 -4.4308,2.81642 -1.4104,2.81642 1.1458,0 2.0833,0.50625 2.0833,1.125 0,0.71667 -1.0889,0.90722 -3,0.525 -2.1949,-0.43898 -3,-0.22283 -3,0.80545 0,0.773 0.9772,1.54925 2.1717,1.725 1.1944,0.17575 2.3781,0.94556 2.6303,1.71068 0.3472,1.0528 -0.181,1.23057 -2.1716,0.73095 -2.6489,-0.66482 -3.7059,0.70936 -1.3804,1.79459 0.9981,0.46578 0.9968,0.7013 -0.01,1.16874 -1.2648,0.58942 -0.7829,2.41459 0.6376,2.41459 0.4199,0 1.9683,-1.84038 3.441,-4.08974 z m -201.0335,-10.91026 c -0.9839,-1.925 -2.4455,-3.5 -3.2479,-3.5 -0.8476,0 -1.7419,-1.3831 -2.1341,-3.30075 -0.3713,-1.81541 -0.8594,-3.48506 -1.0846,-3.71033 -0.8627,-0.86266 -4.8223,0.80683 -4.8223,2.03321 0,2.58889 4.5789,9.76842 8.4884,13.30926 l 4.0116,3.63345 0.2889,-2.48242 c 0.1589,-1.36533 -0.5161,-4.05742 -1.5,-5.98242 z m 160.8539,4.01107 c 1.6439,-1.64392 2.6835,-3.48313 2.3102,-4.08714 -0.4888,-0.79081 -0.983,-0.79391 -1.7659,-0.0111 -2.0675,2.06753 -8.223,1.06695 -17.1871,-2.79378 -10.6582,-4.59037 -19.1091,-5.88431 -25,-3.82785 -4.682,1.63442 -7.7458,5.86299 -5.7175,7.89122 1.0042,1.00422 1.9394,0.88359 4.7076,-0.60722 2.5914,-1.39553 4.6483,-1.71643 8.2322,-1.28427 4.1647,0.5022 6.7862,1.39288 16.7777,5.70053 3.7118,1.60026 4.9855,1.85037 9.8269,1.92955 4.0821,0.0668 5.2882,-0.38229 7.8159,-2.90998 z m -50.1428,-4.45205 c 0,-2.39458 -1.5948,-4.29754 -2.6866,-3.20573 -0.8517,0.85163 0.5968,5.64671 1.7056,5.64671 0.5396,0 0.981,-1.09844 0.981,-2.44098 z m 46.2857,-4.54344 c 0.3358,-1.28428 0.038,-2.01558 -0.8203,-2.01558 -1.7913,0 -2.7812,1.73455 -2.0611,3.61127 0.7236,1.88555 2.1823,1.07773 2.8814,-1.59569 z m 34.2542,1.44208 c 3.2781,-0.84829 8.3858,-2.98579 11.3506,-4.75 7.1762,-4.27024 21.263,-18.20492 23.4609,-23.20766 0.9666,-2.2 2.3561,-5.125 3.0877,-6.5 2.5147,-4.72595 5.5675,-19.10656 4.9181,-23.16743 -0.3409,-2.13229 -0.9881,-4.10443 -1.438,-4.38252 -0.8196,-0.50654 -1.3462,1.91833 -2.3476,10.80974 -0.3028,2.68858 -2.7168,9.38296 -5.5475,15.38413 -4.2838,9.08162 -6.0911,11.68662 -12.4467,17.93994 -4.463,4.39118 -9.9621,8.61285 -13.7563,10.56075 -6.499,3.33649 -10.8955,3.79812 -25.4819,2.67559 -5.2976,-0.40768 -5.8573,-1.02834 -4.2344,-4.69495 1.1279,-2.54805 1.7349,-2.90732 4.1093,-2.43243 2.5636,0.51272 2.7859,0.31237 2.7859,-2.51112 0,-2.95522 -2.9258,-6.23936 -5.4725,-6.1427 -1.1993,0.0455 -7.5275,8.38419 -7.5275,9.91896 0,3.89204 -15.558,-2.66587 -21.4614,-9.04624 -6.0936,-6.58603 -8.9711,-16.91172 -4.7129,-16.91172 6.4376,0 9.258,-12.86262 5.1854,-23.64916 -1.215,-3.21796 -2.6592,-8.21334 -3.2095,-11.10084 -0.5502,-2.8875 -1.3941,-5.25 -1.8753,-5.25 -0.4812,0 -1.573,1.35 -2.4263,3 -0.8533,1.65 -1.712,3 -1.9083,3 -0.1964,0 -1.5601,-2.459 -3.0305,-5.46444 -4.2992,-8.78726 -15.2609,-17.02322 -17.7597,-13.34355 -0.4885,0.71939 -0.699,3.22049 -0.4677,5.55799 0.2313,2.3375 0.064,4.25 -0.3723,4.25 -0.4361,0 -2.4573,-1.75653 -4.4917,-3.9034 -5.6619,-5.97498 -12.6489,-9.36421 -19.5654,-9.49065 -7.9419,-0.14519 -9.1131,1.25338 -4.9861,5.95381 1.7686,2.01433 3.6617,4.84993 4.2068,6.30133 1.4764,3.93106 5.209,9.12429 6.5636,9.13208 0.6538,0.004 1.4924,-2.01817 1.8636,-4.49317 0.4468,-2.97993 1.17,-4.5 2.1407,-4.5 1.1236,0 1.3106,0.75895 0.8009,3.25 -1.5758,7.7015 -2.8501,10.82729 -4.2025,10.30834 -0.7519,-0.28854 -1.6213,0.13768 -1.9319,0.94716 -0.8554,2.22927 7.3072,11.4945 10.1266,11.4945 2.6024,0 3.0691,-0.8513 4.0488,-7.38445 0.3827,-2.55208 1.0939,-4.88617 1.5805,-5.18686 0.4865,-0.3007 0.8846,-1.45408 0.8846,-2.56307 0,-2.99171 5.7117,-2.16768 9.2997,1.34168 2.3341,2.28289 2.6193,3.07548 1.7148,4.76551 -0.9476,1.77077 -0.7856,2.02719 1.2813,2.02719 4.2214,0 5.7099,5.31755 3.1815,11.3654 -0.6563,1.56982 -0.4432,1.75854 1.3451,1.19098 2.0696,-0.65688 2.0865,-0.58272 0.6512,2.85248 -0.8105,1.9398 -1.4736,4.01791 -1.4736,4.61804 0,2.03392 2.1962,-0.25264 3.745,-3.89898 0.8475,-1.99535 1.7422,-3.05613 1.9882,-2.35729 0.246,0.69885 -0.4934,3.07521 -1.643,5.2808 -1.1496,2.20559 -2.0902,4.74104 -2.0902,5.63435 0,1.42325 0.2539,1.39444 2.0521,-0.23293 2.0346,-1.84127 2.0431,-1.83349 1,0.91011 -1.3663,3.59373 -1.3852,3.53691 0.9697,2.9211 1.8166,-0.47507 1.9203,-0.26188 1.0216,2.10176 -1.7385,4.57269 4.5568,13.49123 13.9019,19.69487 4.676,3.10403 15.9313,6.91931 20.4125,6.91931 2.6591,0 3.9486,2.88271 1.3922,3.11222 -2.5926,0.23274 9.9463,2.66819 14.2899,2.77556 2.4969,0.0617 7.2219,-0.58183 10.5,-1.43012 z m -21.9433,-16.30143 c -0.3461,-0.55992 -0.1419,-1.31919 0.4536,-1.68727 1.5375,-0.95021 2.5295,0.35135 1.246,1.63484 -0.7182,0.71818 -1.2775,0.73543 -1.6996,0.0524 z m -39.5813,-23.90623 c 0.036,-1.77777 1.7466,-3.44427 2.4187,-2.35676 0.3762,0.60872 0.4059,1.55676 0.066,2.10676 -0.7209,1.16642 -2.5071,1.34614 -2.4847,0.25 z m -28.6557,-23 c 0.2718,-0.9625 0.7873,-3.63659 1.1455,-5.94243 0.3582,-2.30584 1.367,-4.78084 2.2417,-5.5 1.4167,-1.16466 1.5159,-0.931 0.9077,2.13795 -1.3948,7.03909 -2.7608,11.05448 -3.7604,11.05448 -0.5659,0 -0.8064,-0.7875 -0.5345,-1.75 z m -3.9865,-4 c 0.2793,-0.9625 1.002,-3.6625 1.6059,-6 0.9789,-3.7888 3.021,-5.9437 3.021,-3.1879 0,2.33243 -3.2906,10.9379 -4.1825,10.9379 -0.5238,0 -0.7237,-0.7875 -0.4444,-1.75 z m 63.6269,66.25 c 0,-0.825 -0.45,-1.5 -1,-1.5 -0.55,0 -1,0.675 -1,1.5 0,0.825 0.45,1.5 1,1.5 0.55,0 1,-0.675 1,-1.5 z m -9,-2 c 0,-1.55556 -0.5667,-2.5 -1.5,-2.5 -0.9333,0 -1.5,0.94444 -1.5,2.5 0,1.55556 0.5667,2.5 1.5,2.5 0.9333,0 1.5,-0.94444 1.5,-2.5 z m -37.7807,-2.54113 c 0.3371,-2.29653 0.085,-2.96985 -1.0293,-2.75 -0.8116,0.16012 -1.9739,1.09144 -2.5828,2.0696 -0.8568,1.3762 -0.7679,1.99475 0.3928,2.73468 2.323,1.48088 2.7395,1.21511 3.2193,-2.05428 z m 32.6002,0.2128 c 0.2123,-1.44221 -0.2076,-2.17167 -1.25,-2.17167 -1.021,0 -1.5695,0.90283 -1.5695,2.58333 0,3.13272 2.3485,2.78984 2.8195,-0.41166 z m -4.2799,-1.29652 c 0.8665,-2.72999 -1.4632,-4.36191 -3.0767,-2.15524 -1.0094,1.38042 -1.2252,1.29701 -1.7403,-0.67267 -0.7354,-2.81198 -2.7226,-1.76205 -2.7226,1.43845 0,3.67598 6.4374,4.86231 7.5396,1.38946 z m -154.7166,-1.20643 c 0.1777,-0.91605 -0.3671,-2.35572 -1.2107,-3.19928 -2.5696,-2.56964 -2.9434,-8.04867 -1.1993,-17.58161 0.9083,-4.96489 1.3692,-10.53193 1.0241,-12.3712 -0.4393,-2.34166 0.484,-7.31091 3.0798,-16.57695 2.6122,-9.32446 3.5512,-14.39535 3.1792,-17.16884 -0.6598,-4.9188 -1.1721,-5.43765 -3.2842,-3.3256 -2.5003,2.50034 -3.9387,0.50472 -2.5361,-3.5187 1.8359,-5.26668 1.0447,-18.92654 -1.0964,-18.92654 -1.3912,0 -4.659,3.99008 -6.3471,7.75 -0.8638,1.92387 -2.1942,3.25 -3.2605,3.25 -3.2712,0 -5.3094,6.4553 -5.914,18.73013 -0.7014,14.24275 0.937,14.99935 2.5583,1.18132 0.651,-5.5487 1.5714,-10.78149 2.0454,-11.62841 1.7285,-3.08876 2.0009,0.54437 0.6213,8.28713 -0.7772,4.3614 -1.4287,10.70553 -1.4479,14.09804 -0.054,9.4742 -1.6737,11.90776 -4.3818,6.58179 -1.919,-3.77401 -2.5874,-10.30324 -3.5575,-34.75 -0.9129,-23.00619 -2.1452,-28.8228 -5.8986,-27.84125 -1.6046,0.41959 -2.2968,-0.37431 -3.7685,-4.32237 -0.9916,-2.66001 -2.7312,-6.01732 -3.8657,-7.46068 -1.1346,-1.44337 -2.9628,-3.900946 -4.0628,-5.461296 -3.3152,-4.70255 -7.4395,-8.98919 -7.4707,-7.76475 -0.016,0.6323 1.5276,5.18091 3.4304,10.107996 3.9816,10.30951 8.6819,27.71668 11.0014,40.74235 2.6301,14.76996 3.0069,14.84923 3.5389,0.74454 0.3055,-8.09953 0.889,-13.15609 1.5,-13 0.6262,0.15996 1,7.98043 1,20.91946 0,11.36521 0.3375,21.00271 0.75,21.41667 0.4125,0.41397 0.75,-3.17389 0.75,-7.97302 0,-5.56248 0.3625,-8.50164 1,-8.10765 0.55,0.33992 1.0078,3.17898 1.0173,6.30902 0.018,6.04968 1.5853,22.84372 2.561,27.44971 0.3215,1.5173 1.0242,2.48696 1.5616,2.1548 0.5375,-0.33216 0.6925,-1.90011 0.3445,-3.48433 -0.3479,-1.58422 -0.281,-3.44935 0.1488,-4.14472 1.1378,-1.84099 2.1281,2.43342 2.3668,10.21552 0.1658,5.40639 1.461,12.7725 1.9341,11 0.073,-0.275 0.3134,-5 0.5333,-10.5 0.4168,-10.42381 4.2436,-36.36447 5.5855,-37.86287 0.4251,-0.47457 1.2217,-0.58542 1.7704,-0.24632 0.6464,0.39946 0.477,2.81583 -0.481,6.86287 -4.2568,17.98283 -6.1775,44.31114 -3.4327,47.05589 0.7872,0.78724 1.0904,-1.62259 1.0904,-8.66694 0,-10.50087 1.7529,-23.64263 3.1535,-23.64263 0.4733,0 0.5198,3.2625 0.1035,7.25 -1.3969,13.37823 -0.864,29.87195 1.134,35.10366 1.7654,4.62269 3.7803,5.67519 4.432,2.31506 z m 131.9965,-0.49705 c 0.2077,-1.41147 -0.2092,-2.17167 -1.1909,-2.17167 -1.9708,0 -2.7919,1.411 -2.0086,3.45202 0.8429,2.19666 2.8034,1.41216 3.1995,-1.28035 z m 13.8247,-0.67238 c 0.116,-2.00995 -0.3245,-2.49929 -2.25,-2.49929 -2.5682,0 -3.1483,1.84593 -1.1942,3.8 1.9159,1.91594 3.2885,1.39758 3.4442,-1.30071 z m -5.8247,-0.74929 c -0.2507,-1.76526 -0.8581,-2.17507 -2.8195,-1.90222 -3.1239,0.43457 -3.3893,0.69539 -2.6549,2.60909 0.3257,0.84872 1.7625,1.54313 3.1931,1.54313 2.1252,0 2.5425,-0.41148 2.2813,-2.25 z m 128.4885,-5.5 c 0.2755,-2.6125 0.8253,-6.1 1.2218,-7.75 0.5723,-2.38193 0.4627,-2.75736 -0.5322,-1.82226 -1.6193,1.52194 -4.0736,10.96072 -3.3442,12.86136 1.0687,2.78502 2.156,1.43782 2.6546,-3.2891 z m 3.703,3.5 c 0.01,-0.6875 0.2875,-3.05 0.6254,-5.25 0.5682,-3.69932 0.4897,-3.88204 -1.0446,-2.43075 -0.9124,0.86309 -1.9277,3.22559 -2.2562,5.25 -0.4837,2.98053 -0.287,3.68075 1.0336,3.68075 0.8969,0 1.6357,-0.5625 1.6418,-1.25 z m -7.6859,-5.84728 c 0.3358,-2.83563 1.3001,-6.20794 2.1428,-7.49402 1.8888,-2.8828 1.9106,-3.4087 0.1407,-3.4087 -2.4196,0 -5.1012,8.7079 -4.7146,15.30902 0.2099,3.58241 1.8335,0.63961 2.4311,-4.4063 z m 12.1749,4.26395 c 0,-1.80866 -1.9573,-1.47847 -2.3455,0.39568 -0.216,1.04271 0.1589,1.49986 1,1.21948 0.74,-0.24667 1.3455,-0.9735 1.3455,-1.61516 z m -101.9274,-0.0491 c -0.5318,-0.86055 2.8361,-5.91177 4.8846,-7.3259 0.6926,-0.47817 0.6667,-1.06774 -0.08,-1.81428 -1.2082,-1.20815 -3.2354,0.35015 -6.0562,4.65523 -1.593,2.43119 -1.2065,5.36741 0.7064,5.36741 0.5998,0 0.845,-0.39711 0.545,-0.88246 z m 85.7827,-4.36757 c 0.3493,-2.8875 0.9275,-6.55438 1.2849,-8.14862 1.04,-4.63954 -1.2152,-2.23939 -2.4645,2.62286 -2.2565,8.78234 -2.422,10.77576 -0.8951,10.77576 0.9893,0 1.6382,-1.64211 2.0747,-5.25 z m -3.3389,-4.32254 c 0.4734,-2.09938 0.6107,-4.22187 0.3049,-4.71664 -0.8223,-1.33042 -6.4609,5.23822 -5.6781,6.61453 2.6386,4.63875 4.008,4.15505 5.3732,-1.89789 z m -83.5679,1.20787 c 2.4919,-2.30941 3.3643,-4.63533 1.7386,-4.63533 -0.9734,0 -6.1871,5.3128 -6.1871,6.30472 0,1.3794 1.9473,0.64865 4.4485,-1.66939 z m -1.6022,-5.59642 c -0.2558,-0.76732 -1.1875,-0.47754 -2.7099,0.84276 -1.2982,1.12591 -2.0059,2.52044 -1.6069,3.16612 0.8938,1.44609 4.8962,-2.27084 4.3168,-4.00888 z m 43.9257,-1.03891 c 1.2011,-4.73196 -0.092,-5.38914 -1.6742,-0.85078 -1.3274,3.80794 -1.3746,4.85078 -0.2194,4.85078 0.4831,0 1.3352,-1.8 1.8936,-4 z m -3.3901,-0.15972 c 0.8534,-4.26672 0.1014,-4.67549 -1.8082,-0.98287 -1.9236,3.71993 -1.9439,4.14259 -0.1987,4.14259 0.7562,0 1.6594,-1.42188 2.0069,-3.15972 z m 7.4348,-0.0903 c 1.8419,-4.76949 2.6993,-15.31305 1.3148,-16.16873 -0.7671,-0.47412 -1.1315,0.5401 -1.1315,3.14961 0,2.11691 -0.675,6.44042 -1.5,9.60781 -1.7442,6.69629 -1.7404,6.66131 -0.7192,6.66131 0.4294,0 1.3455,-1.4625 2.0359,-3.25 z m 4.3469,-2.95853 c 1.01,-2.86806 1.8364,-5.88445 1.8364,-6.70306 0,-2.49001 -1.642,0.10555 -2.7909,4.41161 -0.5869,2.2 -1.3906,5.125 -1.7858,6.5 -1.2728,4.42818 0.8432,1.17827 2.7403,-4.20853 z m -16.4137,2.62506 c -0.953,-0.95296 -2.8635,0.5906 -2.1533,1.7397 0.4221,0.683 0.9814,0.66575 1.6996,-0.0524 0.5888,-0.58876 0.7929,-1.34803 0.4537,-1.68727 z m -36.7499,-1.53895 c 0,-1.37852 -2.6321,-1.02582 -3.9193,0.52519 -0.8942,1.07746 -0.8646,1.51012 0.1276,1.86573 1.413,0.50645 3.7917,-0.99346 3.7917,-2.39092 z m 57.0564,0.87244 c 1.9922,-2.38797 2.478,-6.35824 1.0533,-8.60676 -1.0465,-1.65154 -1.6595,-0.73046 -2.5668,3.85676 -0.3807,1.925 -0.9139,4.2875 -1.1849,5.25 -0.6765,2.40241 0.4515,2.19341 2.6984,-0.5 z m -118.7537,-6.158 c 0.4981,-1.49435 0.6532,-2.96947 0.3446,-3.27804 -1.1386,-1.13864 -3.6473,0.68727 -3.6473,2.65466 0,1.11726 -0.4586,2.03138 -1.019,2.03138 -0.5753,0 -0.7578,-1.04126 -0.419,-2.39091 0.33,-1.31499 0.1629,-2.66106 -0.3713,-2.99125 -0.5343,-0.33018 -1.2785,1.03644 -1.6538,3.03696 -0.4599,2.45188 -0.2804,3.88572 0.5511,4.39958 2.0174,1.24683 5.2442,-0.55089 6.2147,-3.46238 z m 59.0847,0.0539 c 0.1554,-1.45701 0.5735,-2.9402 0.9293,-3.29597 0.3558,-0.35577 0.3813,-1.70505 0.057,-2.9984 -0.3332,-1.32752 -0.1422,-2.35153 0.4387,-2.35153 0.566,0 1.3255,-1.35 1.6879,-3 0.3624,-1.65 1.2457,-3 1.9628,-3 1.258,0 2.9102,-3.96031 2.0225,-4.84799 -0.7095,-0.70951 -4.3513,4.00005 -7.0096,9.06475 -2.5661,4.88898 -3.7291,16.43667 -1.4232,14.13075 0.5789,-0.57887 1.1796,-2.24459 1.3349,-3.7016 z m -67.719,-1.08336 c 0.8713,-2.52885 1.0116,-4.28256 0.392,-4.90213 -0.9224,-0.92241 -1.2795,-0.35407 -3.6694,5.83958 -0.6893,1.78634 -0.8119,1.70621 -1.1478,-0.75 -0.4992,-3.65052 -1.9055,-3.50419 -2.4573,0.25569 -0.5328,3.62997 -0.09,4.17445 3.0825,3.79022 1.8382,-0.22264 2.7792,-1.27088 3.8,-4.23336 z m 29.6967,2.36487 c 2.9909,-2.35263 3.8318,-7.60068 1.0466,-6.5319 -1.3564,0.52047 -1.4865,0.006 -0.8907,-3.51957 0.847,-5.01377 -0.7908,-4.55938 -3.0493,0.84597 -0.8239,1.97184 -1.7229,3.36024 -1.9978,3.08534 -0.2749,-0.27491 0.631,-3.05683 2.0131,-6.18206 2.8715,-6.49298 3.0457,-7.6252 1.1731,-7.6252 -0.737,0 -1.9415,1.82256 -2.6766,4.05013 -1.3836,4.19206 -2.9835,6.14121 -2.9835,3.63461 0,-0.78831 0.675,-3.34644 1.5,-5.68474 0.825,-2.3383 1.5,-5.09488 1.5,-6.12573 0,-3.31525 -1.8896,-1.99792 -2.9886,2.08351 -0.5862,2.17678 -1.5035,4.22833 -2.0386,4.55901 -1.2328,0.76193 -1.1962,0.21539 0.4451,-6.64829 0.7563,-3.16277 0.9834,-6.21914 0.5181,-6.97198 -0.9766,-1.58027 -1.163,-1.1462 -2.9763,6.9302 -0.6578,2.9297 -1.7053,5.47961 -2.3279,5.66648 -0.6225,0.18686 -2.3693,0.61091 -3.8818,0.94233 -3.1065,0.68069 -3.4197,1.74924 -1.2612,4.30304 0.8188,0.96879 2.9563,4.22453 4.75,7.23499 4.7074,7.90091 9.2286,9.80644 14.1263,5.95386 z m -52.5418,-1.26029 c 0.2334,-1.2032 -0.383,-1.66712 -2.2148,-1.66712 -1.5578,0 -2.9738,-0.81397 -3.666,-2.10736 -0.704,-1.31546 -1.4811,-1.75407 -2.0679,-1.16722 -1.376,1.37602 -0.2076,3.60442 2.899,5.52904 3.1401,1.94534 4.5913,1.77655 5.0497,-0.58733 z m 15.1767,-1.79923 c 0,-1.82132 -1.9991,-1.73806 -2.9961,0.12477 -1.5092,2.82008 -0.1245,4.89271 1.6487,2.4677 0.7411,-1.01344 1.3474,-2.18005 1.3474,-2.59247 z m 124.9694,-0.86789 c 0,-1.33333 -0.1077,-1.33333 -0.9694,0 -0.5332,0.825 -0.9694,2.175 -0.9694,3 0,1.33333 0.1077,1.33333 0.9694,0 0.5332,-0.825 0.9694,-2.175 0.9694,-3 z m -129.5997,0.75 c 0.9686,-3.61443 0.6716,-4.38868 -0.8912,-2.323 -1.8271,2.41503 -3.0148,1.44355 -1.5595,-1.27561 0.5945,-1.11095 1.081,-2.72449 1.081,-3.58565 0,-2.4632 -1.8962,-1.82757 -2.5712,0.8619 -0.3351,1.33521 -1.2944,2.69053 -2.1317,3.01184 -1.2281,0.47126 -1.2836,0.87186 -0.2873,2.07235 0.6793,0.81849 1.855,1.48817 2.6126,1.48817 0.7577,0 1.3776,0.45 1.3776,1 0,1.91741 1.7713,0.98308 2.3697,-1.25 z m 148.9689,-6.5 c 3.3491,-9.66767 3.3671,-11.60745 0.1213,-13.0863 -2.0377,-0.92845 -3.0014,-0.85497 -4.8734,0.37155 -2.8093,1.84076 -10.5865,1.00782 -10.5865,-1.13382 0,-0.73863 1.4625,-3.42245 3.25,-5.96406 l 3.25,-4.62109 0.033,-14.15814 c 0.018,-7.78698 0.3903,-15.18441 0.8271,-16.43873 0.583,-1.67439 0.1117,-3.40213 -1.7732,-6.5 -2.8526,-4.68836 -8.3752,-11.33632 -8.8529,-10.65681 -0.2736,0.38921 0.8587,68.08724 1.1486,68.67558 0.065,0.131 1.9859,0.53696 4.2696,0.90214 4.8078,0.7688 7.8478,3.36147 7.8478,6.69301 0,2.32011 0.7321,3.66667 1.9936,3.66667 0.3631,0 1.8684,-3.4875 3.345,-7.75 z m -161.6329,1.95303 c 1.3613,-0.86517 1.3929,-9.36646 0.038,-10.29973 -0.4763,-0.32818 -1.1843,-2.80318 -1.5734,-5.5 l -0.7073,-4.9033 -1.3606,3.26826 c -1.3395,3.2176 -0.9484,5.14775 2.7305,13.47706 0.1834,0.41507 -0.1053,0.75468 -0.6414,0.75468 -0.5361,0 -1.7621,-1.9125 -2.7245,-4.25 l -1.7497,-4.25 -0.9212,3.38022 c -0.8126,2.98197 -0.5972,3.71833 1.8283,6.25 2.9749,3.10517 3.2683,3.22488 5.0809,2.07281 z m 4.8827,-2.94797 c -1.0755,-1.07549 -1.6464,0.43075 -0.8915,2.35181 0.7082,1.80207 0.7617,1.80519 1.112,0.0649 0.2023,-1.00555 0.1031,-2.09305 -0.2205,-2.41667 z m 194.4116,-3.25506 c 0,-0.55 -0.6164,-1 -1.3698,-1 -2.0701,0 -9.6302,-7.00286 -9.6302,-8.9204 0,-0.92378 -0.3756,-2.1071 -0.8347,-2.6296 -1.3573,-1.54468 -3.8748,-9.40909 -5.6,-17.49327 -4.2468,-19.90068 -14.3854,-29.4134 -22.9193,-21.50448 -2.5905,2.40081 -2.6469,2.72072 -2.6899,15.25 -0.045,13.02255 -1.1493,18.64373 -4.361,22.19269 -2.2995,2.5409 -1.9645,4.10506 0.8792,4.10506 1.7378,0 2.9361,-0.89296 4.0257,-3 1.7507,-3.38541 3.5,-3.94351 3.5,-1.11663 0,1.05913 0.8993,2.11854 2.0549,2.42073 1.5507,0.40554 2.3194,-0.11784 3.1331,-2.13337 1.7297,-4.28418 2.1709,-12.98538 0.9399,-18.53582 -0.6264,-2.8242 -1.3144,-7.00323 -1.5289,-9.28674 -0.37,-3.93842 -0.2393,-4.17397 2.5435,-4.5824 3.3787,-0.49588 5.5806,0.86583 6.0383,3.73423 0.2291,1.43531 -0.3162,2.09024 -1.9313,2.31962 -2.1568,0.30631 -2.2272,0.61852 -1.6896,7.5 1.1391,14.58363 2.5234,20.85459 5.1927,23.52385 1.3842,1.38421 2.8168,3.63876 3.1835,5.01012 0.969,3.62309 3.6668,5.0718 5.2958,2.84388 1.2213,-1.67017 1.486,-1.65853 5.2769,0.23224 4.2291,2.10924 10.4912,2.74809 10.4912,1.07029 z m -24.4171,-16.86579 c -0.4307,-0.697 -0.5131,-1.53733 -0.183,-1.86741 0.8949,-0.89496 1.8707,0.4213 1.3873,1.87145 -0.3387,1.01617 -0.5742,1.01538 -1.2043,-0.004 z m -16.5549,-3.09573 c -1.2609,-0.79744 -1.2251,-1.02562 0.25,-1.59167 2.0511,-0.7871 4.722,0.0737 4.722,1.52181 0,1.27894 -2.9936,1.32101 -4.972,0.0699 z m 15.4676,-1.04554 c -0.7842,-1.26896 2.0152,-2.4133 3.5633,-1.45655 0.8425,0.52073 0.7879,0.94597 -0.2021,1.5733 -1.7878,1.13275 -2.6065,1.10431 -3.3612,-0.11675 z m -15.4956,-3.99294 c 0,-0.55 0.8734,-1 1.941,-1 1.0675,0 2.2191,0.45 2.559,1 0.3505,0.56716 -0.4896,1 -1.941,1 -1.4074,0 -2.559,-0.45 -2.559,-1 z m 15,-1.60699 c 0,-1.05452 0.5438,-1.39831 1.5818,-1 0.87,0.33385 2.1075,0.61388 2.75,0.6223 1.5584,0.0204 -1.4603,1.94951 -3.0818,1.96938 -0.6875,0.008 -1.25,-0.70783 -1.25,-1.59168 z m -14.75,-2.64301 c 0.2292,-0.6875 1.2417,-1.25 2.25,-1.25 1.0083,0 2.0208,0.5625 2.25,1.25 0.2639,0.79167 -0.5611,1.25 -2.25,1.25 -1.6889,0 -2.5139,-0.45833 -2.25,-1.25 z m 14.75,-1.64301 c 0,-1.15885 -0.45,-2.10699 -1,-2.10699 -0.55,0 -1,-1.125 -1,-2.5 0,-1.53181 0.5688,-2.5 1.4686,-2.5 0.8946,0 1.2436,0.58629 0.893,1.5 -0.4209,1.09694 0.1249,1.5 2.0314,1.5 2.1141,0 2.607,0.47264 2.607,2.5 0,1.375 -0.4132,2.5 -0.9182,2.5 -0.505,0 -1.63,0.27315 -2.5,0.60699 -1.134,0.43514 -1.5818,0.0105 -1.5818,-1.5 z m -14,-3.10699 c 0,-0.55 0.9,-1 2,-1 1.1,0 2,0.45 2,1 0,0.55 -0.9,1 -2,1 -1.1,0 -2,-0.45 -2,-1 z m 0.25,-5.25 c 0.2292,-0.6875 1.0167,-1.25 1.75,-1.25 0.7333,0 1.5208,0.5625 1.75,1.25 0.2479,0.74359 -0.4611,1.25 -1.75,1.25 -1.2889,0 -1.9979,-0.50641 -1.75,-1.25 z m -0.1,-4.7 c 0.22,-0.66 0.7262,-1.16625 1.125,-1.125 1.1957,0.12369 0.9641,1.49529 -0.325,1.925 -0.66,0.22 -1.02,-0.14 -0.8,-0.8 z m 2.095,-5.3 c 0.2264,-0.6875 1.5014,-1.37573 2.8333,-1.5294 2.3452,-0.27057 2.3603,-0.23106 0.4806,1.25 -2.3505,1.85195 -3.8741,1.9804 -3.3139,0.2794 z m -152.2203,46.6849 c 0.5364,-1.4108 0.9852,-3.9983 0.9973,-5.75 0.024,-3.48786 3.0807,-11.01228 4.9404,-12.16166 2.2134,-1.36797 2.2526,0.36603 0.077,3.42091 -1.1981,1.68262 -2.0236,4.07103 -1.8343,5.30758 0.304,1.98629 0.5559,1.81666 2.1615,-1.45573 1.9401,-3.95438 4.3163,-6.44602 5.2536,-5.50878 0.3147,0.31473 -0.8212,2.59743 -2.5242,5.07268 -1.703,2.47525 -3.0964,4.98187 -3.0964,5.57028 0,2.07537 1.7945,1.02749 4.5899,-2.68018 1.555,-2.0625 3.1834,-3.9 3.6187,-4.08333 0.4353,-0.18334 0.7914,-1.4148 0.7914,-2.73658 0,-1.81679 -0.8839,-2.77257 -3.6221,-3.91667 -6.6418,-2.77512 -15.1404,-1.20975 -15.1812,2.79623 -0.012,1.20469 -0.3423,4.92828 -0.7334,8.27465 -1.0033,8.58521 2.1916,14.08387 4.5614,7.8506 z m -2.5433,-6.6849 c 1.3233,-6.68095 3.2848,-12.3171 4.0281,-11.57381 0.6688,0.66873 -3.7108,17.82381 -4.5503,17.82381 -0.3936,0 -0.1586,-2.8125 0.5222,-6.25 z m -3.5811,-5.62244 c 0.086,-3.77873 -0.104,-4.20341 -1.4003,-3.12756 -1.5676,1.30101 -2.0275,7.46386 -0.796,10.66821 0.6188,1.6102 0.7882,1.52937 1.4003,-0.66821 0.383,-1.375 0.7412,-4.4676 0.796,-6.87244 z m 107.2164,7.19911 c 3.1025,-0.62051 4.0272,-3.33031 1.1333,-3.32109 -3.868,0.0123 -9.25,2.13595 -9.25,3.64983 0,1.18472 0.6313,1.40297 2.6167,0.90467 1.4391,-0.36121 3.9141,-0.91625 5.5,-1.23341 z m -56.1167,-3.32667 c 0,-0.55 -0.45,-1 -1,-1 -0.55,0 -1,0.45 -1,1 0,0.55 0.45,1 1,1 0.55,0 1,-0.45 1,-1 z m -1,-5.94098 c 0,-0.51754 -0.45,-1.2191 -1,-1.55902 -0.55,-0.33992 -1,0.0835 -1,0.94098 0,0.85746 0.45,1.55902 1,1.55902 0.55,0 1,-0.42344 1,-0.94098 z m -31.4641,-11.98825 c -2.973,-5.86677 -4.9342,-7.56339 -3.9356,-3.40456 1.0941,4.55688 3.334,8.33379 4.9422,8.33379 1.1854,0 0.979,-1.01073 -1.0066,-4.92923 z m 49.1924,-7.82077 c 1.2596,-2.84734 0.7274,-7.25 -0.8763,-7.25 -1.588,0 -2.0516,2.75849 -0.8432,5.01649 1.049,1.95999 0.9586,2.10794 -0.923,1.51075 -2.253,-0.71507 -2.4045,-0.52131 -1.4788,1.89097 0.926,2.41325 2.7679,1.89116 4.1213,-1.16821 z m -131.913,-21.39793 c 5.535,-10.54903 7.5488,-18.10632 6.6084,-24.799166 -0.7649,-5.444 -4.6254,-12.55746 -7.7051,-14.19785 -1.2202,-0.64995 -2.6891,-1.81948 -3.2641,-2.59894 -1.4852,-2.01326 -16.3807,-2.94351 -20.4098,-1.27462 -1.6746,0.69363 -3.0447,1.84475 -3.0447,2.55804 0,0.71329 -0.2731,2.0087 -0.607,2.87868 -1.0059,2.62136 1.5613,1.77614 2.789,-0.91821 0.6264,-1.375 1.7418,-2.5 2.4785,-2.5 1.6108,0 1.6631,0.52677 0.3043,3.06574 -0.7966,1.48841 -0.7093,1.93426 0.3787,1.93426 0.7776,0 1.973,-1.35 2.6565,-3 1.7693,-4.27155 3.3659,-3.80243 2.5526,0.75 l -0.67,3.75 2.3087,-3.23272 c 1.2698,-1.77799 2.8712,-3.2405 3.5587,-3.25 1.6375,-0.0226 1.5777,0.55289 -0.365,3.5179 -1.9368,2.95584 -0.4375,3.28533 2.115,0.46482 1.9223,-2.12408 3.5,-2.60706 3.5,-1.07143 0,0.51072 -0.5625,1.52322 -1.25,2.25 -2.8629,3.0265 -6.9147,8.99006 -6.4344,9.47035 0.2846,0.28466 2.7224,-1.7699 5.4171,-4.56568 2.6948,-2.79578 5.4324,-5.08324 6.0835,-5.08324 2.3942,0 1.0762,2.75175 -2.8162,5.87976 -4.9833,4.00473 -5.2185,5.771726 -0.3889,2.92219 l 3.6111,-2.1306 -1.3517,2.16433 c -0.7434,1.19037 -1.6416,2.16432 -1.996,2.16432 -0.9139,0 -3.4417,4.042866 -4.3767,6.999996 -0.694,2.19483 -0.437,2.07669 2.1058,-0.96782 3.4965,-4.18638 8.6141,-8.962516 9.6464,-9.002866 1.9116,-0.0747 0.3278,2.48828 -4.25,6.877406 -2.75,2.63668 -5,5.53631 -5,6.44362 0,2.56723 1.2847,1.95212 3.8789,-1.85717 1.3084,-1.92124 2.9959,-3.49317 3.75,-3.49317 0.7541,0 1.3711,-0.675 1.3711,-1.5 0,-0.825 0.7323,-1.5 1.6272,-1.5 3.0208,0 1.1302,8.70603 -4.5406,20.90915 -6.4979,13.98303 -8.1039,18.47963 -8.024,22.46658 0.049,2.46224 0.5685,1.61128 2.4501,-4.01591 1.3131,-3.92709 4.5993,-11.35558 7.3026,-16.50775 z m 146.6029,18.54094 c 0.87,-0.33384 1.5818,-1.28894 1.5818,-2.12244 0,-1.24437 -0.2727,-1.28918 -1.5242,-0.25051 -2.2751,1.8882 -3.0718,0.29602 -0.9983,-1.99517 1.472,-1.62659 1.5697,-2.26309 0.5381,-3.50613 -1.7992,-2.16783 -3.0105,-1.87715 -3.0474,0.73124 -0.017,1.2375 -0.6781,3.1038 -1.468,4.14732 -0.7899,1.04353 -1.199,2.28103 -0.9092,2.75 0.6139,0.99329 3.5558,1.11732 5.8272,0.24569 z m -6.0494,-4.94459 c 1.9573,-4.75918 1.5686,-6.84054 -0.8197,-4.3889 -1.6304,1.67366 -3.1842,8.94228 -1.9104,8.93673 0.4737,-0.002 1.7023,-2.04858 2.7301,-4.54783 z m -4.3688,-0.44842 c 0,-2.55684 -1.5049,-3.3015 -3.0091,-1.48899 -0.981,1.18204 -0.981,1.79594 0,2.97798 1.5042,1.81251 3.0091,1.06785 3.0091,-1.48899 z m 85,-12.3562 c 0,-3.20096 -14.1534,-18.1438 -17.1853,-18.1438 -2.1279,0 -1.9663,2.39067 0.2841,4.20211 3.6979,2.97667 9.868,9.61965 11.6546,12.54789 1.7366,2.84639 5.2466,3.77884 5.2466,1.3938 z m 9.7985,-18.8355 c 1.3537,-7.279596 0.8449,-8.592526 -1.321,-3.40868 -2.4808,5.93725 -2.9688,9.60038 -1.279,9.60038 0.9847,0 1.8172,-1.98244 2.6,-6.1917 z m 4.8582,1.63542 c 0.7255,-2.16905 1.9947,-5.13008 2.8206,-6.58007 1.2898,-2.264616 1.3025,-2.801476 0.091,-3.807406 -2.427,-2.01424 -5.1625,0.5501 -5.127,4.806156 0.017,2.00068 -0.3481,5.15342 -0.8107,7.00609 -1.2162,4.8709 1.3204,3.67683 3.0266,-1.42477 z m 6.7252,-0.0581 c -0.3612,-1.43939 -0.1591,-2.38558 0.5097,-2.38558 0.6096,0 1.1084,1.125 1.1084,2.5 0,1.60333 0.5622,2.5 1.5674,2.5 1.1123,0 1.3831,-0.58068 0.9326,-2 -0.3641,-1.14731 -0.1797,-2 0.4326,-2 0.5871,0 1.0674,0.675 1.0674,1.5 0,0.825 0.45,1.5 1,1.5 0.55,0 1,-1.125 1,-2.5 0,-2.28571 -0.375,-2.5 -4.375,-2.5 -4.0821,0 -4.4161,0.20527 -4.9883,3.06628 -0.3407,1.70391 -1.0627,2.78845 -1.625,2.44098 -0.5564,-0.34391 -1.0117,-0.18624 -1.0117,0.35039 0,1.45698 2.3246,2.01239 3.7403,0.89366 0.7193,-0.56838 0.9888,-1.98237 0.6416,-3.36573 z m -242.5819,2.41442 c 1.4443,-1.44434 1.614,-4.17393 0.2054,-3.30332 -1.4311,0.88445 -3.2316,4.50332 -2.2406,4.50332 0.4594,0 1.3752,-0.54 2.0352,-1.2 z m 13.6461,-3.30059 c 6.767,-6.30179 20.5423,-15.268056 29.3178,-19.082956 4.076,-1.7719 11.8701,-4.467 17.3201,-5.98911 5.4501,-1.52212 9.7544,-2.92227 9.5652,-3.11146 -0.1892,-0.18918 -13.8001,-0.38024 -30.2466,-0.42458 -16.4464,-0.0443 -33.874,-0.39011 -38.728,-0.7684 -4.854,-0.37829 -9.02,-0.37302 -9.2578,0.0117 -0.2378,0.38473 1.7957,1.43954 4.5189,2.34402 6.7888,2.25488 9.4089,4.57036 12.0078,10.61164 2.2415,5.21045 2.4839,13.003476 0.5804,18.659726 -0.4164,1.2375 -0.5667,2.25 -0.3339,2.25 0.2327,0 2.598,-2.02527 5.2561,-4.50059 z m 213.3098,-2.74941 c 3.2338,-9.507676 3.709,-12.749996 1.8689,-12.749996 -0.9954,0 -1.753,1.31703 -2.1573,3.75 -0.5849,3.51952 -2.3519,9.530386 -3.9687,13.499996 -0.4808,1.18041 -0.2499,1.75 0.7093,1.75 0.851,0 2.2757,-2.50993 3.5478,-6.25 z m -5.2389,2.21715 c 1.5607,-3.01819 3.7559,-16.717146 2.4422,-15.241286 -0.3789,0.42578 -1.2444,3.69914 -1.9232,7.27414 -1.2155,6.401536 -2.7793,10.590026 -3.6345,9.734796 -0.2401,-0.24008 0.2051,-3.09112 0.9893,-6.33565 2.5464,-10.534716 2.7094,-12.399146 1.0842,-12.399146 -1.0011,0 -1.475,1.05699 -1.475,3.2899 0,1.80945 -0.675,5.8814 -1.5,9.048786 -1.9139,7.34786 -1.8945,7.66131 0.4743,7.66131 1.187,0 2.5997,-1.2094 3.5427,-3.03285 z m -6.1488,-3.78275 c 0.8975,-3.198586 1.6318,-7.747366 1.6318,-10.108406 0,-4.17858 -0.073,-4.275 -2.75,-3.62377 -2.8034,0.68203 -6.1876,4.07871 -6.2278,6.25073 -0.012,0.66162 0.535,2.42588 1.216,3.92058 0.9844,2.160346 0.9844,2.802276 0,3.130386 -1.4151,0.4717 -1.6783,3.85607 -0.3631,4.6689 1.0003,0.61822 3.0524,-6.22128 3.4246,-11.413926 0.1701,-2.3733 0.7991,-3.59683 1.9645,-3.82126 1.4388,-0.27709 1.6108,0.20353 1.0704,2.99112 -0.3541,1.82669 -1.2493,5.06533 -1.9892,7.196976 -1.5548,4.47887 -1.7093,6.62427 -0.4772,6.62427 0.4775,0 1.6025,-2.61702 2.5,-5.8156 z m 41.2181,2.1671 c 2.5395,-1.66394 5.9807,-7.117846 5.0673,-8.031186 -0.2716,-0.27161 -1.2716,0.69321 -2.2222,2.14404 -0.9506,1.450826 -3.0116,3.301426 -4.5799,4.112436 -2.8023,1.44914 -3.8497,3.42321 -1.8163,3.42321 0.5693,0 2.1673,-0.74182 3.5511,-1.6485 z m -53.0863,-1.3515 c 0.3399,-0.55 0.1415,-1 -0.441,-1 -0.5824,0 -1.059,0.45 -1.059,1 0,0.55 0.1984,1 0.441,1 0.2425,0 0.7191,-0.45 1.059,-1 z m -218.5,-9.999996 c 0,-0.55 -0.45,-1 -1,-1 -0.55,0 -1,0.45 -1,1 0,0.55 0.45,1 1,1 0.55,0 1,-0.45 1,-1 z m -17,-6 c 0,-0.55 -0.1984,-1 -0.441,-1 -0.2425,0 -0.7191,0.45 -1.059,1 -0.3399,0.55 -0.1415,1 0.441,1 0.5824,0 1.059,-0.45 1.059,-1 z"
       style="fill:#000000" />
  </g>
</svg>
