<?xml version="1.0" encoding="UTF-8" standalone="no"?>
<!-- Created with Inkscape (http://www.inkscape.org/) -->

<svg
   xmlns:dc="http://purl.org/dc/elements/1.1/"
   xmlns:cc="http://creativecommons.org/ns#"
   xmlns:rdf="http://www.w3.org/1999/02/22-rdf-syntax-ns#"
   xmlns:svg="http://www.w3.org/2000/svg"
   xmlns="http://www.w3.org/2000/svg"
   xmlns:sodipodi="http://sodipodi.sourceforge.net/DTD/sodipodi-0.dtd"
   xmlns:inkscape="http://www.inkscape.org/namespaces/inkscape"
   width="88.300278mm"
   height="109.5749mm"
   viewBox="0 0 312.875 388.25751"
   id="svg4499"
   version="1.1"
   inkscape:version="0.91 r13725"
   sodipodi:docname="Alphabet19D.svg">
  <defs
     id="defs4501">
    <linearGradient
       x1="0"
       y1="0"
       x2="1"
       y2="0"
       gradientUnits="userSpaceOnUse"
       gradientTransform="matrix(-1.725e-5,395.625,-395.625,-1.725e-5,-1222.8575,-177.19149)"
       spreadMethod="pad"
       id="linearGradient304">
      <stop
         style="stop-opacity:1;stop-color:#fdc82c"
         offset="0"
         id="stop306" />
      <stop
         style="stop-opacity:1;stop-color:#fdc82c"
         offset="0.239968"
         id="stop308" />
      <stop
         style="stop-opacity:1;stop-color:#236f46"
         offset="1"
         id="stop310" />
    </linearGradient>
  </defs>
  <sodipodi:namedview
     id="base"
     pagecolor="#ffffff"
     bordercolor="#666666"
     borderopacity="1.0"
     inkscape:pageopacity="0.0"
     inkscape:pageshadow="2"
     inkscape:zoom="1.3650734"
     inkscape:cx="156.4375"
     inkscape:cy="194.12876"
     inkscape:document-units="px"
     inkscape:current-layer="layer1"
     showgrid="false"
     fit-margin-top="0"
     fit-margin-left="0"
     fit-margin-right="0"
     fit-margin-bottom="0"
     inkscape:window-width="1366"
     inkscape:window-height="705"
     inkscape:window-x="-8"
     inkscape:window-y="-8"
     inkscape:window-maximized="1" />
  <metadata
     id="metadata4504">
    <rdf:RDF>
      <cc:Work
         rdf:about="">
        <dc:format>image/svg+xml</dc:format>
        <dc:type
           rdf:resource="http://purl.org/dc/dcmitype/StillImage" />
        <dc:title></dc:title>
      </cc:Work>
    </rdf:RDF>
  </metadata>
  <g
     inkscape:label="Layer 1"
     inkscape:groupmode="layer"
     id="layer1"
     transform="translate(1379.2946,173.19512)">
    <path
       d="m -1300.3321,-154.72012 c -26.62,13.7075 -47.5775,33.97 -62.8725,60.787503 l 0,0 c -5.7625,10.13 -9.8825,20.11 -12.3675,29.945 l 0,0 c -2.485,9.8325 -3.7225,19.815 -3.7225,29.945 l 0,0 c 0,7.555 1.2375,14.8025 3.7225,21.7525 l 0,0 c 2.485,6.9550003 5.8125,13.0125003 9.985,18.1775003 l 0,0 c 6.355,6.7549997 11.6675,11.3749997 15.9425,13.8574997 l 0,0 c 4.27,2.485 8.1925,3.7225 11.77,3.7225 l 0,0 c 2.9775,0 5.96,-0.8925 8.9375,-2.68 l 0,0 c 1.985,-0.9925 3.8225,-2.535 5.515,-4.62 l 0,0 c 1.6825,-2.0875 2.5325,-4.0225 2.5325,-5.81 l 0,0 c 0,-2.5774997 -1.8925,-4.8674997 -5.665,-6.8524997 l 0,0 c -0.3975,-0.1975 -0.9925,-0.345 -1.785,-0.45 l 0,0 c -0.7975,-0.095 -1.39,-0.2475 -1.79,-0.445 l 0,0 c -1.1925,0 -3.18,0.7425 -5.96,2.235 l 0,0 c -2.7825,1.49 -5.3625,1.9375 -7.7475,1.34 l 0,0 c -4.37,-0.99 -8.145,-3.8725 -11.32,-8.6425 l 0,0 c -1.9925,-2.7775 -3.875,-5.66 -5.665,-8.6400003 l 0,0 c -5.56,-8.5375 -8.3425,-17.4775 -8.3425,-26.8175 l 0,0 c 0,-13.11 4.8675,-26.52 14.6,-40.2275 l 0,0 c 8.74,-12.3125 19.765,-22.445003 33.075,-30.392503 l 0,0 c 14.105,-8.5375 27.0175,-14.3025 38.74,-17.2825 l 0,0 c 8.34,-2.185 17.4775,-3.2775 27.4125,-3.2775 l 0,0 c 2.58,0 5.1125,0.0525 7.6,0.15 l 0,0 c 2.4775,0.1025 5.0125,0.15 7.595,0.15 l 0,0 c 30.59,0 57.705,8.7425 81.3475,26.22 l 0,0 c 20.86,15.300003 35.7575,34.765003 44.6975,58.402503 l 0,0 c 4.3675,11.92 7.8975,24.1375 10.5775,36.6525003 l 0,0 c 2.68,12.5125 4.0225,24.8324997 4.0225,36.9449997 l 0,0 c 0,10.73 -0.945,21.01 -2.8325,30.8425 l 0,0 c -1.8875,9.835 -5.0175,20.215 -9.385,31.14 l 0,0 c -5.5625,13.907497 -12.3175,26.219997 -20.2625,36.947497 l 0,0 c -6.9525,9.34 -15.8925,18.875 -26.8175,28.605 l 0,0 c -20.2625,18.4725 -43.1075,31.2875 -68.535,38.44 l 0,0 c -2.185,-2.9825 -3.775,-5.2625 -4.765,-6.855 l 0,0 c -3.38,-4.9625 -5.0675,-9.5375 -5.0675,-13.705 l 0,0 c -0.2,-0.3975 -0.4,-12.1675 -0.5975,-35.3125 l 0,0 c -0.2,-23.1375 -0.8925,-37.2925 -2.0825,-42.459997 l 0,0 c -8.545,0.7975 -16.6875,2.04 -24.435,3.724997 l 0,0 c -7.745,1.6925 -13.2125,3.7225 -16.3875,6.1075 l 0,0 0,91.48 c -0.795,1.59 -1.39,2.6775 -1.79,3.275 l 0,0 c -1.59,2.19 -3.18,3.2775 -4.7675,3.2775 l 0,0 c -8.7425,0 -16.7875,-0.6925 -24.135,-2.085 l 0,0 c -6.3575,-1.59 -10.3325,-2.5775 -11.9175,-2.98 l 0,0 c -8.3425,-2.9775 -15.7925,-7.695 -22.35,-14.1525 l 0,0 c -6.5525,-6.4525 -10.53,-13.06 -11.9175,-19.815 l 0,0 c -0.4025,-2.185 -0.7975,-4.7175 -1.1925,-7.6 l 0,0 c -0.4,-2.875 -0.5975,-5.61 -0.5975,-8.1925 l 0,0 c 0,-4.7675 0.645,-9.285 1.94,-13.56 l 0,0 c 1.29,-4.2675 3.525,-8.29 6.7025,-12.065 l 0,0 c 6.7525,-7.945 19.6675,-15.1975 38.7375,-21.7525 l 0,0 c 14.4975,-4.964997 30.195,-9.037497 47.08,-12.217497 l 0,0 c 12.91,-2.3825 20.66,-3.5775 23.2425,-3.5775 l 0,0 c 10.9225,-3.3725 20.56,-7.1 28.9025,-11.1725 l 0,0 c 8.3425,-4.07 15.69,-8.79 22.0475,-14.155 l 0,0 c 15.2975,-14.1025 26.5225,-27.6575 33.6725,-40.6725 l 0,0 c 7.1525,-13.0074997 10.7275,-26.7649997 10.7275,-41.27 l 0,0 c 0,-16.285 -6.3075,-29.6475 -18.92,-40.0775 l 0,0 c -12.6175,-10.4275 -27.8625,-15.6425 -45.74,-15.6425 l 0,0 c -23.64,0 -41.9675,5.915 -54.9775,17.73 l 0,0 c -13.01,11.82 -19.5175,30.0475 -19.5175,54.6775003 l 0,0 2.385,77.7699997 c 1.79,0.2 3.28,0.3 4.47,0.3 l 0,0 c 9.535,0 17.135,-0.7925 22.7925,-2.385 l 0,0 c 5.665,-1.5875 10.3825,-3.9725 14.1575,-7.15 l 0,0 -2.3825,-79.8575 c 0,-14.1025 2.9775,-24.68 8.9375,-31.735 l 0,0 c 5.96,-7.05 14.4025,-11.2725 25.33,-12.665 l 0,0 c 3.5725,-0.3925 6.255,-0.595 8.0425,-0.595 l 0,0 c 12.315,0 21.9475,3.4775 28.905,10.43 l 0,0 c 8.535,8.5425 12.81,21.95 12.81,40.2250003 l 0,0 c 0,11.725 -2.88,22.6474997 -8.64,32.7774997 l 0,0 c -3.975,6.955 -11.025,15.5975 -21.155,25.925 l 0,0 c -13.7075,13.705 -31.2875,22.845 -52.7425,27.4125 l 0,0 -67.94,13.7075 c -28.805,7.1525 -48.075,21.059997 -57.805,41.717497 l 0,0 c -2.98,6.7525 -4.47,13.4075 -4.47,19.9625 l 0,0 c 0,3.38 0.1475,5.8625 0.4475,7.45 l 0,0 c 0.2975,1.59 1.0425,4.5725 2.235,8.94 l 0,0 c 3.375,9.1375 8.74,17.185 16.09,24.135 l 0,0 c 6.555,6.1575 14.6025,11.1275 24.1375,14.9 l 0,0 c 13.11,4.965 28.205,7.445 45.29,7.445 l 0,0 c 9.73,0 17.0325,-0.2975 21.905,-0.8925 l 0,0 c 4.8625,-0.5975 11.5675,-1.885 20.11,-3.8725 l 0,0 c 16.685,-3.3725 31.885,-8.74 45.5925,-16.09 l 0,0 c 9.73,-5.165 22.745,-13.7075 39.0325,-25.625 l 0,0 c 14.495,-10.7275 26.02,-20.66 34.565,-29.8 l 0,0 c 10.3275,-10.92 19.865,-23.935 28.605,-39.032497 l 0,0 c 10.525,-17.8775 17.8775,-34.2675 22.05,-49.1675 l 0,0 c 4.1725,-14.9 6.26,-32.1825 6.26,-51.8474997 l 0,0 c 0,-24.8300003 -3.53,-48.2700003 -10.5825,-70.3200003 l 0,0 c -7.05,-22.05 -17.13,-40.225003 -30.245,-54.530003 l 0,0 c -15.4925,-16.8825 -34.665,-29.3975 -57.5075,-37.545 l 0,0 c -17.8775,-6.355 -36.0525,-9.535 -54.5275,-9.535 l 0,0 c -29.9975,0 -57.015,6.16 -81.05,18.475"
       style="fill:url(#linearGradient304);stroke:none"
       id="path312"
       inkscape:connector-curvature="0" />
  </g>
</svg>
