<?xml version="1.0" encoding="UTF-8" standalone="no"?>
<!-- Created with Inkscape (http://www.inkscape.org/) -->

<svg
   xmlns:dc="http://purl.org/dc/elements/1.1/"
   xmlns:cc="http://creativecommons.org/ns#"
   xmlns:rdf="http://www.w3.org/1999/02/22-rdf-syntax-ns#"
   xmlns:svg="http://www.w3.org/2000/svg"
   xmlns="http://www.w3.org/2000/svg"
   xmlns:sodipodi="http://sodipodi.sourceforge.net/DTD/sodipodi-0.dtd"
   xmlns:inkscape="http://www.inkscape.org/namespaces/inkscape"
   width="76.105202mm"
   height="112.9385mm"
   viewBox="0 0 269.6641 400.17578"
   id="svg4672"
   version="1.1"
   inkscape:version="0.91 r13725"
   sodipodi:docname="Alphabet19S.svg">
  <defs
     id="defs4674">
    <linearGradient
       x1="0"
       y1="0"
       x2="1"
       y2="0"
       gradientUnits="userSpaceOnUse"
       gradientTransform="matrix(-1.8e-5,412.7771,-412.7771,-1.8e-5,-1271.3294,-180.62359)"
       spreadMethod="pad"
       id="linearGradient268">
      <stop
         style="stop-opacity:1;stop-color:#fdc82c"
         offset="0"
         id="stop270" />
      <stop
         style="stop-opacity:1;stop-color:#fdc82c"
         offset="0.239968"
         id="stop272" />
      <stop
         style="stop-opacity:1;stop-color:#236f46"
         offset="1"
         id="stop274" />
    </linearGradient>
  </defs>
  <sodipodi:namedview
     id="base"
     pagecolor="#ffffff"
     bordercolor="#666666"
     borderopacity="1.0"
     inkscape:pageopacity="0.0"
     inkscape:pageshadow="2"
     inkscape:zoom="1.324418"
     inkscape:cx="134.83205"
     inkscape:cy="200.08789"
     inkscape:document-units="px"
     inkscape:current-layer="layer1"
     showgrid="false"
     fit-margin-top="0"
     fit-margin-left="0"
     fit-margin-right="0"
     fit-margin-bottom="0"
     inkscape:window-width="1366"
     inkscape:window-height="705"
     inkscape:window-x="-8"
     inkscape:window-y="-8"
     inkscape:window-maximized="1" />
  <metadata
     id="metadata4677">
    <rdf:RDF>
      <cc:Work
         rdf:about="">
        <dc:format>image/svg+xml</dc:format>
        <dc:type
           rdf:resource="http://purl.org/dc/dcmitype/StillImage" />
        <dc:title></dc:title>
      </cc:Work>
    </rdf:RDF>
  </metadata>
  <g
     inkscape:label="Layer 1"
     inkscape:groupmode="layer"
     id="layer1"
     transform="translate(1411.9749,173.43998)">
    <path
       style="fill:url(#linearGradient268);stroke:none"
       d="m -1250.4671,-173.43998 c -25.83,0 -49.9676,6.95047 -72.4101,20.85547 -29.405,18.2775 -44.1016,43.60688 -44.1016,75.984384 0,13.705 3.4708,26.2714 10.4258,37.6914 6.9525,11.425 17.0884,21.5061 30.3984,30.2461 3.7725,2.5825 14.4997,9.33780001 32.1797,20.25781 17.6775,10.92999 29.0013,17.78249 33.9688,20.56249 l 26.8164,-8.93748 c 4.5675,-1.79 8.2932,-4.26922 11.1757,-7.44922 2.8775,-3.1775 4.3204,-6.75159 4.3204,-10.72659 -8.745,-8.3425 -31.0905,-22.74451 -67.043,-43.20701 -17.4825,-10.1325 -30.7438,-21.30594 -39.7813,-33.52344 -9.0425,-12.214997 -13.5546,-25.075947 -13.5546,-38.585944 0,-12.115 5.5561,-20.95953 16.6836,-26.51953 11.1225,-5.56 26.6193,-8.34375 46.4843,-8.34375 10.5275,0 22.3969,4.52109 35.6094,13.5586 13.2075,9.04249 19.8125,17.23703 19.8125,24.58203 0,1.595 -0.4014,3.77718 -1.1914,6.55468 -0.795,2.785004 -1.1914,4.373129 -1.1914,4.765629 0.1975,1.5925 1.1904,2.784225 2.9804,3.574225 l 43.2071,-39.031254 -2.3867,-11.6211 c -9.3375,-11.52 -19.565,-19.51437 -30.6875,-23.98437 -11.13,-4.47 -25.0299,-6.70313 -41.7149,-6.70313 z m -28.3086,100.710944 c -4.375,0 -9.54,1.14719 -15.5,3.42969 -5.96,2.285 -8.9375,4.615 -8.9375,7 0,2.9775 1.986,4.47266 5.961,4.47266 4.1725,-2.185 9.1359,-4.07158 14.8984,-5.66408 5.76,-1.59 13.2102,-2.3828 22.3477,-2.3828 16.4875,0 31.0871,5.11375 43.8046,15.34375 12.7075,10.2325 19.0664,22.99796 19.0664,38.29296 0,10.925 -3.277,20.45907 -9.832,28.60157 -6.555,8.145 -15.1,13.61062 -25.625,16.39062 -14.5025,4.7675 -30.6443,8.83736 -48.4218,12.21486 -17.78,3.37998 -35.3113,6.65702 -52.5938,9.83202 -8.3425,3.18 -13.7048,5.96126 -16.0898,8.34376 l 2.3867,4.17186 c 12.1125,-4.5675 37.2428,-9.83296 75.3828,-15.79296 27.015,-3.9725 47.7748,-11.42016 62.2773,-22.34766 15.295,-11.52 22.9453,-25.52173 22.9453,-42.01173 0,-14.4975 -4.7682,-27.11625 -14.3007,-37.84375 -13.1125,-14.6975 -32.9763,-22.05077 -59.5938,-22.05077 l -18.1758,0 z m -72.8476,53.53125 c -0.2525,0 -0.5014,0.038 -0.7539,0.1055 -6.3625,6.955 -10.7792,14.40515 -13.2617,22.34765 -2.485,7.9475 -3.7227,17.68171 -3.7227,29.19921 0,15.4975 2.7787,30.4961 8.3437,44.9961 5.56,14.5025 14.2008,27.911556 25.9258,40.226556 8.1425,8.545 17.6232,15.54782 28.4532,21.00782 10.825,5.465 20.906,8.1953 30.246,8.1953 9.5351,0 16.2829,-0.59796 20.2579,-1.79296 8.7399,-2.5775 13.1132,-7.84156 13.1132,-15.78906 0,-3.375 -0.8947,-6.15626 -2.6797,-8.34376 -1.79,-2.1825 -4.2742,-3.27734 -7.4492,-3.27734 -1.595,0 -4.0742,2.5836 -7.4492,7.7461 -3.38,5.1675 -10.0348,7.75 -19.9648,7.75 -6.36,0 -11.7249,-0.69344 -16.0899,-2.08594 -6.555,-1.985 -13.5158,-5.75922 -20.8633,-11.32422 -16.29,-12.1125 -28.1095,-28.205936 -35.457,-48.273436 -5.3625,-14.5 -8.043,-28.9989 -8.043,-43.5039 0,-10.92 1.3855,-19.56327 4.168,-25.92577 2.1825,-4.9625 5.8599,-10.02783 11.0274,-15.19533 -1.935,-4.04 -3.8708,-6.0625 -5.8008,-6.0625 z m 162.5351,48.07812 c -0.795,0 -6.8533,3.4797 -18.1758,10.4297 -7.95,4.9675 -17.5812,9.13812 -28.9062,12.51562 1.985,1.59 3.4776,2.67984 4.4726,3.27734 3.7725,2.3825 6.6518,3.57422 8.6368,3.57422 12.9125,8.5425 22.9451,20.46282 30.0976,35.75782 6.555,13.907496 9.836,28.111856 9.836,42.609356 0,24.635 -9.5355,44.3 -28.6055,59 -17.2825,13.31 -38.4413,19.96486 -63.4687,19.96486 -20.86,0 -41.3243,-4.47266 -61.3868,-13.41016 -20.065,-8.9375 -34.0667,-19.36906 -42.0117,-31.28906 -4.57,-7.7475 -7.5514,-13.60064 -8.9414,-17.57814 -1.985,-5.3625 -2.9766,-11.3239 -2.9766,-17.8789 0,-12.7125 2.3835,-23.43468 7.1485,-32.17968 5.365,-7.942496 10.7287,-15.989216 16.0937,-24.136716 0,-4.7675 -1.2975,-7.14844 -3.875,-7.14844 -10.9275,0 -20.6617,7.14672 -29.1992,21.44922 -7.7475,12.914996 -11.625,25.527336 -11.625,37.839836 0,20.07 7.7472,37.45094 23.2422,52.14844 15.495,14.7025 32.9728,25.72672 52.4453,33.07422 17.2825,6.555 34.662,9.83594 52.1445,9.83594 19.8601,0 39.7288,-3.77672 59.5938,-11.32422 23.84,-9.135 42.8065,-21.75126 56.914,-37.84376 16.8825,-19.465 25.3243,-42.70514 25.3243,-69.72264 0,-17.879996 -6.1538,-35.954376 -18.4688,-54.234376 -11.125,-16.485 -20.5611,-24.73048 -28.3086,-24.73048 z"
       id="path276"
       inkscape:connector-curvature="0" />
  </g>
</svg>
