<?xml version="1.0" encoding="UTF-8" standalone="no"?>
<!-- Created with Inkscape (http://www.inkscape.org/) -->

<svg
   xmlns:dc="http://purl.org/dc/elements/1.1/"
   xmlns:cc="http://creativecommons.org/ns#"
   xmlns:rdf="http://www.w3.org/1999/02/22-rdf-syntax-ns#"
   xmlns:svg="http://www.w3.org/2000/svg"
   xmlns="http://www.w3.org/2000/svg"
   xmlns:sodipodi="http://sodipodi.sourceforge.net/DTD/sodipodi-0.dtd"
   xmlns:inkscape="http://www.inkscape.org/namespaces/inkscape"
   width="88.670341mm"
   height="112.68604mm"
   viewBox="0 0 314.18625 399.28123"
   id="svg4608"
   version="1.1"
   inkscape:version="0.91 r13725"
   sodipodi:docname="Alphabet19V.svg">
  <defs
     id="defs4610">
    <linearGradient
       x1="0"
       y1="0"
       x2="1"
       y2="0"
       gradientUnits="userSpaceOnUse"
       gradientTransform="matrix(-1.775e-5,407.5,-407.5,-1.775e-5,-1331.1395,-216.56918)"
       spreadMethod="pad"
       id="linearGradient344">
      <stop
         style="stop-opacity:1;stop-color:#fdc82c"
         offset="0"
         id="stop346" />
      <stop
         style="stop-opacity:1;stop-color:#fdc82c"
         offset="0.239968"
         id="stop348" />
      <stop
         style="stop-opacity:1;stop-color:#236f46"
         offset="1"
         id="stop350" />
    </linearGradient>
  </defs>
  <sodipodi:namedview
     id="base"
     pagecolor="#ffffff"
     bordercolor="#666666"
     borderopacity="1.0"
     inkscape:pageopacity="0.0"
     inkscape:pageshadow="2"
     inkscape:zoom="1.3273851"
     inkscape:cx="157.09313"
     inkscape:cy="199.64063"
     inkscape:document-units="px"
     inkscape:current-layer="layer1"
     showgrid="false"
     fit-margin-top="0"
     fit-margin-left="0"
     fit-margin-right="0"
     fit-margin-bottom="0"
     inkscape:window-width="1366"
     inkscape:window-height="705"
     inkscape:window-x="-8"
     inkscape:window-y="-8"
     inkscape:window-maximized="1" />
  <metadata
     id="metadata4613">
    <rdf:RDF>
      <cc:Work
         rdf:about="">
        <dc:format>image/svg+xml</dc:format>
        <dc:type
           rdf:resource="http://purl.org/dc/dcmitype/StillImage" />
        <dc:title></dc:title>
      </cc:Work>
    </rdf:RDF>
  </metadata>
  <g
     inkscape:label="Layer 1"
     inkscape:groupmode="layer"
     id="layer1"
     transform="translate(1479.9502,210.13556)">
    <path
       style="fill:url(#linearGradient344);stroke:none"
       d="m -1403.2484,-210.13556 c -0.2025,0 -6.1614,4.46375 -17.8789,13.40625 -16.685,12.515 -28.4102,21.65406 -35.1602,27.41406 -13.3125,10.9275 -21.1604,18.47453 -23.5429,22.64453 -0.2,2.585 -0.1491,4.57094 0.1484,5.96094 0.3,1.39 1.1452,2.08203 2.5352,2.08203 2.185,0 5.16,-2.18218 8.9375,-6.55468 2.78,0.5975 4.4714,2.08765 5.0664,4.47265 -0.995,7.7475 -1.4883,13.51125 -1.4883,17.28125 l 0,7.15235 c 0,22.847502 3.277,46.287812 9.832,70.320312 5.56,20.46 13.6067,41.2248299 24.1367,62.27733 8.7375,17.685 18.7713,34.56876 30.0938,50.65626 4.3675,6.1625 10.923,15.0964 19.668,26.8164 6.95,9.337498 16.0915,21.357178 27.414,36.054678 17.2825,22.645 28.9988,37.84486 35.1563,45.58986 -0.5925,0.995 -0.9939,1.69344 -1.1914,2.08594 -0.995,1.9925 -1.4883,3.57702 -1.4883,4.76952 0,2.9775 1.6864,5.26156 5.0664,6.85156 4.5675,0 14.4994,-7.34828 29.7969,-22.05078 12.515,-11.9175 27.1196,-30.24406 43.8046,-54.97656 16.6875,-24.729998 30.6893,-49.112338 42.0118,-73.152338 7.5475,-15.8875 14.0506,-32.3784401 19.5156,-49.46094 5.4625,-17.08499 9.5822,-34.56531 12.3672,-52.44531 1.7875,-10.7275 2.6836,-23.1411 2.6836,-37.246102 0,-11.92 -0.65,-22.54531 -1.9375,-31.88281 -1.295,-9.3325 -3.2325,-16.98531 -5.8125,-22.94531 -5.165,-10.9225 -12.5144,-21.55031 -22.0469,-31.88281 -13.31,-14.3025 -26.3252,-21.45313 -39.0352,-21.45313 -1.99,0 -3.874,0.3975 -5.664,1.1875 -1.7875,0.7975 -3.3781,1.79188 -4.7656,2.98438 -30.5925,37.5425 -51.7997,64.31468 -63.6172,80.30468 -11.8225,15.9925 -20.5602,31.930322 -26.2227,47.820322 -5.66,15.8975 -8.4922,30.79922 -8.4922,44.69922 0,18.47499 3.4747,33.9693699 10.4297,46.48437 5.76,10.5325 13.5072,18.1714 23.2422,22.9414 2.98,1.3925 6.4062,2.49126 10.2812,3.28126 3.8725,0.795 7.2999,1.1914 10.2774,1.1914 7.15,0 13.6061,-1.23906 19.3711,-3.72656 5.76,-2.48 10.1753,-5.66016 13.2578,-9.53516 3.0775,-3.875 5.4598,-9.185 7.1523,-15.9375 1.685,-6.7550001 2.5313,-13.71328013 2.5313,-20.8632801 0,-5.5599999 -0.3989,-10.7731199 -1.1914,-15.6406199 -0.795,-4.865 -1.8899,-9.3836 -3.2774,-13.5586 -4.57,-12.515 -11.5243,-24.43281 -20.8593,-35.75781 -9.34,-11.32 -19.8646,-20.45656 -31.5821,-27.41406 -1.1925,0.4 -1.9892,0.69954 -2.3867,0.89454 -1.5925,0.9975 -2.0833,2.2875 -1.4883,3.875 8.74,8.1475 15.3924,14.70406 19.9649,19.66406 14.3025,15.495 23.0426,28.75375 26.2226,39.78126 3.175,11.025 4.7657,21.70373 4.7657,32.0312299 0,6.7575 -0.6475,12.32 -1.9375,16.6875001 -1.295,4.37 -3.7233,8.14532 -7.3008,11.32032 -6.5525,5.565 -14.501,8.34374 -23.836,8.34374 -5.765,0 -10.9261,-1.28858 -15.4961,-3.8711 -9.5325,-4.96498 -16.6856,-13.9014 -21.4531,-26.8164001 -3.775,-10.33 -5.6601,-21.8513899 -5.6601,-34.5663899 0,-17.28501 3.277,-33.86672 9.832,-49.76172 6.555,-15.8925 16.0905,-31.290002 28.6055,-46.187502 6.95,-8.5375 13.0082,-15.79 18.1757,-21.75 1.985,-2.3825 4.5675,-5.26204 7.75,-8.64454 2.3825,-2.3825 4.7125,-4.01906 7,-4.91406 2.28,-0.895 5.905,-1.83453 10.875,-2.83203 21.455,7.1525 36.7468,21.95203 45.8868,44.39453 6.9525,17.0925 10.4297,38.544682 10.4297,64.367182 0,17.08502 -2.2841,34.46704 -6.8516,52.1445299 -4.5725,17.6825001 -11.0247,35.6611001 -19.3672,53.9336001 -8.3425,18.2775 -17.5823,35.06188 -27.7148,50.35938 -10.13,15.297498 -21.9521,30.292178 -35.4571,44.992178 -11.725,-14.1025 -22.8984,-28.25344 -33.5234,-42.46094 -10.6275,-14.202498 -20.7097,-28.652958 -30.2422,-43.355458 -20.465,-30.99 -35.7581,-61.1820401 -45.8906,-90.58204 -10.1325,-29.3975 -15.1953,-58.80312 -15.1953,-88.203122 0,-14.1025 1.3409,-28.45469 4.0234,-43.05469 2.68,-14.6 6.5995,-28.55469 11.7695,-41.86719 -1.79,-2.7775 -5.4659,-4.16796 -11.0234,-4.16796 z m 76.5781,9.53515 c -5.9575,0 -11.525,2.57969 -16.6875,7.74219 -6.7575,6.755 -10.1289,16.29297 -10.1289,28.60547 0,3.38 0.4474,7.74828 1.3399,13.11328 0.895,5.36 3.819,11.61954 8.789,18.76954 4.9625,7.1525 11.7192,14.0075 20.2617,20.5625 1.3875,-2.1825 2.086,-4.17344 2.086,-5.96094 -4.1725,-3.7725 -7.9453,-8.045 -11.3203,-12.8125 -2.585,-3.5775 -4.3747,-6.75266 -5.3672,-9.53516 -1.59,-3.9725 -2.7817,-8.2425 -3.5742,-12.8125 -0.7975,-4.57 -1.1914,-8.24094 -1.1914,-11.02344 0,-7.3475 1.6864,-13.20703 5.0664,-17.58203 2.78,-3.575 5.6606,-5.36328 8.6406,-5.36328 3.77,0 7.9417,1.78828 12.5117,5.36328 1.985,1.595 3.3769,2.18657 4.1719,1.78907 2.185,-0.195 3.2773,-1.88642 3.2773,-5.06642 0,-1.385 -0.098,-2.47843 -0.2929,-3.27343 -0.4025,-4.175 -2.2891,-7.30563 -5.6641,-9.39063 -3.3825,-2.0875 -7.3505,-3.125 -11.918,-3.125 z"
       id="path352"
       inkscape:connector-curvature="0" />
  </g>
</svg>
