<?xml version="1.0" encoding="utf-8"?>

<!DOCTYPE svg PUBLIC "-//W3C//DTD SVG 1.1//EN" "http://www.w3.org/Graphics/SVG/1.1/DTD/svg11.dtd">
<svg version="1.1" id="Layer_1" xmlns="http://www.w3.org/2000/svg" xmlns:xlink="http://www.w3.org/1999/xlink" x="0px" y="0px"
	 viewBox="0 0 800.381 1673.514" enable-background="new 0 0 800.381 1673.514" xml:space="preserve">
<g>
	<path fill="#E41E20" d="M46.562,1200.444c-0.081-1.405-1.315-4.442-2.137-5.583c-0.452-0.627-1.365-1.06-1.602-1.835
		c-0.981-3.204-1.318-6.67-0.077-10.018c0.912-2.459,5.226,1.559,6.181,2.676c1.46,1.709,3.98,2.04,4.808,4.435
		c0.405,1.172,1.195,3.428,0.687,4.589c-0.815,1.863-1.943,3.722-1.45,5.812c0.616,2.609-3.999,3.101-5.266,1.988L46.562,1200.444
		L46.562,1200.444z M85.383,472.771c0.222,0.061,0.457,0.163,0.709,0.315c8.935,5.415,11.148-6.799,18.926-5.507l16.102,2.677
		c6.545,1.088,11.736,4.799,17.781,6.577c0.822,1.359,3.689,1.95,5.113,2.983c3.53,2.561,4.924,5.352,9.386,7.418
		c3.938,1.824,7.126,3.262,10.684,5.736c4.475,3.11,9.532,0.215,11.065,6.194c1.123,4.378,4.845,9.485,2.518,14.148
		c-1.841,5.388-5.542,2.974-10.226,4.13c-5.087,1.254-4.109,4.144-2.671,8.336c1.845,5.375,3.001,12.714,3.434,18.431
		c0.735,9.714-1.1,16.777-2.519,26.231c-0.91,4.567-1.871,10.1-0.763,14.607c0.162,0.04,0.398,0.052,0.535,0.153
		c0.883-0.533,5.885-4.178,6.334-3.977c3.059,1.372,6.982,6.759,7.631,10.018c0.705,3.537-1.679,7.643-1.679,11.318
		c-2.102,0.7-3.996-1.606-5.724-2.983c-1.532-1.22-5.02,7.305-5.876,9.025c-1.994,4.004-5.908,10.851-10.226,12.541
		c-6.427,3.683-17.078,3.332-23.81,0.459c-3.163-1.35-7.439-1.945-10.226-3.594c-1.601-0.948-4.763-3.241-6.487-3.671
		c1.25,5.001,4.772,5.161,7.784,8.183c0.802,0.804,0.496,2.679,0.84,3.747c1.918,5.962,11.783,8.754,16.866,10.784
		c8.093,3.233,5.787,15.584,2.9,22.101c-1.264,4.648-0.715,9.251-3.281,13.613c-1.702,2.891-5.079,5.429,0,5.429
		c0,3.741-3.162,7.263-4.884,2.065h-0.306c-1.512,6.1-12.913,9.637-18.086,10.935c0,2.953,2.513,3.017-0.152,6.654
		c-2.247,3.064-2.828,6.715-4.884,9.712c-0.678,2.105-0.897,5.953-3.281,6.73c-5.348,1.74-4.53,2.221-8.624-1.147
		c-1.864-1.533-4.449-6.194-7.097-6.194c0,2.162,5.471,9.308,6.945,11.318c0.984,1.342,5.679,6.633,5.037,7.647
		c-2.235,3.528-1.374,10.616-1.374,14.836c0,6.498-0.294,9.815,2.823,15.678c0.699,1.539,2.453,2.537,3.053,3.747
		c2.411,0.341,4.115,4.359,6.639,4.359c1.292-1.292,0.536-4.651,2.747-5.2c1.062-1.497,8.76,3.403,9.997,4.512
		c12.105,10.87,20.184,22.431,12.287,39.232c0.498,5.303-5.473,11.005-8.47,14.76c-1.336,1.675-3.134,2.142-4.198,3.977
		c-0.988,1.704-2.082,6.503-2.9,8.718c-1.627,4.404,1.084,10.836-3.129,15.066c-2.198,2.206-8.348,2.001-11.294,2.983
		c0,3.003,4.374,11.266,5.418,14.683c2.201,9.045,2.338,17.778,1.145,27.072c-0.514,4.007-0.991,8.018-2.976,11.548
		c-3.038,5.401,1.238,2.141,4.731,2.141c-0.224,0.683-2.643,2.617-3.281,3.824c-0.961,1.814-2.449,8.858-1.068,10.477
		c2.399,2.811,3.613,7.669,6.334,9.483c4.52,4.852,12.296,7.863,17.705,11.778c5.534,4.006,7.352,5.046,6.486,11.854
		c-0.464,3.649,1.755,6.614,1.755,10.171c0,2.776-1.888,5.028-1.755,7.953c0.218,4.808-0.331,6.073-5.037,8.259
		c-1.844,0.857-8.166,3.865-8.166,6.119c-1.233,0.769-2.282,3.19-3.969,4.359c-1.091,0.757-1.514-1.765-2.442-1.836
		c-3.79-0.287-9.547,0.827-12.897-0.841c0-1.19,3.101-8.496,3.74-10.019c0-3.119-7.704-5.707-9.463-3.518
		c-1.342,1.67-1.135,6.779-1.602,9.025c-0.471,2.267-1.33,4.048-3.282,5.353c-3.971,2.655-4.337-1.494-5.418,4.818
		c-0.746,4.351-1.068,9.372-1.068,13.842c1.214,3.652,2.151,5.136,4.731,7.724c3.861,3.872,0.001,6.31-3.434,9.559
		c-3.876,3.667-5.501,4.206-10.531,4.206c0,11.103-2.518,22.227-2.518,33.878c-1.012,14.152-5.124,23.027-12.21,35.025
		c-2.306,3.905-10.821,4.987-10.76,6.883l0.229,7.189c0.119,3.734,0.108,3.135,3.434,3.135c-2.641,3.522,7.001,12.092,8.929,15.83
		c4.632,8.983,9.745,17.604,11.938,26.513c1.6,6.501,0.507,13.265,2.18,19.908l0.076,0.077h0.153c0.432,1.303,1.77-4.719,1.831-5.2
		c0.232-1.818-0.024-12.53,1.069-12.925c3.989-1.442,15.341,2.137,19.765,2.983c8.83,1.688,7.097,3.263,7.097,11.778
		c-0.98,2.617,2.602,20.198-3.51,15.524c-2.462-1.882-9.763-6.271-12.745-6.271c-4.407,0,5.368,8.852,6.334,10.248
		c4.289,6.196,10.497,11.322,14.576,17.819c2.324,3.702,1.69,4.72,6.334,6.271c3.195,1.067,5.556,3.199,4.502,6.883
		c-0.432,4.949-0.764,7.369-4.731,10.477c-2.157,1.69,0.235,16.27-0.916,19.731c-2.461,7.399,8.292,15.821-2.365,20.877
		c-2.013,3.907-9.375,9.298-13.737,9.942c-4.289,0.633-7.032,1.041-8.242-3.901c-0.702-2.865-1.795-4.456-2.9-7.112
		c-1.77-4.25,0.139-9.553-1.603-14.224l-2.823-7.571c-0.963-2.582-3.692-5.143-4.35-7.647c-5.557-5.049-10.092-11.904-16.254-16.06
		c-2.932-1.978-10.533-5.17-13.584-3.136c-2.293,1.529-3.901,4.088-6.792,4.895c-7.189,2.007,3.785,8.988,6.334,12.007
		c5.746,6.802,11.05,13.139,15.11,21.26c1.708,4.493,6.626,7.037,7.784,11.548c0.57,2.22,1.943,8.036,1.526,10.095
		c-0.445,2.193-2.932,4.688-1.908,7.189c1.738,4.246,4.697,7.883,8.242,10.86c4.176,3.505,5.579,6.034,8.395,10.553
		c6.33,7.667,14.996,17.586,22.741,23.86c12.853,10.411,24.994,15.831,39.302,23.555c7.771,4.109,13.734,11.409,21.063,15.295
		c2.413,1.279,5.413,2.008,7.86,3.365c6.678,3.702,6.022,7.535,15.568,8.565l7.784,0.841c2.789,0.301,1.529,4.971,5.647,5.889
		c5.234,1.165,7.883,5.755,14.042,7.036c5.185,1.079-3.633,8.326,3.816,8.947c8.746,0,2.327,10.865,7.25,12.771
		c1.248,0.483,1.733-4.507,1.831-5.583c0.38-4.18,7.96,2.484,6.639,4.589c-1.42,2.264-2.602,4.807,0.992,6.194
		c4.016,1.55,5.024-1.451,8.395-2.83c12.266-5.016,23.222,15.559,27.473,23.555l2.213,5.353c0.122,4.333,6.022,7.723,7.097,11.778
		c0.381,1.437-0.122,3.348,0.458,4.665c1.047,2.375,4.185,5.196,5.724,7.648c1.9,3.027,6.151,7.482,4.884,11.318
		c-0.688,2.083-3.773,0.626-5.495,2.218c-1.253,1.157-2.339,3.331-3.281,4.818c0.103,0.91,1.091,3.518-0.687,3.518
		c-0.934,0-1.086-1.439-2.137-0.765c-0.574,0.367-0.622,5.571,0.306,6.118c0.581,0.343,3.831-1.477,5.266-1.376
		c1.553,0.109,1.363,2.045,3.281,2.447c1.474,0.308,7.81,0.918,8.547,1.835c1.807,2.247,0.729,4.149,4.044,5.812
		c2.188,1.098,4.088,1.02,5.953,2.753c3.484,3.239,3.418,3.708,8.241,3.518c2.361-0.093,5.943-1.392,6.258,2.447
		c0.264,1.457,1.298,2.752,1.298,4.283c0,2.255-2.274,4.297-2.518,6.577c-0.442,4.123,0.292,8.204-1.069,12.236
		c-1.937,5.738-3.74,6.979-3.74,14.071c-0.383,1.495,0.233,3.99,0,5.812c-0.328,2.56-4.698,5.254-6.41,7.112
		c-1.571,1.704-1.642,5.013-2.06,7.189c-0.249,1.297-0.941,4.528,0.229,5.583c1.316,1.185,6.573-5.279,7.631-0.765
		c0.376,1.61,0.92,3.032,0.611,4.742c-0.498,2.744-2.075,4.356-2.823,6.806c-1.133,2.405-3.318,3.721-4.121,6.348
		c-1.095,3.579-1.358,10.177,3.358,10.324c2.266,0.071,4.514-0.687,6.868-0.306c0.469,0.076,0.729,0.447,0.928,0.919l0,0
		c0.858-2.068,4.897-4.666,7.085-4.666c2.292,0,2.926,3.205,4.732,4.206c3.32,1.84,10.189,0.11,12.821,2.371
		c3.709,3.185,2.697,3.995,8.395,3.748c5.207-0.226,7.444,5.062,10.531,8.336c4.752,5.037,9.512,4.206,15.949,4.206
		c2.683,0,3.641,2.085,6.029,2.447c8.639,2.64,22.502,7.773,18.925-6.653c-0.888-3.581,1.316-3.097,2.442-5.354
		c0.954-1.912-0.511-7.903,3.587-7.112c3.773,0.727,8.412,8.183,10.607,8.183l0.077-0.077c0-2.964-0.307-8.419,0.916-11.013
		c1.593-3.38,5.34-5.123,6.716-8.412c1.627-3.886,2.071-2.002,5.571-2.829c2.675-0.633,4.798-4.567,6.792-6.424
		c5.46-5.085,1.706-3.822-1.679-9.254c-1.128-1.938-6.698-7.665-6.487-9.253c0.339-2.549,3.928-6.391,5.647-8.26
		c3.98-4.326-13.078-11.109-2.976-18.125c3.723-2.586,6.489,2.617,10.303,2.906c7.945,0.603,12.165,1.829,16.483,9.559
		c5.384,9.64,14.675-7.279,17.476-10.553c3.152-3.687-0.414-7.962,1.45-11.701c3.242-6.505-3.566-6.645-5.724-12.465
		c-3.111-3.394-5.037-6.963-5.037-11.624c0-4.091-3.284-4.198-5.266-6.959c-3.831-5.34-1.709-9.822-7.097-15.218
		c-5.655-5.663-5.8-7.505-5.8-14.913c0-2.556-2.989-6.681-4.655-8.642c-1.542-3.409-7.635-6.913-7.326-11.318
		c0.103-1.473,8.66-1.487,10.15-1.759c6.636-1.209,21.563,4.467,23.199-5.659c1.135-7.027,1.643-9.146,5.8-14.76
		c2.944-3.977,0.382-5.105,0.382-8.718c0-7.765,12.3-13.419,18.697-14.148c6.746-0.769,6.944,8.123,12.21,4.665
		c4.559-1.143,6.29-4.659,8.929-8.183c1.986-2.653,6.737,4.721,8.471,5.812c7.568,4.768,16.221,1.733,24.344,0.535
		c6.6-0.973,6.371-9.554,12.058-10.63l20.605-3.9c2.299-0.435,0.611-6.361,0.611-8.413c0-4.604-0.7-8.451,2.289-12.159
		c1.184-1.901,6.137-7.123,4.121-9.407c-2.47-2.797-8.585-3.28-4.884-8.641c1.915-2.774,0.613-5.443-0.229-8.03
		c-0.569-1.751,5.849-4.984,7.097-5.507c4.856-2.032,8.854-6.383,9.081-11.93c0.315-7.696,1.823-12.215-1.984-19.042
		c-11.732-11.774,10.055-17.903,7.097-25.619c-1.211-3.161,3.721-4.016,5.723-4.13c3.467-0.196,8.486-3.061,6.334-7.112
		c-3.221-6.066,0.201-7.755,4.884-11.778c2.122-1.822,0.963-4.949,2.213-5.506c3.516-1.569,4.284-1.933,4.426-6.501
		c1.018-5.421-3.849-13.493-1.374-17.436c4.065-6.474-4.604-9.276,0.305-13.23c2.652-2.135,5.236-4.562,8.548-5.353
		c4.927-1.179,6.231-2.565,7.631-8.489c0.937-3.966,3.758-14.391,8.548-12.542c2.791,1.077,5.556,4.044,7.784,4.665
		c1.915,0.535,9.951-2.424,12.515-2.754c6.561-0.843,6.962,7.189,11.219,7.189c8.173,0,8.097-4.631,11.523-9.33
		c4.889-5.335,4.445-5.247,2.747-11.854c-1.185-4.615-0.452-7.292,3.663-8.565c2.671-0.825,3.16-2.786,4.96-4.589
		c4.088-4.095,3.791-2.344,4.884-8.03c1.106-5.748,4.503-3.956,8.09-6.348c2.373-1.581,4.749,0.691,6.944-0.535
		c6.673-3.725,0.456-14.24,1.908-19.042c2.703-3.407,3.591-4.422,1.374-8.642c-2.51-4.777,4.808-0.553,4.808-5.277
		c0-2.654-1.037-4.636-1.298-7.112c-0.348-3.307-0.235-6.06-0.076-9.407c0.176-3.697,2.152-7.363,1.221-11.165
		c-1.507-6.155-8.663-9.751-10.379-15.601c-1.279-7.716-9.85-11.641-14.957-16.289c-4.644-4.228-3.406-7.587-4.045-13.536
		c-0.54-5.037-3.732-0.374-6.258-3.748c-0.673-0.898-3.093-2.989-2.976-3.824c0.479-3.408,9.084-3.815,8.547-9.789l-0.229-34.414
		l0,0l-0.305-20.266c-0.978-2.348-2.726-5.665-4.198-7.8c-1.99-2.887-4.753-2.292-7.173-4.282c-1.418-1.167-2.338-3.559-4.426-3.671
		c-1.644-0.089-7.54,1.125-8.624,2.065c-3.74,3.248-7.322,2.972-10.989-0.306c-4.076-3.643-11.186-8.286-16.865-8.412
		c-3.016,1.92-3.468,5.593-5.8,8.106c-2.752,2.968-3.868,7.38-6.868,10.248c-7.062,6.749-12.796-2.152-20.452-0.688
		c-6.75,1.291-7.63-0.672-13.05-3.671l-26.71-90.24c-3.833-2.053-8.331-2.502-12.591-2.83c-4.831-0.371-12.851-2.296-16.408-5.736
		c-2.128-4.002-4.573-6.499-3.74-11.318c0.592-3.423,5.601-5.678,5.19-7.953c-0.564-3.127-2.284-3.812-4.044-6.118
		c-2.357-3.089-2.798-5.559-4.045-9.177c-1.064-3.091-5.498-7.883-7.478-10.859c0-4.711-2.82-5.589-6.639-7.189
		c-5.868-2.459-3.864-3.497-5.495-8.565c-0.804-2.502-2.399-4.398-3.052-7.189c-0.99-4.235-0.089-7.931-0.611-12.159
		c-0.323-2.612-1.709-4.028-2.442-6.424c-1.617-5.288-1.046-12.741-1.221-18.354c-1.032-5.206-1.799-7.659-3.663-12.465
		c-0.845-2.177-3.817-8.151-2.289-9.101c2.853-1.773,1.526-3.327,1.526-5.889c1.852,0.265,4.749,4.405,6.868,5.277
		c1.967,0.808,3.496-4.294,3.815-5.659c1.332-5.693,6.434-9.409,9.311-14.071c2.066-3.347-1.393-7.214,0.61-11.013
		c0.961-1.822,3.276-2.565,3.74-4.894l2.597-6.901c-2.621-6.833-5.325-13.506-8.855-19.253c-2.245-3.656-6.002-3.145-7.631-7.418
		c-1.451-3.809-2.583-6.567-5.113-9.712c-4.054-5.04-5.99-8.425-12.668-8.107c-3.766,0.179-6.105-1.064-6.105-5.277
		c0-2.605-1.834-1.861-3.358-2.982c-4.823-3.55-0.885-8.87,1.603-12.772c2.021-3.169,0.808-3.597-0.992-6.348l4.044-3.288
		c1.687-1.315,5.805-1.382,7.937-1.836c2.511-0.534,4.907-0.687,7.478-0.994c6.117-0.73,8.342-1.455,12.134-6.424
		c2.455-3.215,5.483-2.16,7.784-4.741c0.905-3.319-1.43-10.441-3.815-12.695c-3.996-3.775-1.291-8.139-4.732-12.465
		c-2.722-3.422-4.937-2.669-4.121-8.26c0.735-5.038-3.542-6.228-2.9-10.4c0.303-1.971,1.36-3.345,2.137-5.2
		c1.17-2.796,1.288-5.121,2.06-7.877c0-2.99-0.043-6.491-1.068-9.254c-1.073-2.895-3.675-5.027-4.808-7.877
		c-1.754-4.41,1.265-10.767,2.289-15.142c0.691-2.95,3.456-6.444,5.037-9.177c0.89-1.539,0.26-5.154,0.84-5.736
		c1.305-1.308,3.312,0.597,4.274-1.224c1.002-1.895-0.805-6.513,2.366-4.742c1.78,0.993,5.362,3.748,7.326,1.453
		c2.009-2.349,1.781-6.795,0.306-9.254l0,0c-0.599-1.943-0.59-4.58-1.374-6.348c-0.86-1.942-2.671-3.665-2.671-5.965
		c0-4.443,2.262-7.452,1.45-12.236c-0.519-3.063-1.603-5.871-1.603-9.101c0-4.612,4.237-4.115,7.326-5.277l6.716-0.077l0,0
		c-1.207-4.851-3.11-8.737-5.266-13.306c-1.17-2.483-5.705-9.254,0-9.254c2.619,0,3.128-2.491,4.35-4.435
		c2.576-4.099,5.762,1.13,8.013-1.529c2.98-3.521,3.156-10.008,4.274-14.377c2.399-9.382-1.167-12.953-5.876-20.648l0,0
		c-1.249-3.752-0.818-7.098-1.45-10.783c-0.622-3.625-3.881-5.707-4.349-9.254c-0.264-1.996-0.084-4.562-0.992-6.347
		c-0.86-1.69-3.754-4.282-5.113-5.965c-3.407-4.221-4.791-2.914-6.258-8.795c-1.374-5.506-3.924-6.272,0.152-11.777
		c2.444-3.302-0.454-4.589-1.297-7.8c-0.952-3.583,2.781-5.751,2.366-9.407c-0.372-3.277-4.655-4.444-4.655-8.794
		c0-2.159,0.033-4.991-1.45-6.73c-2.766-3.24-3.096-6.196-3.815-10.171c-0.899-4.973-5.347-5.523-5.113-11.471
		c0.131-3.344-0.976-3.785-1.374-6.577c-2.892-5.383-5.164-8.996-9.539-13.383c-3.761-3.772-4.452-10.254-7.936-13.077
		c-2.56-2.073-5.955-3.308-8.319-5.43c-4.477-4.019-2.382-5.429-9.387-5.429c-3.093,0-2.922-1.293-4.884-2.906
		c-2.348-1.932-4.689-0.87-7.326-1.529c-3.506-1.354-1.711-6.035-5.189-7.877c-2.834-1.5-7.734-2.547-10.913-3.365
		c-8.155-2.101-5.856-10.549-10.837-12.541c-5.304-2.121-7.346,2.655-10.989,5.124c-6.655,4.511-5.522-4.863-12.286-1.836
		c-2.754,1.232-6.64,3.903-9.158,0.535c-2.041-2.73-5.723-0.965-5.723-5.2c0-5.386,0.131-3.388-2.137-7.953
		c-0.816-1.644,2.708-5.98,2.442-9.712c0-8.945-1.493-8.046-7.478-13.459c-5.129-4.64-8.407-6.477-2.671-11.778
		c4.257-3.933,4.413-4.556,1.679-9.788c-2.701-5.17-6.955-8.967-11.218-12.772c-2.124-1.896,0.452-3.744-0.457-6.118
		c-1.152-3.006-5.652-4.186-4.732-7.877c0-6.88-6.181-4.931-6.181-10.63c0-6.092-1.662-7.195-7.479-9.177
		c-7.766-2.646-23.897-9.579-23.352-19.119l-4.579-4.053l0,0c-6.287-0.789-7.434-1.21-11.447,4.206
		c-2.963,3.999-12.426,0.046-13.355,4.512c-0.678,3.263-0.152,6.834-0.916,10.095c-1.822,7.78-5.54,4.589-11.142,4.589
		c-6.216,0-11.586,3.13-15.262-2.218c-1.807-2.629-10.42,4.309-13.508,5.047c-2.668,0.638-2.285,6.905-3.587,9.024
		c-2.694,4.383-4.67,2.371-7.021-0.382c-5.379-6.302-5.322,7.234-9.844,5.506c-3.335-1.275-4.32,2.708-6.41,2.065
		c-3.496-1.076-5.251,3.766-5.953,6.577c-1.945,0.488-3.012-1.524-4.655-1.759c-0.341-1.364-10.243-6.41-12.057-10.171
		c-1.317-1.981-2.148-5.496-4.655-6.271c-1.691-0.522-4.529,0.36-5.724-1.147c-1.19-1.5-1.724-8.681-2.137-10.936
		c-0.432-2.365-3.17-4.732-3.969-7.188c-1.528-4.705-0.87-3.795-0.228-8.03c0.53-3.498,3.182-7.829,0.61-10.401
		c-1.203-1.203-0.425-5.379,0.84-6.5c2.229-1.974,5.235-0.765,7.708-0.765c2.616,0,0.183-7.555-0.382-8.947
		c-3.187-5.744-8.689-7.894-7.479-15.448c0.225-1.402,1.831-3.512,1.831-4.512c-5.361-1.807-8.415-3.325-9.158-9.483
		c-0.701-5.807-7.421-1.453-10.684-1.453c-3.198,0-2.061,6.051-3.663,7.648c-1.076,1.073-3.66,1.853-4.121,3.594
		c-0.467,1.763,0.198,5.28-2.595,4.742c-2.161-0.417-3.97-1.497-6.334-0.765c-2.462,0.762-4.351,5.43-6.181,7.266
		c-1.633,3.062-4.346,6.3-6.716,8.794c-2.44,2.57-3.768,5.948-5.876,8.718c-4.169,5.477-2.387,11.23-1.755,17.436
		c0.548,5.391,2.87,4.565-2.137,8.03c-2.084,1.443-2.481,4.386-4.655,5.812c-6.348,2.676-14.271,2.447-14.271,10.171
		c0,7.422-0.951,6.832-5.952,11.854c-2.676,2.688-1.745,7.923-3.434,11.318c-1.149,2.308-3.608,2.211-4.96,4.283
		c-1.231,1.888-2.026,4.179-2.824,6.271c-1.232,3.231-3.381,1.61-5.266,3.365c-2.181,2.031-1.63,5.588-3.357,8.106
		c-3.844,3.534-5.165,10.801-7.097,15.601c-3.074,7.639-9.152,4.489-14.957,6.271c-2.777,0.852-5.678,5.23-6.487,7.877
		c-0.66,2.162,0.395,3.381,0.077,5.277c-0.344,2.045-2.087,2.124-3.056,4.053l0.152,15.601l-11.142,11.318l-1.831,11.778
		l-7.784,9.636l-7.174,13.306l-25.794,30.743l47.926,41.297l-7.247,12.694c-0.174,2.127-1.145,3.623-1.145,5.889
		c0,1.64-0.229,3.298-0.229,4.971c0,2.755-0.28,8.054-2.671,9.789c-3.652,2.648-0.442,13.95,1.106,17.589l3.015,4.742
		c-1.236,4.764-6.738,11.962-2.06,14.53c6.884,3.778,3.473,5.965-2.595,5.965c-3.592,0-6.404-0.697-8.395,3.059
		c-1.02,1.925-2.776,9.397,0,10.401c4.505,1.628,7.848,4.495,5.647,9.33c-1.527,3.356-8.436,2.465-10.15,5.353
		c-1.603,2.702,6.086,5.255,8.929,5.43c5.529,0.34-0.035,5.223,2.824,6.806c1.125,0.622,4.058-1.042,4.731,0.306
		c1.091,2.184-3.156,5.862-3.51,7.801c-0.623,3.409-0.124,6.926-0.174,10.391l0,0L85.383,472.771z"/>
	<path d="M510.705,908.416c-3.489-6.043-16.111-6.015-17.934,0.788l-25.484,0.693l15.121-10.528
		c5.645,3.259,13.564-0.364,15.15-6.284c2.25-2.615,5.025-3.844,10.487-2.069c-2.815-4.876-6.781-6.331-13.946-3.022
		c-6.536-4.841-15.149,1.032-13.843,5.907l-20.117,13.384c-14.603-4.26-41.051-10.895-41.051-10.895
		c3.15-3.239,6.344-6.248,9.487-9.532c0.835-2.773-0.599-4.163-3.009-4.629c-23.597-4.763-37.107-14.065-45.294-37.706
		c-3.424-9.902,3.978-12.86,6.522-6.803c3.519,8.422,7.402,17.629,17.999,24.757c3.653,2.499,14.53,0.459,8.097-5.509
		c-6.663-5.368-9.532-7.676-12.815-20.728c0-6.612,6.892-9.576,10.737-3.239c4.112,13,4.533,18.598,11.98,26.976
		c5.643,6.338,13,10.597,16.654,10.501c6.573-0.089,13.192-7.032,4.399-12.076c-12.911-5.043-17.629-11.935-19.529-18.509
		c-2.079-11.47,0.191-17.023,7.268-11.381c10.035,11.151,29.195,31.924,39.23,41.596c11.247,8.422,24.152,8.697,34.423,0.14
		c5.878-6.618,3.794-13.74-5.413-12.216c-20.772,1.715-36.501-8.371-53.761-35.628c-3.379-6.153-4.304-14.989,3.15-8.416
		c8.601,11.381,21.142,21.053,32.803,25.216c11.706,4.112,22.481,2.684,25.121-1.76c4.304-7.402,3.328-15.544-4.488-12.86
		c-6.433,2.219-15.5,2.774-24.936-0.791c-9.443-3.609-19.249-11.381-29.66-24.566c-3.564-7.447-2.404-13.74,4.814-9.901
		c17.074,14.161,39.096,25.631,50.337,18.738c8.282-5.043,8.422-17.999-2.078-17.164c-21.149,2.818-29.15-1.76-49.463-19.293
		c-4.622-3.379-4.304-11.942,3.054-6.478c17.074,10.781,40.391,14.989,49.553,9.347c8.237-5.043,7.033-20.454-6.848-14.996
		c-11.107,6.618-23.367,6.433-47.933-10.73c-6.197-5.043-1.575-11.617,3.513-8.792c19.759,11.011,48.539,15.729,56.03-6.663
		c2.914-8.556-2.359-13.555-10.086-7.632c-16.979,15.359-36.227,7.817-47.002,0.089c-3.086-1.779-8.748-10.781,1.199-9.111
		c25.726,5.738,51.172,0.74,55.801-17.074c2.684-5.783-2.595-16.01-11.986-7.447c-12.35,11.935-25.446,12.35-41.914,12.261
		c-8.378-1.715-8.467-10.737-1.435-12.076c13,0.274,25.816-5.279,36.087-10.922c10.042-5.643,18.369-13.555,21.008-24.521
		c1.619-9.806-8.053-20.218-13.88-9.806c-8.607,15.219-27.671,29.565-48.864,32.153c-1.103-1.804-3.883-6.433-7.307-5.132
		c-12.446,4.718-29.66,12.63-43.859,20.447c-3.054,1.709,0.555,9.946,1.25,13.141c1.192,13.874-8.799,22.481-17.769,20.077
		c-7.823-2.059-12.14-8.971-10.737-20.957c1.122-9.551,10.928-21.104,21.977-27.161c7.154-3.915,17.954-6.057,30.954-8.881
		c7.912-1.524,11.942-4.533,12.401-7.683c0,0-5.407,3.87-14.065,3.29c-4.093-0.287-6.835-2.047-7.868-3.845
		c3.009-0.599,8.467,0.096,13.37,0.096c6.522-0.051,21.665-1.479,25.682-10.456c1.25-5.923-2.729-6.988-6.433-3.194
		c-3.978,4.1-5.617,7.785-13.6,9.162c-4.858,0.835-9.717,1.804-15.965,0.325c3.519-4.087,9.111-8.269,13.88-7.498
		c1.568,0.255,3.653,1.67,5.324,4.214c1.02-6.478-0.791-13.791-18.509-10.737c0.281-4.903-10.271-7.033-16.609-6.937
		c-3.609,0.089-10.966,2.174-16.284,4.667c-8.422,2.55-16.749,4.399-26.562,5.094c5.694,4.763,6.758,5.043,12.446,9.066
		c-8.601,3.143-15.264,9.621-18.273,13.88c0,0,10.042-0.274,12.586,0.835c-10.507,3.003-15.225,4.807-20.779,10.361
		c1.945,0.325,4.858,0.88,6.108,1.345c1.301,0.459,0.963,1.294-0.089,2.078c-2.263,1.69-11.616,12.312-14.345,14.856
		c-2.729-2.544-12.082-13.166-14.345-14.856c-1.052-0.784-1.39-1.619-0.089-2.078c1.25-0.465,4.163-1.02,6.108-1.345
		c-5.553-5.553-10.271-7.358-20.779-10.361c2.544-1.109,12.586-0.835,12.586-0.835c-3.009-4.259-9.672-10.737-18.273-13.88
		c5.687-4.023,6.752-4.304,12.446-9.066c-9.812-0.695-18.139-2.544-26.561-5.094c-5.318-2.493-12.675-4.578-16.284-4.667
		c-6.338-0.096-16.889,2.034-16.609,6.937c-17.718-3.054-19.529,4.259-18.509,10.737c1.67-2.544,3.755-3.959,5.324-4.214
		c4.769-0.771,10.361,3.411,13.88,7.498c-6.248,1.479-11.107,0.51-15.965-0.325c-7.982-1.377-9.621-5.062-13.6-9.162
		c-3.704-3.794-7.683-2.729-6.433,3.194c4.017,8.977,19.159,10.405,25.682,10.456c4.903,0,10.361-0.695,13.37-0.096
		c-1.033,1.798-3.774,3.558-7.868,3.845c-8.658,0.58-14.065-3.29-14.065-3.29c0.459,3.15,4.489,6.159,12.401,7.683
		c13,2.824,23.801,4.967,30.954,8.881c11.049,6.057,20.855,17.61,21.977,27.161c1.403,11.986-2.914,18.898-10.737,20.957
		c-8.971,2.404-18.962-6.204-17.769-20.077c0.695-3.194,4.304-11.432,1.25-13.141c-14.199-7.817-31.414-15.729-43.859-20.447
		c-3.424-1.301-6.204,3.328-7.307,5.133c-21.193-2.589-40.257-16.934-48.864-32.153c-5.827-10.412-15.5,0-13.88,9.806
		c2.64,10.966,10.966,18.879,21.008,24.521c10.271,5.643,23.087,11.196,36.087,10.922c7.033,1.339,6.943,10.361-1.435,12.076
		c-16.469,0.089-29.565-0.325-41.914-12.261c-9.392-8.563-14.671,1.664-11.986,7.447c4.629,17.814,30.075,22.813,55.801,17.074
		c9.946-1.67,4.285,7.332,1.199,9.111c-10.775,7.727-30.024,15.27-47.002-0.089c-7.727-5.923-13-0.924-10.087,7.632
		c7.492,22.392,36.272,17.674,56.03,6.663c5.088-2.824,9.71,3.749,3.513,8.792c-24.566,17.164-36.827,17.349-47.933,10.73
		c-13.88-5.458-15.085,9.953-6.848,14.996c9.162,5.643,32.478,1.435,49.553-9.347c7.358-5.464,7.676,3.099,3.054,6.478
		c-20.313,17.533-28.315,22.111-49.463,19.293c-10.501-0.835-10.361,12.12-2.079,17.164c11.241,6.892,33.263-4.578,50.337-18.738
		c7.217-3.838,8.378,2.455,4.814,9.902c-10.412,13.185-20.218,20.957-29.66,24.566c-9.436,3.564-18.503,3.009-24.936,0.791
		c-7.817-2.684-8.792,5.458-4.489,12.86c2.64,4.444,13.415,5.872,25.121,1.76c11.661-4.163,24.203-13.835,32.803-25.216
		c7.453-6.573,6.529,2.263,3.15,8.416c-17.259,27.257-32.988,37.343-53.761,35.628c-9.207-1.524-11.292,5.598-5.413,12.216
		c10.271,8.556,23.176,8.282,34.423-0.14c10.035-9.672,29.195-30.444,39.23-41.596c7.077-5.643,9.347-0.089,7.268,11.381
		c-1.9,6.573-6.618,13.466-19.529,18.509c-8.792,5.043-2.174,11.986,4.399,12.076c3.653,0.096,11.011-4.163,16.654-10.501
		c7.447-8.378,7.868-13.976,11.98-26.976c3.845-6.338,10.737-3.373,10.737,3.239c-3.284,13.051-6.153,15.359-12.815,20.728
		c-6.433,5.968,4.444,8.008,8.097,5.509c10.597-7.128,14.479-16.335,17.999-24.757c2.544-6.057,9.946-3.099,6.522,6.803
		c-8.187,23.641-21.697,32.944-45.294,37.706c-2.41,0.465-3.845,1.855-3.009,4.629c3.143,3.284,6.338,6.293,9.487,9.532
		c0,0-26.447,6.635-41.051,10.895l-20.117-13.384c1.306-4.875-7.306-10.749-13.843-5.907c-7.165-3.309-11.131-1.854-13.946,3.022
		c5.462-1.775,8.237-0.546,10.487,2.069c1.586,5.92,9.506,9.543,15.15,6.284l15.121,10.528l-25.484-0.693
		c-1.823-6.803-14.445-6.831-17.934-0.788c-4.59,0-7.65,2.509-9.222,8.377c4.99-3.627,7.153-3.191,9.712-2.505
		c2.994,5.186,13.26,4.916,16.098,0l24.47,0.67l-14.296,8.027c-8.232-4.753-18.867,2.384-16.879,9.805
		c-3.464,2.816-3.927,6.869-1.714,12.609c1.196-3.981,3.468-7.703,7.001-9.848c7.496,2.009,14.702-0.347,14.702-7.784l19.871-11
		l19.669,7.559c0,5.144,7.848,9.032,14.583,6.307c4.719,0.55,5.39,4.683,6.176,7.867c2.578-4.572,3.059-9.307-2.916-13.347
		c0-5.914-7.62-9.589-13.933-6.181l-16.673-5.794c14.975-4.773,42.474-9.603,42.474-9.603c3.749,3.513,6.743,6.098,10.492,9.241
		c1.989,1.205,4.801,1.141,7.861-2.767c9.347-13.561,18.184-38.248,31.694-41.647c4.967-1.25,10.941,2.04,9.672,12.905
		c-1.932,16.52-14.295,30.253-29.845,40.531c-8.652,5.643-12.305,3.15-19.013,2.825c-8.652,0.969-10.966,5.177-3.838,11.011
		c6.612,3.424,12.579,3.883,17.393,2.958c4.163-0.74,9.022-6.108,12.49-9.022c3.889-4.489,10.367,0.835,5.974,6.108
		c-8.008,9.532-16.054,15.78-25.911,15.64c-10.412,1.435-8.467,7.262-1.575,10.086c12.401,5.133,23.641-4.444,29.29-10.781
		c4.393-4.763,7.543-4.948,6.752,2.455c-4.348,13.459-10.316,18.687-20.033,19.338c-7.868-0.695-7.957,5.368-2.219,9.487
		c13.134,9.066,22.666-6.388,27.11-15.735c3.143-8.467,8.008-4.438,8.512,2.499c0.096,9.302-4.119,16.89-15.359,26.421l27.25,41.396
		l27.25-41.396c-11.241-9.532-15.455-17.119-15.359-26.421c0.504-6.937,5.368-10.966,8.512-2.499
		c4.444,9.347,13.976,24.802,27.11,15.735c5.738-4.119,5.649-10.182-2.219-9.487c-9.717-0.65-15.684-5.878-20.033-19.338
		c-0.791-7.402,2.359-7.217,6.752-2.455c5.649,6.338,16.889,15.914,29.29,10.781c6.892-2.824,8.837-8.652-1.575-10.086
		c-9.857,0.14-17.903-6.108-25.911-15.64c-4.393-5.273,2.085-10.597,5.974-6.108c3.468,2.914,8.327,8.282,12.49,9.022
		c4.814,0.924,10.781,0.465,17.393-2.958c7.128-5.834,4.814-10.042-3.838-11.011c-6.707,0.325-10.361,2.818-19.013-2.825
		c-15.551-10.278-27.913-24.011-29.845-40.531c-1.269-10.864,4.705-14.154,9.672-12.905c13.51,3.398,22.347,28.085,31.694,41.647
		c3.06,3.908,5.872,3.972,7.861,2.767c3.749-3.143,6.743-5.728,10.492-9.241c0,0,27.499,4.83,42.473,9.603l-16.673,5.794
		c-6.313-3.409-13.933,0.267-13.933,6.181c-5.974,4.04-5.493,8.776-2.916,13.347c0.786-3.183,1.457-7.317,6.176-7.867
		c6.735,2.724,14.583-1.164,14.583-6.307l19.669-7.559l19.871,11c0,7.437,7.206,9.793,14.702,7.784
		c3.533,2.146,5.805,5.868,7.001,9.848c2.213-5.74,1.751-9.793-1.714-12.609c1.988-7.421-8.647-14.558-16.879-9.805l-14.296-8.027
		l24.47-0.67c2.838,4.916,13.104,5.186,16.098,0c2.559-0.686,4.722-1.122,9.712,2.505
		C518.354,910.924,515.294,908.416,510.705,908.416z M399.115,649.262c4.618,0,7.551,1.444,7.551,3.375
		c0,1.965-2.933,3.707-7.551,3.707c-4.647,0-7.517-1.599-7.517-3.558C391.598,650.855,394.469,649.262,399.115,649.262z
		 M270.652,656.344c-4.618,0-7.551-1.742-7.551-3.707c0-1.931,2.933-3.375,7.551-3.375c4.647,0,7.517,1.593,7.517,3.524
		C278.169,654.745,275.299,656.344,270.652,656.344z"/>
</g>
</svg>
