<?xml version="1.0" encoding="utf-8"?>

<!DOCTYPE svg PUBLIC "-//W3C//DTD SVG 1.1//EN" "http://www.w3.org/Graphics/SVG/1.1/DTD/svg11.dtd">
<svg version="1.1" id="Layer_1" xmlns="http://www.w3.org/2000/svg" xmlns:xlink="http://www.w3.org/1999/xlink" x="0px" y="0px"
	 viewBox="0 0 1346.811 1690.28" enable-background="new 0 0 1346.811 1690.28" xml:space="preserve">
<g>
	<line fill="none" x1="876.626" y1="1342.173" x2="876.626" y2="1342.173"/>
	<path fill="#009246" d="M167.845,950.455c-0.594,0.296-0.793,0.824-1.161,1.287l1.389-1.389
		C167.998,950.387,167.923,950.416,167.845,950.455z"/>
	<path fill="#009246" d="M413.131,675.84c0-3.504-1.086-5.432-1.086-8.935c0-0.408-0.272-0.76-0.218-1.168l0,0
		c-2.172,0.869-1.901,3.068-3.259,4.888c-0.76,1.033-1.793,1.195-2.607,2.173c-0.978,1.141-1.087,2.199-1.087,3.694
		c-0.19,0.054-0.326,0.217-0.543,0.217c-3.422,0-5.052-2.281-8.474-2.281c-1.005,0-1.656-0.162-2.607,0.108
		c-1.494,0.461-0.435,2.499-1.304,3.803c-0.38,0.569-1.032,0.543-1.738,0.543c-0.842,0-1.52,0.218-2.173-0.326
		c-0.815-0.678-0.651-1.819-1.629-2.173c-0.625-0.217-1.059-0.217-1.738-0.217c-2.146,0-3.232,1.195-5.377,1.195
		c-1.195,0-1.819-0.435-3.014-0.435h-1.277c-0.353,2.988-2.173,4.4-2.173,7.387c0,1.168-0.19,2.146,0.652,2.933
		c0.652,0.598,1.386,0.408,2.281,0.543c0.896,0.136,1.385,0.543,2.308,0.543h4.617c1.114,0,1.521,0.869,2.417,1.521
		c1.33,0.95,2.498,0.869,4.155,0.869h2.118c1.439,0,1.114-2.716,2.553-2.716h1.765v2.281c1.087-0.082,1.684,0.082,2.77,0
		c0.326-1.113,0.679-2.389,1.847-2.389c1.874,0,4.236,0.38,4.236,2.254v4.182c0,1.032,1.249,1.086,2.064,1.711
		c1.304,1.005,1.983,1.901,2.499,3.476l0.435,0.109c0.57-0.761,0.651-1.439,0.651-2.39c0-2.064-0.299-3.259-0.435-5.323
		c-0.054-0.977,0.054-2.064-0.869-2.39c-0.842-0.271-1.847-0.516-1.847-1.412c0-1.277,0.57-1.928,0.652-3.204
		c1.602-0.19,2.498,0.054,4.101,0.054c0.923,0,1.874-0.597,1.874-1.521c0-0.543-0.733-0.516-0.978-0.978
		c-0.299-0.543-0.217-0.95-0.217-1.575C412.479,678.908,413.131,677.822,413.131,675.84z"/>
	<path fill="#009246" d="M144.49,910.697c0.598-1.195,0.651-2.038,0.651-3.368c0-0.489-0.379-0.868-0.868-0.868
		c-1.521,0-1.983,1.357-3.259,2.172c-0.733,0.461-1.412,0.326-2.308,0.326v0h-2.146c-0.162,1.059,0,1.684,0,2.743
		c0,0.923-0.95,1.168-1.738,1.602c-0.896,0.489-1.357,1.004-2.281,1.412c-1.412,0.625-2.825,1.277-2.825,2.825
		c0,0.678,0.326,1.059,0.326,1.738c0,1.195-1.466,1.33-1.955,2.39c-0.408,0.896-0.543,1.494-0.543,2.498
		c0,0.599,0.136,1.168,0.652,1.412c0.651,0.326,1.222-0.136,1.846,0.218c1.032,0.57,1.195,1.955,2.39,1.955
		c1.086,0,0.923-1.52,0.977-2.607c0.136-1.847,0.326-2.878,0.761-4.671c0.217-0.95,1.249-0.896,2.064-1.412
		c0.516-0.326,0.652-0.76,1.086-1.195c1.033-1.032,1.359-2.498,2.825-2.498c0.435,0,0.462,0.489,0.652,0.869
		c0.543,1.005,0.897,2.173,2.064,2.173c0.76,0,0.897-0.896,1.086-1.629c0.163-0.652,0.435-1.06,0.435-1.739
		c0-1.195-1.195-1.629-1.195-2.824C143.187,911.457,144.164,911.375,144.49,910.697z"/>
	<path fill="#009246" d="M344.694,637.385c0.761,0,1.087-0.814,1.304-1.521c0.435-1.412,0.352-2.607,1.52-3.476
		c1.629-1.222,3.096-1.82,3.585-3.802c-1.14-0.38-0.978-2.065-1.847-2.933l0,0c-0.218-0.679-0.244-1.113-0.326-1.847h-1.304
		c-1.738,1.738-4.02,2.281-4.02,4.671c0,0.516,0.326,0.787,0.326,1.304c0,1.494-1.629,1.982-1.629,3.476
		C342.304,635.104,342.848,637.385,344.694,637.385z"/>
	<path fill="#009246" d="M130.082,988.345l36.234-36.234c-1.297,0.027-2.059,0.135-3.358-0.027l-7.17,1.195h-2.037
		c-2.173,0-3.557,0.082-5.459-0.977c-1.52-0.842-0.651-3.803-2.39-3.803c-0.815,0-1.25,0.326-2.064,0.326
		c-1.847,0-2.798-0.815-4.454-1.63c-0.76-0.38-1.386-0.081-2.173-0.326c-0.489-0.136-0.57-0.57-0.978-0.869
		c-0.842-0.625-1.576-0.787-2.173-1.629c-0.461-0.652-0.516-1.304-1.195-1.738c-0.57-0.381-1.114-0.435-1.52-0.978
		c-0.842-1.086-1.439-1.901-2.825-2.173c0.488-1.412,1.629-2.01,1.629-3.503v-2.662c0-0.625-0.543-0.87-0.869-1.386h-6.572v4.21
		c0,2.227,1.141,3.394,1.141,5.622c0,3.72-1.684,5.567-3.042,9.016c-1.494,3.747-2.77,5.676-4.236,9.451
		c-0.842,2.226-2.173,3.367-2.173,5.758c0,0.733,0.787,0.842,1.195,1.412c0.516,0.733,0.244,1.494,0.869,2.173
		c0.435,0.488,0.951,0.379,1.629,0.326c1.928-0.951,2.743-2.281,4.807-2.281h0.842c-0.027,0.218,0,0.353,0,0.57
		c0,0.951-0.408,1.439-0.543,2.363c-0.108,0.733,0.191,1.548-0.435,1.956c-1.249,0.814-3.367,0.516-3.367,2.037v3.747
		c0,1.113-1.656,0.543-2.716,0.841c-0.57,0.163-0.896,0.462-1.303,0.87c-1.304,1.304-0.978,2.824-0.978,4.671
		c0,2.715-0.543,6.626,2.173,6.626c0.95,0,1.629-0.923,1.629-1.874v-4.617c0-0.57,0.625-0.897,1.195-0.897
		c0.652,0,0.679,0.815,1.087,1.304c0.57,0.678,1.304,1.031,1.304,1.955c0,1.195-1.304,1.575-1.304,2.77
		c0,1.711,0.081,3.124,1.412,4.183c0.552,0.441,1.105,0.63,1.699,0.709l4.091-4.091
		C128.086,989.594,128.972,988.669,130.082,988.345z"/>
	<path fill="#009246" d="M368.81,708.32c-1.684,1.141-3.367,2.037-3.367,4.101l0,0v0.896c0.299,0.028,0.434,0.109,0.733,0.109
		c0.814,0,1.168-0.76,1.982-0.76c0.272,0,0.244,0.381,0.435,0.543c0.57,0.489,1.168,0.651,1.956,0.651
		c1.086,0,1.52-1.248,1.52-2.335c0-1.793-0.978-2.744-0.978-4.535v-2.798C369.271,704.192,370.304,707.289,368.81,708.32z"/>
	<path fill="#009246" d="M738.259,264.898c0.57,0,0.869,0.109,1.412,0.326c0.244-0.462,0.542-0.761,0.542-1.304
		c0-1.833-4.712-0.326-5.214-0.326c-0.027,0.353-0.108,0.543-0.108,0.896c0,0.571,0.408,1.06,0.977,1.06
		C736.82,265.55,737.308,264.898,738.259,264.898z"/>
	<polygon fill="#009246" points="750.425,263.812 750.425,263.812 750.425,263.812 	"/>
	<path fill="#009246" d="M42.268,312.369c1.086,6.572,5.974,9.396,11.949,12.383c2.824,1.412,3.964,3.096,6.735,4.562
		c2.716,1.467,5.323,1.087,7.17,3.476c2.552,3.314,2.064,6.41,2.389,10.646c0.218,3.096,1.304,4.725,1.304,7.821
		c0,1.901-1.576,2.878-3.259,3.693c-1.467,0.707-2.065,1.793-3.476,2.607c-2.499,1.467-4.671,2.553-4.997,5.432
		c-0.163,1.467-0.163,2.606-1.086,3.693c-1.738,1.955-4.074,1.467-5.649,3.476c-1.793,2.281-3.042,4.02-3.042,6.952
		c0,3.748,2.607,5.595,2.607,9.342c0,6.03-5.214,8.528-5.214,14.557c0,6.138,0.923,10.157,4.345,15.207
		c1.248,1.902,2.389,2.825,3.693,4.78c3.476,5.214,6.137,7.768,11.298,11.298c2.281,1.521,4.236,1.738,5.866,3.911
		c3.204,1.576,4.236,4.128,7.604,5.214c1.629,0.543,2.77,0.218,4.345,0.869c3.476,1.412,5.378,3.259,9.18,3.259
		c6.137,0,9.668-0.162,15.805-0.218l8.69-1.086c3.259,0.272,5.214,1.032,8.039,2.607c2.77,1.521,5.214,3.096,5.214,6.3
		c0,2.281-1.956,3.042-3.042,4.997c-1.955,3.585-3.693,5.813-3.693,9.94v4.889c0,0.814,0.435,1.304,0.435,2.117
		c0,1.684-1.847,1.956-3.258,2.825c-2.825,1.738-4.508,2.77-7.604,3.911c-2.933,1.086-6.518,1.576-6.518,4.725v6.192
		c0,1.14,1.033,1.575,1.033,2.716c0,2.39-0.002,3.421-0.002,5.811l0.002,0c1.005,0,1.549,0.435,2.553,0.435
		c1.439,0,2.037-1.195,3.476-1.195c0.95,0,1.357,0.76,2.308,0.76c1.25,0,1.874-0.027,3.123,0h1.277c1.385,0,1.983-0.896,3.286-1.304
		c2.308-0.707,3.829-0.272,6.192-0.76c2.307-0.461,3.421-1.847,5.784-1.847c0.489,0,0.787,0.109,1.276,0.109
		c1.14,0,1.14-1.847,2.281-1.847c1.168,0,1.439,1.52,2.607,1.52c0.951,0,1.412-0.651,2.281-0.977
		c2.145-0.815,3.911-0.353,5.649-1.847c1.195-1.032,2.009-1.494,3.476-2.064c1.901-0.733,2.742-2.173,4.78-2.173
		c1.412,0,2.117,0.869,3.53,0.869c1.44,0,2.091-0.978,3.314-1.738c1.14-0.707,2.009-1.005,2.824-2.064
		c0.842-1.087,1.602-1.956,2.987-1.956c0.299,0,0.435,0.217,0.707,0.326l0.869-0.109v-3.449c0-1.277,0.597-1.983,1.412-2.96
		c1.195-1.412,0.95-2.96,2.39-4.019c1.304-0.978,2.498-1.195,3.367-2.607c0.679-1.114,0.869-2.173,2.064-2.716
		c0.597-0.272,1.14,0.271,1.738,0c0.706-0.299,0.761-0.978,1.195-1.629c0.678-1.005,1.52-1.359,1.955-2.499
		c0.896-2.281,0.951-3.693,1.847-5.974c0.625-1.602,1.33-2.988,3.042-3.259c0.869-0.136,1.412,0.271,2.281,0.109
		c0.57-0.109,0.761-0.598,1.195-0.978c0.95-0.815,1.928-0.733,2.933-1.521c1.412-1.086,1.901-2.824,3.721-2.824h3.205
		c1.275,0,1.357-1.521,1.982-2.607c0.489-0.842,1.113-1.114,1.738-1.847c1.304-1.494,2.064-2.689,2.064-4.671
		c0-0.598-0.135-1.168-0.326-1.738c0.951-1.439,0.788-2.634,1.087-4.345c0.244-1.439,1.765-1.494,2.715-2.607
		c0.815-0.951,0.788-2.01,1.847-2.716c1.466-0.977,2.743-0.787,4.345-1.52c3.694-1.738,5.513-3.395,9.234-5.105
		c1.874-0.842,2.661-2.39,4.725-2.39c1.114,0,1.711,0.326,2.825,0.326c1.738,0,2.553-1.033,4.183-1.63
		c3.884-1.439,6.354-1.629,10.482-1.629c2.01,0,3.042,0.733,5.052,0.978c3.123,0.379,4.861,0.625,7.929,1.304
		c3.667,0.814,5.84,0.733,9.234,2.281c1.548,0.706,2.58,0.815,4.128,1.521c0.597,0.271,0.787,0.76,1.304,1.195
		c1.765,1.494,2.742,2.335,4.562,3.694c1.439,1.059,1.439,2.525,2.825,3.693c1.086,0.923,1.656,1.575,2.498,2.716
		c0.597,0.814,1.195,1.357,1.195,2.389c0,1.439-0.978,2.146-0.978,3.585c0,0.76,0.842,0.951,1.521,1.304
		c0.923,0.488,1.412,0.923,2.173,1.629c1.086,1.005,1.547,2.281,3.042,2.281c1.004,0,1.059-1.25,1.412-2.173
		c0.543-1.412,1.032-2.199,1.304-3.693c0.162-0.924,0.353-2.065,1.303-2.065c0.3,0,0.3,0.408,0.543,0.543
		c1.087,0.625,1.738,1.005,2.716,1.738c1.955,1.466,2.716,2.851,4.78,4.128c1.086,0.678,1.901,0.733,3.042,1.303
		c1.466,1.33,1.086,2.906,1.955,4.672c0.543,1.086,1.357,1.547,2.498,1.955c2.934,1.031,3.639,3.585,6.627,4.562
		c1.222,0.408,2.064-0.081,3.259,0.326c1.168,0.408,1.032,1.738,1.412,2.933c0.435,1.304,1.494,1.629,2.716,2.173
		c1.14,0.516,1.956,0.787,2.607,1.847c0.625,1.005,0.76,1.846,1.738,2.498c2.58,1.738,4.264,2.607,6.301,4.997
		c0.543,0.651,0.787,1.276,1.629,1.52c1.955,0.57,3.856-0.055,4.997,1.629c1.14,1.684,1.602,3.15,3.476,3.911
		c1.005,0.408,1.792,0,2.825,0.326c3.014,1.005,3.341,4.889,6.518,4.889c1.357,0,2.117-0.326,3.476-0.326
		c0-1.331,0.299-2.037,0.435-3.368c0.135-1.168-0.191-2.824,0.977-2.824c1.222,0,1.277,1.548,1.629,2.716
		c0.38,1.277,0.951,1.955,1.956,2.824c0.869,0.76,1.33,1.331,2.281,1.956c1.031,0.678,1.385,1.847,2.634,1.847h2.119
		c1.166,0,1.792-0.435,2.96-0.435c2.716,0,4.263,1.656,5.758,3.911c1.521,2.281,4.888,2.334,4.888,5.078v2.118
		c0,1.576,0.57,2.417,1.412,3.775c1.33,2.146,2.226,3.232,3.693,5.214c1.874,2.498,2.065,4.345,3.476,7.17
		c0.326,0.814,0.543,1.357,0.543,2.254v6.762l0.76,6.952v7.739c0,1.521,0.435,2.363,0.435,3.884c0,1.248-0.977,1.792-0.977,3.042
		c0,1.547,1.955,1.901,1.955,3.449v2.77c0,1.358-0.543,2.091-0.543,3.449c0,1.684,1.086,2.499,1.086,4.182
		c0,1.168-0.435,1.793-0.435,2.961v2.661c0,1.005,0.543,1.494,0.76,2.471c0.299,1.357,0.271,2.281,1.087,3.367
		c1.494,2.009,3.476,2.987,3.476,5.513v2.553c0,0.543-0.326,0.842-0.326,1.385c0,1.711,1.847,1.901,3.151,3.042
		c1.575,1.358,2.146,2.553,3.694,3.911c1.683,1.494,1.33,3.286,1.955,5.432c0.271,0.978,0.434,1.683,0.434,2.715
		c1.114,2.255,1.792,3.585,2.064,6.083c0.245,2.227-0.217,4.155,1.521,5.54c1.222,0.978,2.525,0.897,3.367,2.173
		c0.408,0.625,0.136,1.195,0.217,1.955c0.109,1.114,0.244,1.711,0.326,2.824c0.081,1.169,0.651,1.766,0.651,2.934
		c0,2.389-1.168,3.557-1.847,5.866c-0.407,1.412-0.272,2.308-0.272,3.775v6.137c0,1.576,0.381,2.472,0.381,4.046
		c0,3.694-1.738,5.486-3.042,8.962c-1.33,3.558-1.738,5.811-1.738,9.614c0,1.793,0.597,3.965,2.39,3.965
		c1.248,0,2.308,0,3.042-0.978c0.678-0.923,0.896-1.765,1.847-2.39c2.064-1.359,3.802-1.412,6.3-1.412
		c1.357,0,1.765,1.33,2.933,1.955c2.064,1.14,3.558,1.087,5.649,2.173c1.657,0.869,1.983,2.227,3.15,3.694
		c1.031,1.304,2.498,1.901,2.498,3.584c0,0.87-0.733,1.195-1.412,1.739c-0.869,0.678-1.004,1.438-1.738,2.281
		c-1.141,1.304-0.651,2.661-0.651,4.4c0,0.434-0.109,0.815,0,1.249c0.292,0.218,0.53,0.45,0.733,0.695l197.166-197.166
		c-0.028-0.05-0.059-0.094-0.085-0.148c-0.734-1.468-0.951-2.417-1.303-4.02c-1.087-4.943-2.526-7.469-3.259-12.492
		c-0.461-3.15-0.896-4.915-2.173-7.821c-0.651-1.494-1.82-2.146-1.82-3.775v-5.92c0-2.173-0.625-3.341-0.787-5.513
		c-0.109-1.33-0.054-2.091-0.434-3.367c-0.434-1.439-1.846-1.929-1.846-3.449v-2.091l1.737-7.278
		c-0.054-1.005-0.054-2.037-0.977-2.389c-0.76-0.272-1.847-0.218-1.847-1.032c0-1.113,0.652-1.657,0.652-2.77
		c0-0.951-0.191-1.521-0.543-2.39l0.109-0.543c-0.028-1.494-0.109-2.337-0.109-3.829c0-3.015,0.408-4.671,0.76-7.686
		c0.081-0.733-0.027-1.168,0.218-1.847c1.031-2.715,2.715-3.666,4.671-5.866c1.304-1.494,2.58-1.956,4.453-2.607
		c0.788-0.272,1.222-0.76,2.065-0.76c1.602,0,2.199,1.629,3.802,1.629c0.651,0,0.95-0.625,1.195-1.195
		c0.488-1.087,1.031-1.629,1.52-2.716c0.843-1.874,2.499-2.607,2.499-4.671c0-0.652-0.76-0.869-0.76-1.521
		c0-1.086,0.326-1.684,0.651-2.716c0.19-0.625,0.218-1.412,0.869-1.412c2.255,0,1.629,3.394,3.585,4.562
		c1.222-1.222,1.195-2.445,2.281-3.693c0.488-0.57,1.168-0.517,1.846-0.869c0.951-0.49,1.087-1.494,1.087-2.58v-8.093
		c0-2.119,1.304-3.178,1.304-5.296c0-1.412-1.25-1.847-1.956-3.042c-0.461-0.788-0.489-1.386-0.651-2.281
		c-0.408-1.983-1.847-2.607-3.368-3.911c-0.569-0.489-0.434-1.521-1.195-1.521c-0.434,0-0.543,0.517-0.869,0.761
		c-0.842,0.651-1.467,1.005-2.064,1.847c-0.651,0.896-0.978,1.955-2.091,1.955h-2.119c-0.625,0-0.951,0.435-1.575,0.435
		c-0.408,0-0.651-0.081-1.059-0.109v-1.765c0-2.445,1.738-3.613,1.738-6.056c0-1.494-0.625-2.308-1.195-3.693
		c-0.408-1.032-0.461-1.765-0.978-2.716c-0.381-0.707-1.086-1.005-1.086-1.819c0-0.3,0.081-0.489,0.108-0.788
		c-0.217-3.042-0.489-4.562-0.489-7.604c0-1.901-0.163-2.988-0.163-4.889c0-1.956,0.787-3.123,0.163-4.997
		c-1.304,0.76-1.304,1.955-2.118,3.258c-1.222,1.983-1.738,3.341-1.738,5.649c0,1.195,0.435,1.847,0.435,3.042l-0.326-0.435
		c-0.842-1.439-1.576-2.173-2.281-3.693c-0.461-1.033-0.678-1.874-1.629-2.499c-1.439-0.977-2.797-0.108-4.345-0.869
		c0.271-0.651,0.326-1.168,0.76-1.738c0.597-0.76,1.956-0.651,1.956-1.629c0-0.57-0.543-1.032-1.114-1.032h-4.59
		c-0.027-0.57,0-0.923,0-1.493c0-0.869,0.978-1.141,0.978-2.01v-1.33h-1.792c0.19-1.005,1.059-1.304,1.304-2.281
		c0.271-1.087,0.054-1.711,0.217-2.824l0.435-0.109c1.358,0.326,1.222,1.955,2.281,2.824c0.842,0.706,1.711,0.244,2.825,0.326
		c0.733,0.054,1.113,0.271,1.846,0.326c0.082,1.059,0.408,1.656,0.869,2.607l0.435-0.109c0.679-1.684,0.218-2.96,0.869-4.671
		c0.625-1.629,1.956-2.336,1.956-4.102v-2.226c0-3.341,1.819-4.997,2.064-8.337c0.271-3.667,0.76-6.491,3.802-8.582
		c1.059-0.707,1.874-0.923,2.607-1.955c0.434-0.598,0.271-1.195,0.652-1.847c0.516-0.896,1.168-1.168,1.955-1.846
		c0.625-0.517,0.76-1.169,1.521-1.521c3.803-1.765,4.59-6.3,8.799-6.3c2.146,0,1.82,3.802,3.965,3.802
		c1.168,0,1.358-1.304,1.792-2.39c0.353-0.923,1.168-1.168,1.955-1.738c0.326-0.244,0.434-0.76,0.869-0.76
		c1.005,0,1.738,0.951,1.738,1.955c0,0.978-0.326,1.494-0.76,2.39c1.412-0.543,2.471-0.815,3.259-2.064
		c0.597-0.924,0.733-2.173,1.846-2.173c0.162,1.14,0,1.765,0,2.906c0,1.548,0.353,2.471-0.108,3.938
		c-0.327,1.087-1.468,1.304-2.607,1.304c-0.788,0-1.168-0.543-1.956-0.543c-2.01,0-2.661,2.037-4.671,2.281
		c-2.01,0.244-3.503,1.222-4.128,3.15c1.629-0.543,2.661-0.652,4.372-0.652c1.385,0,2.145,0.027,3.531,0.027
		c0.353,0,0.896,0.027,1.222,0.082h5.405c3.557,0,5.322-1.765,8.608-3.15c2.173-0.896,3.639-0.896,5.758-1.955
		c2.96-1.467,4.616-2.308,7.495-3.911c1.929-1.059,3.069-1.765,4.997-2.825c1.031-0.57,1.303-1.846,2.498-1.846
		c0.651,0,1.168-0.028,1.629,0.435c0.38,0.379,0.218,0.95,0.652,1.304c0.896,0.76,1.738,0.868,2.933,0.868
		c1.248,0,2.308,0.028,3.042-0.977c0.815-1.141,1.521-2.173,2.933-2.173c1.385,0,1.222,2.39,2.607,2.39
		c1.059,0,1.439-1.086,2.498-1.086c1.087,0,1.412,1.304,2.499,1.304c0.651,0,0.95-0.49,1.521-0.76
		c1.982-0.978,2.797-2.308,3.693-4.345c0.815-1.847,1.277-2.934,2.608-4.454c0.733-0.842,1.846-1.032,1.846-2.146v-0.896h-1.277
		c-3.014,0-4.616,1.195-7.63,1.195v-3.068c0-1.358,1.656-1.819,3.015-1.819c0.569,0,0.923,0.054,1.493,0.054
		c0.028-0.516,0.054-0.815,0.054-1.331c0-1.195-0.95-1.764-1.955-2.416c0.651-1.576,1.248-2.498,2.716-3.367
		c1.004,0.488,1.547,0.923,2.172,1.846c0.408,0.625,0.543,1.521,1.304,1.521c0.734,0,0.706-0.896,1.195-1.412
		c0.733-0.787,1.574-0.815,2.607-1.195c1.168-0.435,1.303-1.494,1.847-2.607c0.271-0.57,0.705-0.76,0.868-1.412
		c1.14,0.38,1.63,0.978,2.499,1.738c2.39,2.146,4.101,3.911,7.332,3.911c1.658,0,2.418-1.195,4.074-1.195
		c2.417,0,3.259,2.607,5.676,2.607h4.427c0.054,0.379,0.109,0.57,0.109,0.951c0,0.814-1.087,0.95-1.087,1.765
		c0,0.516,0.027,0.787,0.027,1.304c0,0.435,0.164,0.678,0.082,1.086c-0.217,0.869-1.358,0.733-1.738,1.521
		c-0.434,0.869-0.869,1.737-1.847,1.737c-0.461,0-0.733-0.217-1.195-0.217c-0.435,0-0.651,0.217-1.086,0.217l-0.109,0.435
		c0.625,0.787,1.195,1.086,1.955,1.738c0.625,0.543,1.005,1.195,1.847,1.195c1.575,0,2.661-0.461,3.693-1.629
		c1.087-1.25,1.548-2.445,3.151-2.934c1.575-0.461,2.199-1.467,3.476-2.498c1.06-0.842,3.15-0.244,3.15-1.629
		c0-1.82-1.738-2.553-1.738-4.372v-0.516c0.162-0.027,0.244-0.217,0.435-0.217c0.869,0,1.086,1.086,1.955,1.086
		c1.657,0,2.308-1.629,3.965-1.629c1.521,0,2.037,1.575,2.445,3.042c0.298,1.086,1.086,1.412,1.955,2.173
		c1.222,1.059,2.498,0.978,3.693,2.064c0.923,0.842,1.412,1.439,2.39,2.173c1.738,1.304,2.553,2.526,3.367,4.563
		c1.222,2.987,3.124,4.101,4.345,7.06c-0.489,0.244-0.787,0.435-1.33,0.435c-3.178,0-4.943,0.027-8.12,0.027l-0.109,0.625
		c0.917,0.529,1.635,0.739,2.475,1.05c5.431,0.435,8.605,2.426,14.037,2.426c2.336,0,4.563-1.684,4.563-4.019
		c0-4.617-0.761-7.496-3.259-11.406c-1.357-2.118-3.095-2.934-3.476-5.432c-3.422-3.802-5.431-6.409-10.211-8.474
		c-3.694-1.574-7.822-2.715-7.822-6.735c0-3.042,2.064-4.291,3.476-6.952c2.335-4.399,3.693-7.387,3.693-12.383
		c0-2.009-2.227-2.716-4.128-3.259c-3.476-0.977-5.486-1.792-9.125-2.173c-2.173-0.217-4.563-1.086-4.563-3.259
		c0-4.942,4.02-6.735,6.952-10.645c2.444-3.259,3.259-6.029,6.735-8.256c1.466-0.923,3.476-1.087,3.476-2.825
		c0-1.684-2.228-1.792-3.911-1.955c-2.934-0.326-4.454-1.195-7.387-1.521c-2.607-0.326-4.4-0.488-6.301-2.173
		c-1.901-1.683-2.878-3.911-5.486-3.911h-8.582c-2.226,0-2.335-2.878-2.879-4.997c-0.651-2.662-1.086-4.345-1.086-7.115v-4.236
		c0-2.716,3.095-3.259,5.431-4.509c2.716-1.466,4.074-2.824,6.736-4.344c4.997-2.878,8.039-4.345,13.252-6.953
		c3.585-1.792,4.834-4.236,8.474-5.866c2.715-1.195,4.453-1.683,6.952-3.258c1.575-0.978,3.584-0.489,4.345-2.173
		c1.031-2.227,0.923-3.803,1.304-6.301c-5.702-1.412-9.451-0.597-15.208-1.52c-11.46-1.901-17.87-3.476-29.331-5.214
		c-9.667-1.466-15.37-1.195-24.767-4.128c-5.377-1.683-7.767-4.453-13.253-5.431c-8.092-1.466-12.818-2.173-20.639-4.78
		c-6.354-2.118-9.667-4.399-16.294-5.649c-4.616-0.869-7.224-1.901-11.297-4.128c-1.956-1.087-3.204-1.956-4.563-3.694
		c-3.095-7.44-7.821-11.134-7.821-19.227c0-5.758,2.608-8.799,2.608-14.557c0-2.227-1.847-3.531-3.911-4.236
		c-1.575-0.543-3.476-0.869-3.476-2.553v-6.409c0-4.073-1.575-8.853-5.649-8.853c-5.974,0-8.582,3.856-13.905,6.518
		c-6.41,3.204-10.32,4.889-17.381,6.083c-2.226,0.379-3.367,1.52-5.649,1.52c-7.875,0-12.546-1.358-19.77-4.345
		c-2.987-1.195-4.617-3.042-7.876-3.042h-5.757c-7.224,0-11.189-1.52-18.413-1.52c-5.975,0-10.103,0-14.883,3.694
		c-6.735,5.214-8.799,10.102-15.86,14.773c-2.987,1.956-5.16,2.445-8.474,3.694c-2.117,0.815-3.204,1.955-5.486,1.955h-5.54
		c-2.987,0-4.671-0.597-7.658-0.869c-3.368-0.326-5.594-0.054-8.474-1.738c-4.073-2.389-6.192-4.019-10.211-6.518
		c-2.118-1.304-3.368-2.607-5.866-2.607c-2.878,0-4.453,1.521-7.169,2.607c-1.195,3.639-1.956,6.246-1.956,10.048v5.322
		c0,2.988,0.707,6.138-1.955,7.442c-2.553,1.248-4.128,2.606-5.214,5.214c-0.271,0.651-1.087,0.977-1.087,1.737
		c0,3.422,2.228,5.758,5.432,6.952c1.793,0.652,2.77,1.467,4.128,2.825c0.652,0.651,1.738,0.76,1.738,1.738
		c0,2.661-3.476,2.444-6.083,3.042c-1.14,0.217-1.792,0.869-2.986,0.869c-2.988,0-4.617-0.055-7.604-0.055
		c-2.336,0-3.584-0.651-5.921-1.031c0-1.847,0.434-3.911-1.303-4.563c-3.259-1.195-5.323-1.738-8.799-1.738
		c-3.367,0-4.508,3.095-6.409,5.866c-1.195,1.737-2.39,2.281-4.128,3.475c-1.357,0.923-2.987,0.869-3.693,2.39
		c-1.303,2.878-1.738,4.833-1.738,8.038c0,2.173,1.521,3.042,2.824,4.78c0.815,1.087,1.087,2.064,2.173,2.825
		c0.924,0.651,1.956,0.651,2.607,1.52c1.25,1.629,0.652,3.313,0.652,5.432c0,2.661-0.924,4.181-2.173,6.518
		c-0.435,0.814-1.303,1.195-1.303,2.173c0,2.173,1.901,2.878,2.824,4.78c0.652,1.357,0.598,2.39,1.303,3.693
		c0.326,0.597,1.087,0.814,1.087,1.521c0,1.792-1.956,2.064-3.042,3.476c-1.249,1.629-1.575,3.91-3.694,3.91
		c-1.738,0-2.39-1.575-3.259-3.042c-1.031-1.684-2.226-2.227-3.476-3.693c-2.77-3.259-4.617-6.518-8.908-6.518
		c-0.271-2.01-0.217-3.205-0.434-5.214c-0.217-2.119-1.901-2.824-3.476-4.128c-2.335-1.955-4.073-3.475-7.169-3.475
		c-3.204,0-4.889,1.52-8.093,1.52c-0.489,0-0.76-0.163-1.249-0.217c-5.16,2.552-7.93,4.236-12.167,8.038h-4.725
		c-3.205,0-5.486-0.272-7.876-2.39c-1.195-1.032-0.978-2.39-1.956-3.694c-0.977-1.304-2.173-1.629-3.042-3.042
		c-1.52-2.498-1.304-4.562-1.304-7.55v-7.496c0-2.552-0.597-4.019-1.303-6.463c-0.38-1.412-0.815-2.716-2.173-3.259
		c-4.997-2.173-8.256-2.281-13.253-4.344c-0.109,0.651-0.379,1.086-0.379,1.792v13.361c0,4.997-2.01,7.604-3.314,12.439
		c-1.683,6.246-2.389,10.428-6.952,14.991c-4.454,4.454-7.279,6.898-12.601,10.211c-3.422,2.118-4.889,4.073-7.604,6.952
		c-1.304,1.412-3.259,1.956-3.259,3.911c0,1.466-1.365,9.718-1.932,11.513l-0.023,12.332c0,3.476,0,8.31-3.476,8.31
		c-2.227,0-3.477-0.543-5.649-1.086c-1.9-0.435-3.584-0.218-4.78-1.738c-1.412-1.792-1.683-3.259-2.824-5.215
		c-1.14-1.955-2.117-2.933-3.042-4.997c-0.869-1.901-0.651-3.639-2.173-4.997c-2.173-1.956-4.345-3.313-4.345-6.301
		c0-1.683,1.195-2.444,1.956-3.911c1.412-2.607,1.955-4.399,1.955-7.387c0-1.14-0.923-1.683-2.224-2.469
		c-3.528-2.741-18.415-3.56-20.588-7.09c-1.521-2.498-0.435-4.725-1.521-7.386c-1.738-4.237-3.042-6.953-6.518-9.994
		c-2.443-2.119-5.431-3.15-5.431-6.41c0-3.367,1.52-5.16,1.52-8.527v-4.237c0-3.53,2.173-5.322,2.173-8.853
		c0-0.38-0.38-0.543-0.435-0.869h-4.073c-3.042,0-4.671,0.869-7.658,1.521c-2.39,0.488-4.182,0.706-5.866,2.39
		c-2.498,2.499-2.552,5.105-5.214,7.387c-2.661,2.281-4.889,2.553-8.038,4.128c-3.15,1.574-4.563,4.128-8.093,4.128h-1.684
		c-1.086,0.162-2.173,0.162-3.259,0.109c-0.109,0.978-0.218,1.466-0.218,2.444c0,2.77,2.01,4.02,3.694,6.138
		c2.01,2.498,2.824,4.671,2.824,7.93c0,3.747-2.117,5.757-4.562,8.582c-3.585,4.128-5.214,7.387-10.212,9.559
		c-4.725,2.064-6.844,4.454-10.428,8.038c-2.716,2.716-3.531,6.518-7.387,6.518c-4.942,0-7.604-1.792-12.167-3.693
		c-1.466-0.597-2.553-0.652-3.911-1.521c-3.042-2.009-4.78-4.345-8.474-4.345c-4.508,0-6.463,3.042-10.862,4.128
		c-2.716,0.651-4.454,0.435-7.17,0.869c-0.815,0.108-1.14,0.869-2.009,0.869h-15.968c-5.269,0-8.147,1.52-13.416,1.52
		c-6.083,0-9.614-2.498-14.448-6.083c-0.163,2.445-1.738,4.997-4.183,4.997h-4.236c-3.585,0-5.594,1.412-8.744,3.042
		c-1.956,1.032-3.367,0.978-5.214,2.173c-2.173,1.412-1.629,3.91-2.173,6.518c-0.381,2.01-1.087,3.15-1.087,5.214
		c0,1.359,1.087,1.847,1.956,2.825c1.955,2.227,3.856,2.716,6.3,4.345c2.173,1.412,2.335,3.367,3.911,5.431
		c1.901,2.499,3.911,3.966,3.911,7.116v5.322c0,1.792-0.651,2.825-0.651,4.617c0,2.879-0.49,4.889,1.086,7.278
		c1.086,1.684,2.77,1.738,4.345,3.042c3.53,2.988,5.758,4.508,9.125,7.604c3.585,3.314,8.256,4.617,8.256,9.506v1.792
		c-6.463,1.576-8.474,7.821-8.474,14.286v6.3c-5.16,0-8.038,0.054-13.199,0.054c-3.367,0-4.725,2.336-7.875,3.476
		c-2.445,0.869-4.019,0.977-6.518,1.738c-4.183,1.304-6.463,2.987-10.863,3.693H53.62c-0.76,0-1.087-0.651-1.847-0.651H46.45
		c-6.083,0-10.482,5.431-10.482,11.514c0,2.77,2.173,3.911,3.476,6.3C41.561,305.037,41.561,307.915,42.268,312.369z"/>
	<path fill="#009246" d="M742.93,262.317c-0.028,0.381-0.108,0.599-0.108,0.978c0,0.924,0.651,1.82,1.575,1.82
		c1.303,0,2.172-0.218,3.205-0.978c-0.599-1.14-1.494-1.847-2.798-1.847v0C744.07,262.291,743.662,262.373,742.93,262.317z"/>
	<path fill="#009246" d="M750.968,265.332c0.978,0.651,1.412,1.304,2.499,1.738c0.326-0.597,0.543-1.031,0.543-1.738
		c0-1.608-2.613-1.456-3.584-1.52c-0.082,0.244-0.218,0.38-0.218,0.651C750.208,264.898,750.615,265.115,750.968,265.332z"/>
	<path fill="#009246" d="M647.77,297.921c-1.358,1.982-2.39,3.367-2.39,5.812c0,0.597,0.163,1.357,0.761,1.357
		c1.14,0,1.195-1.385,1.847-2.281c1.385-1.874,1.683-3.313,2.933-5.323c0.869-1.412,1.277-2.39,2.498-3.476
		c1.168-1.031,2.39-1.629,2.498-3.204c-0.488-0.109-1.113-0.245-1.629-0.163C651.246,292.925,649.943,294.798,647.77,297.921z"/>
	<path fill="#009246" d="M642.447,308.458c-0.896,2.119-1.847,3.314-1.847,5.622v6.11c1.521-1.086,0.978-2.716,1.63-4.454
		c0.244-0.678,0.408-1.14,0.543-1.846c0.135-0.733,0.707-1.06,0.977-1.738c0.625-1.521,0.978-2.471,0.978-4.128
		c0-0.625-0.353-1.304-0.978-1.304C642.908,306.72,642.747,307.698,642.447,308.458z"/>
	<path fill="#FFFFFF" d="M299.83,963.247v1.222c1.031-0.163,1.602,0.109,2.634,0.109c1.06,0,2.146-0.57,2.146-1.629
		c0-0.517-0.787-0.815-1.195-1.086C301.921,961.862,299.83,961.753,299.83,963.247z"/>
	<path fill="#FFFFFF" d="M268.328,901.029c-0.787,0.244-1.738,0.461-1.738,1.304c0,1.086,0.625,1.602,0.978,2.607
		c0.244,0.707,0.543,1.521,1.304,1.521c1.602,0,2.064-1.739,2.498-3.259c0.19-0.651,0.543-1.032,0.543-1.738
		c0-0.707-0.597-1.33-1.304-1.304C269.658,900.187,269.224,900.73,268.328,901.029z"/>
	<path fill="#FFFFFF" d="M273.433,911.783c0,1.114,0.733,2.173,1.847,2.173c1.357,0,2.716-0.815,2.716-2.173
		c0-1.52-0.869-2.281-0.978-3.802l0.543-3.911c-0.082-0.978-0.435-2.064-1.412-2.064c-1.684,0-1.412,2.416-1.412,4.101v2.335
		C274.737,909.828,273.433,910.398,273.433,911.783z"/>
	<path fill="#FFFFFF" d="M452.02,752.207c0.76,1.847,1.276,3.911,3.259,3.911c1.087,0,2.064-0.815,2.064-1.901
		c0-1.277-1.955-1.386-1.955-2.662c0-0.625,0.924-0.379,1.412-0.76c0.815-0.651,1.086-1.439,1.086-2.498
		c0-1.412-1.657-1.466-2.716-2.39c-1.113-0.978-1.005-2.2-1.195-3.694v0c-0.326-0.055-0.57-0.136-0.869-0.217
		c-0.57,1.004-0.788,1.711-1.304,2.715c-0.598,1.114-1.956,1.33-1.956,2.607c0,0.951,0.869,1.25,1.087,2.173
		C451.205,750.604,451.586,751.148,452.02,752.207z"/>
	<path fill="#FFFFFF" d="M305.588,956.403v-1.602c-1.928-0.136-2.825,1.031-4.563,1.846c-1.574,0.733-2.797,0.978-3.802,2.39v0.543
		l1.847,0.435c1.168-0.869,2.064-1.06,3.476-1.412C303.959,958.25,305.588,957.869,305.588,956.403z"/>
	<path fill="#FFFFFF" d="M102.342,1211.166h0.733c0.678,0,0.977-0.651,1.656-0.651c0.651,0,0.842,0.625,1.304,1.086
		c0.598,0.598,1.168,0.76,2.01,0.76c1.602,0,2.009-2.009,2.009-3.611v-2.988c0-1.249,0.326-1.983,0.326-3.231
		c0-1.385,0.543-2.471-0.326-3.531c-0.597-0.733-1.521-0.135-2.498-0.108c-0.978,0.027-1.521-0.326-2.499-0.326v0
		c-0.815,0-0.896,0.924-1.52,1.412c-1.114,0.869-2.065,1.657-2.065,3.096c0,1.114,0.543,1.657,0.652,2.77
		C102.342,1207.907,102.342,1209.102,102.342,1211.166z"/>
	<path fill="#FFFFFF" d="M627.891,1399.53c-0.408-0.869-0.299-1.548-0.76-2.39c-0.842-1.547-1.982-2.199-3.694-2.607
		c-0.76-0.19-0.842-0.869-1.629-0.869c-0.434,0-0.869,0.218-0.869,0.652c0,1.847,1.304,2.716,1.304,4.562
		c0,1.14-0.461,1.901-1.304,2.607c-0.49,0.408-0.434,1.032-0.869,1.521c-1.33,1.494-2.498,1.928-4.02,3.258
		c-1.547,1.331-2.416,2.2-4.128,3.368c-1.412,0.95-2.119,2.117-3.829,2.117h-3.34c-0.951,0.652-0.924,1.549-1.412,2.554
		c-0.707,1.439-1.684,1.901-2.825,3.042c-0.787,0.787-1.059,1.847-2.173,1.847c-0.489,0-0.707-0.435-1.195-0.435
		c-0.842,0-1.412,0.787-1.412,1.629c0,0.678,0.869,0.842,0.869,1.521c0,2.064-1.765,2.716-3.15,4.236
		c-1.412,1.548-2.173,2.58-3.477,4.237c-0.489,0.625-1.195,0.923-1.195,1.738c0,0.461,0.462,0.57,0.652,0.977
		c0.748,1.448,1.581,2.308,1.711,3.809l36.966-36.966C628.04,1399.803,627.959,1399.676,627.891,1399.53z"/>
	<path fill="#FFFFFF" d="M131.454,988.258h2.281c0.027,0.271,0.109,0.408,0.109,0.679c0,2.689-1.521,4.074-1.521,6.762
		c0,1.222,0.408,1.874,0.543,3.096c0.271,2.525,0.461,4.59,2.825,5.758c0.814,0.543,1.602,0.814,1.846,1.738
		c0.326,1.168-0.027,1.928,0.109,3.15c0.082,0.897,0.543,1.358,0.543,2.255v2.444c0,0.869,0.326,1.358,0.326,2.227v2.335
		c0,1.929-1.222,2.77-1.956,4.536c-1.358,3.258-1.494,5.349-2.064,8.907l0.109,0.435c1.521-0.381,1.82-1.792,3.258-2.39
		c0.842,1.14,0.408,3.259,1.847,3.259c0.76,0,0.76-1.195,1.521-1.195c1.086,0,1.059,1.439,1.304,2.498
		c0.326,1.357,0.543,2.173,0.543,3.585c0,1.222-1.195,1.711-1.195,2.933c0,1.195,0.978,1.629,1.412,2.716l-0.109,0.434
		c-1.874,0.271-3.367,1.603-3.367,3.477c0,1.113,0.543,1.711,0.543,2.824c0,1.52-1.304,2.146-1.304,3.667v2.661
		c0,1.358,0.869,1.928,1.304,3.232c0.597,1.82,0.379,2.986,0.977,4.78c0.435,1.304,0.869,2.064,0.869,3.449v1.982
		c-1.494,0.163-2.498,0.218-3.693,1.087c-1.114,0.814-1.114,1.901-1.738,3.15c-0.49-0.761-1.086-1.06-1.52-1.847
		c-0.353-0.652-0.652-1.412-1.412-1.412c-1.63,0-1.874,2.01-3.476,2.39c-0.652,0.162-1.059,0-1.738,0
		c-0.027,0.435-0.109,0.651-0.109,1.086c0,0.842,0.896,1.005,1.521,1.52c1.33,1.14,2.933,1.711,2.933,3.476l-0.435-0.108
		c-0.109,1.357-1.847,1.575-1.847,2.933c0,1.195,0.435,1.82,0.435,3.015v2.77c0,0.869-0.326,1.33-0.326,2.199
		c0,1.955,1.683,2.635,2.824,4.183c0.896,1.195,0.842,2.173,1.304,3.585c1.33-0.543,2.716-1.141,2.716-2.607
		c0-1.548-1.087-2.281-1.087-3.829v-0.842c0.951,0.218,1.412,0.761,2.39,0.761c0.516,0,0.951,0.244,1.304-0.109
		c0.706-0.707,0.543-1.548,0.543-2.554c0-1.275-1.087-1.819-1.087-3.095c0-0.76,1.113-0.598,1.847-0.76
		c0.842-0.191,1.087-0.896,1.521-1.63c0.869-1.412,0.625-3.177,2.281-3.584h0.597c0.354,1.466,0,2.308,0,3.775
		c0,0.869,0.49,1.33,0.49,2.199c0,2.335-2.825,2.987-2.825,5.323c0,1.385,0.706,2.091,0.869,3.475
		c0.136,1.331,0.299,2.091,0.652,3.368c0.19,0.679,0.651,1.005,0.651,1.711v2.443c0,1.684-0.651,2.553-0.978,4.21
		c-0.435,2.146-0.299,3.531-1.195,5.541c-0.326,0.733-0.869,1.14-0.869,1.955c0,1.738,2.281,1.956,4.02,1.956
		c0,0.217,0.109,0.326,0.109,0.543c0,1.792-2.906,0.652-4.128,1.956c-0.408,0.434-0.108,0.923-0.108,1.52
		c0,0.3-0.218,0.461-0.218,0.761c0,0.461,0.652,0.407,1.087,0.543c1.14,0.38,1.819,0.978,2.39,2.065
		c0.625,1.195,0.978,2.009,0.978,3.367c0,0.625-0.353,1.304-0.978,1.304c-1.955,0-3.015-0.923-4.563-2.064
		c-0.516-0.381-0.516-1.005-1.086-1.303c-0.815-0.435-1.602-0.164-2.173-0.869c-0.598-0.761-0.543-1.521-0.543-2.526v-2.553
		c0-1.63-0.543-2.608-1.629-3.829c-0.217,0.162-0.49,0.326-0.49,0.625v8.418c0,1.793-0.596,2.798-1.574,4.318
		c-0.598,0.951-1.738,1.25-1.738,2.39c0,3.151,0.353,4.888,0.869,8.038c0.19,1.195,0.869,1.738,0.869,2.934
		c0,1.602-1.738,1.819-2.716,3.041c-0.842,1.033-0.707,2.119-1.195,3.368c0,0.489,0.162,0.787,0.162,1.276v2.227
		c0,1.195-0.95,1.629-1.792,2.472c-1.06,1.059-1.494,1.928-2.499,3.042c-1.113,1.25-2.607,1.792-2.607,3.476
		c0,1.005,0.842,1.358,1.195,2.281c0.571,1.521,1.087,2.39,1.087,4.02c0,2.852-4.78,2.689-4.78,5.54
		c0,5.161,5.758,6.735,5.758,11.895c0,1.956-1.359,2.905-2.825,4.182c-1.032,0.896-1.385,1.629-2.498,2.39
		c-1.412,0.978-3.042,1.576-3.042,3.313c0,1.059,0.435,1.657,0.76,2.662c0.517,1.547,0.163,2.525,0.543,4.128
		c0.19,0.788,0.652,1.169,0.869,1.956c0.543,1.846,0.951,2.824,1.412,4.671c0.352,1.494-0.027,3.694,1.52,3.694
		c1.657,0,2.255-1.739,3.911-1.739c0.597,0,0.869,0.679,0.869,1.277v2.118c0,0.842-0.76,1.195-0.76,2.037
		c0,1.412,1.82,1.277,2.825,2.281c0.651,0.651,0.705,1.358,0.977,2.281c0.271,0.924,0.488,1.494,0.869,2.39
		c0.38,0.896,0.435,2.064,1.412,2.064c1.14,0,1.031-1.955,2.173-1.955c0.978,0,1.304,1.195,1.304,2.172l-0.109,0.543
		c0.733,0.734,1.521,1.141,1.521,2.173c0,0.543-0.842,0.299-1.304,0.543c-0.299,0.163-0.381,0.49-0.652,0.651
		c-0.408,0.273-1.086,0.245-1.086,0.761c0,0.951,0.923,1.276,1.195,2.173c0.597,1.928,0.978,3.068,0.978,5.079v2.308
		c0.162,0.027,0.244,0.217,0.435,0.217c1.222,0,1.412-1.466,2.607-1.738c0.19,0.435,0.326,0.707,0.326,1.196
		c0,3.205-1.304,4.915-2.825,7.713c-0.598,1.113-0.787,1.901-1.52,2.933c0.19,0.027,0.245,0.217,0.435,0.217
		c0.625,0,0.896-0.435,1.521-0.435c1.031,0,1.873-0.027,2.606,0.652c0.625,0.57,0.462,1.33,0.652,2.173
		c0.271,1.086,0.543,1.684,0.543,2.797v2.118c0,0.707,0.706,1.168,1.412,1.168c0.977,0,0.923-1.303,1.086-2.281
		c0.271-1.738,0.054-2.797,0.543-4.454c0.408-1.385,1.711-1.521,2.824-2.39c1.005-0.788,1.114-2.281,2.39-2.281
		c0.271,0,0.379,0.326,0.651,0.326c2.281,0,3.042-2.498,5.323-2.498c1.14,0,1.248,1.385,1.738,2.39
		c0.733,1.467,1.846,1.846,3.042,2.933c0.814,0.733,1.385,1.412,2.498,1.412c1.277,0,1.602-1.63,2.878-1.63
		c2.688,0,3.15,2.879,5.486,4.237c1.222-1.63,2.009-3.368,4.073-3.368c0.788,0,1.222,0.435,2.01,0.435
		c0.76,0,0.95-0.814,1.195-1.521c0.516-1.494,0.923-2.987,2.498-3.259c2.716-0.461,2.716-3.693,5.377-4.562l2.119,0.326h1.248
		v-1.711c0-0.841-0.597-1.248-0.597-2.091c0-1.005,0.597-1.494,1.195-2.281c0.652-0.869,0.897-1.575,1.63-2.389
		c1.031-1.168,1.955-2.037,1.955-3.639c0-2.037-2.607-2.527-2.607-4.563c0-1.168,0.76-1.766,0.76-2.933
		c0-1.603-1.738-2.146-1.738-3.748c0-0.625,0.109-0.842,0.326-1.412c1.438-1.031,1.629-2.416,3.042-3.476
		c1.873-1.385,4.128-2.091,4.128-4.453c0-0.896-0.081-2.064-0.978-2.064c-1.222,0-1.467,1.276-2.39,2.064
		c-2.829,2.425-3.911,5.959-3.911,2.688v-2.553c0-1.548,0.435-2.39,0.435-3.938c1.222,0,2.825-0.19,2.825-1.412
		c0-2.852-1.847-4.073-2.825-6.735c-0.299-0.814-1.52-0.787-1.52-1.656v-0.842h0.977c3.042,2.526,4.644,4.046,7.496,6.735
		c0.651,0.599,1.439,0.218,2.281,0.543c0.651,0.272,0.733,0.896,1.086,1.521c1.114,1.928,1.466,3.258,2.716,5.105
		c1.304,1.928,2.363,3.694,4.698,3.694h0.517c0.081-0.3,0.217-0.543,0.217-0.869c0-1.901-1.955-2.553-1.955-4.454
		c0-0.191,0.19-0.271,0.217-0.434c1.929,0.543,3.096,0.869,5.106,0.869c1.385,0,2.145-0.218,3.53-0.218
		c5.187,0,9.505,1.222,12.004,5.758c1.466,2.661,3.639,3.232,5.431,5.649c0.733,0.978,1.386,1.467,2.064,2.498
		c0.706,1.06,1.168,2.037,2.444,2.173l2.01-0.326h3.422v-2.281h0.57c0.95,0,0.978,1.222,1.657,1.847
		c1.113,1.032,2.498,1.521,2.498,3.069v1.955c0,0.87,0.353,1.332,0.652,2.146c0.353,0.951,0.488,2.173,1.52,2.173
		c0.815,0,0.978-1.059,0.978-1.873v-2.281c0-3.938,6.409-3.857,6.409-7.795c0-1.684-1.195-2.498-1.195-4.182
		c0-0.95,0.814-1.303,1.412-2.01c1.113-1.277,1.955-2.146,1.955-3.829v-2.01c0-1.33-0.055-2.145,0.435-3.394
		c0.706,0.108,1.086,0.326,1.792,0.326c2.418,0,3.097-2.934,3.097-5.35c0-1.304-0.055-2.064-0.027-3.367
		c-0.924-0.082-1.468,0.027-2.39,0.027c-1.549,0-3.232-0.733-3.232-2.281c0-1.113,0.95-1.847,2.064-1.955
		c1.114-0.109,2.009,0.054,2.824-0.652c0.734-0.651,0.869-1.248,1.412-2.064c0.815-1.222,1.412-2.037,1.412-3.503v-2.879
		c0-1.114,1.656-0.923,2.173-1.874c0.815-1.494,1.087-2.58,1.087-4.29c0-1.711,0.027-2.771-0.435-4.4
		c-0.38-1.303-0.977-2.037-0.977-3.421c0-2.255,1.032-3.422,2.824-4.835c0.543-1.005,1.358-1.521,1.358-2.688v-5.92
		c0-3.124,1.575-4.726,1.575-7.848c0-2.797-1.086-4.318-1.086-7.116c0-0.815,0.162-1.847,0.978-1.847
		c0.597,0,0.978,0.272,1.412,0.651h1.63c0.162-1.521,0-2.363,0-3.883c0-3.204,0.299-5.133,1.52-8.066l0,0
		c0.353-1.059,0.896-1.874,1.629-2.716c0.707-0.815,1.602-1.195,1.602-2.281c0-1.277,0.028-1.983,0.028-3.259
		c0-2.879-1.195-4.4-1.195-7.278c0-1.33,0.652-2.064,1.521-3.042c0.815-0.923,0.787-1.847,1.52-2.824
		c0.408-0.57,1.195-0.679,1.195-1.412c0-1.468-1.792-1.956-3.259-1.956v-1.33c0-0.353,0.218-0.571,0.218-0.923v-5.051
		c0-3.694,5.648-3.884,5.648-7.577c0-2.417-0.543-3.802-1.629-5.975h-2.688c-1.901,0-2.471-2.01-3.068-3.802
		c-0.652-1.982-2.065-2.879-2.065-4.97v-8.093c0-1.901,0.054-2.988-0.217-4.861c-0.082-0.679-0.652-1.005-0.652-1.711v-2.444
		c0-3.613,2.308-5.351,4.997-7.795c3.259-2.445,3.585-5.757,7.278-7.495c0.679-0.299,1.087-0.57,1.847-0.652
		c1.004-0.109,2.01,0.218,2.498-0.651c0.978-1.711,1.032-2.933,1.629-4.78c0.299-0.951-0.299-1.874,0.326-2.607
		c0.543-0.625,1.439,0.163,2.173-0.218c0.651-0.326,0.569-1.032,0.76-1.738c0.299-1.059,1.385-1.222,1.738-2.281
		c0.733-2.2,0.598-3.748,1.955-5.649c0.76-1.086,2.281-1.249,2.281-2.606c0-2.01-2.498-2.064-4.454-2.607
		c-0.978-0.272-0.95-1.304-1.195-2.281c-0.353-1.439-0.326-2.308-0.326-3.802c0-1.983,0.272-3.124,0.435-5.106
		c-1.06-0.244-1.168-1.412-1.304-2.498c-0.136-1.113-0.489-1.738-0.652-2.824c-0.379-2.472-0.76-3.911-0.76-6.41
		c0-1.873,1.358-2.77,1.358-4.643v-1.548h-0.897c-0.896,0-1.33,0.651-2.226,0.651c-0.517,0-0.815-0.054-1.33-0.054
		c0-0.869-0.055-1.384-0.055-2.254c0-1.14,0.869-1.657,0.869-2.797c0-3.285-4.453-3.883-4.453-7.169
		c0-1.439,0.217-2.255,0.326-3.694v-0.57c0-3.475,6.3-1.657,7.387-4.97c-1.657-0.95-2.689-1.385-4.236-2.498
		c-0.951-0.679-1.032-1.576-1.739-2.498c-0.868-1.113-2.172-0.598-3.584-0.707v-1.167c0-1.711,0.651-2.607,1.195-4.21
		c0.272-0.842,1.412-0.951,1.412-1.847c0-0.815-0.38-1.738-1.195-1.738c-1.277,0-1.874,0.815-3.042,1.304
		c-0.517,0.218-1.005,0.19-1.412,0.543c-0.597,0.516-1.032,0.977-1.847,0.977c-2.199,0-3.449-0.489-5.54-1.086
		c-1.195-0.326-2.824-0.272-2.824-1.521c0-1.576,1.955-1.955,3.53-1.955c1.032,0,1.63,0.245,2.662,0.054
		c0.218-1.683,1.087-2.444,2.281-3.639c1.032-1.032,1.629-1.711,2.933-2.389c1.52-0.788,2.336-1.629,4.02-1.847
		c1.602-0.217,4.019,0.38,4.019-1.249c0-0.923-1.14-1.304-2.065-1.249c-1.222,0.082-2.037-0.299-2.933-1.086
		c-0.352-0.3-0.38-0.87-0.869-0.87c-1.386,0-1.711,1.847-3.095,1.847c-1.304,0-2.988-0.217-2.988-1.52
		c0-0.951,0.76-1.359,0.76-2.308c0-0.408-0.081-0.652-0.108-1.059h-0.842c-2.009,0-2.743,1.602-4.264,2.933
		c-0.923,0.787-1.168,2.064-2.39,2.064c-0.625,0-0.76-0.733-0.978-1.304c-0.19-0.49-0.76-0.652-0.76-1.195
		c0-2.228,1.656-2.988,2.498-5.106l-0.217-0.869c0.352-0.733,0.678-1.412,1.466-1.412c0.733,0,1.059,0.543,1.793,0.543
		c0.598,0,0.924-0.028,1.521,0v-0.897c0-3.367-0.353-5.295-1.304-8.555c-1.983-6.781-1.272-2.39-6.029-2.39
		c-0.651,0-1.031-0.218-1.684-0.218c-0.434,0-0.434,0.57-0.543,0.978c-0.272,0.923-0.244,1.521-0.326,2.498
		c-0.082,1.06-0.897,1.439-1.521,2.281c-0.299,0.408-0.352,0.978-0.869,0.978c-1.086,0-1.684-1.141-1.684-2.228
		c0-0.787,0.055-1.221,0.055-2.009c0-1.602-1.63-2.2-1.63-3.803c0-1.982,2.118-2.227,3.694-3.476l-0.109-0.435
		c-1.547-0.76-2.797-0.353-4.236-1.304c-1.602-1.059-1.548-3.476-3.476-3.476c-1.439,0-2.824,0.625-3.042,2.065h-0.95
		c-0.571,0-0.761-0.435-1.222-0.761c-1.358-0.977-2.091-1.873-2.607-3.475c-1.576,0.379-1.629,1.955-2.389,3.475
		c-0.815-0.733-1.195-1.467-1.195-2.58v-3.639c0-1.875-0.841-2.825-1.195-4.644c-0.244-1.195-0.217-1.956-0.76-3.042
		c-0.598,0.245-0.923,0.543-1.521,0.761c-0.244,0.978-0.651,1.14-1.195,1.955c-0.516,0.761-1.032,1.357-1.955,1.412
		c-0.49-0.869-0.461-1.765-1.304-2.281c-1.33-0.815-2.445-0.543-4.019-0.543c-1.738,0-4.236-0.435-4.236,1.304
		c0,1.222,0.787,2.199,1.955,2.498c1.14,0.299,2.607,0.488,2.607,1.683c0,1.087-0.543,1.684-0.543,2.77
		c0,1.06,1.032,1.304,1.63,2.173c0.488,0.706,0.435,1.304,0.435,2.173c0,1.929-1.765,3.124-3.694,3.259
		c-2.227,0.162-2.254,3.585-4.481,3.585h-2.118c-0.652,0-1.005,0.217-1.657,0.217c-1.819,0-2.525-1.847-4.345-1.847
		c-0.95,0-1.358,0.679-2.064,1.304c-1.222,1.087-2.01,1.684-3.15,2.825c-1.846,1.847-3.394,2.389-4.997,4.453
		c-1.304,1.684-1.82,2.934-3.476,4.237c-1.059,0.842-2.01,0.733-3.367,0.869c-1.439,0.135-2.064,1.031-3.259,1.847
		c-1.168,0.787-1.847,1.574-2.172,2.933c-0.218,0.869,0.353,1.602-0.218,2.281c-0.679,0.815-1.548,0.625-2.498,1.087
		c-1.06,0.517-1.629,1.195-2.065,2.281c-0.435,1.06-0.489,1.929-1.412,2.608c-1.439,1.059-2.743,0.896-4.563,1.086
		c-1.195,0.136-1.846,0.57-3.042,0.651c-0.435-0.054-0.651-0.217-1.086-0.217c-0.76,0-1.087,0.76-1.847,0.76
		c-0.381,0-0.272-0.543-0.435-0.869c-0.435-0.869-1.087-1.412-2.064-1.412c-0.76,0-0.896,0.869-1.521,1.303
		c-1.086,0.761-1.792,1.113-3.042,1.521c-1.873,0.625-3.177,0.57-4.78,1.738c-1.304,0.951-1.792,1.901-2.933,3.042
		c-0.861,0.86-1.771,0.855-2.814,1.311l-1.389,1.389c-0.103,0.13-0.217,0.256-0.36,0.369c-0.003,0-0.006,0-0.009,0l-36.234,36.234
		C130.513,988.22,130.975,988.181,131.454,988.258z"/>
	<path fill="#FFFFFF" d="M123.416,1228.221c0.652-0.597,0.435-1.439,0.76-2.281c0.353-0.869,0.869-1.248,1.087-2.173h2.824
		c0.272-0.271,0.651-0.379,0.651-0.76c0-1.874-3.15-1.087-3.91-2.825c-0.299-0.733-0.271-1.304-0.76-1.955
		c-0.706-0.951-2.2-0.869-2.281-2.064c-0.054-0.923,0.38-2.39-0.543-2.281c-1.14,0.136-1.14,1.521-2.173,1.956
		c-1.087,0.461-1.765-1.06-2.173-2.173c-0.218-0.625-0.19-1.52-0.869-1.52l0,0c-0.517,0-0.625,0.543-0.869,0.978
		c-0.516,0.95-0.869,1.602-0.869,2.716c0,0.868,0.326,1.385,0.326,2.254v2.444c0,0.95-0.543,1.467-0.543,2.418
		c0,0.597,0.516,0.814,0.87,1.248c1.086,1.303,1.684,2.363,1.684,4.101v6.789c0,1.303-0.163,3.124,1.14,3.124
		c1.277,0,1.576-1.222,2.607-1.956c0.679-0.461,0.924-0.977,1.52-1.52c0.381-0.326,0.978-0.461,0.978-1.005v-2.336
		c0-0.95-0.435-1.466-0.435-2.417C122.438,1228.493,123.063,1228.547,123.416,1228.221z"/>
	<path fill="#FFFFFF" d="M125.48,994.884c1.629,0,1.711-2.119,2.064-3.693c0.035-0.155,0.09-0.301,0.142-0.449l-4.091,4.091
		C124.17,994.91,124.785,994.884,125.48,994.884z"/>
	<path fill="#FFFFFF" d="M812.126,1051.046l-0.218,0.435c0.652,0.517,1.114,0.924,1.303,1.738c0.163,0.652-0.027,1.63,0.651,1.63
		c0.68,0,0.897-0.652,1.521-0.869c0.707-0.271,1.223,0.054,1.957-0.109c1.005-0.218,1.521-1.14,1.521-2.173
		c0-1.005-1.331-1.195-2.336-1.195v0C814.788,1050.503,813.864,1050.91,812.126,1051.046z"/>
	<path fill="#FFFFFF" d="M685.247,977.396c0-0.435-0.461-0.571-0.869-0.652c-1.086-0.272-2.498,0.299-2.498,1.412
		c0,0.787,0.842,1.195,1.63,1.195C684.514,979.351,685.247,978.4,685.247,977.396z"/>
	<path fill="#FFFFFF" d="M724.789,1014.004c1.33-0.733,1.847-1.901,1.847-3.422c0-0.868-0.76-1.576-1.629-1.576l0,0
		c-0.869,0-0.978,0.978-1.521,1.63c-0.679,0.815-1.412,1.304-1.412,2.389c0,0.869,0.271,1.956,1.14,1.956
		C723.946,1014.982,724.164,1014.33,724.789,1014.004z"/>
	<path fill="#FFFFFF" d="M672.212,1322.946c0,0.842,1.331,0.245,2.173,0.326c0.815,0.082,1.141,0.869,1.955,0.869
		c0.76,0,1.032-0.842,1.303-1.52c-0.95-0.38-1.466-0.978-2.498-0.978C673.895,1321.642,672.212,1321.697,672.212,1322.946z"/>
	<path fill="#FFFFFF" d="M775.762,1019.218c-1.466,0-1.711-2.064-3.177-2.064c-0.625,0-0.679,0.788-0.978,1.304
		c-0.461,0.815-0.978,1.304-1.847,1.629c-1.277,0.461-2.39,1.141-2.39,2.498c0,1.412,1.195,1.901,2.281,2.824
		c1.113,0.951,1.603,2.173,3.041,2.173c1.494,0,2.037-1.521,3.531-1.521c0.38,0,0.571,0.272,0.95,0.272h2.662
		c1.738,0,3.285-1.304,3.285-3.042c0-1.358-0.326-2.064-0.543-3.422c-1.031-0.081-1.683,0.027-2.606-0.435
		c-0.461-0.217-1.032-0.651-1.304-0.217l0,0H775.762z"/>
	<path fill="#FFFFFF" d="M674.058,983.913c-1.303,0.109-1.847,1.033-2.715,1.956c-1.032,1.113-2.607,1.494-2.607,3.042
		s0.271,2.39,0.651,3.911c0.162,0.651,0.191,1.52,0.869,1.52c0.978,0,1.168-1.113,1.412-2.064c0.326-1.221,0.787-1.901,1.629-2.825
		c1.222-1.33,2.064-2.416,2.064-4.236C675.362,984.375,674.71,984.403,674.058,983.913z"/>
	<path fill="#FFFFFF" d="M443.112,679.264c0,0.951,0.109,1.792-0.652,2.336c-1.167,0.815-2.58,0.082-3.584,1.087
		c-1.032,1.031-0.543,2.308-0.543,3.802c0,0.651,0.733,0.842,1.304,1.086c1.032,0.461,1.82,0.76,2.39,1.738
		c0.815,1.358,0.543,3.476,2.118,3.476c2.037,0,3.015-1.304,5.052-1.304c2.634,0,3.558,2.39,6.192,2.716
		c1.357,0.162,2.254,0.652,3.042,1.738c0.625,0.869,0.678,2.199,1.765,2.199c1.195,0,1.847-0.027,3.042-0.027
		c2.39,0,3.693,1.765,4.753,3.911c1.14,2.281,1.466,5.214,4.019,5.214c0.679,0,1.06-0.435,1.738-0.435c0.516,0,0.842,0,1.304,0.217
		c0.788,0.38,0.218,1.412,0.434,2.281c0.38,1.521,2.553,1.548,2.553,3.124v4.182c0,1.711,1.304,2.389,1.901,3.992
		c0.353,0.978,0.109,1.901,0.869,2.607c0.869,0.814,2.037,0.082,3.042,0.76c1.303,0.869,1.955,1.983,1.955,3.558v2.77
		c0,1.439-0.461,2.254-0.76,3.666c-0.19,0.951,0,1.792-0.76,2.39c-1.738,1.357-3.097,2.064-5.323,2.064
		c-1.494,0-2.308-0.543-3.802-0.543c-1.114,0-1.385,1.304-1.629,2.39c-0.218,1.005-0.652,1.575-0.652,2.608
		c0,0.896,0.951,1.059,1.521,1.737c1.195,1.386,2.254,1.847,3.259,3.368c0.652,0.977,1.277,1.466,1.847,2.498
		c0.408,0.76,0.869,1.14,1.521,1.738c0.271,0.244,0.38,0.651,0.761,0.651c0.842,0,0.516-1.467,1.303-1.738
		c0.516-0.163,0.978,0.054,1.412-0.326c1.358-1.168,1.114-2.553,1.738-4.236c0.434-1.222,1.521-1.847,2.825-1.847
		c0.733,0,0.923,0.761,1.629,0.869c1.412,0.218,2.308-0.461,3.694-0.108c2.254,0.569,2.471,3.611,4.806,3.611h6.138
		c0.896,0,1.058,0.978,1.548,1.711c0.896,1.358,2.173,1.494,3.802,1.738c2.416,0,3.34,1.847,5.214,3.367
		c1.005,0.815,1.711,1.195,2.824,1.847c3.151,1.847,5.16,2.634,7.821,5.105c3.884,3.585,4.915,6.68,7.93,11.081
		c1.114,1.629,2.716,1.738,3.802,3.367c1.412,2.117,2.146,3.422,3.694,5.431c0.705,0.923,1.385,1.412,1.846,2.499
		c1.358,3.15,0.625,5.839,3.042,8.256c2.661,2.661,2.58,5.377,4.563,8.582c0.706,1.168,1.086,1.901,1.847,3.042
		c1.086,1.656,1.71,3.584,3.72,3.584h7.007c0.923,0,1.412,0.597,2.091,1.195c1.386,1.25,1.901,2.255,2.933,3.803
		c1.738,2.607,3.259,3.557,5.323,5.974c0.896,1.059,1.031,1.955,1.847,3.042c1.385,1.847,2.661,2.607,4.671,3.693
		c1.792,0.951,2.824,1.847,4.78,2.499c3.911,2.607,5.322,5.105,7.929,9.016c2.526,3.802,4.073,5.948,5.975,10.103
		c0.543,1.195,0.461,2.064,0.651,3.367c0.408,2.553,1.005,3.938,1.304,6.518c0.217,1.955,2.146,2.173,3.694,3.367
		c1.737,1.33,2.715,2.173,4.562,3.367c3.639,2.336,7.115,1.656,9.776,4.997c1.005,1.276,1.33,2.199,2.172,3.584
		c0.543,0.896,1.222,1.195,1.63,2.173c0.651,1.521,1.086,2.471,2.172,3.694c1.766,1.982,3.639,2.336,5.106,4.562
		c0.869,1.33,0.896,2.498,2.172,3.476c1.711,1.33,2.39,2.39,3.802,4.02c1.277,1.494,2.281,2.58,2.281,4.562
		c0,1.005-0.245,1.765-0.543,2.716c0.896,2.389,1.901,3.612,3.585,5.54c1.901,2.173,3.095,4.345,5.974,4.345
		c1.846,0,2.878-0.434,4.725-0.434c2.065,0,3.476,0.489,4.943,1.956c1.63,1.629,1.602,3.557,3.585,4.671
		c3.612,2.01,7.441,0.516,9.885,3.802h2.907c1.14,0,1.955,0.598,2.416,1.629c0.679,1.521,0.435,3.15,1.956,3.911
		c2.525,1.25,4.78,1.738,5.757,4.345c1.738,4.671,1.629,7.686,1.629,12.656c1.929,0,3.042,0.054,4.971,0.054
		c1.874,0,2.905-0.869,4.481-1.847c1.982-1.221,3.095-2.037,4.997-3.367c1.521-1.059,2.064-2.146,3.476-3.367
		c2.064-1.792,3.884-2.39,6.627-2.39c1.222,0,1.765,0.978,2.987,0.978c1.956,0,2.662-1.956,4.617-1.956
		c0.923,0,1.277,0.761,2.173,0.978c0.679,0.163,1.031,0.272,1.521,0.761c0.869,0.054,1.412,0,2.172,0.434
		c0.38,0.218,0.271,0.652,0.543,0.978c0.842,0.978,1.249,1.711,2.281,2.498c0.869,0.652,1.847,0.815,2.173,1.847
		c0.353,1.114,0.109,2.825,1.303,2.825c1.14,0,1.738-0.652,2.878-0.652c2.173,0,1.358,4.345,3.531,4.345
		c1.385,0,1.983-1.195,3.367-1.195c1.114,0,1.494,1.195,2.607,1.195c0.652,0,0.923-0.461,1.412-0.869
		c1.656-1.412,2.118-2.933,4.128-3.802c1.113-0.461,1.928-0.19,3.15-0.326c1.031-0.109,1.521-0.761,2.553-0.761
		c2.309,0,2.743,3.15,5.052,3.15c2.878,0,4.453-1.195,7.332-1.195c1.44,0,2.092,1.195,2.879,2.39
		c1.847,2.798,2.335,4.753,3.151,8.039c0.461,1.874,1.765,2.498,2.933,4.02c2.091,2.715,3.612,4.345,4.236,7.713
		c0.652,3.531,1.684,5.404,2.933,8.798c0.706,1.929,1.847,2.607,2.825,4.454c0.543,1.032,0.353,1.819,0.651,2.933
		c0.842,3.068,1.603,4.78,2.608,7.821c0.081,1.005,0,1.656,0.326,2.607c0.244,0.707,1.195,0.408,1.846,0.76
		c0.652,0.353,0.517,1.113,0.652,1.847c0.217,1.168,0.136,1.874,0.326,3.042c0.597,3.721,3.042,5.459,3.042,9.234
		c0,3.72,0.815,5.73,1.087,9.451c0.054,1.005-0.082,1.656,0.217,2.607c0.353,1.114,1.33,1.439,1.847,2.498
		c0.625,1.277,1.412,2.39,2.851,2.39h1.331v-3.124c0-1.249-0.271-1.956-0.271-3.204v-2.363l0.435-3.367h0.951
		c1.248,0,1.384,1.467,1.873,2.606c0.625,1.468,1.466,2.716,3.068,2.716h2.553c3.557,0,4.399-4.562,7.957-4.562
		c1.603,0,2.226,1.113,3.585,1.955c1.276,0.787,2.226,0.896,3.584,1.521c0.597,0.272,0.652,0.896,1.087,1.412
		c0.814,0.951,1.14,1.63,1.52,2.825c0.978,2.988,1.874,4.78,4.236,6.843c1.222,1.059,1.847,2.39,3.477,2.39
		c1.113,0,1.711-0.543,2.824-0.543c1.33,0,2.716,0.733,2.716,2.064c0,1.738-1.25,2.445-1.956,4.02
		c-0.516,1.141-0.381,2.01-0.978,3.15c-1.521,2.907-1.873,5.323-4.78,6.844c-1.982,1.032-3.096,1.711-5.105,2.607
		c-0.651,0.299-1.277,0.217-1.738,0.76c-0.707,0.815-0.76,1.547-1.086,2.607c-0.57,1.792-1.195,2.797-1.195,4.671
		c0,0.381,0.082,0.625,0.218,0.978l0.434,0.108c1.031-1.385,1.277-2.824,2.933-3.367c0.353,1.114,0.353,2.607,1.521,2.607
		c1.059,0,1.357-0.977,1.955-1.846c0.679-0.978,1.303-1.466,2.39-1.956c2.009-0.896,3.177-1.439,5.323-2.064
		c2.145-0.625,3.394-0.842,5.431-1.738c1.629-0.706,2.444-1.738,4.236-1.738c1.602,0,2.471,0.435,4.073,0.435
		c4.4,0,6.3-3.585,10.701-3.585c1.765,0,2.58,1.303,4.345,1.303c2.363,0,3.177-1.82,5.54-2.39c1.357-0.109,2.146-0.326,3.503-0.326
		h2.336c1.304,0,1.983-0.542,3.286-0.542c1.059,0,1.466,1.086,1.847,2.064c0.625,1.576,0.543,2.607,1.086,4.236
		c0.788,2.363,1.385,3.666,2.716,5.758c2.607,4.046,2.878,6.952,5.54,10.971c1.439,1.06,1.521,2.445,2.39,4.02
		c0.896,1.629,1.901,2.336,3.15,3.694c1.087,1.195,0.761,2.498,0.761,4.128c0,1.467-0.326,2.281-0.326,3.748
		c0,1.982,1.847,2.743,1.847,4.724c0,2.852-2.716,3.585-4.78,5.541c-1.303,1.221-1.195,2.715-1.195,4.535v2.118
		c0,1.712,0.136,2.988-0.869,4.318c-1.195,1.548-2.988,1.521-3.911,3.259v0.869c2.255,0,3.694,0.109,5.649,1.195
		c1.14,0.625,1.548,1.738,2.852,1.738h2.444c2.444,0,4.046,0.652,5.784,2.389c1.222,1.222,0.652,2.825,1.847,4.02
		c1.249,1.25,2.553,1.195,4.236,1.847c0.923-1.385,1.766-2.498,3.422-2.498c0.216,0,0.397,0.05,0.564,0.121l166.919-166.919
		c-0.44-0.213-0.894-0.461-1.443-0.709c-1.901-0.869-3.177-1.14-4.888-2.281c-0.788-0.516-1.25-1.195-2.227-1.195
		c-0.924,0-1.467,0.217-2.39,0.217c-2.743,0-4.399-0.977-6.571-2.607c-1.412-1.059-1.629-2.416-3.151-3.367
		c-1.494-0.923-2.58-1.031-4.236-1.629c-1.765-0.625-3.124-0.679-4.345-2.064c-0.869-0.978-0.598-2.255-1.738-2.934
		c-1.711-1.005-3.042-0.379-4.997-0.76c-0.95-0.19-1.467-0.597-2.39-0.869c-3.124-0.896-5.187-1.547-7.278-4.019
		c-0.815-0.978-1.06-1.711-1.956-2.607c-1.276-1.277-2.01-2.065-2.824-3.694c-1.359-2.743-4.02-2.58-6.518-4.345
		c-2.58-1.819-2.96-5.323-6.11-5.323h-2.228c-1.928,0-2.906-1.248-4.155-2.715c-0.733-0.869-1.548-1.113-1.956-2.173
		c-0.815-1.629-1.303-2.037-2.281-3.476c-0.461-0.706-1.087-1.087-1.087-1.956c0-5.023,4.02-7.088,8.038-10.102
		c1.63-1.222,3.069-1.14,4.781-2.281c2.091-1.385,2.58-2.906,4.236-4.78c0.705-0.814,1.412-0.978,2.281-1.629
		c1.277-0.951,1.983-1.575,3.368-2.39c1.086-0.651,0.923-2.226,2.173-2.498c2.443-0.543,4.29-0.951,5.757-2.933
		c0.679-0.923,0.815-1.711,1.521-2.607c0.869-1.113,2.417-0.896,3.042-2.173c0.353-0.733,0.135-1.33,0.217-2.173
		c0.163-1.439,0.869-2.199,0.869-3.639c0-1.44-0.978-2.146-0.978-3.585c0-0.815,0.326-1.25,0.326-2.064
		c0-1.602-0.869-2.39-1.738-3.748c-0.896-1.386-1.303-2.878-2.934-3.042c-1.221-0.109-1.928-0.109-3.15-0.218
		c0-2.254-1.603-3.367-3.476-4.671c-0.951-0.651-1.25-1.738-2.39-1.738c-0.76,0-0.95,0.761-1.629,1.087
		c-1.467,0.733-2.472,0.733-4.02,1.304c-0.842,0.299-1.168,1.086-2.064,1.086c-1.955,0-2.661-1.955-4.617-1.955
		c-1.819,0-2.987,0.625-4.29,1.846c-0.625,0.57-1.087,1.087-1.956,1.087c-1.086,0-1.629-0.76-2.715-0.76
		c-1.983,0-2.798,1.847-4.78,1.847c-2.662,0-4.183-0.543-6.844-0.543c-2.851,0-3.775-3.042-6.626-3.042
		c-2.445,0-3.694,1.521-6.138,1.521c-2.009,0-2.878-1.629-4.888-1.629c-3.177,0-4.725,2.173-7.903,2.173
		c-0.245,0-0.38-0.082-0.625-0.109l-0.543,0.218h-2.281c-1.819-0.191-2.878-0.543-4.725-0.543c-3.965,0-5.866,2.716-9.831,2.716
		c-2.607,0-4.128-0.951-6.191-2.498c-1.657-1.222-2.363-3.042-4.454-3.042c-1.359,0-2.037,0.543-3.367,0.76
		c-2.39,0.381-3.776,0.217-6.192,0.217c-4.97,0-8.69,0.191-12.384-3.15c-4.291-2.552-6.218-4.941-8.907-9.124
		c-0.76-1.195-1.303-1.792-1.956-3.042c-0.461-0.897-0.598-1.629-1.412-2.173c-1.901-1.249-3.666-0.57-5.758-1.521
		c-1.874-0.842-2.743-2.281-4.807-2.281h-2.662c-0.896,0-1.465,0.163-2.307-0.109c-0.842-0.271-1.005-1.005-1.63-1.63
		c-0.923-0.923-1.547-1.385-2.715-1.955c-1.33-0.651-2.119-1.031-3.585-1.304c-1.358-0.244-2.852,0.082-3.367-1.195
		c-1.33-3.177,0-5.622-1.521-8.69c-0.57-1.141-1.412-1.494-2.389-2.281c-1.277-1.032-2.091-1.738-3.694-2.173
		c-3.503-0.95-5.703-0.678-8.907-2.281c-2.445-1.222-3.015-3.15-4.345-5.541c-1.792-3.205-4.155-4.046-6.736-6.626
		c-2.336-2.337-2.199-4.807-4.562-7.17c-1.494-2.01-3.123-2.471-4.997-4.128c-1.63-1.439-2.119-2.879-4.02-3.911
		c-3.911-2.173-5.214-4.753-9.125-6.952c-1.005-0.543-1.385-1.25-2.281-1.956c-0.787-0.625-1.576-0.76-2.064-1.629
		c-1.086-1.847-1.792-3.314-3.802-4.02c-2.553-0.896-3.585-2.688-4.78-5.105c-0.625-1.249-0.788-2.227-1.847-3.15
		c-1.385-1.195-2.96-0.95-4.02-2.39c-0.299-0.408-0.108-0.815-0.217-1.304c-0.353-1.548-0.543-2.471-1.195-3.911
		c-0.733-1.576-2.281-1.765-2.934-3.367c-1.004-2.445-0.217-4.264-1.195-6.735c-1.141-2.851-2.879-3.884-4.236-6.626
		c-1.141-2.281-1.195-3.802-2.39-6.083c-1.439-2.743-3.259-4.101-3.259-7.17c-0.625-2.525-1.847-3.829-3.259-5.974
		c-0.679-1.032-1.412-1.656-1.412-2.906v-2.335c0-1.358,0.543-2.092,0.543-3.449c0-3.285-1.304-5.105-3.151-7.821
		c-0.951-1.385-1.956-2.227-1.956-3.911c0-1.819,0.271-2.851,0.435-4.671v-3.177c0-2.96-0.543-4.617-0.869-7.577
		c-0.38-3.422,0.245-5.486-0.977-8.69c-0.707-1.874-1.657-2.77-2.281-4.671c-1.548-4.698-2.988-7.17-5.214-11.623
		c-1.656-3.314-1.602-5.84-3.802-8.799c-0.978-1.33-2.173-1.901-2.716-3.476c-1.412-4.074-1.168-6.654-2.173-10.863
		c-0.733-3.15-1.629-4.807-3.259-7.604c-1.412-2.417-3.476-3.476-3.476-6.273v-2.987c0-2.526,1.412-3.802,1.412-6.328
		c0-2.498-0.542-3.856-1.412-6.246c-0.408-1.168-0.625-1.901-1.412-2.824c-1.25-1.468-2.58-1.602-4.345-2.39
		c-2.743-1.222-3.911-2.662-6.3-4.453c-1.956-1.468-3.124-2.281-4.997-3.911c-0.678-0.57-0.869-1.222-1.629-1.739
		c-4.915-3.367-9.342-3.068-13.252-7.495c-2.635-2.988-4.536-4.535-8.039-6.409c-1.684-0.896-2.634-1.711-4.562-1.847
		c-1.956-1.955-3.069-2.96-4.997-4.889c-1.113-1.113-1.439-2.091-2.607-3.15c-3.721-3.422-5.622-5.541-9.559-8.69
		c-2.824-2.255-3.856-4.155-5.866-7.17c-1.576-2.363-3.015-3.177-4.888-5.322c-1.846-2.119-2.39-3.966-4.889-5.214
		c-1.412-0.707-1.955-1.63-3.367-2.281c-5.188-2.417-7.495-4.889-11.84-8.69c-1.168-1.005-1.929-1.548-2.934-2.716
		c-3.394-3.884-5.241-6.219-9.667-8.799c-1.277-0.733-2.308-0.49-3.694-1.087c-2.417-1.032-2.879-2.879-4.78-4.78
		c-3.259-3.259-4.019-5.649-6.952-9.016c-1.901-2.199-3.123-3.558-4.128-6.301c-0.333-0.922-1.073-1.199-1.544-2.024
		L442.215,676.212C442.897,677.038,443.112,678.029,443.112,679.264z"/>
	<path fill="#FFFFFF" d="M388.471,744.82c-0.027,0.489-0.108,0.733-0.108,1.222c0,1.441,0.488,2.471,1.629,3.341
		c0.598,0.434,0.625,1.222,1.304,1.52c0.108-0.76,0-1.222,0-1.983c0-1.52,0.081-3.531-1.304-4.101l0,0H388.471z"/>
	<path fill="#FFFFFF" d="M661.349,978.047v3.612c0,0.789,0.081,1.304,0.326,2.037c0.162,0.489,0.217,1.195,0.76,1.195
		c0.923,0,0.896-1.168,1.304-1.955c0.434-0.842,1.087-1.304,1.087-2.281c0-0.597-0.162-1.412-0.543-1.847v0
		c-0.733-0.109-1.032-0.76-1.765-0.76H661.349z"/>
	<path fill="#FFFFFF" d="M795.289,1023.237c0-1.998-3.476-0.031-3.476,1.412c0,0.57,0.461,1.087,1.031,1.087
		C794.203,1025.736,795.289,1024.595,795.289,1023.237z"/>
	<path fill="#FFFFFF" d="M577.379,1432.879c-0.924,0-0.924,1.52-1.847,1.52c-0.679,0-0.379-1.031-0.652-1.629
		c-0.081-0.217-0.488-0.109-0.543-0.326c-0.435-1.303-0.353-3.15-1.738-3.15c-0.896,0-0.896,1.114-1.521,1.738
		c-0.896,0.896-2.498,0.76-2.498,2.01c0,1.602,1.195,2.362,1.195,3.964h0.842c1.058,0,1.466-1.086,2.526-1.086
		c0.678,0,0.95,0.57,1.521,0.869c1.114,0.625,1.929,0.651,3.205,0.651c1.304,0,2.335-1.086,2.335-2.389
		c0-0.435-0.488-0.543-0.76-0.869C578.846,1433.476,578.329,1432.879,577.379,1432.879z"/>
	<path fill="#FFFFFF" d="M542.291,1431.032c0.57,0.381,1.113,0.245,1.738,0.543c0.842,0.408,0.896,1.629,1.847,1.629
		c0.95,0,1.086-1.222,1.086-2.173c0-0.978-0.625-1.439-0.76-2.39c-0.218-1.575,0.299-2.662-0.326-4.128
		c-0.517-1.222-1.956-0.76-3.259-1.086c-0.597-0.136-0.896-0.652-1.52-0.652v0c-0.435,0-0.978,0.109-0.978,0.543
		c0,0.924,0.814,1.277,0.978,2.173c0.19,0.923-0.109,1.494-0.109,2.445C540.988,1429.24,541.205,1430.326,542.291,1431.032z"/>
	<path fill="#FFFFFF" d="M474.832,766.111c-1.548-0.136-2.607,1.412-2.607,2.96h0c0,0.788,0.57,1.141,1.086,1.711
		c0.434,0.489,0.625,1.195,1.304,1.195c1.412,0,2.172-1.521,2.172-2.934C476.787,767.686,476.19,766.247,474.832,766.111z"/>
	<path fill="#FFFFFF" d="M581.398,1426.143c0-1.819-1.739-2.525-1.739-4.345c0-0.977,0.435-1.521,0.435-2.498
		c0-0.707-0.353-1.086-0.76-1.629c-1.358,0.543-1.494,1.901-2.715,2.716c-0.788,0.516-1.847,0.76-1.847,1.738
		c0,1.005,1.031,1.249,1.847,1.846c0.488,0.353,0.434,0.978,0.977,1.304c1.303,0.761,2.037,1.385,3.476,1.847
		C581.262,1426.795,581.398,1426.524,581.398,1426.143z"/>
	<path fill="#CE2B37" d="M907.124,1640.578c1.521,0,1.466-2.118,1.466-3.639c0-1.359-0.896-1.983-1.086-3.314
		c-0.353-2.417,0.081-3.856-0.326-6.301c-0.19-1.195-0.787-1.737-1.303-2.824c-0.625-1.357-0.326-2.308-0.326-3.802
		c0-1.005,0.706-1.466,1.087-2.39v0c0.707-2.879,1.847-3.992,2.933-6.735c0.245-0.651,0.652-1.005,0.652-1.711v-3.204
		c0-0.815,0.434-1.195,0.76-1.928c0.734-1.576,1.467-2.526,3.042-3.259c1.846-0.869,2.471-2.064,3.693-3.693
		c0.652-0.869,1.195-1.63,2.281-1.63c0.733,0,0.896,0.869,1.629,0.869c0.842,0,1.032-0.896,1.412-1.629
		c0.651-1.195,0.245-2.118,0.76-3.367c0.435-1.086,1.521-1.304,2.716-1.412c3.367-0.353,6.382,0.218,8.256-2.607l-0.109-0.542h-2.39
		l-0.869-0.218h-2.472c-0.841,0-0.841-1.032-1.438-1.629c-0.353-0.353-0.87-0.461-0.87-0.978c0-0.652,0.679-0.923,1.304-1.086
		c1.004-0.299,1.494-0.707,2.498-0.869c1.032-0.191,2.281-0.461,2.281-1.521c0-1.195-1.06-1.629-1.956-2.389
		c-1.711-1.494-3.068-1.793-4.78-3.259c-1.602-1.358-2.824-2.472-2.824-4.562c0-0.408,0.217-0.652,0.217-1.06v-2.878
		c0-0.897-0.625-1.711-1.52-1.711c-1.031,0-1.249,1.412-2.281,1.412c-1.277,0-0.597-1.929-1.195-3.042
		c-0.57-1.06-1.087-1.603-1.738-2.608c-0.38-0.598-1.195-0.678-1.195-1.412c0-1.222,1.412-1.412,2.499-1.956
		c1.873-0.924,3.042-1.195,5.105-1.412c1.467-0.164,3.476-0.055,3.476-1.521c0-2.037-1.222-3.123-2.716-4.454
		c-1.195-1.059-1.738-1.846-2.716-3.15c-0.435-0.598-0.678-1.304-1.438-1.304h-3.64c-0.379,0-0.57-0.272-0.896-0.434
		c-2.281-1.711-4.236-1.738-6.191-3.803c-1.548-1.656-1.602-3.259-2.281-5.431c-0.733-2.389-0.136-3.992-0.76-6.409
		c-0.598-2.227-1.412-3.422-1.412-5.731v-2.77c0-2.01-0.76-3.069-0.76-5.078c0-2.227,2.009-2.824,3.259-4.671
		c0.842-1.25,1.25-2.064,2.173-3.259c1.901-2.445,3.205-3.667,4.563-6.41c0.435-0.868,0.326-1.575,0.868-2.39
		c2.39-3.612,3.422-5.866,4.672-10.103c1.004-3.367,1.738-5.295,1.738-8.771v-2.335c0-0.434,0.489-0.516,0.76-0.842
		c0.707-0.815,1.141-1.358,1.738-2.281c0.951-1.439,1.005-2.58,1.955-4.02c0.978-1.494,1.983-2.227,2.281-4.019
		c1.467-1.793,2.281-2.472,4.128-3.803c0.924-0.651,0.896-1.684,1.086-2.824c0.19-1.222,1.005-1.738,1.738-2.716
		c1.656-2.227,2.58-3.557,4.02-5.974c2.797-4.698,4.4-7.251,6.409-12.275c0.896-2.254,1.874-3.394,3.042-5.54
		c2.255-4.101,4.101-6.165,7.387-9.451c2.906-2.906,4.128-4.915,6.952-7.93c1.955-2.091,3.367-3.611,3.367-6.463
		c0-1.087-0.326-1.684-0.326-2.77c0-2.525,1.33-4.046,3.367-5.54c1.412-1.033,1.792-2.146,2.933-3.476
		c0.734-0.869,1.765-0.652,2.825-1.087c-0.869-2.607-3.422-2.906-6.083-3.476c-3.042-0.651-4.4-2.607-7.496-2.607
		c-2.064,0-2.825,1.602-4.454,2.825c-2.77,1.602-3.802,2.797-6.3,4.78c-2.037,1.629-3.639,1.874-6.083,2.715
		c-2.878,1.005-4.563,1.956-7.631,1.956h-3.096c-5.866,0-6.328-8.799-12.193-8.799c-0.625,0-0.815,0.652-1.087,1.196
		c-0.516,1.059-0.542,1.764-0.542,2.933c0,2.416,1.086,3.72,1.086,6.137c0,3.639-3.911,4.183-6.626,6.572
		c-1.385,1.222-2.336,1.684-3.802,2.825c-1.792,1.385-3.014,2.498-5.269,2.498c-1.167,0-2.878,0.217-2.878-0.951v-2.091
		c-0.842-0.95-1.684-1.412-2.96-1.412h-2.445c-1.629,0-2.498-0.76-3.938-1.52c-0.679-0.353-1.277-0.299-1.956-0.652
		c-2.118-1.113-1.629-4.671-4.019-4.671c-3.015,0-4.481,1.521-7.17,2.933c-3.232,1.711-5.513,1.738-9.125,1.738
		c-2.173,0-3.367-0.543-5.54-0.543c-1.603,0-2.336,1.195-3.367,2.39c-1.303,1.521-1.929,2.472-3.367,3.911
		c-0.815,0.815-0.951,1.656-1.956,2.281c-0.951,0.57-1.711,0.435-2.716,0.869c-1.547,0.678-2.445,1.168-4.019,1.846
		c-2.96,1.304-4.997,1.032-8.039,2.173c-3.259,1.221-5.132,2.281-8.608,2.281c-0.245,0-0.381-0.082-0.625-0.109
		c-1.846,0.408-2.824,0.271-4.562,0.978c-1.494,0.625-2.227,1.629-3.857,1.629c-2.579,0-3.829-1.738-6.409-1.738
		c-3.829,0-5.811,1.847-9.64,1.847h-3.097c-0.896,0-1.412,0.218-2.307,0.218c-2.038,0-3.259,0.217-5.215-0.434
		c-1.602-0.517-2.39-1.412-4.074-1.412c-1.357,0-2.009,0.977-3.367,0.977c-3.747,0-5.811-0.977-9.504-1.629
		c-1.304-0.217-1.874-1.195-3.206-1.195c-2.905,0-4.426,1.087-7.332,1.412c-2.336,0.244-3.775,0-5.974,0.76
		c-1.385,0.488-1.82,1.439-3.042,2.281c-3.938,2.743-6.301,4.997-11.026,4.997c-2.253,0-3.476-0.76-5.729-0.76h-4.292
		c-2.335,0-3.395-1.521-5.241-2.933c-1.738-1.33-2.825-1.847-4.563-3.15c-1.629-1.221-2.091-2.58-3.911-3.476
		c-1.928-1.439-4.345-1.82-4.345-4.237c0-0.951,0.326-1.494,0.326-2.445c0-1.384-0.109-2.444-1.087-3.421
		c-0.408-0.408-0.815-0.652-0.978-1.195c-0.461-1.358-0.733-3.042-2.173-3.042c-3.15,0-4.291,3.151-7.441,3.151
		c-1.249,0-2.145-0.054-3.095-0.869c-0.76-0.651-1.087-1.412-2.064-1.412c-1.684,0-2.88,0.38-4.02,1.629
		c-0.49,0.543-0.815,0.923-1.521,1.087c-0.136-0.326-0.326-0.598-0.326-0.978c0-1.873,0.054-2.933,0.435-4.78
		c0.271-1.304,0.869-1.982,0.869-3.314c0-2.362-2.824-2.661-3.693-4.833c-0.87-2.173-0.87-3.612-0.87-5.974
		c-1.032,0.516-1.303,1.168-1.955,2.064c-1.032,1.439-2.336,2.064-4.128,2.064c-0.734,0-1.168,0.028-1.847-0.217
		c-0.707-0.245-0.76-1.195-1.521-1.195c-1.983,0-2.58,1.711-4.128,2.933c-1.548,1.222-2.96,1.304-4.943,1.304
		c-2.118,0-3.856,0.027-5.269-1.521c-1.303-1.412-1.846-2.445-2.933-4.019c-0.434-0.625-0.651-1.304-1.439-1.412h-0.326
		c-1.222,2.281-0.95,4.046-2.363,6.192c-1.629,2.443-4.454,3.15-4.454,6.083c0,2.552,2.607,3.475,2.607,6.028
		c0,1.385-1.358,2.228-2.743,2.228h-3.639c-1.521,0-1.656,2.281-3.177,2.281c-1.304,0-2.01-0.326-3.314-0.326
		c-1.927,0-3.122-0.217-4.942,0.434c-1.141,0.408-1.846,0.734-2.607,1.629c-0.353,0.408-0.543,0.869-1.086,0.869
		c-1.494,0-1.765-2.064-3.259-2.064c-0.76,0-1.195,0.326-1.955,0.326c-1.874,0-1.303-2.824-2.825-3.911
		c-1.846-1.33-3.259-2.607-3.259-4.889c0-0.923,0.543-1.358,0.543-2.281c0-2.5-1.787-3.575-2.928-5.673l-36.966,36.966
		c0.011,0.131,0.027,0.259,0.027,0.401v2.878c0,1.277,0.19,2.199-0.543,3.232c-0.326,0.462-0.924,0.082-1.412,0.326
		c-0.381,0.19-0.245,0.706-0.435,1.086c-0.815,1.521-0.108,2.825-0.651,4.454c-0.543,1.683-1.847,2.444-1.847,4.236
		c0,3.286,0.76,5.051,1.521,8.256c0.217,0.951,0.706,1.412,0.869,2.39c0.488,2.715,0.678,4.29,1.955,6.844
		c0.951,2.878,2.117,5.757,5.132,5.757h5.052c1.684,0,1.847,1.983,2.417,3.585c0.869,2.39,1.005,3.829,2.064,6.083
		c0.679,1.466,1.358,2.226,2.498,3.367c1.575,1.575,2.689,3.042,4.942,3.042c1.25,0,1.875-0.869,3.124-0.869h2.77
		c2.226,0,3.123-2.064,5.35-2.064c2.77,0,4.073,1.847,6.844,1.847c2.933,0,4.563-0.136,7.496-0.218
		c1.874-0.407,2.852-1.303,4.78-1.303c1.738,0,1.222,2.716,2.716,3.585c1.574,0.896,3.041,1.82,3.041,3.666v2.553
		c0,0.815,0.136,1.629,0.869,1.928c1.032,0.435,1.929,0.299,2.716,1.087c0.652,0.651,0.408,1.683,1.195,2.173
		c0.761,0.488,1.385,0.326,2.281,0.326c1.195,0,1.847-0.326,3.042-0.326c1.983,0,3.042,0.76,5.024,0.76h2.119
		c2.443,0,4.072,0.57,5.892,2.173c1.277,1.113,1.494,2.226,2.825,3.367c1.222,1.031,2.254,1.059,3.584,1.955
		c2.471,1.684,1.684,4.454,3.476,6.844c0.625,0.842,1.494,0.842,2.173,1.629c1.06,1.222,1.031,2.363,1.629,3.911
		c0.191,1.168,0.815,2.226,1.983,2.226h3.748c1.521,0,1.765,1.575,2.852,2.662c2.118,2.118,3.285,3.367,5.54,5.322
		c1.113,0.951,1.792,1.466,2.933,2.39c1.059,0.842,1.303,1.901,2.498,2.607c1.087,0.651,1.901,0.299,3.15,0.435l2.716-0.543h2.146
		c0.569,0,0.923-0.217,1.493-0.217c1.684,0,1.901,1.928,2.553,3.476c0.461,1.086,1.602,1.113,2.716,1.52
		c1.494,0.57,1.168,2.281,1.629,3.802c0.434,1.358,1.575,1.575,2.716,2.39c2.77,2.009,4.454,3.042,6.735,5.649
		c1.901,2.173,2.934,3.639,5.541,4.78c1.031,0.435,1.602,0.977,2.743,0.977h3.096c1.71,0,2.905-0.217,4.372,0.652
		c1.847,1.086,2.173,2.607,3.693,4.128c2.825,2.825,4.345,5.866,8.31,5.866c3.205,0,4.59-2.716,7.794-2.716h2.444
		c2.608,0,3.313,3.042,5.92,3.042h2.662c0.488,0,0.651-0.461,1.004-0.76c0.978-0.842,1.739-1.412,3.042-1.412
		c2.173,0,3.069,1.955,5.241,1.955h2.907l12.383,5.65c1.928,1.14,2.797,2.117,4.454,3.584c1.113,0.978,2.009,1.195,3.042,2.281
		c0.95,1.005,0.95,2.037,1.629,3.259c1.494,2.662,2.255,4.21,3.802,6.844c2.009,3.449,3.422,5.269,6.083,8.148
		c3.042,3.258,5.649,5.513,5.649,9.994c0,1.385-0.435,2.199-0.435,3.584c0,1.793,2.634,1.793,2.824,3.585
		c0.109,1.005,0.353,1.576,0.761,2.498c0.299,0.679,0.543,1.521,1.304,1.521c1.277,0,1.983-0.543,3.259-0.543
		c2.933,0,4.481,1.195,7.17,2.39c1.765,0.761,3.123,0.109,4.888,0.869c2.472,1.087,3.694,2.064,5.974,3.476
		c1.467,0.896,2.064,2.39,3.803,2.39c0.488,0,0.651-0.435,1.086-0.652c1.168-0.57,1.956-0.651,3.259-0.651
		c1.575,0,2.009,1.847,3.584,1.847c1.087,0,1.331-1.114,2.39-1.412c0.706-0.191,1.114,0,1.847,0c2.173,0,3.584-0.326,5.54,0.651
		c0.896,0.435,1.195,1.412,2.2,1.412c2.308,0,3.612-0.109,5.921-0.109c2.634,0,4.02,1.087,6.653,1.087
		c1.357,0,2.117-0.271,3.367-0.76c0.734-0.299,1.059-0.869,1.874-0.869h2.01c1.276,0,1.195,1.765,1.222,3.042
		c0.054,2.091,0.625,3.232,0.869,5.322c0.136,1.195,0.435,2.607,1.629,2.607c0.625,0,0.761-0.651,1.196-1.086
		c1.52-1.521,2.064-3.694,4.236-3.694C906.036,1640.36,906.417,1640.578,907.124,1640.578z"/>
	<path fill="#CE2B37" d="M894.033,1375.196c0.625,0.978-0.054,2.553,1.086,2.825c1.33,0.326,2.119,0.054,3.477,0.217
		c0.027-0.38,0.108-0.57,0.108-0.95c0-1.276-1.303-1.711-1.303-2.987v-2.553c0-0.814-0.814-1.33-1.629-1.33
		c-0.896,0-1.249,0.625-2.064,0.978c-0.869,0.379-1.63,0.896-1.63,1.847l0,0C892.078,1374.301,893.49,1374.327,894.033,1375.196z"/>
	<path fill="#CE2B37" d="M891.317,1363.139c0.57,1.521,0.76,3.476,2.39,3.476c0.38,0,0.435-0.461,0.651-0.76
		c0.598-0.815,0.543-1.494,0.543-2.498c0-1.005,0.517-1.521,0.76-2.499c0.326-1.33-0.379-2.254-0.109-3.584
		c0.136-0.707,0.652-1.059,0.652-1.793c0-0.787-0.19-1.792-0.978-1.792c-1.357,0-1.928,1.005-3.258,1.195
		c-1.277,0.162-2.118-0.326-3.368,0c-0.842,0.218-0.977,1.114-0.977,1.983c0,1.602,0.054,2.498,0,4.101
		C889.281,1361.075,890.747,1361.591,891.317,1363.139z"/>
	<path fill="#CE2B37" d="M909.024,1334.46c-0.678,0-0.95,0.625-1.412,1.087c-0.516,0.516-1.086,0.923-1.086,1.684
		c0,0.949,0.57,1.9,1.521,1.9c0.597,0,0.733-0.651,1.086-1.086c0.517-0.625,0.978-1.114,0.978-1.955
		C910.111,1335.329,909.785,1334.46,909.024,1334.46z"/>
	<path fill="#CE2B37" d="M846.996,1345.649c-0.406-0.271-0.869,0-1.303-0.217c-0.977-0.488-0.678-1.711-1.412-2.498
		c-0.489-0.543-1.114-0.543-1.874-0.543h0h-1.06c-0.027,0.461-0.108,0.707-0.108,1.168c0,1.222,0.57,1.847,0.651,3.068
		c0.055,0.951,0.136,2.173,1.087,2.173c0.788,0,1.222-0.435,2.01-0.435c1.222,0,1.901,0.435,3.123,0.435
		c0.679,0,1.031-0.027,1.711-0.108c0-0.38,0.109-0.598,0.109-0.978c0-0.625-1.031-0.271-1.521-0.652
		C847.812,1346.6,847.622,1346.084,846.996,1345.649z"/>
	<path fill="#CE2B37" d="M821.36,1346.627c-0.842,0-1.005,0.978-1.304,1.738c-0.434,1.087-0.978,1.738-0.978,2.933
		c0,1.005,0.19,2.281,1.195,2.281c1.683,0,2.933-1.901,2.933-3.585c-0.272-0.896-0.543-1.439-0.978-2.281
		C821.985,1347.252,821.904,1346.627,821.36,1346.627z"/>
	<path fill="#CE2B37" d="M878.825,1347.821c0.381,0.191,0.299,0.652,0.651,0.87c1.195,0.815,1.875,1.358,2.607,2.606
		c0.707-0.706,0.978-1.33,0.978-2.308v-2.661c0-2.009-2.335-2.335-4.236-2.96c-0.923-0.3-1.222-1.196-2.199-1.196h-1.711v0.869
		l0.217,0.543v2.634C875.131,1347.795,877.413,1347.117,878.825,1347.821z"/>
	<path fill="#CE2B37" d="M513.722,1603.427c0.869,1.086,1.846,1.222,2.933,2.064c1.33,1.032,2.336,1.521,3.259,2.933
		c1.63,2.471,3.314,4.345,6.301,4.345c1.114,0,1.33-1.195,1.847-2.173c0.461-0.869,1.467-1.086,1.467-2.091v-4.345
		c0-1.711-1.82-2.01-2.879-3.341c-0.57-0.733-0.434-1.521-1.086-2.173c-0.734-0.733-1.684-0.191-2.716-0.326
		c-1.603-0.245-2.091-1.575-3.585-2.173c-0.679-0.271-1.412-0.108-1.738-0.76c-0.706-1.438-1.33-2.933-2.933-2.933v0
		c-1.711,0-3.042,1.439-3.042,3.15c0,0.733,0.353,1.114,0.434,1.846C512.255,1599.869,512.228,1601.553,513.722,1603.427z"/>
	<path fill="#CE2B37" d="M919.343,1112.207c0.951,1.439,1.575,2.227,2.499,3.693c1.221,1.929,2.851,2.337,4.996,3.042
		c2.472,0.815,3.34,2.445,5.105,4.345c1.575,1.711,4.128,2.037,4.128,4.4c0,1.874-0.869,2.851-0.869,4.725
		c0,0.951,0.787,1.738,1.738,1.738c1.683,0,2.226-1.955,3.911-1.955c0.923,0,1.005,1.086,1.303,1.955
		c0.408,1.222,1.222,1.602,2.064,2.607c1.412,1.657,2.634,2.716,4.78,2.716c1.031,0,1.548-0.488,2.498-0.869
		c1.14-0.435,2.064-0.543,2.825-1.52c0.734-0.951,0.95-1.575,1.738-2.499c1.792-2.091,2.797-3.177,4.453-5.322
		c1.331-1.711,2.227-3.368,4.372-3.368h2.662c2.471,0,3.557,1.494,5.784,2.607c2.335,1.168,4.019,0.896,6.3,2.173
		c2.01,1.114,2.39,2.716,3.911,4.454c1.249,1.439,2.444,1.901,4.02,2.933c1.195,0.788,2.335,1.141,2.715,2.498
		c0.326,1.141,0,1.956,0.435,3.042c0.488,1.195,1.873,1.005,2.824,1.847c0.896,0.788,0.978,1.792,0.978,3.015v3.856
		c0,0.245,0.217,0.381,0.217,0.625c0,2.363-1.304,3.557-1.304,5.921c0,1.819,1.087,2.716,1.956,4.29
		c0.488,0.924,0.435,1.602,0.705,2.607c-0.027,2.879,0,4.509,0,7.387c0,4.128,1.25,6.627,3.857,9.885
		c1.412,1.793,0.218,3.829,1.629,5.649c1.521,1.956,2.227,3.205,2.933,5.54c0.87,2.825,2.308,3.966,4.237,6.192
		c1.195,1.385,1.168,2.662,1.521,4.454c0.408,2.145,2.417,2.445,4.128,3.802c1.819,1.439,2.146,3.693,4.454,4.02
		c2.009,0,2.986,1.711,3.693,3.584c0.842,2.228,1.439,3.449,2.064,5.758c0.326,1.195,0.191,1.928,0.434,3.151
		c0.57,2.852,1.956,4.318,1.956,7.224c0,1.792-0.434,2.796-0.434,4.589v2.444c0,0.733,0.461,1.087,0.543,1.82
		c0.435,3.639,0.868,5.649,0.868,9.288c0,1.819-0.434,2.878-0.434,4.698v4.725c0,0.923-0.326,1.44-0.326,2.363
		c0,3.802,0.869,5.948,2.39,9.451c1.14,2.662,0.706,4.509,1.52,7.278c0.488,1.738,1.629,2.308,2.607,3.802
		c1.602,2.417,2.199,3.721,3.911,6.084l0.218,0.869v2.199c0,0.951,0.841,1.277,1.412,2.038c1.466,1.982,3.042,2.634,4.454,4.671
		c0.488,0.733,0.597,1.304,0.869,2.173c0.217,0.76,0.842,1.032,1.195,1.738c0.625,1.249,0.652,2.173,0.652,3.584
		c0,5.133-0.707,8.012-1.087,13.144c-0.163,2.39-2.308,3.097-4.345,4.345c-1.059,0.652-1.792,0.924-2.715,1.738
		c-1.114,0.978-1.657,2.173-3.15,2.173c-1.521,0-1.793-1.629-2.934-2.607c-1.113-0.951-1.901-1.738-3.367-1.738
		c-2.064,0-3.042,1.304-5.105,1.304c-1.711,0-2.634-0.543-4.345-0.543c-2.879,0-4.59,1.222-6.627,3.259
		c-1.955,1.955-3.34,2.797-5.54,4.454c-1.873,1.412-3.041,2.227-4.562,4.019c-0.272,0.326-0.679,0.272-0.869,0.652
		c-1.168,2.227-1.195,3.911-1.195,6.464c0,1.521,2.091,1.303,2.933,2.553c0.95,1.386,1.656,2.091,3.042,3.042
		c2.525,1.711,4.997,2.933,4.997,5.975c0,2.607-0.054,4.318-1.412,6.518c-0.707,1.141-1.711,1.33-2.39,2.498
		c-1.222,2.119-1.602,3.884-3.367,5.649v2.308c0,2.39-0.733,3.693-1.521,5.948c-0.217,0.679-0.217,1.359-0.869,1.629
		c-0.815,0.353-1.629-0.488-2.281,0.109c-0.543,0.49-0.381,1.141-0.652,1.847c-0.408,1.032-1.032,1.467-1.412,2.498
		c-1.303,3.476-0.977,5.921-3.042,9.016c-1.14,1.711-2.336,2.363-4.128,3.368c-0.625,0.326-0.787,0.815-1.412,1.195
		c-1.955,1.222-3.367,1.304-5.54,2.064c-2.091,0.733-3.449,0.95-5.214,2.281c-1.711,1.304-3.367,2.199-3.367,4.345
		c0,0.95,0.787,1.276,1.303,2.064c0.95,1.439,1.195,2.553,1.195,4.292l-2.173,10.645c0,1.249,0.543,1.955,0.543,3.204
		c0,3.693-2.064,5.54-2.064,9.233c0,1.902,1.357,2.716,2.607,4.128c1.711,1.928,2.58,3.612,5.105,4.237
		c1.738,0.435,1.765,2.199,3.151,3.368c0.733,0.625,1.466,0.543,2.281,0.977c1.385,0.76,2.118,1.847,3.721,1.847
		c2.688,0,4.21-0.109,6.899-0.109c2.362,0,3.448-1.738,5.811-1.738h2.228c3.964,0,5.838,2.825,9.804,2.825
		c1.629,0,2.226-1.303,3.584-2.173c1.277-0.815,2.39-0.271,3.911-0.435c2.009-0.218,3.015-1.303,4.345-2.825
		c0.896-1.031,1.684-1.303,2.498-2.39c0.489-0.652,0.461-1.277,0.761-2.065c0.841-2.226,1.683-3.367,2.064-5.757
		c0.326-1.956,2.443-1.901,3.693-3.368c0.625-0.733,0.761-1.438,0.761-2.416v-8.202c0-1.086-0.109-1.982,0.651-2.742
		c0.787-0.788,1.494-0.951,2.281-1.739c1.928-1.928,3.177-2.851,5.322-4.562c2.363-1.874,3.449-3.286,5.432-5.54
		c1.303-1.466,1.955-2.526,2.39-4.454c0.625-2.661,1.792-3.911,3.368-6.191c1.982-2.852,3.802-4.21,7.061-5.214
		c2.417-0.734,3.639-1.657,6.192-2.281c4.535-1.114,7.061-2.01,10.754-4.78c2.064-1.548,2.852-2.906,4.563-4.888
		c1.602-1.847,3.042-3.069,3.042-5.513v-2.199c-0.272-4.155-0.707-6.491-0.707-10.646c0-0.516-0.027-0.788,0.054-1.303
		c0.136-1.657,0.435-2.499,0.652-4.128c0.597-4.073,0.651-6.463,0.651-10.591c0-2.662,0.054-4.291-0.869-6.79
		c-0.57-1.521-0.76-2.498-1.738-3.802c-0.978-1.303-2.173-1.955-2.173-3.585c0-1.738,1.14-2.552,2.173-3.911
		c0.597-0.787,0.733-1.439,1.412-2.173c0.896-0.977,0.379-2.091,0.978-3.258c0.271-0.543,0.841-0.597,1.195-1.087
		c0.651-0.869,0.977-1.494,1.629-2.39c2.255-3.124,4.02-4.508,6.952-7.061c1.277-1.113,2.417-1.168,3.694-2.281
		c0.868-0.761,1.14-1.466,2.064-2.173c0.923-0.706,1.738-0.734,2.824-1.087c2.281-0.787,3.666-0.869,6.083-1.303
		c2.472-0.435,3.612-1.33,5.975-2.173c1.358-0.488,2.173-0.597,3.476-1.195c4.345-2.037,6.817-4.236,11.623-4.236
		c2.255,0,3.504,1.113,5.106,2.715c0.76,0.761,0.896,1.956,1.955,1.956c1.005,0,1.005-1.303,1.629-2.064
		c0.57-0.705,1.466-0.325,2.39-0.325c1.765,0,3.911,0.543,3.911,2.308v4.318l0.435-0.217c1.846-1.847,1.304-4.155,3.367-5.649
		c0.842-0.597,1.629-0.408,2.607-0.76c1.087-0.408,1.087-1.603,1.087-2.77c0-1.06-0.435-1.603-0.435-2.662
		c0-2.363,2.009-3.177,2.39-5.54c0.815-1.249,2.064-1.766,2.064-3.259c0-2.009-2.824-1.412-4.454-2.607
		c-1.222-0.896-1.385-1.982-1.955-3.367c-1.576-3.802-2.064-6.246-2.064-10.373c0-3.367,0.407-5.269,1.303-8.528
		c0.461-1.711,1.195-2.634,1.195-4.399c0-2.065-1.684-2.852-2.281-4.835c-0.651-2.117-0.516-3.476-0.978-5.649l3.585-17
		c-0.272-1.874-0.598-3.314-2.173-4.292c-2.472-1.52-4.508-1.412-6.844-3.15c-1.684-1.249-1.439-3.068-2.933-4.563
		c-2.255-2.254-2.825-3.693-5.541-5.323c-1.982-0.488-2.987-1.222-4.888-1.955c-1.114-0.408-1.928-0.543-2.825-1.303
		c-1.494-1.303-2.199-2.255-3.911-3.259c-2.091-1.222-3.557-1.33-5.757-2.281c-1.521-0.652-1.575-2.118-2.39-3.585
		c-1.005-1.82-2.064-2.607-3.476-4.128c-1.955-2.091-4.183-1.956-7.061-2.281c-0.625-0.054-0.924-0.435-1.548-0.435h-2.227
		c-3.069,0-4.834,0.543-7.903,0.543c-5.432,0-9.749-2.227-12.003-7.17c-0.95-2.091-0.869-3.693-2.39-5.431
		c-0.951-1.087-1.521-1.711-2.39-2.825c-0.651-0.814-1.765-0.842-2.064-1.847c-0.272-0.95-0.109-1.602-0.109-2.606
		c0-0.842-0.19-1.358,0-2.173c0.57-2.281,2.39-3.177,2.39-5.514c0-0.787-0.109-1.221-0.109-2.009c0-1.467,1.386-1.874,2.281-3.015
		c1.955-2.498,3.449-4.046,3.911-7.169c0.651-4.454,5.622-5.377,5.974-9.885c0.245-2.934,0.869-4.699,0.869-7.631v-7.278
		c0-2.852,0.244-4.536,1.087-7.251c0.353-1.168-0.381-2.227,0.434-3.15c1.494-1.684,2.96-1.874,4.671-3.367
		c3.394-2.96,3.476-6.192,4.671-10.537c0.57-2.146,1.547-3.15,2.39-5.214c1.06-2.58,2.607-3.503,4.237-5.758
		c2.335-3.203,4.345-5.159,4.562-9.124c0.136-2.825,0.815-4.427,2.064-6.952c0.625-1.277,0.923-2.173,2.064-3.042
		c2.064-1.602,2.906-2.824,4.454-4.888c2.226-2.227,3.449-3.612,5.974-5.323c1.168-0.787,1.711-1.494,3.042-1.955
		c1.195-0.408,1.575-1.277,2.716-1.847c1.087-0.543,1.874-0.488,2.933-1.087c3.53-2.037,6.11-2.281,10.156-2.281
		c3.259,0,5.405,0.326,8.093,2.173c1.33,0.896,1.386,2.118,2.281,3.476c1.412,2.145,2.173,3.639,2.173,6.191
		c0,1.738-1.847,2.308-1.847,4.046v0.625h3.449c0.978,0,1.683,0.027,2.417,0.651c0.868,0.76,0.923,1.983,2.064,2.173
		c1.955,0.326,3.503-0.244,5.105,0.978c2.281,1.765,3.124,3.205,4.997,5.322c1.412,1.602,2.933,1.739,4.997,2.39
		c2.308,0.707,3.557,1.303,5.866,2.064c2.118,0.707,3.531,1.032,5.106,2.607c1.629,1.629,1.602,3.558,3.584,4.78
		c2.009,1.25,3.666,0.326,6.029,0.326c3.531,0,5.54-0.135,9.07-0.217l9.016-0.978l12.276,2.554l2.825-0.055l0.76-0.217
		c0.951,0.19,1.357,0.815,1.847,1.629c0.977,1.602,1.385,2.607,1.737,4.454c0.571,2.906,0.978,4.644,2.281,7.278
		c1.521,3.068,2.743,4.698,5.214,7.17c2.417,2.417,5.105,3.666,5.105,7.061c0,2.173-1.032,3.232-1.629,5.323
		c-0.272,0.977-1.086,1.412-1.086,2.445c0,4.807,0.923,7.685,3.258,11.895c0.543,1.005,1.222,1.412,1.847,2.39
		c1.738,2.716,3.232,3.884,5.649,5.974c0.978,0.842,1.765,1.25,2.39,2.39c0.298,0.57,0.326,1.086,0.868,1.412
		c1.169,0.707,2.091,0.787,3.476,0.868c2.662,0.191,4.264,1.712,5.541,4.02c0.516,0.951,0.733,1.602,1.52,2.39
		c1.657,1.656,3.476,1.303,5.105,2.933c1.956,1.956,4.454,0.408,6.844,1.738c1.737,0.978,2.416,1.982,3.693,3.476
		c0.923,1.086,1.52,2.281,2.986,2.281c2.472,0,4.726-1.738,4.726-4.21v-2.227c0-0.95-0.76-1.412-0.76-2.363
		c0-1.357,0.76-2.009,0.76-3.367c0-1.304-0.869-1.956-0.869-3.259c0-0.597-0.244-1.059,0.109-1.52
		c0.217-0.299,0.651-0.136,0.869-0.435c0.408-0.517,0.109-1.087,0.217-1.738c0.245-1.521,0.76-2.335,0.76-3.884v-2.335
		c0-1.087-1.086-1.494-1.086-2.58c0-0.896,0.869-1.14,1.521-1.738c1.087-1.005,1.63-1.711,2.716-2.716
		c1.602-1.494,0.733-3.421,0.978-5.648c0.271-2.363,2.417-3.042,4.562-4.02c0.734-0.326,1.005-0.896,1.739-1.195
		c1.385-0.596,2.498-1.412,2.498-2.906v-3.312c0-4.536-3.286-6.355-4.78-10.619c-1.385-3.992-0.842-6.599-2.173-10.645
		c-1.412-2.824-3.097-3.341-4.563-5.975c-1.113-2.009-0.76-3.558-1.412-5.758c-0.814-2.661-2.579-3.449-4.562-5.431
		c-1.25-1.249-2.281-1.602-3.693-2.607c-0.897-0.652-2.281-0.597-2.281-1.711v-2.987c0-1.575-1.684-1.874-2.607-3.123
		c-2.255-3.015-4.644-3.694-7.93-5.54c-4.834-2.716-7.088-5.133-10.754-9.343c-1.656-1.901-2.281-3.285-4.128-4.997
		c-1.087-1.005-1.929-1.439-2.825-2.607c-1.304-1.711-0.842-3.367-2.173-5.106c-1.168-1.521-1.928-2.363-2.607-4.128
		c-0.896-2.363-2.173-3.258-3.367-5.649c-1.847,1.467-1.982,3.068-3.694,4.78h-0.76c-0.326-2.797,0.109-4.833-1.738-6.952
		c-1.494-1.711-2.743-2.39-4.888-3.15c-1.14,0-1.629,0.652-2.77,0.652c-2.852,0-3.774-3.151-6.627-3.151
		c-1.358,0-2.064,0.435-3.422,0.435c-1.656,0-3.068-0.706-3.585-2.281c-0.569-1.711-0.299-2.96-1.412-4.345
		c-1.25-1.547-2.825-1.602-4.78-1.955c-1.494-0.271-2.255-0.787-3.585-1.52c-1.956-1.087-2.852-2.091-4.889-3.042
		c-1.249-0.598-2.254-0.163-3.584-0.435c-2.39-0.488-3.803-1.629-5.214-3.585c-0.815-1.114-1.25-2.39-2.634-2.39h-2.119
		c-2.037,0-2.389-2.146-3.938-3.476c-1.738-1.521-3.667-1.548-4.671-3.585c-1.902-3.829-5.161-4.454-9.125-6.083
		c-2.634-1.059-3.938-2.498-5.323-4.997c-1.032-1.846-2.417-2.416-3.476-4.236c-1.928-3.34-3.721-6.11-7.604-6.409
		c-2.715-0.191-3.829-1.928-6.083-3.476c-2.255-1.548-3.531-2.363-5.866-3.802c-2.906-1.792-4.074-3.639-7.387-4.454
		c-3.123-0.76-5.295-0.109-7.93-1.846c-2.444-1.63-4.101-2.173-6.844-3.15c-2.445-0.869-3.693-1.956-6.3-2.173
		c-2.146-1.249-2.743-3.259-5.214-3.259c-1.385,0-2.199,0.326-3.585,0.326c-5.052,0-7.74-2.173-11.949-5.106
		c-2.255-1.574-3.612-2.335-5.649-4.128c-0.896-0.788-1.493-1.249-2.281-2.173c-0.978-1.14-1.439-2.498-2.933-2.498
		c-0.815,0-1.25,0.326-2.064,0.326c-0.974,0-1.647-0.25-2.359-0.594l-166.919,166.919
		C918.502,1110.569,918.837,1111.436,919.343,1112.207z"/>
	<path fill="#CE2B37" d="M924.558,1319.252l0.435,0.109c0.652-0.488,0.706-1.195,1.412-1.629c0.706-0.435,1.385,0.19,2.173-0.109
		c0.57-0.217,0.57-0.842,0.76-1.412c0.245-0.733,0.543-1.167,0.543-1.955c0-0.76-0.923-1.303-1.629-1.52l0,0l-1.304-0.869
		c-1.467,0.733-2.417,1.494-2.933,3.041l0.651,2.825c-0.136,0.408-0.326,0.651-0.326,1.086
		C924.341,1319.008,924.531,1319.09,924.558,1319.252z"/>
	<polygon fill="#CE2B37" points="910.111,1336.09 910.111,1336.09 910.111,1336.09 	"/>
</g>
</svg>
