<?xml version="1.0" encoding="UTF-8"?>
<svg version="1.1" xmlns="http://www.w3.org/2000/svg" xmlns:xlink="http://www.w3.org/1999/xlink"
viewBox="0 0 2561 1581" >
 <defs>
  <linearGradient id="lgbt" x1="0" x2="0" y1="0" y2="1"
  gradientUnits="objectBoundingBox">
   <stop stop-color="#E40303" offset="0"/>
   <stop stop-color="#E40303" offset=".1667"/>
   <stop stop-color="#FF8C00" offset=".1667"/>
   <stop stop-color="#FF8C00" offset=".3333"/>
   <stop stop-color="#FFED00" offset=".3333"/>
   <stop stop-color="#FFED00" offset=".5"/>
   <stop stop-color="#008026" offset=".5"/>
   <stop stop-color="#008026" offset=".6667"/>
   <stop stop-color="#004DFF" offset=".6667"/>
   <stop stop-color="#004DFF" offset=".8333"/>
   <stop stop-color="#750787" offset=".8333"/>
   <stop stop-color="#750787" offset="1"/>
  </linearGradient>
 </defs>
	<path fill="url(#lgbt)" stroke="#750787"
  d="M1023 308.8
  c2.463-3.471,5.713-7.477,10.222-5.168c3.859,1.977,6.377-0.83,10.315,1.015c3.671,1.721,4.827,0.798,7.459-1.846
  c4.181-4.197,7.465,0.607,11.972-1.385c4.487-1.984,8.934-2.607,13.537-0.553l5.339,1.082l0,0
  c4.054,1.476,12.845-17.69,15.61-12.689c3.375,6.104,3.203,3.685,9.117,4.43c1.836,0.231,2.487,1.815,3.223,3.369
  c1.467,3.093,4.254-1.687,6.262-2.122c3.795-0.822,6.427-5.707,9.348-3.759c2.354,1.569,7.327,3.913,10.131,1.662
  c7.768-6.237,7.518-0.014,15.747,3.045c5.069,1.884,13.063-0.575,18.418-0.369c8.724,0.336,12.073,10.686,16.208-0.923
  c2.598-7.296,1.589-2.409,6.262-4.061c3.013-1.064,5.09-6.031,8.564-7.105c4.296-1.328,7.791,0.525,12.156,1.292
  c5.12,0.899,18.001-7.196,21.825-3.599c5.221,4.911,6.349,0.285,12.433,1.015c4.884,0.586,5.459-6.133,10.589-7.013
  c4.191-0.719,3.629,4.148,4.881,6.736c2.528,5.221,3.99,0.532,7.644,0.093c5.538-0.666,4.577-1.648,3.315-5.998
  c-0.876-3.021,1.535-2.672,2.578-5.168c1.078-2.576-1.063-8.377,0.276-12.366c1.041-3.104-1.643-5.823,1.658-7.475
  c4.476-2.241,6.998-7.147,6.262-12.182c-1.003-6.86-7.665-6.618,2.302-11.72c3.345-1.712,1.814-3.964,1.473-6.644
  c-0.316-2.481,2.679-3.406,3.96-5.26c4.095-5.928,1.927,2.181,7.459-1.938c1.565-1.165,3.057-2.441,4.881-3.137
  c3.592-1.373,5.34-1.35,7.828-4.891c2.143-3.051,5.703-5.547,8.564-8.029c1.809-1.569,2.623-3.163,3.868-5.076
  c0.639-0.981,3.279-1.593,3.407-1.662c2.199,2.12,3.287,5.793,6.998,5.538c8.761-0.604,5.385-1.024,8.657,5.998
  c3.162,6.784,4.6,16.399,15.194,15.319c6.555-0.668,4.095-5.676,7.92-7.383c2.028-0.904,8.383,0.181,10.59,0.739
  c0,4.204,4.879,4.341,6.63,7.105c3.325,5.244,1.031,2.953,6.722,2.953c0,1.471,2.029,3.101,2.486,4.891
  c0.662,2.596-2.932,5.059-4.604,6.737c-4.044,6.693-3.051,5.153,0.921,9.136c5.829,5.847,6.708-10.852,13.445-2.491
  c5.002,6.208,5.566-9.137,11.327-9.137c0,1.879-1.282,4.877,1.197,5.353c0.865,0.165,5.203-0.598,5.342,0.646
  c0.583,5.235,5.148,0.703,8.012,2.215c1.047,0.554,2.843,7.277,4.42,9.044c1.674,1.876-2.392,4.747-3.039,6.459
  c-3.56,9.411,0.67,4.43,7.367,4.43c6.334,0,4.505-2.706,8.012-7.106c3.56-4.468,2.937-3.247,7.275-5.168
  c1.528-0.677,2.724-4.856,3.315-6.459c1.707-4.621,6.216,3.033,6.446-0.093c0.32-4.316,10.195-5.48,13.629-7.197
  c5.71-1.534,4.547,0.318,7.551,3.322c2.208,2.208,3.538-2.28,4.973-3.23c3.39-2.248,11.336-1.051,5.618-5.353
  c-3.566-2.681-0.589-4.417,2.118-6.921c0.738-0.683,3.179,1.035,5.618-1.015c1.695-1.425,2.245-3.818,3.683-5.538
  c1.972-2.361,6.223-5.434,8.933-7.013c3.596-2.098,2.204-5.41,3.684-8.583c2.022-4.819-3.75-2.877-0.277-7.198
  c2.526-3.141-0.408-3.855,4.605-1.753c3.473,1.456,5.649,0.002,9.209,0.553c3.578,0.553,6.023,1.754,9.762,1.754
  c8.088,0-1.001-5.869,8.288-7.105c4.754-0.633,5.808-4.614,8.749-7.752c5.291-5.644,9.306,3.556,14.641,6.182
  c2.626,1.294,5.517,0.185,8.381,0.185c4.196,0,1.842-1.915,1.842-4.337c2.234-0.756,5.394-0.065,7.551-1.385
  c1-0.612-1.016-6.444-0.092-8.675c1.911-3.942,4.885-7.279,8.841-9.228c3.339-1.644,3.028-3.355,3.591-6.46
  c0.736-4.066,2.693-1.673,3.868-4.337c0.892-2.02-0.712-3.828-0.184-5.538c0.949-3.069,3.923-4.181,4.88-8.213
  c0.576-2.421,3.934-1.274,5.526-3.876c1.564-2.559,6.974-7.981,4.513-10.889c-5.014-5.927,1.481-6.702,2.209-12.551
  c3.649-6.436-3.595-9.947,3.223-15.411c3.836-3.076,4.815-8.878,8.38-11.351c2.571-1.782,5.75-2.905,7.92-4.891
  c2.787-2.553-3.7-6.922,3.684-9.874c5.425-2.17,2.199-9.2,9.577-11.166c7.422-6.884,3.611-8.637,7.183-16.427
  c5.316-11.587-0.74-20.029,15.379-13.104c11.071,4.757,9.012,0.975,18.878-1.938c2.662-0.786,3.977-4.119,6.722-5.26l10.221-4.245
  c3.745-1.556,5.077-0.489,8.749,0c4.603,0.612,10.401-6.091,15.563-4.799c5.068,1.268,9.138-0.864,15.378-2.03
  c7.489-1.065,13.278-1.006,20.905-3.414c14.476-4.569,9.405,10.53,19.707,14.857c5.042,2.118,17.901-7.228,19.799-3.414
  c1.055,2.118,3.297,10.06,4.881,10.704l8.38,3.415c1.08,0.439-1.142,4.731,0,6.459c0.332,0.501,5.067-1.75,8.38,1.385
  c1.83,1.732,2.89-1.63,4.052-2.676c2.535-2.28,5.035-2.702,8.196-3.691l29.008,7.844c5.102,1.379,0.315,10.026,6.999,13.38
  c12.34,6.191,14.557-17.311,27.442-14.765c3.103,0.612,11.654-4.982,14.183-7.013c7.025-5.646,12.099,0.862,18.601,2.491
  l13.776,4.651c0.119-0.327,0.175-0.506,0.222-0.683c1.282-4.888,3.843-4.599,2.578-9.966c-0.698-2.965,3.082-4.113,3.776-6.828
  c0.537-2.102-3.333-3.68-0.092-5.63l12.708,0.184c4.161,0.714,8.677,2.233,12.432-0.461c5.181-3.719,12.709,6.205,12.709-4.061
  c0-4.749,7.45-11.382,8.38-7.751c0.948,3.709,7.322,2.916,10.221,7.105c3.32,4.799,12.892,5.109,16.761,10.428
  c2.479,3.41,5.59,27.066,14.09,23.44c5.062-2.158,2.373,0.774,4.973,2.583c5.168,3.594,8.139-7.196,11.235-3.229
  c2.242,2.871,3.75,0.674,6.261,0.553c2.971-0.143,1.75,2.944,1.75,4.984c0,5.489,4.519,10.025,0.645,15.411
  c-0.97,1.348,2.49,4.073,2.947,5.814c0.756,2.884-0.046,4.657,1.566,7.474c5.146,0.65,4.313,4.473,5.709,8.675
  c0.988,2.976,7.073,10.181,6.354,10.889c1.404,2.108-0.317,9.341,0.093,12.274c0.35,2.508,5.94,2.957,8.748,4.522
  c5.272,3.644,5.781,1.633,7.275,8.029c0.742,3.172,1.043,9.036,3.131,11.535c2.666,3.189,9.05,0.611,12.432,2.492
  c7.394,4.113,6.464,4.06,15.379,4.06c5.614,0,8.64,4.338,12.155,4.338c7.125,0,6.447,1.3,6.447-5.814
  c0-6.192,0.497-18.634,7.828-9.321c2.284,2.901,12.466,2.125,11.695-1.661c-0.091-0.452,8.007-4.788,9.117-3.322
  c1.18,1.557,5.248,5.586,6.171,1.384c0.324-1.478,9.51-8.079,11.234-8.675c6.955-2.4,8.999,4.328,17.958,0.647
  c3.703-2.12,8.512-10.337,12.248-3.599c1.259,2.27,3.947,5.849,6.722,3.783c2.197-1.637,4.711,0.99,5.985-1.569
  c0.684-1.37,2.903-2.897,4.421-1.846c1.693,1.171-0.441,6.177,2.394,5.721c3.32-0.535,5.563-3.876,9.669-2.491l3.18,1.158
  c0.236-0.733,0.827-1.269,2.162-1.343c5.932-0.33-0.672-4.586,1.104-7.752c1.535-2.738,3.065-5.329,5.481-7.075l0,0
  c1.18-0.854,2.573-1.505,4.281-1.876c5.798-1.259,8.455-2.887,13.261-6.459c3.625-2.695,5.529-5.575,8.657-0.277
  c2.31,3.913,3.42,4.799,8.012,4.799c7.521,0,13.491-2.249,8.748,6.459c-1.036,1.903-7.543,8.963-5.617,10.613
  c2.01,1.722,7.73,5.193,5.987,8.49c-0.468,0.883-0.968,1.652-1.467,2.33c5.593,1.838,11.591,4.768,17.306,5.791
  c3.9,0.699,5.155-1.628,5.249,1.754l0.185,6.644c0.05,1.793-2.774,3.289-2.211,4.983l2.947,8.86
  c0.836,2.513,5.158,1.971,5.158,4.891c0,4.188-0.031,9.369,1.289,13.288c1.789,5.318,7.706,7.938,9.578,13.565
  c0.17,2.994,4.119,13.473,7.827,13.473c1.606-3.212,5.889-8.305,9.947-8.305c2.47,0,3.694,1.937,5.802,1.937
  c1.799,0,2.75-2.953,4.052-2.953c0.864,1.729,5.747,5.235,7.735,5.629c3.263,0.647,6.045-4.508,10.59-5.445
  c4.003-0.824,7.833,0.896,5.065,5.537c0.778,1.309,4.801,0.923,6.354,0.923l0.092,0.093c0,6.048,0.722,13.215,6.631,17.164
  c2.994,2.002,3.673-0.548,6.354,3.783c1.857,3.001,4.354,3.2,7.459,3.968c0.231,0.942,0.403,4.464,0.184,5.353
  c-5.874,0,0.645,8.762,0.645,11.997c0,4.248,0.246,2.38,3.315,3.322c2.302,0.707,4.708,4.569,4.881,7.106
  c0.102,1.49-2.317,0.951-2.21,2.029c0.095,0.952,3.198,2.46,2.67,4.522c-0.327,1.278-0.619,2.581-0.368,3.969
  c0.352,1.951,2.705,4.762,0.645,6.828c-2.226,2.231,0.195,4.892,2.946,4.892l4.495,2.837c3.077-1.971,10.438,2.199,14.107,3.437
  c16.309,5.507,21.207-17.485,37.296-12.827c2.034,0.588,8.198,9.044,9.394,3.691c0.424-1.903-1.937-3.738,0.552-4.245
  c1.948-0.397,2.671,0.911,4.697,0.831c1.752-0.069,4.927-5.495,4.697,0.738c-0.198,5.381,0.492,5.414,4.052,1.845
  c4.212-4.22,4.976,0.777,6.516,4.061l-0.714,6.182c1.297,1.983,3.315,3.191,3.315,5.629c0,5.144,5.495-0.504,6.17,5.445
  c0.318,2.805,1.23,6.106,1.933,8.767c0.526,1.987,0.711,4.394,3.408,3.876c4.798-0.921,4.236-0.85,4.236,3.692
  c0,4.441-0.632,9.177-4.052,12.366c-0.503,1.356-1.724,2.252-1.657,3.691c0.3,6.429-4.817,5.19-5.986,9.874
  c-0.531,2.132-7.8,5.128-4.052,8.121c2.127,1.697,4.783,1.369,6.078,4.152c1.151,2.474,1.852,1.75,3.96,2.399
  c3.157,0.972,0.646,5.353,3.868,5.353c3.954,0,3.726-1.283,5.709,2.307l3.223,4.153l0,0l-6.446,4.891
  c-6.501,2.952-8.85,18.544-13.077,24.547c-6.348,9.013-19.573,4.28-27.258,10.427c-5.289,4.232,1.105,12.344,1.105,17.164
  c0,14.989-9.844,9.762-20.628,14.396c-11.565,4.969-12.92,12.667-19.34,22.332c-4.22,6.351-9.233,7.901-16.392,9.69
  c-9.542,2.384-26.402,5.158-33.889-2.861c-9.448-4.152-23.488-19.446-34.258-9.136c-7.507,7.186-5.922,27.674-15.655,29.161
  c-9.973,1.525-13.002,0.247-21.088-4.892c-4.982-3.166-9.553,1.857-13.813,3.784c-2.817,2.827-2.605,5.536-7.275,5.536
  c-2.715,0-5.607,0.889-7.367,2.953c-3.746,4.389-3.346,12.2-6.906,15.227c-3.143,2.673-7.152,5.337-9.762,8.582
  c-3.515,4.372-3.158,7.973-3.407,13.842c-0.257,6.062-4.817,12.392-10.959,13.935l-0.092,0.092l0.277,7.567
  c-1.406,7.55-0.057,14.061-9.025,17.903c-6.935,2.972-15.038,0.45-21.273,6.09c-3.825,3.459-5.322,9.029-9.394,12.274
  c-5.477,4.367-10.861,6.216-16.76,9.597c-6.924,3.971-10.769,13.295-13.814,20.302c0,11.328,4.567,20.32,5.986,31.007
  c1.408,10.604-4.051,22.176-4.051,32.945c0,10.005-22.895,12.262-30.298,15.134c-2.714,1.053-3.07,6.693-4.236,9.32
  c-2.368,5.339-3.94,10.726-7.46,15.596c-2,2.768-12.807,12.016-12.616,13.38l1.657,11.812c-0.494,8.547-8.338,10.456-11.327,17.164
  c-2.567,5.763,1.253,11.888,2.118,17.534c0.654,4.262-0.68,10.224-2.026,14.211c-1.656,4.911-8.379,6.265-11.511,10.151
  c-2.345,2.908-1.985,6.467-3.775,8.859c-1.891,6.162-3.482,18.677-9.117,22.332c-6.126,3.976-17.503,7.076-22.194,12.09
  c-3.9,4.168-7.307,8.25-10.498,13.104c-3.398,5.166-10.177,13.015-14.458,17.441c-2.261,6.806,10.541,7.376,13.538,10.612
  c5.809,6.274-2.242,11.563-4.973,16.519c-2.068,3.751-1.198,9.346-1.198,13.565c0,8.756-8.731,4.688-9.854,11.443
  c-1.859,11.196-13.984,4.626-17.865,13.196c2.825,11.36,8.805,16.31,3.591,28.424c-4.682,10.879-15.051,7.597-23.207,12.274
  c-6.617,3.794-8.156,12.705-11.88,18.64c-1.078,5.794-1.526,11.57-4.328,16.889c-1.196,2.272-6.188,9.733-5.618,11.904
  c1.842,7.017,12.174,7.339,14.274,12.459c3.316,8.079-1.05,8.991-5.617,13.565c-2.781,2.784-4.546,6.434-6.999,9.598
  c-5.42,3.613-15.858-0.063-18.602,3.045c-2.869,3.253,2.003,15.581-0.461,16.888c-12.44,6.602-10.78,24.547-27.258,17.625
  c-3.425-1.439-6.906-0.323-10.406,0c-6.699,0.618-10.089,13.128-12.155,18.826c0.417,5.508,2.998,6.809,1.842,12.92
  c-0.753,3.983-5.239,9.995-7.183,13.75c-3.714,7.173-13.111,16.489-12.8,24.27c0.336,8.446,4.337,10.65,8.84,16.519
  c1.92,4.993,4.955,8.032,5.25,13.658c0.196,3.731-1.329,11.912-4.513,14.119c-10.78,7.477-21.276-7.199-30.206,8.397
  c-3.448,6.023-7.459,13.915-7.459,20.948c0,4.044,2.583,8.118,2.21,11.997c-0.514,1.42-6.091,7.321-7.367,7.752l0.737,15.965
  l-0.092,0.092c-5.508,0-8.925,6.199-14.182,5.353c-7.151-1.151-7.171-4.862-11.327,3.783c-4.346,9.041-17.094,28.598-28.64,16.335
  c-1.761-1.871-3.004-6.519-3.776-7.291c-2.59,1.574-11.75,3.469-14.826,3.323c-3.484-0.293-9.483-9.159-14.182-11.259
  c-5.25-2.347-9.091,3.264-11.695,7.198c-4.411,6.662-16.225-10.536-22.839-9.689c-9.794,1.253-14.34,3.643-22.654,8.121
  c-7.629,4.107-16.488,12.938-14.551,21.317l3.223,13.934c1.019,4.409-11.119,3.684-13.722,3.784
  c-5.708,0.219-1.343,9.671-3.223,14.303l-3.775,5.906c-6.777,1.013-7.465,11.917-14.458,9.321c-3.357-1.245-3.845-6.12-8.472-3.138
  c-5.461,3.52-7.315,11.29-15.471,3.415c-4.535-4.378-10.328-11.759-16.024-14.212c-3.32-1.429-5.971-3.185-8.316-4.886
  l-5.129-0.374c-4.586-1.528-8.143-4.364-12.985-2.861c-4.763,1.477-2.902,7.59-3.775,11.167c-0.991,4.062-2.756,4.426-6.262,6.459
  c-12.61,3.36-21.891-3.615-33.06-5.998c-10.779-2.299-12.472-3.11-20.997,3.23c-4.347,3.232-12.327,3.811-17.773,3.414
  l-5.802,12.274l0,0c-1.506,0.099-5.92,3.595-6.078,0.185c-0.038-0.809,0.581-4.18-0.184-4.523c-1.025-0.461-2.09,1.323-2.67,1.938
  c-1.84,1.945-2.014-0.597-2.119-1.938c-0.107-1.375-2.351-1.366-3.407-1.66c-6.118-2.688-3.934-2.499-5.802-7.198
  c-0.437-1.099-7.552-7.382-8.472-7.382c-0.253-0.775-2.468,1.141-2.763,1.384c-1.488,1.217-3.203,1.832-4.788,2.861
  c-2.318,1.504-3.924,3.895-6.723,4.429c-3.497,0.669-9.246-6.74-12.524-8.767c-3.411-2.111-3.291-5.585-3.96-9.044l-4.163,0.744
  l-4.535,5.913l-4.362,4.893l-2.797,5.152l-5.048,0.371c-3.884,0-4.325-2.304-6.538-4.153c-0.275-2.234-1.6-4.989-2.67-7.013
  c-0.759-1.437-0.724-5.211-1.382-6.09h-11.05c-4.799,0-10.201,1.796-14.919,0.646c-11.176,0.851-17.801,10.721-29.376,14.026
  c-3.422,0.977-7.202-0.88-9.946,1.293l-11.88,9.413h-0.46c-3.418-5.109-11.567-7.164-17.313-8.213
  c-9.172-1.676-8.091-10.423-14.734-13.473c-4.797,0-10.701-4.089-11.972-9.229c-1.363-0.337-4.966,2.637-5.341,4.153
  c-1.559,0-9.137-3.84-9.486-5.261c-4.843-1.198-8.277,11.92-15.01,10.336c-3.641-0.856-21.283-5.675-21.457-1.938
  c-0.275,5.922-2.306,6.172-6.63,9.32c-7.009,5.101-7.821,2.864-13.998,5.076c-3.605,1.29,2.604,13.08,7.182,14.211
  c0,2.024-8.925,6.302-10.406,7.291c-2.643,2.237-3.557,2.933-6.63,1.938c-2.576-0.836-1.923,0.537-3.684,2.307
  c-3.564,3.58-0.434,7.245-3.499,11.074c-1.685,2.105-3.66,3.517-5.985,4.983c-3.861,2.436-5.695,6.808-8.657,9.966
  c-2.743,2.923-12.86,8.947-16.76,7.937c-3.067-0.793-4.403-5.146-6.262-7.383l-30.298,19.287c0,2.801,5.58,10.417,7.92,11.997
  c3.609,2.438-5.072,2.275-5.434,1.385c-3.17-7.798-16.347,1.931-21.18-3.322c-1.561-1.695-12.893-2.345-12.893,1.107
  c0,3.172-5.353,0.937-7.459,0.646c-2.07-0.285-10.017-0.841-11.143-2.306c-1.25-1.627-0.663-6.834-1.381-9.044l-3.96-12.182
  l-11.972,0.093c-0.666,2.694-7.789,11.419-9.67,13.842c-2.759,6.101-5.597,6.808-3.13,14.119c1.37,4.059,1.74,8.226,4.881,11.35
  c-0.03,0.118-0.063,0.159-0.093,0.277c-9.095,1.803-37.219-4.735-29.745,15.319c1.822,4.89,6.811,8.02-2.302,6.552
  c-6.003-0.967-0.267-8.186-10.682-2.214c-3.454,1.981-8.113,0.124-11.787-0.462c-3.407-0.542-6.891-3.783-9.578-4.061
  c-1.49-0.153-5.24,7.351-6.63,8.583l0,0c-1.464,0.488-2.787,0.956-4.328,1.015c-1.084,0.042-2.173-0.092-3.223-0.092
  c-3.332,0-3.399,1.667-4.696,4.337c-5.297,3.671-12.28,1.035-17.682,2.861c-6.714,2.269,2.625,12.487-4.236,14.027
  c-2.472,0.554-7.132-1.351-8.933-3.046c-3.341-3.142-8.075-1.349-8.841-5.997c-0.651-3.946-13.965-3.191-16.944-7.752
  c-6.612-10.126-17.531,4.688-19.615-3.784c-0.828,0-0.221,4.181-0.184,4.891l0.276,5.261c0.183,3.501,0.477,8.852-3.039,10.797
  c-0.411,0.827-6.251,8.942-6.722,4.799c-0.437-3.834-3.361-0.958-3.039,1.569c0.208,1.636,1.104,3.683,0.553,5.353
  c-0.52,1.574-3.739,1.342-4.789,2.86c-0.781,1.132,3.032,4.274,1.474,6.921c-2.605,4.427-5.094,0.5-6.538,7.014
  c-1.339,6.038-10.217,5.456-11.879,9.228c-0.515,1.168,2.516,5.214-0.461,5.353c-5.607,0.262-2.193-3.282-5.526,1.846
  c-0.871,1.342-3.462,0.462-4.789,0.462c-4.618,0-6.772,6.889-11.879,4.337c-4.449-2.224-3.877-8.357-8.012,0.185
  c-1.979,8.928-0.188,13.805-10.038,9.966c-7.335-2.859-4.94,10.833-4.789,13.565c0.334,6.028-5.183,1.401-8.472,0.831
  c-2.688-0.465-4.897,0.554-7.459,0.554c-1.786,0-3.578-9.668-7.091-11.72l-7.735-4.522c-0.31-0.18-5.823,4.986-6.999,6.459
  c-4.413,5.535-1.617,5.438-8.196,1.015c-6.84-4.597-13.877,1.974-19.668,1.127c-1.725-3.934-4.186-3.589-8.604-4.45
  c-6.716-1.308-16.907-19.632-26.522-9.781c-12.323,12.627-17.74-15.479-26.43-0.739c-6.94,11.773-11.833,11.081-22.102,3.23
  c-4.476-3.422-9.976-1.607-13.538-4.337c-7.982-6.119-3.854-6.803-14.09-4.799c-2.585,0.506-5.681,2.731-7.92,0.646
  c-1.676-1.56-3.135-1.885-5.249-0.554c-10.76,6.78-6.469-1.458-12.893-1.754c-10.656-0.491-12.59,19.475-24.956,5.999
  c-6-6.539-5.691-3.265-8.104-12.458c-1.062-4.049-6.125,1.998-7.827,2.399c-3.254,0.768-4.629-6.16-7.367-7.383
  c-6.377-2.85-6.326,5.264-13.169-2.676c-5.982-6.941-11.081-2.286-16.3-5.906c-3.179-2.205-1.877-3.605-7.091-2.861
  c-4.148,0.591-5.124,3.39-8.84,0.277c-6.647-5.57-7.747-17.517-10.59-25.47c-4.131-11.554-11.317-11.133-18.05-19.102
  c-4.547-5.381-8.124-11.021-15.747-9.782c-12.488,2.028-21.145,1.121-32.876-3.968c-2.968-1.287-6.656-5.053-9.394-2.029
  c-3.179,3.511,1.236,8.537-0.921,10.704c-5.95,5.976-8.714-10.992-13.169-2.953c-2.925,5.277-4.373-4.339-4.605-5.999
  c-0.872-6.239-10.845,6.396-14.549-1.66c-4.758-10.347,12.948-0.129,14.274-6.829c1.014-5.124-9.218,1.282-9.393-2.491
  c-0.199-4.277,6.729-5.772,5.617-10.52c-1.822-7.768-8.11,11.402-10.866,3.968c-0.495-1.336-0.414-6.744-2.394-6.829
  c-5.708-0.247-2.708,6.86-3.407,9.597c-0.882,3.453-6.774,3.09-5.71-1.292c0.824-3.391,3.737-5.468,2.027-8.675
  c-0.912-1.71-3.875,4.236-5.25,5.168c-1.88,1.274-3.167-3.655-2.486-5.076c3.991-8.327,1.627-5.757-6.722-5.997
  c-2.871-0.082-4.771-4.765-4.881-7.383c-0.167-3.965,12.42-7.234,5.986-8.859c-2.822-0.712-7.136,2.313-8.472,0.738
  c-2.427-2.863-1.563-9.323,0.921-11.812c5.593-5.606-8.95-3.923-10.958-6.275c-2.037-2.385,3.245-4.113,0.829-7.383
  c-2.121-2.871-15.451,1.855-11.511-2.86c2.204-2.638,3.678-0.918,5.341-4.891c2.531-6.047-2.259-2.142-3.867-4.892
  c-0.692-1.185,5.48-7.85-1.106-5.906c-4.301,1.27-8.156,1.558-12.247,2.953l-0.737-4.246c0.839-2.246,1.861-3.943,0.368-6.367
  c-2.363-3.832,2.947-2.436,2.947-4.799c0-1.526-1.4-2.982-1.843-4.429c-0.609-1.991,0.524-5.083-0.736-6.645
  c-2.297-2.85-8.134,2.78-6.999-4.614c0.308-2.011,2.212-3.002-0.553-4.06c-3.154,0-5.002-2.164-7.643,0.646
  c-2.156,2.293-3.861,0.506-4.42-1.754c-1.402-5.675-4.514-1.419-8.473-5.722c-2.697-2.93-3.099-2.491-6.906-2.491
  c-5.666,0-2.447-5.28-6.906-6.644c-8.171-2.498-12.347-7.578-19.431-11.074c-8.189-4.042-15.195,1.49-15.195-11.905
  c-8.053,0-8.217,3.684-13.442-4.474c-0.47-1.296-1.107-2.546-2.213-3.647c-2.639-2.624-6.568-1.824-8.472-5.445
  c-1.845-3.507-3.436-4.973-6.354-7.567c-3.82-3.396-2.742-7.346-2.666-11.256c0.037-1.908-0.165-3.81-1.293-5.631
  c-2.029-3.277-4.127-5.235-3.131-9.505c0.317-1.365,2.632-3.535,1.566-4.522c-1.956-1.811-3.637-2.211-3.776-5.076
  c-0.138-2.844-3.343-3.021-5.157-4.245c-2.559-1.727-2.688-5.938-5.71-6.644c-4.896-1.145-7.295,1.462-10.774-3.783
  c-1.417-2.136-3.289-9.796-7.551-4.984c-5.017,5.664-5.03-1.616-7.367,0.554c-1.455,1.351-3.937,1.836-4.237-0.923
  c-0.375-3.449-5.235,0.14-6.353-3.045c-1.819-5.178,0.421-9.215-7.275-3.045c-2.723,2.182-5.154-1.455-6.078-3.599
  c-2.917-6.767-5.833-13.537-8.749-20.303c-2.174-5.045-9.124-4.394-9.486-7.013c-0.258-1.868,1.83-3.732-0.368-5.076
  c-4.415-2.701-9.304-0.402-13.63-3.414c-1.035-0.72-2.143-0.679-3.29-0.449l0,0l-2.05-4.443c-2.641-2.108-9.084-0.477-12.524-1.753
  c-3.58-1.329-5.04-7.261-8.473-9.506c-2.635-1.721-3.97-3.696-6.169-5.906c-2.175-2.184-2.865-7.508-2.302-10.52
  c0-1.136-0.184-2.127-0.184-3.137l-0.092-0.092c-5.826-1.472-3.503-5.256-3.96-10.059c-0.742-7.806-2.993-6.182-9.301-6.182
  c-3.552,0-2.907-5.127-3.039-7.66c-0.358-6.798-5.795-3.798-6.814-8.398c-0.608-2.742-1.938-2.683-4.052-4.337
  c-2.13-1.668-3.482-2.791-3.868-5.537c-0.8-0.198-1.925-1.099-3.131-1.384c-0.784-0.186-4.213-0.233-4.512-0.831
  c-0.19,0-0.321-0.039-0.369-0.185c-1.531,0-3.018-4.503-3.131-5.722c-0.585-6.528-11.047-2.725-10.59-8.674
  c0.419-5.47-1.859-6.195,1.843-10.89c0.346-0.438,0.877-2.278,1.381-2.214c1.79,0.224,6.359,7.113,8.104,2.491
  c1.617-4.285,0.483-9.644,1.75-13.749c0.539-1.75,2.394-4.023,2.394-5.63c-3.921,0-15.732-0.319-18.786-1.846
  c-8.786-4.393,2.261-7.532-0.829-10.889c-3.099-3.368-3.5-2.863-5.894,0.461c-2.192,3.042-5.25-6.217-4.604-8.213
  c-1.586-4.777-10.867-9.724-10.867-14.027c0-3.477,4.39-8.106,3.592-11.351h-0.184c-0.148-0.449-6.395-0.276-7.367-0.276
  c-0.427-1.31,0.037-10.166,0.552-10.336v-0.277c10.033-2.48,9.11-2.543,11.235-12.181c1.17-5.31,1.773-15.083-4.973-16.058
  c-0.073-0.256-1.946-1.689-2.302-2.214c-2.17-0.906-6.511-3.704-8.012-5.537c-0.961-1.175-2.49-4.821-3.683-5.353
  c-4.622-2.062-12.356,0.967-17.958-1.016c-0.935-0.331-3.496-1.428-3.591-1.292c-2.617,3.786-4.847,4.984-9.762,4.984
  c-6.217,0-7.304,2.258-11.88,5.076c-2.043,1.257-4.636-0.469-6.906,0.553c-3.815,1.715-2.331,2.167-6.999,1.846
  c-3.048-0.21-5.469-0.644-6.17-4.061l-3.96-3.137l0,0c2.5-2.204,5.091-2.694,6.907-5.629c1.131-1.828,2.445-4.44,4.144-5.813
  c1.877-1.519,4.007-1.898,5.525-3.969c2.097-2.861,3.523-6.008,6.63-7.936c4.394-2.727,4.008-11.254,6.131-14.736
  c0.241-0.092,0.713-0.366,1.421-0.859c1.57-1.092,2.869-1.722,4.788-1.569c1.656,0.133,2.356,4.655,5.71,1.292
  c2.117-2.122,3.132-1.392,5.434-2.583c1.667-0.862,0.761-3.135,2.21-4.061l0.767-4.15c3.234-6.947,4.508-0.748,8.625-1.664
  c4.78-1.062,0.909-28.054,9.762-28.054c2.687,10.867,4.662,3.617,12.524,5.721c1.826,0.489,4.183,2.74,5.802,1.661
  c4.043-2.695-1.414-8.931,6.722-4.614c7.05,3.742,10.179,3.452,18.878,1.384c2.448-0.582,11.331,14.891,14.458,3.138
  c2.258-7.473,8.767,6.678,12.432,1.569c2.28-3.18,11.235-0.944,11.235-4.522c-7.398,0-8.821-7.075-12.893-11.166
  c-1.452-1.458-3.512-5.223-6.169-3.968c-1.543,0.729-4.44,3.968-5.895,3.968c-0.811-3.28-5.634-4.063-0.184-6.644
  c4.216-1.996,9.979-6.679,14.55-7.198c3.516-0.4,14.458-0.671,14.458-5.998c-2.906-0.961-5.002-5.317-7.09-5.813
  c-1.985-0.473-5.17,1.943-5.526-1.2c-0.134-1.186-8.117-1.459-6.262-4.615c1.201-2.041,3.061-0.812,0.093-2.214
  c-2.984-1.409-3.868-3.898-3.868-7.198c2.768-2.034,3.815-0.584,6.354-1.569c1.445-0.561-0.091-3.561,1.197-4.522
  c3.089-2.302,8.242,1.525,6.354-5.168c-1.676-5.942,17.916-1.706,10.958-9.413c-3.84-4.256-0.995-7.567-7.459-7.567
  c-3.312,0-7.883,0.082-11.143,0.646c-2.628,0.455-5.436,1.657-8.011,1.846c-1.338,0.099-1.946-2.287-2.671-3.599
  c-2.241-4.054,2.39-3.189,3.684-6.091c1.65-3.705,1.2-6.599-1.382-9.874c-2.942-6.745-7.815-1.133-12.432-4.798
  c-0.613-0.486-2.762-9.136-2.762-10.059c0-2.789,6.6,0.495,8.012-2.86c1.245-2.955-0.296-5.97,0.276-8.952
  c0.383-1.996,2.455-3.054,1.566-5.353c-0.723-1.869-2.407-12.171,0.737-11.997c3.714,0.207,3.776,3.902,8.472,2.584
  c6.34-1.777,3.02-7.526,4.697-11.536c0.958-2.289,4.008-1.283,4.42-2.768c0.335-1.208-2.452-5.805-2.762-7.475
  c-0.599-7.844-4.499-13.243-6.815-20.21c-1.762-5.304-10.589-7.814-10.589-13.842c3.962,0,5.772,0.632,6.538-3.783
  c0.297-1.714,0.831-3.732,0.736-5.445c-0.333-6.007-2.837-3.363,2.118-7.752c0.798-0.706-2.018-2.382-2.486-2.676
  c-2.002-1.262-2.535-4.845-3.499-6.921c0.775-4.672,5.536-9.978,11.419-7.567c3.195,1.309,12.071,22.517,13.076,8.951
  c0.787-10.62,11.518-6.998,14.275-0.092l10.958-4.522c3.286-1.356-1.341-5.078,3.684-7.844l13.077-7.198
  c3.047-1.677,2.474-5.445,6.078-5.445c3.749,0,7.733-10.369,10.314-13.38c4.892-5.711-3.452-10.391-4.973-16.15
  c0.916-1.837,2.21-5.341,3.96-6.552c3.51-2.429,0.584,3.709,4.329,1.938c1.965-0.928,7.126-3.769,7.459-6.091
  c3.017-0.597,5.773-4.457,3.315-7.198c-0.583-0.652,3.565-6.355,4.328-6.736c0-0.128-5.572-1.346-6.722-3.414
  c-1.259-2.262-2.309-4.062-2.947-6.644c-0.187-0.046-0.322-0.183-0.368-0.37c-2.208-0.546-4.682,0.827-6.538-0.83
  c-5.963-5.319,0.125-3.569,1.658-8.306c0.932-2.876-1.55-7.654-3.131-9.782c1.002-1.672,2.486-3.505,2.486-5.536
  c-0.169-0.042-0.142-0.016-0.184-0.185c-2.378,0-5.212-1.367-6.262-3.691c1.03-6.201-2.329-6.515-6.63-9.412
  c-2.856-1.926-3.685-0.147-6.354,1.384c-4.287,2.458-9.545,3.507-14.457,3.507c-4.975,0-9.64-5.046-13.261-8.121
  c-1.894-2.143-9.904-8.305-12.617-8.305c-1.165,3.521-1.609,6.259-5.894,4.152c-3.018-1.484-4.754,0.262-5.986-3.322
  c-1.309-3.81-24.128-5.013-24.128-9.504c0.901-0.227,4.261-1.327,4.513-2.215c8.269-1.17,4.294-13.142,6.814-15.965
  c2.004-2.246,2.329,7.398,6.722,7.937c4.051,0.497,11.542-14.952,15.379-13.842c4.979,1.441,2.987-3.045,8.104-3.045
  c2.076,0,8.288-3.114,8.564-5.076l-3.407-6.183c-1.74-3.159-1.746-4.621,2.118-5.168c0.198-1.406-0.05-2.913,0.276-4.337
  c0.105-4.469,2.354-5.397,6.446-3.507c4.736,2.189,10.833-2.826,16.484-2.491c1.426,0.084,2.29,1.474,4.42,1.384
  c1.814-0.076,3.404-1.107,5.158-1.107c0,14.69,20.931,8.445,28.916,12.827c5.728,3.142,10.332,24.418,13.169,30.823l30.482-0.923
  c2.803-5.778,1.766-9.685,6.814-14.396c1.53-1.427,7.06-7.106,8.933-7.106c-1.274,1.705-1.137,10.362-0.276,12.551
  c0.855,2.174,0.127,4.968,2.209,5.813c13.262,5.383,30.821-2.157,43.927-5.168c4.308-0.306,8.599-2.016,12.893-2.676
  c7.941-1.22,18.499-2.953,26.338-2.953l0.092-0.092c-0.124-0.5-5.88-5.473-6.722-6.46c-4.288-5.017-3.491-12.605-3.776-19.01
  c-0.16-3.624-0.295-6.631-1.474-10.058c-1.449-4.214-5.481-7.125-4.16-12.092c0.507-1.145,2.495-4.054,3.607-4.889
  c0.847-0.637,5.239-3.078,3.408-4.522c-0.922-0.726-3.408-2.516-3.408-3.691c0-4.453-2.378-2.383-4.42-5.353
  c-0.966-1.404-0.261-2,0.276-3.229c0.435-0.999,0.369-2.175,0.369-3.322l-15.655-12.09c0.887-1.293,1.903-3.913,2.117-5.445
  c2.97-0.73,5.947,2.888,9.486,1.662c2.748-0.951,5.281-4,8.196-5.168c2.557-1.024,8.768,0.658,9.117-0.554
  c0.628-2.18,4.712-9.653,6.446-10.52v-0.185c0.141-0.046,0.092,0.002,0.092-0.184c0.141-0.047,0.092,0.002,0.092-0.185
  c-6.294-2.083-1.85-5.813-0.276-9.597l3.131-8.029l-8.012-3.783l9.67-14.858l-6.907-5.537l17.497-16.242l5.987-3.876l0,0
  c4.351-2.005,11.617-7.476,16.484-6.829c1.616,0.215,2.798,1.839,4.236,1.754c2.353-0.138,4-2.768,7.091-2.768
  c6.249,0,2.478,5.249,4.42,8.398c3.286,5.333,12.976,5.725,18.509,5.998l13.849-0.4c3.227,2.931,6.052,6.797,8.344,11.012
  c4.781,8.787,13.118,9.683,18.142,17.164c2.966,4.418,5.021,5.409,8.473,8.675c4.314,4.082,5.61,13.161,8.288,18.549
  c5.49,11.042,18.084,13.336,28.363,17.533c3.691,1.506,6.349,5.357,7.92,8.952c0.85,1.946,1.087,4.525,1.658,6.552
  c0.796,2.825,3.535,4.345,4.144,7.013c2.643,11.563,11.084-0.675,17.958,2.768c5.798,2.905,11.712,10.871,17.313,15.042
  c5.423,4.037,9.918,6.532,14.458,11.628c2.805,3.148,6,8.228,10.13,9.504c6.882,2.128,14.146,0.708,20.352,5.261
  c1.585,1.162,3.113,1.955,4.625,2.48c5.401,1.879,10.633-0.058,17.661,0.38c5.482,0.341,11.398-0.805,17.036,0.277
  c6.231,1.196,7.1,0.297,12.617-1.754c10.014-3.724,10.875,2.604,19.983-7.105c3.168-3.378,9.488,3.864,12.524,5.168
  c4.494,1.931,9.036-3.294,12.709-4.984c10.014-4.608,32.346,0.704,44.799,4.764c1.529,0.498,2.849,1.206,4.1,1.419
  c5.118,0.874,7.889,3.232,13.63,1.846c12.618-3.049,18.736,0.515,30.298,3.599c8.862,2.363,16.279,1.48,24.956-1.2
  c12.201-3.767,17.848-8.462,30.85-8.767c5.765-0.135,8.238-5.23,13.077-5.998c5.663-0.9,6.964,4.252,10.682,4.891
  c10.229,1.758,12.067-1.461,20.536-5.813c10.775-5.539,23.743,2.214,34.811,2.214c12.861,0,26.045-5.841,34.901-14.673
  c3.957-3.946,1.481-12.834,8.288-14.303c4.91-1.06,12.249-6.993,17.405-5.998c7.276,1.404,14.553,2.813,21.831,4.218
  c0.459-0.883,0.642-1.98,1.377-2.65c5.07-4.62-0.267-4.614-2.947-4.614c-10.267,0-5.307-8.201-9.762-13.012
  c-1.838-1.985-4.063-1.352-6.354-1.938c-2.341-0.599-2.879-2.23-3.407-4.245c-0.313-1.195-16.769-4.603-11.787-9.597
  c3.475-3.484,1.853-3.697-1.198-7.013c-1.349-1.466-0.281-2.352,0.829-3.599c1.153-1.297,0.104-3.141-0.276-4.799
  c-1.897-8.276-0.49-4.9,3.499-10.797c3.13-4.628-2.018-6.535-0.368-9.781c1.615-3.179,4.381-3.667,2.21-7.568
  c-1.854-3.332-8.453-8.437-5.342-12.366c2.365-2.985,6.99-2.479,8.38-4.06c2.201-2.5,4.805,1.854,6.354,0.738
  c2.891-2.083,8.224-6.003,8.472-9.966c0.106-1.698-2.157-2.445-2.578-4.153c-0.708-2.865-0.828-6.347,1.29-8.213
  c5.637-4.969,2.24-4.101,0.921-8.121l0,0 z"/>
</svg>