<?xml version="1.0" encoding="utf-8"?>

<!DOCTYPE svg PUBLIC "-//W3C//DTD SVG 1.1//EN" "http://www.w3.org/Graphics/SVG/1.1/DTD/svg11.dtd">
<svg version="1.1" id="Layer_1" xmlns="http://www.w3.org/2000/svg" xmlns:xlink="http://www.w3.org/1999/xlink" x="0px" y="0px"
	 viewBox="0 0 2578 1658.055" enable-background="new 0 0 2578 1658.055" xml:space="preserve">
<g>
	<path fill="#D52B1E" d="M940.655,202.043l-6.302,15.416c-2.435,1.851-5.911-0.529-8.887-0.396c-3.895,0.174-2.628,2.999-4.05,5.242
		c-2.507,3.958-7,8.145-10.665,11.079c-2.913,2.33-5.87,6.183-9.184,7.814c-4.849,2.389-9.497,3.189-12.245,8.407
		c-4.696,8.918,10.087,4.124,13.332,3.957c5.064,3.992,0.754,5.857,0.494,11.672c-0.235,5.221-7.536-3.286-8.691-3.759
		c-6.39-2.621-5.23,0.73-2.567,4.056c7.707,9.631-3.99,28.288-14.715,29.872c-4.788,0.707-6.857-4.118-10.27-6.43
		c-2.73-1.849-11.125-7.122-14.319-7.122c-0.73,0-2.015,4.429-2.865,5.341c-1.166,1.254-4.246,4.605-4.246,6.33
		c3.568,0,6.656-2.433,9.579,0.495l7.801,7.814c3.711,3.716-3.32,6.164-5.826,7.616c-5.79,0.498-7.596,7.883-10.468,11.968
		c-6.152,8.755-18.44,11.747-28.934,12.463c-7.067,0.482-12.914-1.204-18.467-5.341c-2.905-2.163-3.506-1.748-6.617-0.89
		c-3.91,1.079-8.116,0.852-11.751,2.274c-6.089,4.474-16.057,6.195-22.713,10.188c-3.808,2.285-10.271,7.304-10.271,0.792
		c0-3.911-3.44-7.332-5.53-10.287c-4.466-6.315-11.61,4.977-18.368-0.197c-2.654-2.033-5.795-2.374-9.085-2.374
		c-1.06,0-7.308-0.27-7.308-1.385c5.422-2.739,3.654-13.46,3.654-18.3c2.415-5.448,2.869-8.754,6.419-13.749
		c2.47-3.473,6.912-6.221,6.912-10.98c-6.872,0-10.479,8.44-19.159,3.463l-15.701-9.002c-6.919-3.968-26.554,14.816-36.539,11.177
		c-16.259-5.928-28.194-19.031-43.55-4.747c-2.242,2.086-2.839,16.244-0.89,18.2c4.964,4.98,11.703,12.228,3.358,18.497
		c-4.167,1.302-10.508-1.197-12.245,3.363c-1.703,4.472-4.569,9.535-10.37,8.606c-11.579-1.854-5.46,7.461-6.517,14.145
		c-1.529,9.673-9.056,8.803-14.517,13.156c-7.865,6.267,0.929,12.348-11.456,16.321c-8.619,2.764-9.875,11.709-9.875,19.387
		c-1.953,8.567,11.016-1.088,14.813-1.088c3.557,0,5.735,2.385,9.777,1.385c8.706-2.157,16.926-4.248,25.972-4.452
		c6.236-0.139,11.353,1.566,16.097-3.263c1.397-1.423,4.854-7.521,7.011-5.936c2.592,1.906,6.091,0.964,8.394,2.375
		c1.895,1.161-0.743,3.34,4.345,4.154c9.907,1.587,11.456,15.808,11.456,24.926c0,8.146-13.287,3.824-17.479,5.045
		c-3.976,1.158-5.729,10.587-6.419,14.046l-4.049,10.386c-5.267,1.252-10.534,2.507-15.8,3.758c-7.4,1.76-17.57-4.551-19.553,6.925
		c-0.725,4.203,3.172,12.675,4.443,17.012c0.38,1.299,1.143,4.931,0.494,6.232c-3.156,6.326,0.313,2.849,0.691,7.517
		c0.138,1.714-1.768,3.526-3.259,4.056c-3.317,1.179-2.291,6.312-5.431,8.407c-4.229,2.822-4.243,3-6.84,9.112
		c-2.522,5.939-11.852,8.233-15.972,13.342c-2.481,3.076-6.445,4.177-9.085,6.824c-2.353,2.359-1.935,5.803-3.357,8.705
		c-2.453,5.006-12.992,4.101-15.702,8.012c-4.153,5.992,4.249,5.012,8.591,6.924c7.196,3.169-9.352,10.931-11.653,12.859
		c-1.948,1.633-13.542,11.306-15.176,11.957c-2.776,1.105-4.698,4.827-8.031,6.638c-3.884,2.111-10.71,5.058-15.01,6.33
		c-4.62,1.367-7.38,4.85-11.555,6.825c-6.686,3.164-1.619,9.857-2.271,16.222c-0.641,6.251-12.95-1.799-16.59,2.374
		c-0.062,0.071-1.17,0.656-1.482,0.891c-2.721,2.046-2.279,4.888-1.58,7.715c0.791,3.196-4.755,4.606-7.576,6.48
		c1.585,3.407,10.938,12.019,14.489,12.907c0,1.477-9.24,7.368-11.061,9.298c-3.254,3.453-5.823,3.312-10.369,4.451
		c-5.946,1.491-12.088,6.019-14.813,11.177c-1.456,2.757-1.642,5.849-2.666,8.803c-1.442,4.159-5.021,6.907-8.197,9.891
		c-3.484,4.704-11.694,4.363-17.085,4.55c-7.186,0.249-5.432,2.701-11.554,6.529c-10.975,6.865-24.49,6.39-35.254,11.771
		c-2.24,1.12-5.349,3.504-7.605,1.781c-8.324-6.357-3.981-1.87-12.146,4.055c-9.531,6.914-13.792,19.898-23.504,27.201
		c-5.092,3.829,2.165,6.596,4.445,10.683l9.875,17.706c-2.878,4.165-1.754,16.941-2.567,22.453
		c-0.699,4.74-1.182,9.256-2.765,13.749c-1.402,3.977-3.629,7.531-5.728,11.177c-1.482,2.575-1.989,6.27-2.863,9.002
		c-1.511,4.725-4.881,7.676-3.161,12.859c2.366,7.129,4.408,7.399,8.79,12.759c-0.074,2.275,3.922,3.741,2.172,6.825
		c-1.878,3.308-2.036,7.871-3.357,11.573c-1.434,4.015-8.106,8.609-11.653,10.386c-10.491,4.356-18.596,1.669-19.17,14.442
		c-0.199,4.447-3.798,5.616-7.505,4.748c-4.707-1.102-1.625,3.343-4.74,5.242l-37.132,22.651
		c-6.278,3.83-15.202,6.113-17.677,13.848c-2.636,8.242-12.49,13.192-16.69,20.674c-5.881,4.106-11.449,7.739-15.801,13.255
		c-2.069,2.621-4.602,2.316-6.912,4.154c-3.145,2.504-6.836,7.644-9.974,10.782c-3.454,3.453-3.89,3.802-8.099,6.133
		c-4.751,2.631-11.336,10.089-15.603,14.046l-14.616,13.552l24.603,24.428l-3.851,4.748l3.457,4.055l-20.047,15.332
		c-1.388,4.057-3.555,7.113-5.135,11.078c-3.148,7.894-5,13.763-9.777,20.871c-2.937,4.37-6.159,7.886-9.678,11.87
		c-6.447,7.299,8.53,7.109,6.616,14.342c-1.447,5.461-8.306,15.106-11.751,19.98l15.011,6.726
		c8.272,3.706,12.536,11.996,21.528,15.431c4.37,1.67,4.553,5.601,7.703,8.012c2.922,2.238,8.431,3.661,10.37,6.33
		c2.027,1.121,3.874,4.134,1.876,6.133c-4.435,4.435-4.235,10.117-8.197,14.539c-3.414,3.813-8.196,4.021-8.196,10.486
		c0,7.183-9.251,9.901-10.271,16.815c-0.507,3.44,0.988,5.956,0.988,9.298c0,3.479-4.528,8.564-7.012,10.584
		c-3.694,6.823,1.396,6.991,0,12.661c-1.08,4.385,2.502,4.578,5.136,7.221c2.156,2.162,6.825,8.228,4.049,10.188
		c-2.35,1.658-9.744,10.781-11.949,10.781c-0.094,0.142-0.072,0.099-0.297,0.099c-2.063-2.581-6.061-8.335-9.876-6.925
		c-2.005,0.742-3.701,2.124-5.727,2.671c-2.87,0.777-3.439-2.769-5.234-2.769c-0.482-0.731-2.432,1.694-2.667,2.077
		c-1.162,1.885-6.762,8.488-8.69,8.803c-2.885,0.471-3.598-2.968-6.123-2.968c-2.231,0-9.151,2.291-10.863,3.561
		c-1.479,1.098-0.316,3.843-3.654,5.638c-2.696,1.451-3.584,1.868-6.617,1.682c-2.583,1.465-3.805,3.025-5.925,4.846
		c-3.517,3.02-7.174,5.878-5.037,10.88c1.18,2.765,2.921,4.288,5.531,5.737c3.308,1.837,7.396,11.488,9.867,14.202
		c-3.669-0.222-6.187-2.738-6.213,3.899c0,0.047-0.054,0.109-0.099,0.099c-1.275-0.28-5.42-5.144-5.037,1.681
		c0.203,3.616-1.468,8.22-3.456,11.375c-2.158,3.426-3.43,5.232-4.839,8.902c-0.399,1.04,0.176,4.392,0.112,5.666
		c-0.024,0.51-0.256,0.506,0.34,0.344l14.065-3.834c4.276-1.686,10.744-1.151,15.405-1.681c5.129-0.583,10.389,10.469,15.405,0
		c3.75-7.829,4.996-5.144,13.036-5.144c4.236,0,12.168-1.464,15.405,1.781c15.751,15.782,24.283-1.76,38.81-7.418
		c5.232-3.224,6.25-1.594,8.295-7.518c1.072-3.102-0.244-6,0.197-8.901c0.129-0.849,10.246-10.727,11.851-11.969
		c3.265-2.528,7.315-7.122,10.962-8.804c3.82-1.764,5.421-0.153,8.986-0.692c3.59-0.543,9.892-5.847,13.431-7.616
		c5.785-2.891,10.118-6.132,15.011-10.485c7.43-8.886,6.667-12.574,3.555-22.751c-0.613-2.004,0.058-5.944-2.172-6.924
		c-2.852-1.255-9.96,10.276-14.517,10.98c-4.387,0.677-11.699-14.796-14.517-18.101c-2.034-2.384-6.649-7.207-1.877-9.595
		c5.352-2.678,4.006-10.376,2.166-15.446l0,0c-0.683,0.265-1.465,0.411-2.363,0.411c-0.699,2.766,0.051,4.361-1.086,7.319
		c-1.222,3.185-4.72,4.826-6.716,7.319c-3.25,4.063-6.076,16.914-12.048,16.914c-5.596,0-5.135,0.791-5.135,6.726
		c0,4.479-1.187,15.807-3.851,19.289c-2.102,5.576-8.237,15.081-13.431,17.211c-1.989,0.816-3.97,2.306-5.925,3.462
		c-3.546,2.099-3.258,3.025-3.258-0.593c0.838-0.282,0.693-5.667,1.481-6.726c-2.129-3.584,0.297-17.326,0.297-21.563
		c0-6.302,4.263-14.96,9.184-17.706c1.219-0.681,0.817-3.041,1.284-4.253c1.88-4.88-1.293-6.612-0.988-10.683
		c0.136-1.834,4.659-4.612,0.988-5.539c0-1.928,0.126-3.39,1.777-4.451c1.223-0.931,1.53-1.733,2.074-3.067
		c0.502-1.236,2.554-3.04,3.456-4.253c1.543-2.08,3.192-3.706,4.543-5.736c2.468-3.713,3.196-6.339,4.642-10.683
		c1.306-4.042,2.818-7.023,3.062-11.375c0.347-6.179,3.199-11.379,7.209-16.123c5.498-6.502,10.605-15.79,17.183-21.168
		c3.32-2.716,4.869-6.252,9.777-4.056c4.437,1.986,6.772,0.157,8.591-5.342c0-2.524-2.074-4.705-2.074-6.528
		c5.623,0,6.518-10.055,6.518-13.947c7.507,0,8.085-5.207,12.344-10.188c0.988-1.154,2.428-5.639,3.259-5.835
		c3.922-0.931,5.676-2.723,8.591-5.638c2.459-2.459,0.88-5.531,5.531-6.628c4.957-1.171,10.875-4.026,15.701-4.253
		c5.231-0.247,9.007,5.322,13.036,3.66c6.087,0.873,6.472-3.059,11.159-4.846c7.052-2.691,12.934-5.106,19.553-9.002
		c1.441-0.848,4.524,0.679,4.838-1.781c0.522-4.09,1.702-8.171,6.716-9.199c4.621-0.947,3.021-0.946,5.135-4.946
		c0.833-1.575,3.014-3.233,4.543-4.252c3.367-2.243,3.929-6.612,7.505-8.507c3.421-1.814,11.379-1.589,14.319,1.088
		c5.108,2.859,9.956,6.034,16.689,3.758v-0.792c1.192-0.3,1.086-3.264,3.556-3.264c3.838,0,5.106-4.055,8.394-4.055
		c2.809,0,5.474,0.605,6.715,3.165c0.481,0.99,9.683,2.395,12.739,5.44c4.362,4.345,3.981-2.01,8.197,0.298
		c5.278,2.89,12.447,0.288,19.454,2.473l12.048,3.758c4.915,1.532,7.713,5.058,11.949,7.419c2.805,0.075,6.999,3.792,9.481,2.869
		c7.074-2.632,6.455-4.629,12.048,1.385c8.51,9.147,18.123,4.885,27.058,9.891c3.273,1.834,17.715,3.103,17.875,5.242
		c0.572,7.641,6.217,3.02,10.467,6.825c1.841,1.648,1.417,6.924,3.753,6.924c3.762,0,4.764-0.043,8.295,1.187
		c1.539,0.535,1.436,2.15,2.173,3.165c3.154,4.338,12.299-0.397,14.517,4.747c0.586,1.448,1.339,4.901,2.271,5.837
		c1.581,1.585,4.996-0.426,5.332,0c0.437,0.552,0.87,2.635,1.185,3.462c0.535,1.407,1.194,2.128,2.074,3.264
		c0.576,0.745-0.365,1.277-0.099,2.077c1.079,3.249,4.392,7.464,1.383,10.485c-2.094,2.103-1.764,4.626-3.456,6.726
		c-1.38,1.714-9.523,0.277-11.456,0l-1.877,0.099c-3.096,0-20.219,1.997-20.935-0.198h-0.396c-1.676,2.266,2.523,6.157-1.185,7.024
		c-2.542,0.595-6.953,0.261-9.776,0.395c-5.953,0.28-14.054-1.713-17.678-5.835l0,0l-2.271,6.43c1.933,5.642,2.665,5.86-2.469,9.792
		c-3.867,2.961-14.338,7.245-14.714,12.265c-0.361,4.823,3.344,8.35,5.037,12.563c1.958,4.871,2.561,8.115,7.703,8.803
		c4.849,0.65,1.002,3.408,3.16,6.923c2.111,3.441,10.445,4.43,13.628,8.606c3.945,5.174,3.373,11.54,10.171,15.925
		c5.77,1.924,16.858,8.205,10.567,15.826c-3.095,3.748-2.69,13.928-6.222,15.43c-5.574,2.37-4.45,3.083-7.111,8.21
		c-1.488,2.87-3.272,6.726-7.11,6.726c-2.996,0-1.976,2.74-1.976,5.044c0,4.185-3.479,6.171-5.135,9.891
		c-2.644,5.938-2.469,5.671-2.469,11.87c-0.276,9.935,5.767,19.604-5.333,27.003c-5.872,3.914-1.762,11.822-1.382,16.816
		c0.796,10.453,1.805,6.156,8.789,10.781c5.171,3.426,7.038-0.494,12.838-0.494c2.939,0,5.316,3.536,8.394,4.351
		c5.003,1.324,8.552,0.266,13.431,2.869c3.579,1.911,7.224-1.549,11.06-0.792c2.671,5.343,0.855,13.935-2.073,19.387
		c-3.06,3.302-3.555,5.259-1.185,9.595c6.297,11.519-16.98,20.886-4.049,33.235c9.577,9.144,21.236-15.034,30.12-15.034
		c0,3.896,1.297,7.667,3.259,11.078c1.867,3.244,5.278,4.739,7.9,7.221c3.349,3.169,3.406,8.837,7.406,11.771
		c4.126,3.028,7.345,7.008,8.493,11.969c-1.423,11.104,9.817,6.725,12.146,12.562c1.356,3.396,9.124,11.052,8.197,13.552
		c-1.254,3.386-7.926,1.719-7.703,7.913c0.305,8.476,10.499,7.427,14.911,10.485c1.883,1.306,1.298,14.207,2.666,17.507l1.383,8.902
		l0,0c2.52,0.787,2.918,3.319,4.938,4.451c4.394,2.46,5.826,2.717,5.826,8.21c0,7.804,7.057,5.594,7.999,11.771
		c0.501,3.286,2.05,4.186,4.345,6.231c2.76,2.462,3.28,4.519,4.74,7.814c3.012,4.906,3.331,10.188,10.468,10.188
		c7.405,0,19.139-19.827,24.886-15.134l13.925,11.375c11.365,9.284,7.091-7.804,14.911-13.453c1.896-1.37,6.619-9.693,9.382-6.925
		c3.999,4.008,8.373-3.168,11.158-1.483c0,10.367,12.301-2.52,14.319-5.441c3.268-3.868,8.244-20.63,14.319-16.42
		c2.966,2.056,6.811,1.443,9.48,3.165c2.055,1.328,1.764,5.23,4.741,5.342c5.348,0.199,6.393-7.115,11.258-3.659
		c3.486,2.475,5.42,4.148,8.394,7.122c2.684,2.684,5.999,0.869,8.591,3.462c8.716,8.717,9.446-7.32,14.912-7.32
		c7.124,0,12.691-10.347,18.665-15.53c4.359-3.78,7.546-4.103,12.64-3.263c9.213,1.521,6.321-6.771,6.321-12.364
		c3.459-1.486,12.775-10.78,15.701-10.485c1.082,0.108,0.217,4.056,2.271,4.056c5.412,0,2.354-5.477,10.271-1.385
		c10.99,5.68,13.421-1.069,11.06-11.178c-1.465-6.27,6.045-11.224,11.752-12.067c13.312-1.964,3.906,12.519,16.097,14.738
		c5.726,1.043,10.495-2.692,15.899-1.583c5.489,1.127,11.785,1.796,16.591-2.274c6.666,1.079,11.166,0.431,12.838,8.902
		c1.91,9.68,6.292,4.407,12.64,6.528c7.749,2.59,1.411,18.99,11.259,24.729c10.496,6.117,9.355-15.485,18.368-13.156
		c3.679,0.95,12.397,3.293,14.023,6.726c3.659,7.732,10.194,14.026,17.677,7.122c7.805-7.199,11.623,1.148,20.343,1.88
		c5.34-1.688,10.269,6.568,13.925-2.176c1.254-2.999-6.278-5.29-3.951-9.002c5.823-9.283,5.653-15.331,4.642-25.519
		c-0.607-6.108,8.913-7.475,12.147-12.068c2.2-3.122,3.62-10.323,7.604-10.683l31.799-2.869c4.679-0.422,5.782,3.217,9.974,3.067
		c1.453-0.052,6.401-9.506,7.505-11.474c3.14-3.146,6.259,0.275,7.011-6.33c0.716-6.291-1.29-12.474,5.135-16.321
		c7.359-4.405,6.132-4.452,2.271-12.858c-2.533-5.517-3.458-11.502-1.58-17.409c0.901-2.835,4.693-4.9,4.839-7.814
		c0.299-5.95-0.389-7.333,5.925-10.584c6.798-3.501,15.508-5.674,22.812-7.912c7.172,1.073,14.281-0.59,15.604-8.705
		c2.626-16.101,16.538-6.742,23.8-18.101c2.343-3.666-2.242-6.811-3.357-10.089c-0.928-2.725-0.906-3.928,1.086-6.034
		c2.789-2.95,3.69-5.74,5.53-9.199c2.81-4.925,1.036-4.326-1.876-7.616c-1.785-2.015-4.838-3.492-4.345-6.627
		c0.873-5.557-1.532-9.664-5.432-13.354c-3.177-3.009-1.119-6.302-3.753-9.1c-4.095-4.349-6.984-7.319-9.381-12.957
		c-0.55-1.293-1.874-2.065-2.271-3.265c-2.257-6.789-3.817-4.366-10.567-5.638c-2.139-1.606-8.787-8.418-7.209-11.177
		c5.691-1.038,13.838-11.084,18.467-14.837c5.307-4.301,6.358-13.051,13.529-15.925c2.501-1.002,8.465,6.529,12.245,6.924
		c4.152,0.434,18.719-5.557,21.923-8.308c5.679-4.88,11.12-16.792,13.036-24.135c4.144-5.104,23.992-7.924,21.134-15.43
		c-1.231-3.231-1.12-8.345,2.666-9.792c2.396-0.915,3.868,1.88,6.617,1.978c3.554,0.128,4.385-2.944,6.419-5.242
		c3.647-4.12,10.322-3.916,12.146-10.287c1.061-3.707-0.779-6.84-0.297-10.485c0.655-4.957-5.636-4.553-8.887-6.43
		c-7.394-4.271-1.044-7.102,2.469-12.364c6.252-7.234,6.273-1.013,13.232-6.43l17.282-13.452c5.96-4.64,8.809-5.628,15.9-5.44
		c7.983,0.211,24.791-12.462,30.613-9.891c1.867,0.824,8.825,8.9,9.974,10.88c2.207,3.806,1.322,6.08-0.296,9.891
		c-1.002,2.361-2.577,14.433-0.988,15.629c2.453,1.844,3.736,4.064,2.172,7.023c-1.591,3.013,0.817,6.645,2.074,9.496
		c1.807,4.637-3.749,6.54-1.184,12.364c1.638,3.717,2.469,7.674,2.469,11.869c0,6.653-5.594,9.662-3.16,16.025
		c1.214,3.172,1.274,6.563,0.691,9.891c-0.281,1.602-6.384,9.576-7.505,10.287c-1.857,4.907-5.209,0.361-4.543,8.209
		c0.373,4.39-1.781,6.885-5.432,8.606c-9.54,4.498,17.067,23.353,10.666,31.751c-4.961,6.507-7.3,11.092,4.049,11.375
		c4.374,0.109,4.228,2.078,3.851,5.539c-0.476,4.374,1.925,5.743,5.037,7.814c1.488,2.118,10.395,0.71,13.331,1.781
		c3.244,1.181,4.559,5.088,6.814,7.22c3.638,3.44,10.046-6.82,11.455,3.166c0.475,3.37,2.882,10.451,5.531,12.661
		c2.432,2.031,4.521,3.589,6.32,6.132c1.2,1.698,0.431,4.094,2.074,5.737c2.285,2.285,5.361,2.508,6.123,6.33
		c0.62,3.107-0.174,9.533,3.555,10.782c5.16,2.14,9.497,4.865,14.715,6.033c3.219,0.719-3.859,7.531-3.753,9.891
		c0.113,2.53,7.14,3.531,7.505,7.518c1.732,18.888,7.581,5.315,17.973,6.529c5.333,0.623,4.954,9.317,10.369,10.089
		c3.458,0.492,8.924-1.555,11.653,0.792c3.736,3.214,3.78,4.842,8.986,7.023c1.47,0.616,3.641,1.099,4.839,2.077
		c0.223,0.183,2.119,2.25,2.369,1.484c2.667-1.587,15.31-15.677,16.097-18.893c0.656-0.092,0.341,0.049,0.791,0.198
		c0,4.187,12.02,16.968,15.307,19.584c7.802,6.21,10.868,1.876,16.59-2.77c4.347-3.528,5.019-0.694,7.999,2.671
		c4.14,4.677,7.76,10.051,13.431,13.057c9.015,4.777,7.9,3.495,7.9,13.254c-1.052,3.075-0.268,7.11-2.469,9.595
		c-1.94,2.192-2.964,2.914-5.925,1.681c-4.522-1.884-5.052,2.05-4.543,5.242c0.618,3.871-2.738,7.381-4.74,10.386
		c-4.381,4.688-9.934,4.791-13.925,9.891c-3.662,4.679-1.136,10.035-3.456,14.244c-1.055,1.913-4.368,4.198-3.259,6.824
		c1.197,2.837,6.018,1.267,8.098,0.495c6.199-2.303,6.14,3.359,12.245,2.572c2.053-0.264,4.455-1.055,6.321,0.297
		c3.224,2.333,2.631,3.568,4.344,6.824c0.607,1.152,2.106,1.49,2.568,2.769c4.65,4.659,13.358,15.156,21.034,13.848
		c8.173-1.392,11.298,2.883,7.604,10.287c-2.633,5.277-1.297,7.996,0,13.057c1.538,6.004,8.638,7.295,10.468,13.156
		c0.132,1.624,1.622,3.521,2.271,5.045c0.792,1.862,0.296,2.849-0.297,4.648c-1.137,3.459,2.027,4.443,2.765,7.32
		c2.298,7.34,0.451,17.507,9.085,17.507c0,1.325-10.767,10.326-12.542,13.156c-2.186,3.485-7.181,13.066-5.925,16.914
		c5.844-1.468,23.175-13.851,27.553-7.518c2.035,2.943,4.648,6.883,8.888,5.342c4.172-1.516,4.899-5.693,10.171-2.572
		c5.982,3.539-7.642,13.505,6.32,14.936c12.319,1.262,15.053-4.667,16.887-15.727c0.963-5.805,5.421-8.879,6.32-14.145
		c1.823-5.51,1.279-10.287,5.629-14.441c2.97-2.836,11.949-6.21,11.949-11.375c0-4.943,4.038-4.073,5.037-8.111
		c1.825-7.373-7.136,0.847-7.999-4.353c-0.298-1.795,0.937-5.226-0.098-6.726c-1.491-2.163-6.02-1.382-7.999-4.451
		c-4.947-7.675-12.847-7.919-20.739-9.891l-0.395-1.385c1.552-2.339-0.511-5.945-2.568-7.221c-3.066-1.904,0.3-4.166,0.396-6.429
		c0.068-1.601-0.198-3.302-0.198-4.946c0-10.811-8.469-6.092-14.715-10.682c-4.242-3.119,4.444-2.942,4.444-6.925
		c0-1.282-2.382-2.869,0.691-2.869c2.387,0,4.181-0.653,3.155-3.363c2.277-0.948,7.531-4.62,8.888-6.726
		c2.103-3.266,0.893-5.598,0.099-9.002c-1.712-7.336,1.566-10.269-4.049-16.32c-3.562-3.84-1.064-8.684-0.297-12.958
		c0.441-2.454,3.223-4.576,3.16-6.528c3.552-3.008,15.585-11.344,20.343-10.484c9.315,1.682,13.332,3.151,13.332-8.409
		c0-4.079,1.148-6.028,3.951-9.001c2.644-2.803-1.218-13.316-2.765-16.222c-2.279-7.993-6.302-10.988,2.074-14.738
		c4.885-2.186,11.828-8.34,16.294-8.507c4.992-0.187,5.948-9.876,8.492-13.354c4.461-6.102,10.448-6.421,15.307-10.584
		c3.652-3.13-0.031-5.429,6.814-6.725c4.926-0.933,8.468-0.986,12.344-4.353c3.152-2.74,2.039-10.81,1.876-14.738
		c1.422-3.723,1.336-8.549,5.135-10.287c4.505-2.063,6.501-1.679,8.591-6.925c1.173-2.943-1.777-4.579-1.777-6.33
		c1.887-1.402,6.692-5.217,8.789-5.736c3.477-0.861,6.673,4.26,7.9-2.176c1.409-7.392,0.189-16.454,1.876-23.641
		c0.413-1.759,2.543-2.564,2.963-4.155c0.496-1.878-0.146-4.248,1.185-5.935c2.082-2.64,4.436-2.322,5.234-6.43
		c2.436-3.255,7.807-7.025,8.393-11.276c0.386-2.811-2.269-5.742-1.876-8.209c0.418-2.61,12.345-8.304,9.875-13.255
		c-1.178-2.36-4.877-6.858-3.061-9.496c2.339-3.395,2.413-9.645-1.777-11.771c-7.929-4.021-9.908-14.588-4.839-21.562
		c3.615-6.224,0.688-5.964-2.863-9.793c-4.675-5.039,1.213-6.277,2.666-10.089c0.801-2.1-2.863-5.768-3.95-7.617
		c-2.695-4.579-9.922-2.498-11.85-6.429c-2.234-4.558-7.339-16.266-1.185-19.585c3.099-1.672,10.342-0.312,10.961-4.55
		c6.959-6.557,6.621-13.513,2.865-21.662c-1.807-3.92,2.534-12.12,7.011-12.76c4.761-0.681,10.093-2.683,14.714-4.252
		c6.846-2.325,16.361,1.065,21.034-1.187c1.766-0.85,4.527-4.769,6.32-3.66c6.795,4.202,1.517,11.154,6.518,17.508l8.097,10.287
		c15,19.056,14.146-5.916,20.936-15.728c3.364-4.859,11.786-5.42,14.121-10.485c3.847-8.347,4.264,11.061,4.05,13.155
		c-0.553,5.387-8.421,3.145-5.925,7.122c2.472,3.941,4.761,3.365,8.295,3.957c0.288,2.016-0.289,4.251-0.889,6.231
		c-3.429,6.875-0.938,12.104-1.877,19.486c-0.792,6.222-3.948,14.62-1.678,20.574c1.423,3.729,4.191,11.931,3.16,15.727
		c0.818,4.543,2.221,7.881,0.889,12.464c-0.9,3.095-3.466,4.514,0.197,7.122c5.306,3.78,16.943,6.573,19.652,12.464
		c2.249,4.893,2.946,10.742,4.543,15.925c0.938,3.05,3.315,5.505,2.963,8.901c6.01,6.031,10.556,12.845,17.183,18.398
		c5.332,4.469,7.745-4.48,11.456,0.198c2.278,2.873,4.448,6.044,7.9,7.517c4.962,2.118,10.464-4.145,14.22,0.099
		c6.136,6.931,11.142,9.516,20.64,6.231c3.136-1.085,12.588-6.884,13.331-10.188c6.463-5.943,6.54,6.415,15.306,6.133
		c5.972-0.191,11.958-0.551,10.765-7.122c-1.129-6.225,3.842-6.496,4.049-10.385c0.37-6.984-9.16-5.323-0.593-12.662
		c4.637-3.973-3.707-16.627,8.888-16.222c14.313,0.46,12.385,20.682,27.552,6.825c4.51-4.121,11.952-5.712,17.183-8.606
		c3.124-1.729,3.177-5.562,4.642-6.429c4.445-2.629,18.872,0.376,20.046-0.495c1.891-1.688,7.23-4.063,8.197-6.33
		c0.941-2.211-0.266-3.215,2.666-3.957c4.518-1.143,8.822-0.729,10.567-5.638c0.851-2.391,8.392,12.023,11.752,11.771
		c4.535-0.34,4.041-8.827,8.986-10.287c10.376-3.063,6.506,1.151,9.48,9.001c1.099,2.901,5.426,6.117,7.406,8.705
		c2.899,3.793,8.149,4.351,12.641,4.351c4.432,0-3.057,9.692-4.543,10.683c-0.455,4.091-4.266,7.303-3.16,11.771
		c0.575,2.326,5.355,4.827,7.11,6.231c5.744,4.596,5.802,11.04-1.58,14.541c-1.516,0.718,1.126,6.949,1.777,8.507
		c1.756,4.202,12.718,6.531,16.788,7.22c7.278,1.232,15.805,9.897,19.06,16.42c1.913,4.213-0.77,13.925-3.95,17.111
		c-0.477,0.476-3.061,1.738-3.061,2.176c0,2.494,10.243,11.672,12.837,11.672c2.686,0,5.109-5.902,7.506-7.319
		c2.145-1.268,4.249-0.622,6.517-0.989c3.783,0.177,7.768,0.083,11.259,1.681c2.089,0.956,4.182,1.361,6.418,0.989
		c4.098-0.681,7.753-3.38,9.382-7.518c3.62-9.191,16.853-11.425,15.9-21.761c-1.543-3.707-6.32-6.39-6.32-10.188
		c0-4.534-2.382-4.368-3.851-7.518c-0.886-1.898,0.061-4.128-0.89-6.034c-1.48-2.968-5.017-3.687-7.011-5.935
		c-2.794-3.151-2.835-8.339-7.011-9.891c-2.536-0.941-5.093-1.288-6.616-3.758c-3.008-4.875-5.447-12.97-5.234-18.695
		c0.181-4.843,2.695-6.526,3.654-10.485c9.237-7.397,8.094-5.037,6.32-16.32c-0.533-3.388,7.135-9.115,10.171-10.386
		c3.233-1.355,7.128,3.293,9.085-2.374c1.756-5.086-0.609-7.729,2.271-12.76c2.813-4.916-1.624-9.998-7.21-7.419
		c-3.281,1.514-1.524-5.276-2.073-7.221c-1.107-3.926-5.46-7.12-9.382-6.231l-13.529,3.066c-3.803,0.862-2.155,5.342-7.111,5.342
		c-3.043,0-5.606,0.232-8.197-1.781c-1.919-1.489-0.402-6.684-3.95-5.638c-8.062,2.376-6.481-6.47-13.825-9.594
		c-9.042-6.655,1.673-10.357,3.555-16.519c2.045-6.699-8.227-11.224-4.838-15.727c2.643-3.515-1.422-6.628,0.295-9.496
		c0.781-1.306,1.964-3.58,1.482-5.144c-0.565-1.829-2.907-3.329-3.062-5.935c-0.062-1.059,4.78-1.987,5.333-4.946
		c0.871-4.668,1.145-7.375-0.197-12.166c2.501-4.305-4.296-7.268-1.58-9.991c3.512-3.52,8.088-0.277,10.863-5.836
		c1.239-2.481,0.119-5.758,1.777-7.813c2.185-2.708,7.638-2.289,6.617-6.628c-2.08-8.844-2.285-5.208,5.036-6.528
		c6.645-1.199,4.385-12.16,2.173-15.925c-0.405-0.691,3.844-6.914,4.049-8.507c0.646-5.032,0.898-5.288,5.234-1.681
		c3.51,2.918,12.385,5.223,14.22-0.792c8.227-4.941,17.923-5.298,24.984-11.573c6.123-5.44,9.937,9.141,16.294,5.242
		c4.502-2.76,4.483-8.764,7.901-11.276c4.476-3.29,7.235-2.301,8.098,3.957c1.016,7.36,11.043,8.178,6.123,16.023
		c-2.252,3.589-7.407,9.667-7.407,13.651c0,1.989,2.357,5.805,1.482,7.419c3.311,3.594,0.486,6.383,7.308,7.121
		c2.98,0.321,4.706-1.507,7.406-2.473c5.709-2.042,4.644,0.145,8.394,4.649c4.721,5.673,10.657,19.088,19.652,16.124
		c1.411-0.465,4.585-3.848,5.53-2.968c1.47,1.366,2.007,6.592,5.234,5.242c3.014-1.26,6.454-2.401,6.715-6.132
		c0.431-6.154,6.364,0.329,8.295-0.298c9.761,2.042,17.615,12.641,25.479,2.869c2.816-3.498,15.534,10.751,18.96,13.651
		c4.683,3.965,4.695-3.386,6.912-5.737c1.844-1.956,4.319-2.983,6.025-5.144c4.96-6.284,4.492-17.862,5.629-25.519
		c0.852-5.743,2.042-9.281,0.889-15.233c-2.181-7.103,3.752-7.792,3.752-12.76c-4.666-3.899-10.289-6.958-14.023-12.265
		c-4.35-6.183-8.153-9.903-16.195-8.803c-4.044,0.553-12.511,4.808-15.998,3.561c-4.906-1.755-4.963-8.229-7.111-12.364
		c-3.406-6.557,1.677-16.204-4.345-21.563c-0.104-1.819-2.788-7.049-0.79-7.814c2.136-0.819,4.548-1.028,5.925-3.165
		c1.921-2.98,2.251-9.259,4.543-11.079c1.586-1.261,4.651,0.453,5.728-2.176c0.684-1.668,1.829-7.369,1.383-9.1
		c-0.646-2.508-6.077-10.058-8.097-11.079l-0.099-0.197c0-3.386,12.682-6.257,12.838-11.177c3.945-3.209,12.509-6.227,10.37-12.266
		l-4.938-13.946c-0.734-2.072-6.518-6.61-6.518-7.023c0-1.354,5.179-7.914,5.531-7.914c7.715,0,10.297-3.901,12.146-11.473
		c0.595-2.438-1.954-8.212,1.482-8.705c0.854-2.009-0.193-6.82,0.493-9.594c2.81-0.702,4.875-0.474,2.865-4.155
		c-1.52-2.785,2.338-4.294,3.851-6.429l-0.381-6.925l0,0c0.874-2.612,1.418-7.059,1.283-9.792
		c-0.195-3.953-1.875-7.534-1.875-11.573c0-7.65,3.909-12.49,5.234-19.585c1.093-3.304,4.443-5.831,4.443-9.595
		c0-3.537-3.214-5.289-1.383-9.396c0.655-1.469,2.889-3.789,2.765-5.341c-0.065-0.809-7.317-2.746-8.295-3.165
		c-1.681-0.72-2.744-2.517-4.247-3.561c-5.392-3.742-11.299-6.121-17.677-7.715c-15.451-0.776,0.086-16.031-7.209-19.684
		c-4.158-2.081-15.608-17.394-18.368-16.816c-6.658,1.393-4.447,11.382-13.727,8.013c-8.563-3.109-10.807,5.761-13.825,12.166
		c-2.545,5.398-4.684,21.069-11.752,21.069c-6.445,0-6.658,5.988-4.049,11.869c2.793,6.292,7.282,7.176-3.062,8.507
		c-2.757,0.354-4.035,3.457-5.234,3.264c-3.803-0.609-6.484-3.449-10.072-4.253c-8.26-1.85-17.427-9.882-19.948,1.088
		c-0.267,5.312-0.228,15.203-3.951,19.387c-3.932,4.421-1.013,8.346-0.098,13.155c0.71,3.728,0.364,7.725,1.086,11.574
		c0.813,4.326-9.782,2.314-12.542,4.154c-2.796,1.866-5.469,0.888-8.295-0.297c-4.391-1.838-11.36,12.167-18.467,12.364
		c-3.294,0.863-6.589-0.736-9.382,0.197c-2.552,0.852-4.411,3.243-7.209,2.869c-5.546-0.741-10.7,5.268-13.431,4.253
		c-3.712-1.379-4.724-5.369-7.604-6.529c-5.686-14.228-26.742-3.92-23.108-19.485c1.087-4.66-0.728-5.174-4.642-7.518
		c-3.925-2.351-10.041-8.313-12.64-12.068c-2.854-4.125-12.481,2.862-18.368-4.846c-2.316-3.031-2.884-7.422-4.345-9.397
		c-1.139,0-2.923,1.753-4.345,2.078c-3.69,0-6.687-2.286-10.369-1.88c-3.296,0.363-6.163,1.165-9.481,0.692
		c-2.971-0.424-13.123-6.156-15.8-8.012c-3.71-2.57-6.038-5.336-10.468-7.518c-4.432-2.184-6.31-6.409-5.531-11.276
		c0.913-5.71-3.989-11.077-1.876-15.134c1.7-3.261,0.683-4.206,1.086-7.518c0.276-2.273,5.883-3.996,5.135-7.122
		c-1-4.184,6.01-2.686,3.753-7.913c-2.864-5.757-5.854-5.794-9.974-10.287c-4.126-4.501-1.058-5.771,2.469-9.298
		c-0.045-0.181-0.068-0.18-0.099-0.396c-2.487-0.84-9.566-2.69-11.949-0.89c-3.507,2.648-11.947,8.367-15.406,2.769
		c-2.435-3.939-4.701-2.557-8.296-4.056c-2.116-0.881-9.747-5.631-11.258-7.319c-8.059-9.001-7.451-4.846-18.565-4.846
		c-6.606,1.032-8.206-4.359-13.628-6.034c-4.601-1.422-9.669,1.091-13.53-3.264c-1.662-1.873-0.083-3.904-3.357-4.154
		c-6.55-0.499-6.737-2.107-11.258-5.341c0-0.676-0.437-1.381-0.691-1.978c-4.68,0-9.116,3.377-14.714,2.967
		c-4.881-0.359-6.046-0.279-8.197,4.55c-3.021,6.787-15.083-3.548-18.862-4.649l0,0l-4.74,1.187
		c-4.77,1.475-9.955,2.324-14.616,4.056c-2.524,0.938-8.106,5.097-8.789,0.297c-1.226-8.617-4.363-11.387-12.64-7.715
		c-5.636,2.499-9.768,4.154-15.999,4.154c-3.47,0-5.162,2.262-8.295,3.066l-4.655,4.175c-2.721-4.805-5.11-10.221-2.85-15.352
		c1.891-4.294,8.457-5.752,12.146-8.309c7.748-5.372,12.147-10.384,12.345-19.783c0.18-8.531-3.228-21.58-5.925-29.674
		c-2.524-7.575-8.365-13.358-9.974-21.168c-1.192-5.784-2.432-11.965-2.371-17.903c0.09-8.759,7.26-12.957,7.901-21.365
		c0.56-7.343,4.106-11.332,7.604-17.508c2.391-4.222,4.328-8.661,6.024-13.254c1.663-4.505,1.15-11.459,2.967-16.22l0,0
		c0.605-1.587,1.471-2.931,2.761-3.86c10.278-7.398,7.97-18.6,19.06-23.245c12.697-5.318,11.721-18.498,15.702-29.279
		c2.701-7.317,6.069-10.127,10.962-15.232c4.49-4.684,7.91-7.221,14.911-7.221c4.141,0,9.74-1.501,12.345-4.748
		c6.317-7.874,4.688-12.309-1.482-18.496c-4.183-4.194-5.99-9.631-7.011-15.233c-1.043-5.719-5.302-18.069-1.678-22.355
		c1.193-1.412,2.471-2.408,3.742-3.312c-2.66-2.723-5.865-6.795-9.075-8.657c-2.92-1.693-6.573-1.823-9.875-2.374
		c-4.548-0.757-13.113-0.33-15.899-4.451c-1.863-2.755-3.389-5.929-4.345-9.199c-1.304-4.463-5.508-8.637-9.176-11.203l-4.354-5.415
		l0,0c-0.899-4.573-6.312,4.393-7.209,5.638c-3.561,4.938-4.375,7.006-11.06,8.407c-13.449,2.818-25.286,2.593-30.614-10.485
		c-1.971-4.835-13.233-1.036-13.233-10.287l-0.099-0.099c-1.536,0-2.494,0.884-4.147,0.792c-1.894-0.106-0.414-3.076-1.58-3.462
		c0-1.019,1.059-1.287,1.975-1.287c0.041-0.122,0.117-0.252,0.297-0.297c1.761-7.156-8.231-5.972-11.258-11.276
		c-2.704-3.724-7.206-7.973-10.961-10.584c-2.918-2.03-5.05-7.314-7.505-8.606c-3.64-1.914-3.69-15.067,0.098-16.32l-16.886-10.189
		c-7.686-4.637-18.578-9.56-24.195-16.716c-5.103-3.722-9.145-9.058-15.011-12.167c-6.16-3.263-12.922-5.741-18.664-9.496
		c-4.462-2.916-5.839-4.012-11.159-5.341c-4.891-1.221-7.459-7.122-11.159-7.122c-6.507,0-13.683-5.195-15.603-11.77
		c-0.774-2.058-0.849-3.459-0.44-4.379c0.227-0.5,0.199-0.338-0.233-0.719c-0.766-0.671-1.452-1.479-2.383-1.857
		c-1.976-0.805-3.557-1.434-5.778-1.434c-1.753,0-3.196,0.135-4.839,0.692c-3.026,1.027-8.806,6.015-11.999,2.522
		c-0.938-1.027-2.422-1.371-3.633-2.056c-4.682-1.861-14.917-8.273-18.493-9.485c-6.047-2.048-12.777-0.04-18.566-3.165
		c-13.439-7.252-31.37,0.931-43.056,7.221c-7.465,4.017-13.465,10.819-21.277,14.015c-3.164,1.668-9.402,4.367-12.986,4.451
		c-3.849,0.091-6.721,1.322-10.37,1.88c-6.27,0.96-9.277-5.615-14.588-5.467c-2.039-4.59-3.029-17.038-7.833-19.33
		c-1.141-0.544-5.762-2.819-5.529-4.055c0.703-3.719,5.059-3.183,2.863-7.122c-2.05-3.68,3.718-4.973,5.234-3.462
		c6.192,6.166,4.399-1.966,2.864-5.737c-0.406-0.996-8.675-0.791-10.072-0.89c-4.377-0.31-3.808-3.514-6.123-5.836
		c-2.67-2.676-10.369,2.95-10.567-0.396c-0.071-1.202,1.819-4.318,0.988-4.55c-1.447-0.405-3.95,0.846-4.345-1.088
		c-0.456-2.231-2.636-2.576-4.246-3.659c-3.418-2.301,3.763-9.764-1.876-8.112c-3.628,1.062-1.446,5.54-6.024,5.54
		c-4.168,0-3.71-0.42-6.617,3.264c-1.362,1.725-6.45,3.636-6.518,4.847c-0.134,2.404,1.284,5.179,1.284,7.814
		c2.736,0.677,6.497,2.016,9.579,2.274c8.221,0.689,2.036,3.627,5.036,6.627c1.322,1.322,4.189,0.545,5.827,1.386
		c2.74,1.405-5.264,3.76-5.629,4.154c-4.159,4.482,0.319,8.575-2.81,13.186c-2.106-0.2-4.421-0.923-7.263-2.602
		c-9.842-5.811-10.396-10.565-22.813-11.968c-1.691-0.19-3.567,0.04-5.493,0.407l-1.419-6.837
		c1.338-1.683,3.885-10.564,4.148-12.859c0.982-8.569-9.177-2.926-10.962-9.297c-1.395-4.984-0.662-7.308,2.568-11.079
		c3.765-4.393,5.432-4.716,11.06-5.539c3.824-0.559-0.878-5.467-2.173-6.33c-2.991-2.999-5.17-6.592-9.085-8.013
		c-4.749-1.725-9.845,5.829-16.392,5.243c-2.503-3.519-5.23-9.201-0.791-12.364c0.335-2.677-2.469-5.317-2.469-9.101
		c-3.994-1.303-5.315-1.216-9.382-3.659c-5.721-3.435-2.76-4.606-4.74-9.199c-4.801,0-4.237,13.462-3.654,16.518
		c1.493,7.833-0.877,13.025-9.381,16.419c-3.652,1.458-3.767-2.683-5.036-5.736c-1.619-3.89-3.904-10.378-3.062-14.441
		c0.448-2.162,3.071-7.67,1.284-9.595c-2.166-2.335-7.071-5.262-10.271-3.66c-6.468,3.237-4.769-1.912-12.443-0.396
		c-3.16,0.624-1.933-4.454-3.654-4.352c-3.644,0.216-4.326,5.009-5.728,7.616c0,7.197,4.277,3.894,7.406,7.023
		c1.515,1.515,2.085,4.802,0.198,6.33c-8.051,6.526-7.557-6.088-15.801-1.484c-2.979,1.663-10.353,3.176-11.652,6.529
		c-2.879,7.433-5.508-1.561-9.481,0.297c-2.091,0.979-5.383,4.261-7.801,2.769c-5.674-3.501-14.349,11.429-16.986,15.233
		c-1.171,1.689-6.593,10.935-6.321,12.265c0.409,2.006,1.662,4.91,2.568,6.726c-2.363,5.362-3.658,5.551-8.097,8.705
		c-2.498,1.773-6.53,4.805-9.283,6.034c-2.186,0.977-4.275,0.971-5.531,2.571c-7.458,9.494,4.085,14.012,2.963,21.366
		c-0.672,4.398-13.706,3.864-4.938,11.078c3.1,2.549,5.197,2.071,8.789,2.968c4.416,1.104,3.538,5.405,6.222,7.419
		c1.594,1.195,9.609,2.576,11.455,1.978c1.835-0.596,1.506-3.165,3.358-3.165c0.031,0.126,0.068,0.171,0.099,0.297
		c0.592,0.149-0.791,5.701-0.791,6.628c0,1.944,2.309,4.991,3.359,6.726c1.474,1.722,5.624,0.386,3.555-0.99
		c-1.068-0.709-4.098-2.627-0.791-3.462c0.678-2.686,2.994-4.383,3.951,0.198c0.439,2.102,6.582,3.039,7.308,0.098
		c1.721-6.955,17.037,4.232,19.454-1.186c2.175-4.879-1.777-7.451-1.777-11.475c2.214-0.548,4.403-2.229,5.037,1.088
		c0.938,4.918,2.634,1.888,2.469-1.186l-0.197-3.66c2.136-0.721,4.907-1.199,7.209-2.077c4.122-1.572,4.216-3.694,5.531,1.681
		c0.465,1.902,3.725,0.952,5.135,1.286c0.948,0.223,0.974,1.682,1.876,1.682c2.187,0,5.867-3.485,7.703-4.649
		c4.13-2.624,2.316-4.905,8.197-3.067c1.325,8.991,3.781,9.74,10.961,14.936c6.108,4.421-2.267,13.659-7.703,13.947
		c-14.315,0.762,5.653-5.488-0.987-12.167c-3.083-3.101-6.669,4.912-7.703,7.023c-5.178,10.578,9.954,22.725,1.382,30.07
		l-4.937,1.681c-4.364,1.17-5.436,6.314-9.777,6.529c-4.52,0.223-3.126-5.579-4.938-6.034c0-2.821,1.027-6.186,3.851-7.221
		c3.371-1.237-2.843-0.644-2.963-2.67c-0.488-8.182-8.625-8.161-13.924-10.98c-1.4-0.744-1.426-2.114-2.865-2.473
		c-4.045-1.011-11.334-3.841-10.072,3.957c0.919,5.681-11.825,9.986-16.295,10.88c-4.904,0.98-5.387,2.269-8.197,6.33
		c-2.566,3.707-9.062,1.216-6.715,6.726c1.743,4.091,1.508,8.134,5.925,9.694c5.292,1.87,7.842-1.95,11.554-1.187
		c2.039,0.42,2.784,4.929,1.991,6.546c-1.23,0.181-2.436,0.51-3.623,0.932c-5.274,1.877-10.199,5.595-15.453,6.37
		c-6.254,0.922-15.137,4.895-20.046,2.176c-11.051-6.121-14.341-12.616-21.924,0.494c-1.418,2.453-9.918-1.787-12.937-1.978
		c-7.996-0.505-14.711,1.235-21.726-2.769c-4.615-2.634-2.563-7.929-8.888-9.497c-4.792-1.187-6.214-6.015-5.332-10.584
		c0.191-0.994,1.553-7.535,0.592-8.012c-0.175-0.087-0.237-0.111-0.297-0.297c-0.728-2.261-9.833-2.741-11.85-2.374
		c-5.646,1.029-7.122,2.651-8.691-3.66c-0.01-0.044-0.053-0.099-0.099-0.099c-2.163-0.032-3.833,1.099-5.629,2.275
		c-1.745,1.143-2.865,0.005-4.543,0.692c-3.662,1.502-6.153,9.443-8.691,5.045c-2.325-4.03,0.283-8.533-3.555-11.968
		c-3.976-3.56-10.288,0.302-12.542,4.55c-1.465,2.761-3.753,6.783-6.617,8.209c-4.363,2.173-7.668,7.171-12.344,7.419
		c-3.352,0.178-9.652-1.633-10.863,3.264c-2.443,9.878-5.984,4.712-13.925,6.232c-7.349,1.406-5.865,8.745-7.505,14.046
		c-1.092,3.532-6.2,9.713-10.073,6.231c-9.811-8.819-12.562,1.997-22.713,3.957c-7.817,1.509-11.534,6.159-17.578-0.396
		c-2.76-2.993-11.87,0.396-15.505,0.396c-9.226,0-12.224-8.395-17.874,4.253c-3.124,6.993-16.893,2.707-20.146-2.473
		c-1.637-2.608-2.636-4.135-2.37-7.419c0.123-1.527,1.546-3.115,1.777-5.144c0.404-3.537-3.55-10.058-6.221-12.067
		c-3.417-2.569-4.711-4.43-9.283-5.341c-6.874-1.371-11.015-1.013-16.196,3.561c-6.463,5.705-9.374-3.938-15.8-2.275
		c-8.144,2.107-4.458,7.072-7.407,13.749c-2.334,5.286-11.017,11.17-15.899,13.848c-4.926,2.701-9.796,3.206-15.01,6.43
		c-4.372,2.703-12.03,1.076-17.085,1.78c-9.343,1.304-23.372,18.062-33.675-0.99c-2.304-4.26-4.061-4.483-6.045-5.075l0.416-1.948
		c2.017-1.792,3.465-3.312,5.728-4.847c1.913-1.298,1.917-3.55,3.061-4.451c3.728-2.935,5.91,1.839,8.296-0.297
		c1.746-1.565-0.691-4.551-2.173-5.045c0.422-1.689,4.142-0.517,4.642-1.979c0.361-1.053-0.376-3.087-0.889-4.055
		c-1.688-3.193-6.618-5.676-4.345-9.595c1.067-1.839,5.431-4.194,5.431-5.737c-4.092-1.335-4.625,1.343-8.986,3.067
		c-3.992,1.577-8.14,5.143-12.641,5.143c-2.184,0-3.135-2.218-5.629-1.484c-4.532,1.333-6.361,8.21-10.468,8.21
		c-2.411,0-4.686-0.159-6.617-1.78c-3.847-3.229-2.792-8.989-7.327-11.459l0,0L940.655,202.043z"/>
	<polygon fill="#FFFFFF" points="1647.022,631.621 1396.407,631.621 1396.407,381.005 1181.593,381.005 1181.593,631.621 
		930.978,631.621 930.978,846.434 1181.593,846.434 1181.593,1097.05 1396.407,1097.05 1396.407,846.434 1647.022,846.434 	"/>
</g>
</svg>
